<svg xmlns="http://www.w3.org/2000/svg" xmlns:xlink="http://www.w3.org/1999/xlink" width="90" height="90" viewBox="0 0 90 90">
  <defs>
    <linearGradient id="linear-gradient" x1="-0.016" y1="0.148" x2="0.772" y2="0.844" gradientUnits="objectBoundingBox">
      <stop offset="0"/>
      <stop offset="1" stop-opacity="0"/>
    </linearGradient>
  </defs>
  <g id="number-2_3840738_1_" data-name="number-2_3840738 (1)" transform="translate(-6.354 -6.354)">
    <path id="Trazado_982810" data-name="Trazado 982810" d="M45,0A45,45,0,1,1,0,45,45,45,0,0,1,45,0Z" transform="translate(6.354 6.354)" fill="#f1c112"/>
    <path id="Trazado_982808" data-name="Trazado 982808" d="M223.435,164.015l-31.1-31.1c-2.864-3.007-7.229-4.784-12.488-4.784-9.877,0-15.856,6.029-15.856,15.151v.835l12.129,12.129c-3.019,3.749-7.169,8.694-12.857,15.4v2.746L185.074,196.2A45.262,45.262,0,0,0,223.435,164.015Z" transform="translate(-128.684 -99.907)" opacity="0.49" fill="url(#linear-gradient)"/>
    <path id="Trazado_982809" data-name="Trazado 982809" d="M196.814,163.693v10.7H163.262v-2.746c18.151-21.408,20.651-24.868,20.651-28.741a3.811,3.811,0,0,0-3.922-4.086c-2.533,0-4.077,1.708-4.077,4.424v.872H163.989v-.835c0-9.121,5.978-15.151,15.856-15.151,9.569,0,16.176,5.883,16.176,14.353,0,5.677-2.1,10.034-11.749,21.211Z" transform="translate(-128.684 -99.907)" fill="#fff"/>
  </g>
</svg>
