<svg xmlns="http://www.w3.org/2000/svg" xmlns:xlink="http://www.w3.org/1999/xlink" width="473" height="237" viewBox="0 0 473 237">
  <defs>
    <clipPath id="clip-path">
      <rect id="Rectángulo_406368" data-name="Rectángulo 406368" width="473" height="237" transform="translate(206.051 6443)" fill="#fff" stroke="#707070" stroke-width="1"/>
    </clipPath>
    <clipPath id="clip-path-2">
      <rect id="Rectángulo_406347" data-name="Rectángulo 406347" width="229.132" height="237.171" fill="none"/>
    </clipPath>
    <clipPath id="clip-path-3">
      <rect id="Rectángulo_406331" data-name="Rectángulo 406331" width="229.132" height="239.688" fill="none"/>
    </clipPath>
    <clipPath id="clip-path-4">
      <rect id="Rectángulo_406345" data-name="Rectángulo 406345" width="229.133" height="237.171" fill="none"/>
    </clipPath>
    <clipPath id="clip-path-5">
      <rect id="Rectángulo_406335" data-name="Rectángulo 406335" width="44.047" height="64.635" fill="none"/>
    </clipPath>
    <clipPath id="clip-path-6">
      <rect id="Rectángulo_406336" data-name="Rectángulo 406336" width="63.482" height="18.273" fill="none"/>
    </clipPath>
    <clipPath id="clip-path-7">
      <rect id="Rectángulo_406337" data-name="Rectángulo 406337" width="6.818" height="3.739" fill="none"/>
    </clipPath>
    <clipPath id="clip-path-8">
      <rect id="Rectángulo_406338" data-name="Rectángulo 406338" width="21.453" height="34.15" fill="none"/>
    </clipPath>
    <clipPath id="clip-path-9">
      <rect id="Rectángulo_406339" data-name="Rectángulo 406339" width="25.91" height="14.975" fill="none"/>
    </clipPath>
    <clipPath id="clip-path-10">
      <rect id="Rectángulo_406340" data-name="Rectángulo 406340" width="24.439" height="38.481" fill="none"/>
    </clipPath>
    <clipPath id="clip-path-11">
      <rect id="Rectángulo_406341" data-name="Rectángulo 406341" width="16.421" height="13.909" fill="none"/>
    </clipPath>
    <clipPath id="clip-path-12">
      <rect id="Rectángulo_406342" data-name="Rectángulo 406342" width="30.609" height="9.272" fill="none"/>
    </clipPath>
    <clipPath id="clip-path-13">
      <rect id="Rectángulo_406343" data-name="Rectángulo 406343" width="13.28" height="3.405" fill="none"/>
    </clipPath>
    <clipPath id="clip-path-14">
      <rect id="Rectángulo_406344" data-name="Rectángulo 406344" width="50.573" height="41.366" fill="none"/>
    </clipPath>
    <clipPath id="clip-path-15">
      <rect id="Rectángulo_406329" data-name="Rectángulo 406329" width="172.184" height="249.436" fill="none"/>
    </clipPath>
    <clipPath id="clip-path-16">
      <rect id="Rectángulo_406327" data-name="Rectángulo 406327" width="172.184" height="240.766" fill="none"/>
    </clipPath>
    <clipPath id="clip-path-17">
      <rect id="Rectángulo_406310" data-name="Rectángulo 406310" width="71.628" height="22.997" fill="none"/>
    </clipPath>
    <clipPath id="clip-path-18">
      <rect id="Rectángulo_406311" data-name="Rectángulo 406311" width="21.072" height="16.756" fill="none"/>
    </clipPath>
    <clipPath id="clip-path-19">
      <rect id="Rectángulo_406312" data-name="Rectángulo 406312" width="7.088" height="3.341" fill="none"/>
    </clipPath>
    <clipPath id="clip-path-21">
      <rect id="Rectángulo_406314" data-name="Rectángulo 406314" width="26.127" height="38.766" fill="none"/>
    </clipPath>
    <clipPath id="clip-path-22">
      <rect id="Rectángulo_406315" data-name="Rectángulo 406315" width="19.576" height="24.156" fill="none"/>
    </clipPath>
    <clipPath id="clip-path-24">
      <rect id="Rectángulo_406317" data-name="Rectángulo 406317" width="80.886" height="26.492" fill="none"/>
    </clipPath>
    <clipPath id="clip-path-25">
      <rect id="Rectángulo_406318" data-name="Rectángulo 406318" width="3.684" height="4.66" fill="none"/>
    </clipPath>
    <clipPath id="clip-path-26">
      <rect id="Rectángulo_406319" data-name="Rectángulo 406319" width="2.494" height="6.528" fill="none"/>
    </clipPath>
    <clipPath id="clip-path-27">
      <rect id="Rectángulo_406320" data-name="Rectángulo 406320" width="7.38" height="5.272" fill="none"/>
    </clipPath>
    <clipPath id="clip-path-28">
      <rect id="Rectángulo_406321" data-name="Rectángulo 406321" width="2.54" height="6.319" fill="none"/>
    </clipPath>
    <clipPath id="clip-path-29">
      <rect id="Rectángulo_406322" data-name="Rectángulo 406322" width="2.322" height="6.459" fill="none"/>
    </clipPath>
    <clipPath id="clip-path-30">
      <rect id="Rectángulo_406323" data-name="Rectángulo 406323" width="5.112" height="7.544" fill="none"/>
    </clipPath>
    <clipPath id="clip-path-31">
      <rect id="Rectángulo_406324" data-name="Rectángulo 406324" width="3.872" height="5.738" fill="none"/>
    </clipPath>
    <clipPath id="clip-path-32">
      <rect id="Rectángulo_406325" data-name="Rectángulo 406325" width="12.987" height="21.358" fill="none"/>
    </clipPath>
    <clipPath id="clip-path-33">
      <rect id="Rectángulo_406326" data-name="Rectángulo 406326" width="12.988" height="21.358" fill="none"/>
    </clipPath>
  </defs>
  <g id="Enmascarar_grupo_1098682" data-name="Enmascarar grupo 1098682" transform="translate(-206.051 -6443)" clip-path="url(#clip-path)">
    <path id="Trazado_983986" data-name="Trazado 983986" d="M173.9,62.188a2.529,2.529,0,1,0,2.529-2.529,2.529,2.529,0,0,0-2.529,2.529" transform="translate(229.282 6488.799)" fill="#591b1b"/>
    <rect id="Rectángulo_406370" data-name="Rectángulo 406370" width="446" height="86" rx="43" transform="translate(206.051 6508)" fill="#fff" opacity="0.63"/>
    <g id="Grupo_1148719" data-name="Grupo 1148719" transform="translate(422.959 6442.829)">
      <g id="Grupo_1148679" data-name="Grupo 1148679" transform="translate(0)" clip-path="url(#clip-path-2)">
        <g id="Grupo_1148644" data-name="Grupo 1148644">
          <g id="Grupo_1148643" data-name="Grupo 1148643" clip-path="url(#clip-path-3)">
            <path id="Trazado_983668" data-name="Trazado 983668" d="M71.664,126.07c0,3.959.662,7.168,1.478,7.168s1.478-3.209,1.478-7.168-.662-7.168-1.478-7.168-1.478,3.209-1.478,7.168" transform="translate(111.714 -47.892)" fill="#d2cbac"/>
            <path id="Trazado_983669" data-name="Trazado 983669" d="M69.3,128.429c-3.958,0-7.168.662-7.168,1.478s3.209,1.478,7.168,1.478,7.168-.661,7.168-1.478-3.209-1.478-7.168-1.478" transform="translate(115.55 -51.729)" fill="#d2cbac"/>
            <path id="Trazado_983670" data-name="Trazado 983670" d="M123.15,146.731l3.316-2.281,3.316-2.281-3.633-1.731-3.633-1.731.318,4.013Z" transform="translate(26.183 -55.868)" fill="#d85f3f"/>
            <path id="Trazado_983671" data-name="Trazado 983671" d="M170.694,23.835l-.939-5.107-.938-5.107-3.954,3.367-3.953,3.367L165.8,22.1Z" transform="translate(-37.659 -5.486)" fill="#d85f3f"/>
            <path id="Trazado_983672" data-name="Trazado 983672" d="M173.9,62.188a2.529,2.529,0,1,0,2.529-2.529,2.529,2.529,0,0,0-2.529,2.529" transform="translate(-53.678 -24.03)" fill="#591b1b"/>
            <path id="Trazado_983673" data-name="Trazado 983673" d="M65.668,17.657a3.725,3.725,0,1,0,3.725-3.725,3.726,3.726,0,0,0-3.725,3.725" transform="translate(116.795 -5.612)" fill="#d2cbac"/>
          </g>
        </g>
        <g id="Grupo_1148676" data-name="Grupo 1148676" transform="translate(0)">
          <g id="Grupo_1148675" data-name="Grupo 1148675" clip-path="url(#clip-path-4)">
            <rect id="Rectángulo_406332" data-name="Rectángulo 406332" width="102.988" height="56.166" transform="translate(112.008 183.228)" fill="#60200a"/>
            <rect id="Rectángulo_406333" data-name="Rectángulo 406333" width="102.988" height="6.464" transform="translate(112.008 183.228)" fill="#3f1307"/>
            <rect id="Rectángulo_406334" data-name="Rectángulo 406334" width="139.446" height="8.876" transform="translate(89.687 174.759)" fill="#82320f"/>
            <line id="Línea_608" data-name="Línea 608" x1="128.758" transform="translate(100.374 181.158)" fill="none" stroke="#60200a" stroke-miterlimit="10" stroke-width="0.983"/>
            <g id="Grupo_1148647" data-name="Grupo 1148647" transform="translate(89.687 174.759)" opacity="0.58" style="mix-blend-mode: multiply;isolation: isolate">
              <g id="Grupo_1148646" data-name="Grupo 1148646" transform="translate(0)">
                <g id="Grupo_1148645" data-name="Grupo 1148645" clip-path="url(#clip-path-5)">
                  <path id="Trazado_983674" data-name="Trazado 983674" d="M182.06,357.257V301.5H159.739v-8.876h37l1.6,8.876h-4.453l9.9,55.758Z" transform="translate(-159.739 -292.622)" fill="#3f1307"/>
                </g>
              </g>
            </g>
            <path id="Trazado_983675" data-name="Trazado 983675" d="M23.67,258.311s8.44-16.453,27.236-22.048c-4.771,2.455-19.8,9.864-26.029,23.773a3.94,3.94,0,0,1-1.208-1.726" transform="translate(164.09 -95.162)" fill="#9fa52f"/>
            <path id="Trazado_983676" data-name="Trazado 983676" d="M24.9,245.369s2.142,4.918,9.431,3.279c-1.008-4.378-6.275-5.415-9.431-3.279" transform="translate(179.922 -98.399)" fill="#9fa52f"/>
            <path id="Trazado_983677" data-name="Trazado 983677" d="M28.247,246.09s4.634-.177,7.435,1.972" transform="translate(176.58 -99.119)" fill="#616602"/>
            <path id="Trazado_983678" data-name="Trazado 983678" d="M36.849,254.448s2.142,4.918,9.431,3.279c-1.008-4.378-6.275-5.415-9.431-3.279" transform="translate(160.845 -102.055)" fill="#9fa52f"/>
            <path id="Trazado_983679" data-name="Trazado 983679" d="M40.191,255.169s4.634-.177,7.435,1.972" transform="translate(157.503 -102.776)" fill="#616602"/>
            <path id="Trazado_983680" data-name="Trazado 983680" d="M44.3,241.4s-4.112-3.445-.481-9.974c3.915,2.2,3.421,7.549.481,9.974" transform="translate(157.231 -93.214)" fill="#9fa52f"/>
            <path id="Trazado_983681" data-name="Trazado 983681" d="M45.008,242.94s1.479-4.395.209-7.69" transform="translate(156.521 -94.754)" fill="#616602"/>
            <path id="Trazado_983682" data-name="Trazado 983682" d="M58.021,254.4s-4.112-3.445-.481-9.974c3.915,2.2,3.421,7.549.481,9.974" transform="translate(135.313 -98.45)" fill="#9fa52f"/>
            <path id="Trazado_983683" data-name="Trazado 983683" d="M58.731,255.938s1.479-4.395.209-7.69" transform="translate(134.603 -99.99)" fill="#616602"/>
            <path id="Trazado_983684" data-name="Trazado 983684" d="M135.959,269.883s-13.067-16.181-23.17-20.6-7.578,1.346-1.415,7.419c-18.731-8.136-21.413-5.558-23.944-2.585s15.046,9.842,24.855,10.946c-10.22,2.586-13.765,10.427,23.675,4.82" transform="translate(41.106 -99.779)" fill="#9fa52f"/>
            <path id="Trazado_983685" data-name="Trazado 983685" d="M128.8,274.5s-24.369-11.333-41.622-15.315c16.6,6.255,36.336,13.424,41.622,15.315" transform="translate(48.26 -104.394)" fill="#616602"/>
            <path id="Trazado_983686" data-name="Trazado 983686" d="M118.493,277.344s-8.811.682-15.076,3.352c5.95-.6,16.684-2.469,16.684-2.469Z" transform="translate(47.269 -111.709)" fill="#616602"/>
            <path id="Trazado_983687" data-name="Trazado 983687" d="M121.063,266.939s-9.883-9.335-12.711-13.36c3.15,3,13.689,13.412,13.689,13.412Z" transform="translate(42.382 -102.137)" fill="#616602"/>
            <path id="Trazado_983688" data-name="Trazado 983688" d="M186.911,290.628S181.74,326.565,180.964,355h72.908s-3.361-45.5-6.464-62.826c-18.873-10.6-60.5-1.551-60.5-1.551" transform="translate(-132.815 -115.61)" fill="#f0ebd6"/>
            <path id="Trazado_983689" data-name="Trazado 983689" d="M222.891,299.548s.517,24.82-7.5,33.61c-1.293-22.234-4.137-32.317-4.137-32.317" transform="translate(-119.932 -120.652)" fill="none" stroke="#9b9478" stroke-miterlimit="10" stroke-width="0.654"/>
            <line id="Línea_609" data-name="Línea 609" x2="1.038" y2="27.174" transform="translate(95.462 212.506)" fill="none" stroke="#9b9478" stroke-miterlimit="10" stroke-width="0.654"/>
            <line id="Línea_610" data-name="Línea 610" x1="3.103" y2="61.539" transform="translate(58.232 177.864)" fill="none" stroke="#9b9478" stroke-miterlimit="10" stroke-width="0.654"/>
            <g id="Grupo_1148650" data-name="Grupo 1148650" transform="translate(52.298 171.419)" style="mix-blend-mode: multiply;isolation: isolate">
              <g id="Grupo_1148649" data-name="Grupo 1148649">
                <g id="Grupo_1148648" data-name="Grupo 1148648" clip-path="url(#clip-path-6)">
                  <path id="Trazado_983690" data-name="Trazado 983690" d="M253.282,299.99c-10.49,2.81-32.646,7.116-63.482,4.5,1.008-8.38,1.8-13.864,1.8-13.864s41.625-9.049,60.5,1.551c.394,2.2.792,4.855,1.187,7.812" transform="translate(-189.799 -287.029)" fill="#e0dbc3"/>
                </g>
              </g>
            </g>
            <path id="Trazado_983691" data-name="Trazado 983691" d="M226.08,98.205s8.793-1.672,21.711.979c-2.788,4.719-11.256,7.368-11.256,7.368Z" transform="translate(-153.678 -39.346)" fill="#9e977a"/>
            <path id="Trazado_983692" data-name="Trazado 983692" d="M66.078,169.178s6.568,1.539,7.861,5.184.646,8.169,0,8.816-7.861-14-7.861-14" transform="translate(114.985 -68.142)" fill="#d8714c"/>
            <path id="Trazado_983693" data-name="Trazado 983693" d="M72.572,187.1s6.593-1.283,8.919-3.938c3.361-1.621,8.92.448,10.859,2.775s3.749-3.361.9-5.429-6.2-3.361-5.171-4.783,4.563.758,5.429,3.49a9.24,9.24,0,0,0,6.593,5.718c2.586.358.13-4.166-1.034-6.752s-3.62-9.308-8.532-10.6-17.84,3.49-24.691,8.4c1.034,11.246,6.722,11.117,6.722,11.117" transform="translate(88.559 -67.414)" fill="#fb8f62"/>
            <path id="Trazado_983694" data-name="Trazado 983694" d="M113.865,110.656s5.947-1.477,17.581,15.845A270.573,270.573,0,0,1,149.8,158.043l14.736-6.98S166.089,161.4,171,164.248c-6.98,12.152-26.112,25.078-33.869,26.63s-21.2-30.766-21.2-30.766Z" transform="translate(-9.871 -44.558)" fill="#e0dbc3"/>
            <path id="Trazado_983695" data-name="Trazado 983695" d="M204.155,111.209s-12.927-.96-21.459,1.718c5.688,15.088,3.619,45.078,3.619,45.078l-1.81,64.376s29.473,12.41,68.771,0c-7.239-43.434-8.532-52.912-8.532-52.912s5.171-6.811,0-28.787-7.5-30.323-7.5-30.323-5.811-1.385-10.65.591-22.443.259-22.443.259" transform="translate(-133.254 -44.261)" fill="#f0ebd6"/>
            <path id="Trazado_983696" data-name="Trazado 983696" d="M318.4,19.441s-6.049-2.969-11,1.21S295.523,44.076,291.454,46.5s-2.09,3.519,3.19,1.43c-4.069,5.939-6.269,8.469-9.348,9.788s4.619,6.049,15.507-1.1,17.248-19.238,17.367-30.79a55.947,55.947,0,0,0,.229-6.383" transform="translate(-259.259 -7.418)" fill="#591b1b"/>
            <path id="Trazado_983697" data-name="Trazado 983697" d="M284.3,17.969S281.113,15,278.254,16.1s-5.609,6.489-5.169,9.018,5.585,4.4,5.585,4.4Z" transform="translate(-218.233 -6.386)" fill="#fff6e0"/>
            <path id="Trazado_983698" data-name="Trazado 983698" d="M262.031,22.445s-6.656-15.544-27.371-8.8c-10.325,3.362-17.061,17.156-10.242,28.7,3.959,5.939,17.816,13.857,17.816,13.857l3.629-3.739,8.028-27.824Z" transform="translate(-165.278 -4.813)" fill="#591b1b"/>
            <path id="Trazado_983699" data-name="Trazado 983699" d="M230.131,67.177s2.419,18.095,1.98,25.793c6.928,4.509,16.386,2.31,16.386,2.31s-3.959-11.915-3.189-21.849c-8.248-3.006-15.177-6.253-15.177-6.253" transform="translate(-156.803 -27.058)" fill="#fb8f62"/>
            <path id="Trazado_983700" data-name="Trazado 983700" d="M244.168,83.354,233.2,80.785s5.2,9.408,12.377,13a63.488,63.488,0,0,1-1.413-10.427" transform="translate(-155.722 -32.539)" fill="#380403"/>
            <path id="Trazado_983701" data-name="Trazado 983701" d="M237.006,29.175s4.509,4.619,4.949,16.277.66,21.556-4.729,22S218.2,65.8,214.571,53.81l-1.54-7.039s3.079-9.678,6.159-13.2,13.087-6.049,17.816-4.4" transform="translate(-140.253 -11.543)" fill="#fb8f62"/>
            <path id="Trazado_983702" data-name="Trazado 983702" d="M217.9,63.407a15.729,15.729,0,0,1,1.54,5.279,13.875,13.875,0,0,1-3.3-.55" transform="translate(-119.383 -25.539)" fill="none" stroke="#ad4727" stroke-miterlimit="10" stroke-width="0.558"/>
            <path id="Trazado_983703" data-name="Trazado 983703" d="M225.492,76.919a21.6,21.6,0,0,1-7.7-.99" transform="translate(-126.429 -30.583)" fill="none" stroke="#ad4727" stroke-miterlimit="10" stroke-width="0.558"/>
            <g id="Grupo_1148653" data-name="Grupo 1148653" transform="translate(85.205 37.208)" opacity="0.56">
              <g id="Grupo_1148652" data-name="Grupo 1148652" transform="translate(0)">
                <g id="Grupo_1148651" data-name="Grupo 1148651" clip-path="url(#clip-path-7)">
                  <path id="Trazado_983704" data-name="Trazado 983704" d="M236.4,64.172c0,1.033-1.526,1.87-3.41,1.87s-3.409-.837-3.409-1.87,1.526-1.869,3.409-1.869,3.41.837,3.41,1.869" transform="translate(-229.579 -62.302)" fill="#a5380e"/>
                </g>
              </g>
            </g>
            <path id="Trazado_983705" data-name="Trazado 983705" d="M235.507,58.585c-1.979-2.367-5.9-2.062-8.138-.22,2.759-.444,5.416-.847,8.138.22" transform="translate(-142.164 -22.917)" fill="#591b1b"/>
            <path id="Trazado_983706" data-name="Trazado 983706" d="M212.637,58.733a6.172,6.172,0,0,0,3.079-1.193,2.125,2.125,0,0,0-3.079,1.193" transform="translate(-113.574 -23.065)" fill="#591b1b"/>
            <path id="Trazado_983707" data-name="Trazado 983707" d="M237.3,48.928s-5.939-4.281-11.218,1.159c.11-5.338,10.448-6.437,11.218-1.159" transform="translate(-143.184 -18.319)" fill="#591b1b"/>
            <path id="Trazado_983708" data-name="Trazado 983708" d="M216.346,46.262a2.945,2.945,0,0,0-2.261,3.2,3.126,3.126,0,0,1,2.547-1.546q-.129-.863-.285-1.655" transform="translate(-115.352 -18.633)" fill="#591b1b"/>
            <path id="Trazado_983709" data-name="Trazado 983709" d="M268.822,58.47c.992,3.126-.339,6.338-2.973,7.174s-5.574-1.02-6.566-4.146.339-6.338,2.972-7.174,5.574,1.02,6.566,4.146" transform="translate(-194.67 -21.8)" fill="#fb8f62"/>
            <path id="Trazado_983710" data-name="Trazado 983710" d="M263.657,60.8a4.271,4.271,0,0,0-1.194.606,6.826,6.826,0,0,0,.3,2.7c.992,3.126,3.932,4.983,6.566,4.146a4.273,4.273,0,0,0,1.194-.606,6.822,6.822,0,0,0-.3-2.7c-.993-3.126-3.933-4.983-6.566-4.146" transform="translate(-198.145 -24.41)" fill="#b85639"/>
            <g id="Grupo_1148656" data-name="Grupo 1148656" transform="translate(32.849 11.001)" opacity="0.29" style="mix-blend-mode: overlay;isolation: isolate">
              <g id="Grupo_1148655" data-name="Grupo 1148655">
                <g id="Grupo_1148654" data-name="Grupo 1148654" clip-path="url(#clip-path-8)">
                  <path id="Trazado_983711" data-name="Trazado 983711" d="M308.036,20.652c-4.694,3.964-11.167,21.471-15.294,25.33a32.1,32.1,0,0,0,9.406-3.491s-7.2,11.814-2.8,9.86,6.6-6.845,8.8-20.981c1.188-7.634,3.85-11.243,6.049-12.951a9.375,9.375,0,0,0-6.159,2.232" transform="translate(-292.742 -18.42)" fill="#f9ece4"/>
                </g>
              </g>
            </g>
            <g id="Grupo_1148659" data-name="Grupo 1148659" transform="translate(58.258 7.142)" opacity="0.29" style="mix-blend-mode: overlay;isolation: isolate">
              <g id="Grupo_1148658" data-name="Grupo 1148658" transform="translate(0)">
                <g id="Grupo_1148657" data-name="Grupo 1148657" clip-path="url(#clip-path-9)">
                  <path id="Trazado_983712" data-name="Trazado 983712" d="M242.733,23.945A19.136,19.136,0,0,1,253.858,13.65c6.08-1.98,10.94-2.032,14.785-1.128-4.063.816-15.356,3.663-18.584,10.593-3.959,8.5-3.941.557-2.3-2.29,1.239-2.151-2.472.137-5.026,3.119" transform="translate(-242.733 -11.958)" fill="#f9ece4"/>
                </g>
              </g>
            </g>
            <g id="Grupo_1148662" data-name="Grupo 1148662" transform="translate(77.467 17.477)" opacity="0.19" style="mix-blend-mode: overlay;isolation: isolate">
              <g id="Grupo_1148661" data-name="Grupo 1148661">
                <g id="Grupo_1148660" data-name="Grupo 1148660" clip-path="url(#clip-path-10)">
                  <path id="Trazado_983713" data-name="Trazado 983713" d="M237.265,45.7c-.44-11.658-4.949-16.277-4.949-16.277-.162-.057-.333-.107-.508-.155l-18.763,7.707s-1.036,22.384,14.227,30.466a23.59,23.59,0,0,0,5.264.254c5.389-.44,5.169-10.338,4.729-22" transform="translate(-213.03 -29.264)" fill="#f9ece4"/>
                </g>
              </g>
            </g>
            <path id="Trazado_983714" data-name="Trazado 983714" d="M253.075,108.362l-3.3-6.888-12.8-2.918-1.5,8.089s9.1,4.211,17.6,1.718" transform="translate(-164.57 -39.697)" fill="#f0ebd6"/>
            <path id="Trazado_983715" data-name="Trazado 983715" d="M221.66,109.022l.11-7.423,5.5-1.4,2.639,6.852a15.811,15.811,0,0,1-8.248,1.976" transform="translate(-133.155 -40.356)" fill="#f0ebd6"/>
            <path id="Trazado_983716" data-name="Trazado 983716" d="M114.611,179.868a41.821,41.821,0,0,1,4.689-2.862c-.4,3.2-.637,8.913,1.587,13.933-1.357-.24-5.418-1.737-6.276-11.071" transform="translate(39.798 -71.295)" fill="#d86e4a"/>
            <line id="Línea_611" data-name="Línea 611" x1="13.703" y2="6.464" transform="translate(126.228 113.485)" fill="none" stroke="#9b9478" stroke-miterlimit="10" stroke-width="0.601"/>
            <line id="Línea_612" data-name="Línea 612" x2="9.51" y2="0.397" transform="translate(125.194 115.554)" fill="none" stroke="#9b9478" stroke-miterlimit="10" stroke-width="0.601"/>
            <path id="Trazado_983717" data-name="Trazado 983717" d="M160.939,228.552a12.257,12.257,0,0,1,9.477,4.47c-4.532,2.842-8.682,4.808-11.416,5.354-2.2.44-4.86-1.848-7.54-5.351a12.257,12.257,0,0,1,9.48-4.473" transform="translate(-31.737 -92.057)" fill="#d3cdb6"/>
            <path id="Trazado_983718" data-name="Trazado 983718" d="M113.865,182.7l9.22-4.367s1.551,10.341,6.463,13.185a45.861,45.861,0,0,1-6.935,8.849c-5.131-5.432-7.615-12.9-8.748-17.667" transform="translate(31.582 -71.83)" fill="#d3cdb6"/>
            <path id="Trazado_983719" data-name="Trazado 983719" d="M182.7,294.184l.17-6.028c8.986,3.626,33.441,10.882,67.708.656.288,1.731.585,3.518.894,5.372-39.3,12.41-68.771,0-68.771,0" transform="translate(-131.444 -116.064)" fill="#c1411a"/>
            <path id="Trazado_983720" data-name="Trazado 983720" d="M275.335,255.284s7.853.678,13.089.582,10.374,4.169,11.828,5.333.873,2.133-.678,2.423-8.047-1.842-8.047-1.842,10.568,4.944,10.47,7.271-1.648,2.618-4.459,1.454a44.274,44.274,0,0,0-6.4-1.939s5.818,3.1,6.4,4.169-.679,2.324-1.552,2.18l-.873-.145a6.129,6.129,0,0,1-5.138,1.067c-2.908-.776-9.889-2.424-11.828-4.169S267.87,267.4,267.87,267.4s4.848-8.822,7.465-12.119" transform="translate(-232.842 -102.824)" fill="#fb8f62"/>
            <line id="Línea_613" data-name="Línea 613" x1="9.404" y1="3.006" transform="translate(52.867 168.942)" fill="none" stroke="#931c0f" stroke-miterlimit="10" stroke-width="0.601"/>
            <path id="Trazado_983721" data-name="Trazado 983721" d="M250.21,143.9a2.819,2.819,0,1,0,2.819-2.819,2.82,2.82,0,0,0-2.819,2.819" transform="translate(-176.146 -56.826)" fill="#72130a"/>
            <path id="Trazado_983722" data-name="Trazado 983722" d="M245.489,185.2a2.819,2.819,0,1,0,2.819-2.819,2.819,2.819,0,0,0-2.819,2.819" transform="translate(-168.606 -73.461)" fill="#72130a"/>
            <path id="Trazado_983723" data-name="Trazado 983723" d="M243.567,226.408a2.819,2.819,0,1,0,2.819-2.819,2.82,2.82,0,0,0-2.819,2.819" transform="translate(-165.536 -90.058)" fill="#72130a"/>
            <path id="Trazado_983724" data-name="Trazado 983724" d="M241.808,270.749a2.819,2.819,0,1,0,2.819-2.819,2.82,2.82,0,0,0-2.819,2.819" transform="translate(-162.727 -107.917)" fill="#72130a"/>
            <path id="Trazado_983725" data-name="Trazado 983725" d="M244.463,28.1s-10.122,9.857-22.689,12.281c-1.321-7.078,9.082-19.326,22.689-12.281" transform="translate(-147.71 -10.467)" fill="#591b1b"/>
            <g id="Grupo_1148665" data-name="Grupo 1148665" transform="translate(74.064 16.004)" opacity="0.29" style="mix-blend-mode: overlay;isolation: isolate">
              <g id="Grupo_1148664" data-name="Grupo 1148664">
                <g id="Grupo_1148663" data-name="Grupo 1148663" clip-path="url(#clip-path-11)">
                  <path id="Trazado_983726" data-name="Trazado 983726" d="M232.156,40.706s1.1-12.877,16.421-13.612c-10.955-1.706-16.07,4.111-16.421,13.612" transform="translate(-232.156 -26.797)" fill="#f9ece4"/>
                </g>
              </g>
            </g>
            <path id="Trazado_983727" data-name="Trazado 983727" d="M264.948,72.621a1.269,1.269,0,1,0,1.268-1.268,1.269,1.269,0,0,0-1.268,1.268" transform="translate(-196.585 -28.74)" fill="#f9ece4"/>
            <path id="Trazado_983728" data-name="Trazado 983728" d="M341.206,114.976s-14.737,8.365-26.371,28.014-24.045,43.693-23.01,50.932,23.01,19.132,39.557,20.942c0-6.464.517-12.41,4.912-17.064l-13.185-9.566,21.717-28.18s5.941-26.622-3.62-45.078" transform="translate(-291.765 -46.31)" fill="#e0dbc3"/>
            <path id="Trazado_983729" data-name="Trazado 983729" d="M317.55,255.55c-1.5,2.781-4.155,8.741-3.161,14.741a76.355,76.355,0,0,0-7.907-2.888s4.848-8.823,7.465-12.119c0,0,1.489.128,3.6.266" transform="translate(-271.455 -102.824)" fill="#d86e4a"/>
            <path id="Trazado_983730" data-name="Trazado 983730" d="M309.15,264.991c-.531-10.822,3.7-17.4,6.79-20.711l7.722,5.6c-4.4,4.654-4.913,10.6-4.913,17.064a58.681,58.681,0,0,1-9.6-1.955" transform="translate(-279.132 -98.392)" fill="#d3cdb6"/>
            <path id="Trazado_983731" data-name="Trazado 983731" d="M291.557,114.976a74.234,74.234,0,0,1,3.62,45.078" transform="translate(-242.116 -46.31)" fill="none" stroke="#9b9478" stroke-miterlimit="10" stroke-width="0.601"/>
            <path id="Trazado_983732" data-name="Trazado 983732" d="M201.084,173.118l-.492-3.331s4.878-9.981.492-27.494-7.989-31.616-7.989-31.616" transform="translate(-89.101 -44.579)" fill="none" stroke="#9b9478" stroke-miterlimit="10" stroke-width="0.601"/>
            <path id="Trazado_983733" data-name="Trazado 983733" d="M209.521,165.768s20.342-10.268,19.825-20.157-9.272,14.912-19.825,20.157" transform="translate(-125.353 -57.721)" fill="#e0dbc3"/>
            <path id="Trazado_983734" data-name="Trazado 983734" d="M247.512,109.887a24.238,24.238,0,0,1-8.248,3.039,31.3,31.3,0,0,1-17.6-1.718" transform="translate(-150.759 -44.26)" fill="none" stroke="#9b9478" stroke-miterlimit="10" stroke-width="0.601"/>
            <path id="Trazado_983735" data-name="Trazado 983735" d="M248.567,228.8c-1.515-.13-2.973-.285-4.365-.462-.935-12.386-2.662-38.221-2.5-58.135a201.225,201.225,0,0,0-6.236-50.185s16.547-4.307,22.622-6.807h0c.972,0,1.922-.024,2.83-.066a3.2,3.2,0,0,1,.942,1.093s-10.624,7.331-21.224,8.624c5.5,31.541,5.5,48.347,5.5,48.347s.724,39.707,2.428,57.592" transform="translate(-173.361 -45.574)" fill="#c1411a"/>
            <path id="Trazado_983736" data-name="Trazado 983736" d="M238.99,102.9l-3.519-.8,2.786,7.727,4.033-.036Z" transform="translate(-153.785 -41.124)" fill="#c1411a"/>
            <path id="Trazado_983737" data-name="Trazado 983737" d="M283.088,114.125s-18.071.463-24.134,2.281" transform="translate(-208.608 -45.967)" fill="none" stroke="#9b9478" stroke-miterlimit="10" stroke-width="0.601"/>
            <path id="Trazado_983738" data-name="Trazado 983738" d="M208.937,112.07s7.816-.438,10.238.447" transform="translate(-114.824 -45.096)" fill="none" stroke="#9b9478" stroke-miterlimit="10" stroke-width="0.601"/>
            <path id="Trazado_983739" data-name="Trazado 983739" d="M229.14,209.975a84.145,84.145,0,0,1-24.588,1.528c-12.574-1.292-.175,7.922,24.588-1.528" transform="translate(-119.2 -84.574)" fill="#e0dbc3"/>
            <path id="Trazado_983740" data-name="Trazado 983740" d="M68.409,201.8a.517.517,0,1,0,.517-.517.517.517,0,0,0-.517.517" transform="translate(118.834 -81.072)" fill="#f0ebd6"/>
            <path id="Trazado_983741" data-name="Trazado 983741" d="M73.616,195.037a.948.948,0,1,0,.948-.948.948.948,0,0,0-.948.948" transform="translate(109.655 -78.176)" fill="#f0ebd6"/>
            <path id="Trazado_983742" data-name="Trazado 983742" d="M76.2,209.391a.7.7,0,1,0,.7-.7.7.7,0,0,0-.7.7" transform="translate(106.014 -84.055)" fill="#f0ebd6"/>
            <path id="Trazado_983743" data-name="Trazado 983743" d="M71.223,211.2a.615.615,0,1,0,.615-.615.615.615,0,0,0-.615.615" transform="translate(114.143 -84.821)" fill="#f0ebd6"/>
            <path id="Trazado_983744" data-name="Trazado 983744" d="M72.254,221.424a.881.881,0,1,0,.881-.881.881.881,0,0,0-.881.881" transform="translate(111.965 -88.831)" fill="#f0ebd6"/>
            <path id="Trazado_983745" data-name="Trazado 983745" d="M75.552,233.871a.84.84,0,1,0,.84-.84.84.84,0,0,0-.84.84" transform="translate(106.779 -93.861)" fill="#f0ebd6"/>
            <path id="Trazado_983746" data-name="Trazado 983746" d="M71.223,251.029a.615.615,0,1,0,.615-.615.615.615,0,0,0-.615.615" transform="translate(114.143 -100.862)" fill="#f0ebd6"/>
            <path id="Trazado_983747" data-name="Trazado 983747" d="M36.81,280.44s20.321.281,25.213-.482,5.119-4.971,4.187-6.512-1.8-4.578-9.96-1.721-18.734,7.227-19.677,7.745-.507.617.237.97" transform="translate(140.968 -108.971)" fill="#d8691e"/>
            <g id="Grupo_1148668" data-name="Grupo 1148668" transform="translate(177.003 162.248)" opacity="0.39">
              <g id="Grupo_1148667" data-name="Grupo 1148667" transform="translate(0)">
                <g id="Grupo_1148666" data-name="Grupo 1148666" clip-path="url(#clip-path-12)">
                  <path id="Trazado_983748" data-name="Trazado 983748" d="M36.573,279.923c.17-.094.656-.314,1.385-.627a10.858,10.858,0,0,0,3.88.041c3.128-.661,12.89-1.688,14.991-1.255s4.98.861,7.028-.688c1.94-1.467.739-5.319.607-5.722A5.852,5.852,0,0,1,66.21,273.9c.932,1.541.7,5.749-4.188,6.512s-25.213.482-25.213.482c-.744-.353-1.18-.453-.237-.97" transform="translate(-36.035 -271.673)" fill="#a54c11"/>
                </g>
              </g>
            </g>
            <path id="Trazado_983749" data-name="Trazado 983749" d="M46.573,271.08a16.522,16.522,0,0,1,2-.392c-.715,1.448-1.575,3.605-1.21,5.049-.7,1.27-1.608-1.639-.787-4.658" transform="translate(152.943 -109.028)" fill="#a54c11"/>
            <path id="Trazado_983750" data-name="Trazado 983750" d="M57.271,273.035a7.473,7.473,0,0,0-.762,3.133c-.016,1.031-1.541-.573-1.612-2.274.8-.3,1.6-.583,2.374-.859" transform="translate(139.076 -109.974)" fill="#a54c11"/>
            <path id="Trazado_983751" data-name="Trazado 983751" d="M64.461,276.007a6.48,6.48,0,0,0-.191,2.255c-.064.824-.863-.205-1.289-1.692q.736-.282,1.479-.563" transform="translate(127.057 -111.171)" fill="#a54c11"/>
            <path id="Trazado_983752" data-name="Trazado 983752" d="M18.726,276.95s6.761-1.369,9.877.029-2.12,5.884-6.594,8.025.185-2.113,1.909-2.8c-2.592.166-.938-1.06,1.292-2.2-2.34.016-.229-1.61.447-1.96-.322-.394-5.755-.739-7.392-.127-.386-.317-.461-.807.461-.97" transform="translate(188.839 -111.309)" fill="#9fa52f"/>
            <path id="Trazado_983753" data-name="Trazado 983753" d="M25.925,270.3a35.327,35.327,0,0,0,4.908-4.086c-2.372,1-3.221.3-1.6-.566-2.748.2-2.268-.7-.586-1.645-2.635-.1-8.067.222,1.172-2.527,3.227-1.1,5.281,2.3,1.638,5.741a29.877,29.877,0,0,1-5.484,3.875Z" transform="translate(181.028 -105.232)" fill="#8e8e2d"/>
            <g id="Grupo_1148671" data-name="Grupo 1148671" transform="translate(191.556 162.85)" opacity="0.26" style="mix-blend-mode: overlay;isolation: isolate">
              <g id="Grupo_1148670" data-name="Grupo 1148670" transform="translate(0)">
                <g id="Grupo_1148669" data-name="Grupo 1148669" clip-path="url(#clip-path-13)">
                  <path id="Trazado_983754" data-name="Trazado 983754" d="M53.763,272.682s-4.937-.127-12.448,2.879c-2.434,1.232,2.759-.024,5.471-.523s8.3-1.451,6.977-2.357" transform="translate(-40.684 -272.681)" fill="#fff"/>
                </g>
              </g>
            </g>
            <path id="Trazado_983755" data-name="Trazado 983755" d="M108.719,256.858a2.694,2.694,0,0,1,3.354-1.807,2.694,2.694,0,1,1,3.354-1.807,2.667,2.667,0,0,1-.18.447l13,3.9-1.272,4.243-13-3.9a2.734,2.734,0,0,1-.094.472,2.694,2.694,0,1,1-5.161-1.547" transform="translate(36.025 -100.605)" fill="#ffd9ab"/>
            <path id="Trazado_983756" data-name="Trazado 983756" d="M108.6,252.374a2.69,2.69,0,1,1,5.263.871,2.733,2.733,0,0,1-.181.446l13,3.9-1.272,4.243-4.444-1.332a2.968,2.968,0,0,1,1.1-1.091c-1.153-1.064.344-2.074.344-2.074l-10.428-2.871a2.5,2.5,0,0,0-.046-3.028c-1.192-1.436-3.258.853-3.335.939" transform="translate(37.585 -100.605)" fill="#ddb180"/>
            <path id="Trazado_983757" data-name="Trazado 983757" d="M73.388,272.006a8.851,8.851,0,0,0-5.161-4.106l-.272-.082L64.544,266.8l-.956-.287A1.31,1.31,0,0,1,64.34,264a1.31,1.31,0,0,1,.752-2.51,1.31,1.31,0,0,1,.752-2.51l.956.287,3.411,1.022.271.081a8.852,8.852,0,0,0,6.569-.59,12.192,12.192,0,0,1,9.008-.667c5.974,1.791,9.582,7.363,8.058,12.446s-7.6,7.751-13.576,5.96a12.193,12.193,0,0,1-7.156-5.512" transform="translate(97.246 -104.142)" fill="#82320f"/>
            <path id="Trazado_983758" data-name="Trazado 983758" d="M90.645,273.867c1.524-5.083-2.084-10.655-8.058-12.446a12.194,12.194,0,0,0-9.008.667,8.85,8.85,0,0,1-6.569.59l-.272-.081-3.411-1.022-.367-.11a1.3,1.3,0,0,1,.627.025,1.31,1.31,0,0,1,.752-2.51l.956.287,3.411,1.022.271.081a8.85,8.85,0,0,0,6.569-.59,12.194,12.194,0,0,1,9.008-.667c5.974,1.791,9.582,7.363,8.058,12.446a8.483,8.483,0,0,1-2.744,4.1,8.291,8.291,0,0,0,.775-1.788" transform="translate(98.751 -104.142)" fill="#63210a"/>
            <path id="Trazado_983759" data-name="Trazado 983759" d="M70.106,280.3s6.006,4.735,11.859,2.591-.107-2.542-3.055-2.557-5.514-.437-8.04-2.585-2.49,1.43-.764,2.55" transform="translate(103.55 -111.6)" fill="#a0492a"/>
            <path id="Trazado_983760" data-name="Trazado 983760" d="M19.427,289.712h68.06l3.3-4.314H15.595Z" transform="translate(129.035 -114.953)" fill="#f0ebd6"/>
            <g id="Grupo_1148674" data-name="Grupo 1148674" transform="translate(164.423 198.028)" opacity="0.26" style="mix-blend-mode: overlay;isolation: isolate">
              <g id="Grupo_1148673" data-name="Grupo 1148673" transform="translate(0)">
                <g id="Grupo_1148672" data-name="Grupo 1148672" clip-path="url(#clip-path-14)">
                  <path id="Trazado_983761" data-name="Trazado 983761" d="M74.244,331.583s-35,5.171-50.574,41.366H74.244Z" transform="translate(-23.67 -331.583)" fill="#f9ece4"/>
                </g>
              </g>
            </g>
          </g>
        </g>
      </g>
    </g>
    <path id="Trazado_983985" data-name="Trazado 983985" d="M170.694,23.835l-.939-5.107-.938-5.107-3.954,3.367-3.953,3.367L165.8,22.1Z" transform="translate(224.3 6490.004)" fill="#d85f3f"/>
    <g id="Grupo_1148720" data-name="Grupo 1148720" transform="translate(244.975 6439.782)">
      <g id="Grupo_1148637" data-name="Grupo 1148637" clip-path="url(#clip-path-15)">
        <g id="Grupo_1148634" data-name="Grupo 1148634" transform="translate(0 0)">
          <g id="Grupo_1148633" data-name="Grupo 1148633" clip-path="url(#clip-path-16)">
            <path id="Trazado_983544" data-name="Trazado 983544" d="M134.374,342.22,98.56,349.862l3.533,40.42h64.562l3.533-40.42Z" transform="translate(-40.569 -140.863)" fill="#f0ebd6"/>
            <path id="Trazado_983545" data-name="Trazado 983545" d="M159.939,360.554a90.722,90.722,0,0,1-5.677,23.633,87.382,87.382,0,0,1-7.385-25.362" transform="translate(-60.457 -147.698)" fill="none" stroke="#9b9478" stroke-miterlimit="10" stroke-width="0.728"/>
            <line id="Línea_598" data-name="Línea 598" y1="12.93" transform="translate(93.805 236.489)" fill="none" stroke="#9b9478" stroke-miterlimit="10" stroke-width="0.728"/>
            <line id="Línea_599" data-name="Línea 599" x1="3.12" y2="38.859" transform="translate(120.2 210.559)" fill="none" stroke="#9b9478" stroke-miterlimit="10" stroke-width="0.728"/>
            <line id="Línea_600" data-name="Línea 600" x2="3.12" y2="38.859" transform="translate(64.285 210.559)" fill="none" stroke="#9b9478" stroke-miterlimit="10" stroke-width="0.728"/>
            <g id="Grupo_1148584" data-name="Grupo 1148584" transform="translate(57.991 201.357)" style="mix-blend-mode: multiply;isolation: isolate">
              <g id="Grupo_1148583" data-name="Grupo 1148583">
                <g id="Grupo_1148582" data-name="Grupo 1148582" clip-path="url(#clip-path-17)">
                  <path id="Trazado_983546" data-name="Trazado 983546" d="M98.56,349.863l1.23,14.073c36,4.182,59.731-2.864,69.769-6.888l.628-7.185-35.814-7.642Z" transform="translate(-98.56 -342.221)" fill="#e0dbc3"/>
                </g>
              </g>
            </g>
            <path id="Trazado_983547" data-name="Trazado 983547" d="M136.735,134.649a154.441,154.441,0,0,1,26.7,0c-3.616,6.583-17.873,8.946-26.7,0" transform="translate(-56.282 -55.192)" fill="#ada689"/>
            <path id="Trazado_983548" data-name="Trazado 983548" d="M152.064,40.021a37.032,37.032,0,0,0-20.25-2.944c-11.878,1.473-6.33,5.9-1.8,6.237-10.288,4.525-12.681,12.545-12,14.016s5.091-2.011,5.091-2.011-.225,25.7,4.016,33.424c2.319,4,1.866-3.257,1.866-3.257s2.941,8.27,6.448,8.723,16.178,2.271,19.006-8.763c.226,5.483,4.412,4.238,7.127-24.949.792-8.824-.113-15.427-4.017-16.332,8.992-2.941,3.341-3.917-.451-1.655-2.32-5.43-7.072-7.24-5.035-2.489" transform="translate(-48.531 -15.137)" fill="#491b24"/>
            <path id="Trazado_983549" data-name="Trazado 983549" d="M160.029,119.914l-6.675,1.49-6.675-1.49s-.5,6.706-2,10.666c3.472,16.291,8.676,21.495,8.676,21.495s5.2-5.2,8.676-21.495c-1.506-3.96-2-10.666-2-10.666" transform="translate(-59.552 -49.359)" fill="#fb8f62"/>
            <path id="Trazado_983550" data-name="Trazado 983550" d="M160.484,119.914l-6.675,1.49-6.675-1.49a57.111,57.111,0,0,1-1.352,8.582c11.3,0,14.844-5.755,14.844-5.755l.118-.294c-.184-1.5-.261-2.532-.261-2.532" transform="translate(-60.007 -49.359)" fill="#590a06"/>
            <g id="Grupo_1148587" data-name="Grupo 1148587" transform="translate(79.701 21.638)" opacity="0.39" style="mix-blend-mode: overlay;isolation: isolate">
              <g id="Grupo_1148586" data-name="Grupo 1148586">
                <g id="Grupo_1148585" data-name="Grupo 1148585" clip-path="url(#clip-path-18)">
                  <path id="Trazado_983551" data-name="Trazado 983551" d="M139.038,37.077c-.635.079-1.21.162-1.749.249a15.19,15.19,0,0,0,9.216,3.752s-1.584-.039-8.711,5.5,3.394,4.3,13.576-2.941c-1.923,2.149-6.336,13.349-.94,8.824,3.969-3.329,5.545-10.19,6.1-13.588a38.876,38.876,0,0,0-17.492-1.8" transform="translate(-135.458 -36.776)" fill="#fff"/>
                </g>
              </g>
            </g>
            <path id="Trazado_983552" data-name="Trazado 983552" d="M122.362,93.88c1.2,2.985,4.08,4.638,6.427,3.692s3.275-4.132,2.073-7.116-4.08-4.638-6.427-3.692-3.276,4.131-2.073,7.116" transform="translate(-50.149 -35.604)" fill="#b55643"/>
            <path id="Trazado_983553" data-name="Trazado 983553" d="M122.363,95a6.141,6.141,0,0,1,.391-5.758c2.121-.235,4.418,1.348,5.459,3.932a6.14,6.14,0,0,1-.391,5.757c-2.121.235-4.418-1.347-5.459-3.932" transform="translate(-50.151 -36.724)" fill="#fb8f62"/>
            <path id="Trazado_983554" data-name="Trazado 983554" d="M189.8,93.88c-1.2,2.985-4.08,4.638-6.427,3.692S180.1,93.44,181.3,90.456s4.08-4.638,6.427-3.692,3.276,4.131,2.073,7.116" transform="translate(-74.411 -35.604)" fill="#b55643"/>
            <path id="Trazado_983555" data-name="Trazado 983555" d="M191.658,95a6.141,6.141,0,0,0-.391-5.758c-2.121-.235-4.418,1.348-5.459,3.932a6.14,6.14,0,0,0,.391,5.757c2.121.235,4.418-1.347,5.459-3.932" transform="translate(-76.266 -36.724)" fill="#fb8f62"/>
            <path id="Trazado_983556" data-name="Trazado 983556" d="M157.654,60.933c-2.646,2.7-8.281,7.87-12.864,8.037-6.216.226.572-7.58.572-7.58s-5.192,5.464-10.388,7.449a22.045,22.045,0,0,0-.585,7.09c1.357,15.812,5.883,24.943,14.707,24.943S162.445,91.742,163.8,75.93c.527-8.3-2.628-12.68-6.148-15" transform="translate(-55.293 -25.081)" fill="#fb8f62"/>
            <path id="Trazado_983557" data-name="Trazado 983557" d="M163.537,91.621s4.189-6.445,10.145-1.446c-2.457,2.568-10.145,1.446-10.145,1.446" transform="translate(-67.314 -36.336)" fill="#fff"/>
            <path id="Trazado_983558" data-name="Trazado 983558" d="M172.9,91.339a3.238,3.238,0,0,0,.334-1.949,3.317,3.317,0,0,0-.113-.457,5.778,5.778,0,0,0-6.37.715,3.259,3.259,0,0,0,.027.662,3.222,3.222,0,0,0,.665,1.534,17.491,17.491,0,0,0,5.456-.505" transform="translate(-68.634 -36.339)" fill="#491b24"/>
            <path id="Trazado_983559" data-name="Trazado 983559" d="M163.537,91.581s4.171-6.576,10.145-1.446" transform="translate(-67.314 -36.295)" fill="none" stroke="#491b24" stroke-miterlimit="10" stroke-width="1.196"/>
            <path id="Trazado_983560" data-name="Trazado 983560" d="M148.215,91.621s-4.189-6.445-10.145-1.446c2.457,2.568,10.145,1.446,10.145,1.446" transform="translate(-56.832 -36.336)" fill="#fff"/>
            <path id="Trazado_983561" data-name="Trazado 983561" d="M141.391,91.339a3.238,3.238,0,0,1-.334-1.949,3.32,3.32,0,0,1,.113-.457,5.778,5.778,0,0,1,6.37.715,3.3,3.3,0,0,1-.027.662,3.222,3.222,0,0,1-.665,1.534,17.491,17.491,0,0,1-5.456-.505" transform="translate(-58.048 -36.339)" fill="#491b24"/>
            <path id="Trazado_983562" data-name="Trazado 983562" d="M148.215,91.581S144.044,85,138.07,90.135" transform="translate(-56.832 -36.295)" fill="none" stroke="#491b24" stroke-miterlimit="10" stroke-width="1.196"/>
            <path id="Trazado_983563" data-name="Trazado 983563" d="M155.451,110.224a28.329,28.329,0,0,1-5-.447.572.572,0,0,0-.533.941,7.487,7.487,0,0,0,11.064,0,.572.572,0,0,0-.533-.941,28.329,28.329,0,0,1-5,.447" transform="translate(-61.648 -45.182)" fill="#fff"/>
            <path id="Trazado_983564" data-name="Trazado 983564" d="M161.369,100.724l-3.1.82.34-7.167" transform="translate(-65.147 -38.847)" fill="none" stroke="#931c0f" stroke-miterlimit="10" stroke-width="0.553"/>
            <path id="Trazado_983565" data-name="Trazado 983565" d="M168.656,79.373a9.907,9.907,0,0,1,6.783,1.807c-.114-2.036-2.376-4.638-6-4.865a2.286,2.286,0,0,0-2.2.742,1.519,1.519,0,0,0,1.409,2.316" transform="translate(-68.738 -31.408)" fill="#491b24"/>
            <path id="Trazado_983566" data-name="Trazado 983566" d="M144.288,79.373a9.907,9.907,0,0,0-6.783,1.807c.114-2.036,2.376-4.638,6-4.865a2.286,2.286,0,0,1,2.2.742,1.519,1.519,0,0,1-1.409,2.316" transform="translate(-56.599 -31.408)" fill="#491b24"/>
            <g id="Grupo_1148590" data-name="Grupo 1148590" transform="translate(98.481 57.556)" opacity="0.43">
              <g id="Grupo_1148589" data-name="Grupo 1148589">
                <g id="Grupo_1148588" data-name="Grupo 1148588" clip-path="url(#clip-path-19)">
                  <path id="Trazado_983567" data-name="Trazado 983567" d="M174.463,99.491c0,.923-1.586,1.67-3.544,1.67s-3.544-.748-3.544-1.67,1.587-1.67,3.544-1.67,3.544.748,3.544,1.67" transform="translate(-167.375 -97.821)" fill="#ad300e"/>
                </g>
              </g>
            </g>
            <g id="Grupo_1148593" data-name="Grupo 1148593" transform="translate(82.037 57.556)" opacity="0.43">
              <g id="Grupo_1148592" data-name="Grupo 1148592">
                <g id="Grupo_1148591" data-name="Grupo 1148591" clip-path="url(#clip-path-19)">
                  <path id="Trazado_983568" data-name="Trazado 983568" d="M139.428,99.491c0,.923,1.587,1.67,3.544,1.67s3.544-.748,3.544-1.67-1.587-1.67-3.544-1.67-3.544.748-3.544,1.67" transform="translate(-139.428 -97.821)" fill="#ad300e"/>
                </g>
              </g>
            </g>
            <g id="Grupo_1148596" data-name="Grupo 1148596" transform="translate(82.441 35.852)" opacity="0.26" style="mix-blend-mode: overlay;isolation: isolate">
              <g id="Grupo_1148595" data-name="Grupo 1148595">
                <g id="Grupo_1148594" data-name="Grupo 1148594" clip-path="url(#clip-path-21)">
                  <path id="Trazado_983569" data-name="Trazado 983569" d="M160.035,60.933c-2.646,2.7-8.282,7.87-12.864,8.037-6.216.226.572-7.58.572-7.58a40.625,40.625,0,0,1-7.293,5.9c-.693,7.314-2.025,34.277,16.193,32.308,5.478-3.021,8.478-11.3,9.54-23.667.527-8.3-2.628-12.68-6.148-15" transform="translate(-140.114 -60.933)" fill="#fff"/>
                </g>
              </g>
            </g>
            <path id="Trazado_983570" data-name="Trazado 983570" d="M117.5,32.4s-3.041,6.516-13.9,3.491-3.829-11.062,8.186-12.148c0-8.471,6.565-12.966,11.95-14.118,10.144-2.172,15.269,3.91,18.093,7.168,9.34-4.127,18.68-1.738,18.245,7.385,9.123.868,11.078,11.512,1.3,11.078s-14.007-5-14.007-5Z" transform="translate(-40.428 -3.773)" fill="#e0dbc3"/>
            <path id="Trazado_983571" data-name="Trazado 983571" d="M116.087,32.4c-12.108-1.755-7.491-6.267,1.8-8.439C118.705,12.576,131.545,9.6,131.555,9.6a17.444,17.444,0,0,0-7.82.028c-5.385,1.153-11.95,5.647-11.95,14.118C99.771,24.83,92.739,32.867,103.6,35.892c8.116,2.261,11.864-.806,13.24-2.5a5.935,5.935,0,0,0-.753-.99" transform="translate(-40.428 -3.774)" fill="#c1bca8"/>
            <path id="Trazado_983572" data-name="Trazado 983572" d="M125.721,45.211s19.213-9.893,37.827,0l1.374-5.47s-7.777-9.122-20.288-9.122-20.288,9.122-20.288,9.122Z" transform="translate(-51.183 -12.603)" fill="#f0ebd6"/>
            <path id="Trazado_983573" data-name="Trazado 983573" d="M186.483,28.58c3.533,1.354,10.639,3.975,10.63,9.194,3.107-2.86.3-8.979-6.529-9.628.434-9.123-8.906-11.512-18.246-7.385,0,0,13.3-4.778,14.145,7.82" transform="translate(-70.937 -7.741)" fill="#f0ebd6"/>
            <path id="Trazado_983574" data-name="Trazado 983574" d="M124.346,39.741a27.12,27.12,0,0,1,40.576,0" transform="translate(-51.183 -12.603)" fill="none" stroke="#c1bca8" stroke-miterlimit="10" stroke-width="0.744"/>
            <line id="Línea_601" data-name="Línea 601" x2="1.722" y2="7.933" transform="translate(77.763 22.577)" fill="none" stroke="#c1bca8" stroke-miterlimit="10" stroke-width="0.744"/>
            <line id="Línea_602" data-name="Línea 602" x2="1.357" y2="9.82" transform="translate(87.283 18.753)" fill="none" stroke="#c1bca8" stroke-miterlimit="10" stroke-width="0.744"/>
            <line id="Línea_603" data-name="Línea 603" x1="1.61" y2="8.43" transform="translate(103.741 20.893)" fill="none" stroke="#c1bca8" stroke-miterlimit="10" stroke-width="0.744"/>
            <path id="Trazado_983575" data-name="Trazado 983575" d="M158.523,143.82l-12.767,2.919c-3.857.882-14.765,4.468-14.765,4.468s-10.908-3.586-14.764-4.468l-12.768-2.919S89.276,192.039,90.411,270.609a167.538,167.538,0,0,0,40.58,4.255,167.536,167.536,0,0,0,40.58-4.255c1.135-78.569-13.047-126.789-13.047-126.789" transform="translate(-37.188 -59.199)" fill="#f0ebd6"/>
            <path id="Trazado_983576" data-name="Trazado 983576" d="M80.5,143.8a19.271,19.271,0,0,0-13.686,4.822c-5.956,5.531-25.954,44.887-29.357,58.714s-5.531,14.678,3.83,20.21S72.554,238.82,72.554,238.82l3.191-19.571L64.9,212.441l7.316-25.516S77.376,152.592,80.5,143.8" transform="translate(-14.225 -59.178)" fill="#e0dbc3"/>
            <line id="Línea_604" data-name="Línea 604" x1="14.041" y1="8.297" transform="translate(36.63 144.966)" fill="none" stroke="#9b9478" stroke-miterlimit="10" stroke-width="0.728"/>
            <line id="Línea_605" data-name="Línea 605" x2="6.246" y2="8.593" transform="translate(40.246 142.201)" fill="none" stroke="#9b9478" stroke-miterlimit="10" stroke-width="0.728"/>
            <path id="Trazado_983577" data-name="Trazado 983577" d="M45.112,267.849a12.119,12.119,0,0,1-2.168,6.929c-.586-.3-1.146-.61-1.661-.915-8.723-5.154-7.468-6.249-4.5-17.566a12.181,12.181,0,0,1,8.332,11.552" transform="translate(-14.225 -105.496)" fill="#d3cdb6"/>
            <path id="Trazado_983578" data-name="Trazado 983578" d="M80.7,223.494s-9.36-20.848-4.042-30.846,0,22.975,4.042,30.846" transform="translate(-30.881 -78.527)" fill="#d3cdb6"/>
            <path id="Trazado_983579" data-name="Trazado 983579" d="M162.776,137.382l-3.351,10.211s9.159-1.7,14.764-4.468l-1.414-8.084a94.578,94.578,0,0,1-10,2.34" transform="translate(-65.622 -55.585)" fill="#f0ebd6"/>
            <path id="Trazado_983580" data-name="Trazado 983580" d="M145.744,137.382l3.351,10.211s-9.159-1.7-14.764-4.468l1.414-8.084a94.578,94.578,0,0,0,10,2.34" transform="translate(-55.293 -55.585)" fill="#f0ebd6"/>
            <path id="Trazado_983581" data-name="Trazado 983581" d="M174.189,148.781a34.228,34.228,0,0,1-14.765,4.468" transform="translate(-65.621 -61.241)" fill="none" stroke="#9b9478" stroke-miterlimit="10" stroke-width="0.728"/>
            <path id="Trazado_983582" data-name="Trazado 983582" d="M206.217,143.8a19.271,19.271,0,0,1,13.686,4.822c5.956,5.531,25.954,44.887,29.357,58.714s5.531,14.678-3.829,20.21-31.272,11.275-31.272,11.275l-3.191-19.571,10.849-6.808L214.5,186.924s-5.164-34.332-8.284-43.125" transform="translate(-84.882 -59.178)" fill="#e0dbc3"/>
            <line id="Línea_606" data-name="Línea 606" y1="8.297" x2="14.041" transform="translate(136.935 144.966)" fill="none" stroke="#9b9478" stroke-miterlimit="10" stroke-width="0.728"/>
            <line id="Línea_607" data-name="Línea 607" x1="6.246" y2="8.593" transform="translate(141.114 142.201)" fill="none" stroke="#9b9478" stroke-miterlimit="10" stroke-width="0.728"/>
            <path id="Trazado_983583" data-name="Trazado 983583" d="M266.356,267.849a12.119,12.119,0,0,0,2.168,6.929c.586-.3,1.146-.61,1.661-.915,8.723-5.154,7.468-6.249,4.5-17.566a12.181,12.181,0,0,0-8.332,11.552" transform="translate(-109.636 -105.496)" fill="#d3cdb6"/>
            <path id="Trazado_983584" data-name="Trazado 983584" d="M234.177,223.494s9.36-20.848,4.042-30.846,0,22.975-4.042,30.846" transform="translate(-96.391 -78.527)" fill="#d3cdb6"/>
            <path id="Trazado_983585" data-name="Trazado 983585" d="M171.629,151.358c3.2,23.1,2.866,110.288,2.78,125.835,1.632-.076,3.431-.184,5.377-.335,1.525-34.906-2.774-127.1-2.774-127.1-1.585.442-3.515,1.025-5.383,1.6" transform="translate(-70.645 -61.641)" fill="#c1411a"/>
            <path id="Trazado_983586" data-name="Trazado 983586" d="M171.576,354.273q.053-3.641.062-7.194c-28.431,8.8-68.5,3.058-81.278.856q.013,3.138.057,6.338A167.571,167.571,0,0,0,131,358.528a167.573,167.573,0,0,0,40.58-4.255" transform="translate(-37.194 -142.863)" fill="#c1411a"/>
            <path id="Trazado_983587" data-name="Trazado 983587" d="M160.26,172.639a2.765,2.765,0,1,1-2.765-2.765,2.765,2.765,0,0,1,2.765,2.765" transform="translate(-63.689 -69.923)" fill="#72130a"/>
            <path id="Trazado_983588" data-name="Trazado 983588" d="M160.26,209.843a2.765,2.765,0,1,1-2.765-2.765,2.765,2.765,0,0,1,2.765,2.765" transform="translate(-63.689 -85.237)" fill="#72130a"/>
            <path id="Trazado_983589" data-name="Trazado 983589" d="M160.26,335.585a2.765,2.765,0,1,1-2.765-2.765,2.765,2.765,0,0,1,2.765,2.765" transform="translate(-63.689 -136.994)" fill="#72130a"/>
            <path id="Trazado_983590" data-name="Trazado 983590" d="M160.26,247.048a2.765,2.765,0,1,1-2.765-2.765,2.765,2.765,0,0,1,2.765,2.765" transform="translate(-63.689 -100.551)" fill="#72130a"/>
            <path id="Trazado_983591" data-name="Trazado 983591" d="M171.988,144.8l-6.885-1.116,1.619-5.964c-1.436.334-2.863.627-3.946.764L159.424,148.7s1.7.52,10-1.873Z" transform="translate(-65.621 -56.688)" fill="#c1411a"/>
            <g id="Grupo_1148599" data-name="Grupo 1148599" transform="translate(126.086 155.486)" style="mix-blend-mode: multiply;isolation: isolate">
              <g id="Grupo_1148598" data-name="Grupo 1148598">
                <g id="Grupo_1148597" data-name="Grupo 1148597" clip-path="url(#clip-path-22)">
                  <path id="Trazado_983592" data-name="Trazado 983592" d="M221.6,264.26l-7.306,4.584,3.191,19.571s7.432-1.949,15.487-4.669c3.922-13.158-5.956-17.906-11.372-19.487" transform="translate(-214.292 -264.26)" fill="#e0dbc3"/>
                </g>
              </g>
            </g>
            <g id="Grupo_1148602" data-name="Grupo 1148602" transform="translate(41.949 155.486)" style="mix-blend-mode: multiply;isolation: isolate">
              <g id="Grupo_1148601" data-name="Grupo 1148601">
                <g id="Grupo_1148600" data-name="Grupo 1148600" clip-path="url(#clip-path-22)">
                  <path id="Trazado_983593" data-name="Trazado 983593" d="M83.564,264.26l7.306,4.584L87.68,288.416s-7.432-1.949-15.487-4.669c-3.922-13.158,5.956-17.906,11.372-19.487" transform="translate(-71.295 -264.26)" fill="#e0dbc3"/>
                </g>
              </g>
            </g>
            <g id="Grupo_1148605" data-name="Grupo 1148605" transform="translate(53.36 170.169)" style="mix-blend-mode: multiply;isolation: isolate">
              <g id="Grupo_1148604" data-name="Grupo 1148604">
                <g id="Grupo_1148603" data-name="Grupo 1148603" clip-path="url(#clip-path-24)">
                  <path id="Trazado_983594" data-name="Trazado 983594" d="M90.688,305.886c4.409,2.769,17.844,9.82,40.371,9.82,22.545,0,36.078-7.061,40.515-9.826q-.184-7.152-.522-13.867l-79.7-2.8q-.435,8.015-.667,16.672" transform="translate(-90.688 -289.214)" fill="#e0dbc3"/>
                </g>
              </g>
            </g>
            <path id="Trazado_983595" data-name="Trazado 983595" d="M173.149,275.4c0,10.554-21.072,19.11-47.067,19.11S79.016,285.95,79.016,275.4s21.072-19.11,47.066-19.11,47.067,8.556,47.067,19.11" transform="translate(-32.524 -105.491)" fill="#e0dbc3"/>
            <path id="Trazado_983596" data-name="Trazado 983596" d="M173.149,273.991c0,9.779-21.072,17.706-47.067,17.706s-47.066-7.927-47.066-17.706,21.072-17.706,47.066-17.706,47.067,7.927,47.067,17.706" transform="translate(-32.524 -105.491)" fill="#f7f5eb"/>
            <path id="Trazado_983597" data-name="Trazado 983597" d="M169.429,276.748c0,5.981-15.091,10.83-33.706,10.83s-33.706-4.849-33.706-10.83,15.091-10.83,33.706-10.83S169.429,270.767,169.429,276.748Z" transform="translate(-41.992 -109.456)" fill="none" stroke="#9b9478" stroke-miterlimit="10" stroke-width="0.77"/>
            <path id="Trazado_983598" data-name="Trazado 983598" d="M125.657,266.031s4.912-6.536-.5-11.672-7.727-7.44-8.329-9.144c-2.174,4.01-5.211,23.692,8.826,20.816" transform="translate(-47.318 -100.934)" fill="#616602"/>
            <path id="Trazado_983599" data-name="Trazado 983599" d="M130.033,272.214s-8.765-8.82-10.717-19.706a.275.275,0,0,0-.546.044c-.015,6.864,5.625,15.089,11.12,20.646Z" transform="translate(-48.888 -103.843)" fill="#9fa52f"/>
            <path id="Trazado_983600" data-name="Trazado 983600" d="M126.052,274.442a13.359,13.359,0,0,1-4.007-.542.2.2,0,0,0-.159.355,10.931,10.931,0,0,0,4,1.331Z" transform="translate(-50.13 -112.737)" fill="#9fa52f"/>
            <path id="Trazado_983601" data-name="Trazado 983601" d="M127.432,273.189a13.5,13.5,0,0,0,1.771-3.39.222.222,0,0,1,.431.1,11.04,11.04,0,0,1-1.169,3.81Z" transform="translate(-52.453 -110.991)" fill="#9fa52f"/>
            <path id="Trazado_983602" data-name="Trazado 983602" d="M125.708,267.656a7.238,7.238,0,0,0,.743-3.183.172.172,0,0,0-.339-.047,4.684,4.684,0,0,1-.926,2.322c-.366.77.522.908.522.908" transform="translate(-51.492 -108.787)" fill="#9fa52f"/>
            <path id="Trazado_983603" data-name="Trazado 983603" d="M122.975,269.7a7.229,7.229,0,0,1-3.144-.871.172.172,0,0,1,.121-.321,4.682,4.682,0,0,0,2.477.3c.851.048.547.893.547.893" transform="translate(-49.284 -110.519)" fill="#9fa52f"/>
            <path id="Trazado_983604" data-name="Trazado 983604" d="M120.109,262.019a3.428,3.428,0,0,1-2.02-.92.242.242,0,0,1,.242-.414c.743.318,1.466.57,1.824-.007Z" transform="translate(-48.568 -107.294)" fill="#9fa52f"/>
            <path id="Trazado_983605" data-name="Trazado 983605" d="M121.7,261.351a3.307,3.307,0,0,0,1.19-1.693.261.261,0,0,0-.45-.255c-.443.61-.907,1.117-1.477.828Z" transform="translate(-49.792 -106.73)" fill="#9fa52f"/>
            <path id="Trazado_983606" data-name="Trazado 983606" d="M185.168,266.031s-4.912-6.536.5-11.672,7.727-7.44,8.329-9.144c2.174,4.01,5.211,23.692-8.826,20.816" transform="translate(-75.377 -100.934)" fill="#616602"/>
            <path id="Trazado_983607" data-name="Trazado 983607" d="M181.827,272.214s8.765-8.82,10.717-19.706a.275.275,0,0,1,.546.044c.015,6.864-5.625,15.089-11.12,20.646Z" transform="translate(-74.843 -103.843)" fill="#9fa52f"/>
            <path id="Trazado_983608" data-name="Trazado 983608" d="M190.705,274.442a13.356,13.356,0,0,0,4.006-.542.2.2,0,0,1,.159.355,10.931,10.931,0,0,1-4,1.331Z" transform="translate(-78.497 -112.737)" fill="#9fa52f"/>
            <path id="Trazado_983609" data-name="Trazado 983609" d="M190.766,273.189a13.492,13.492,0,0,1-1.772-3.39.222.222,0,0,0-.431.1,11.054,11.054,0,0,0,1.169,3.81Z" transform="translate(-77.615 -110.991)" fill="#9fa52f"/>
            <path id="Trazado_983610" data-name="Trazado 983610" d="M193.085,267.656a7.238,7.238,0,0,1-.743-3.183.172.172,0,0,1,.339-.047,4.685,4.685,0,0,0,.926,2.322c.366.77-.522.908-.522.908" transform="translate(-79.171 -108.787)" fill="#9fa52f"/>
            <path id="Trazado_983611" data-name="Trazado 983611" d="M194.459,269.7a7.229,7.229,0,0,0,3.144-.871.172.172,0,0,0-.121-.321,4.682,4.682,0,0,1-2.477.3c-.851.048-.547.893-.547.893" transform="translate(-80.021 -110.519)" fill="#9fa52f"/>
            <path id="Trazado_983612" data-name="Trazado 983612" d="M198.119,262.019a3.428,3.428,0,0,0,2.02-.92.242.242,0,0,0-.242-.414c-.744.318-1.466.57-1.824-.007Z" transform="translate(-81.53 -107.294)" fill="#9fa52f"/>
            <path id="Trazado_983613" data-name="Trazado 983613" d="M196.671,261.351a3.307,3.307,0,0,1-1.19-1.693.261.261,0,0,1,.45-.255c.443.61.907,1.117,1.477.828Z" transform="translate(-80.455 -106.73)" fill="#9fa52f"/>
            <path id="Trazado_983614" data-name="Trazado 983614" d="M136.181,268.578a4.765,4.765,0,1,1-4.765-4.765,4.765,4.765,0,0,1,4.765,4.765" transform="translate(-52.132 -108.59)" fill="#ad300e"/>
            <path id="Trazado_983615" data-name="Trazado 983615" d="M132.511,272.66a4.76,4.76,0,0,1-4.416-6.547,4.763,4.763,0,1,0,7.739,5.194,4.747,4.747,0,0,1-3.323,1.353" transform="translate(-52.132 -109.536)" fill="#8c240c"/>
            <g id="Grupo_1148608" data-name="Grupo 1148608" transform="translate(79.106 156.313)" opacity="0.44" style="mix-blend-mode: overlay;isolation: isolate">
              <g id="Grupo_1148607" data-name="Grupo 1148607">
                <g id="Grupo_1148606" data-name="Grupo 1148606" clip-path="url(#clip-path-25)">
                  <path id="Trazado_983616" data-name="Trazado 983616" d="M137.623,267.224c.7,1.214.671,2.544-.066,2.969s-1.9-.214-2.6-1.427-.671-2.543.066-2.969,1.9.214,2.6,1.427" transform="translate(-134.446 -265.665)" fill="#fff"/>
                </g>
              </g>
            </g>
            <path id="Trazado_983617" data-name="Trazado 983617" d="M134.331,148.781a34.224,34.224,0,0,0,14.765,4.468" transform="translate(-55.293 -61.241)" fill="none" stroke="#9b9478" stroke-miterlimit="10" stroke-width="0.728"/>
            <path id="Trazado_983618" data-name="Trazado 983618" d="M206.217,143.82s5.223,20.729,8.284,43.125" transform="translate(-84.882 -59.199)" fill="none" stroke="#9b9478" stroke-miterlimit="10" stroke-width="0.728"/>
            <path id="Trazado_983619" data-name="Trazado 983619" d="M106.836,143.82s-6.111,24.374-8.284,43.125" transform="translate(-40.566 -59.199)" fill="none" stroke="#9b9478" stroke-miterlimit="10" stroke-width="0.728"/>
            <path id="Trazado_983620" data-name="Trazado 983620" d="M128.914,150.022s-13.741-1.269-17.31-2.934" transform="translate(-45.938 -60.544)" fill="none" stroke="#9b9478" stroke-miterlimit="10" stroke-width="0.728"/>
            <path id="Trazado_983621" data-name="Trazado 983621" d="M180.778,149.6s11.307.335,15.553-1.69" transform="translate(-74.411 -60.882)" fill="none" stroke="#9b9478" stroke-miterlimit="10" stroke-width="0.728"/>
            <path id="Trazado_983622" data-name="Trazado 983622" d="M154.129,279.329a20.372,20.372,0,0,1-2.186-6.536l-2.67-.344-2.167,1.6a20.376,20.376,0,0,1,1.264,6.775,2.719,2.719,0,0,0,3.705,2.483l.01,0h.012a2.72,2.72,0,0,0,2.033-3.97" transform="translate(-60.551 -112.144)" fill="#a89682"/>
            <path id="Trazado_983623" data-name="Trazado 983623" d="M146.5,269.973a5.661,5.661,0,0,1,5.227.933,1.121,1.121,0,0,0,1.823-.86,7.041,7.041,0,1,0-13.167,3.432,1.118,1.118,0,0,0,2-.149,5.662,5.662,0,0,1,4.117-3.357" transform="translate(-57.405 -108.24)" fill="#a89682"/>
            <g id="Grupo_1148611" data-name="Grupo 1148611" transform="translate(90.302 163.548)" opacity="0.26" style="mix-blend-mode: overlay;isolation: isolate">
              <g id="Grupo_1148610" data-name="Grupo 1148610">
                <g id="Grupo_1148609" data-name="Grupo 1148609" clip-path="url(#clip-path-26)">
                  <path id="Trazado_983624" data-name="Trazado 983624" d="M154.411,278.348a30.751,30.751,0,0,0,1.27,3.35c.665,1.4.085,2.659-.787,2.784s-.506-1.176-.537-2.073a15.128,15.128,0,0,0-.81-3.51c-.265-.635.236-1.419.863-.551" transform="translate(-153.475 -277.962)" fill="#fff"/>
                </g>
              </g>
            </g>
            <g id="Grupo_1148614" data-name="Grupo 1148614" transform="translate(87.866 155.659)" opacity="0.26" style="mix-blend-mode: overlay;isolation: isolate">
              <g id="Grupo_1148613" data-name="Grupo 1148613">
                <g id="Grupo_1148612" data-name="Grupo 1148612" clip-path="url(#clip-path-27)">
                  <path id="Trazado_983625" data-name="Trazado 983625" d="M150.375,264.609s3.523.4,5.075,2.51,1.578,3.375.6,2.336-2.222-2.827-4.571-3.123-2.855-2.12-1.109-1.723" transform="translate(-149.335 -264.553)" fill="#fff"/>
                </g>
              </g>
            </g>
            <g id="Grupo_1148617" data-name="Grupo 1148617" transform="translate(83.012 158.578)" opacity="0.6">
              <g id="Grupo_1148616" data-name="Grupo 1148616">
                <g id="Grupo_1148615" data-name="Grupo 1148615" clip-path="url(#clip-path-28)">
                  <path id="Trazado_983626" data-name="Trazado 983626" d="M141.531,270.073a7.3,7.3,0,0,0,.021,5.122c.481,1.082.687.71.961-.559s.281-3.2.971-4.024-1.349-1.7-1.952-.54" transform="translate(-141.084 -269.514)" fill="#664f38"/>
                </g>
              </g>
            </g>
            <path id="Trazado_983627" data-name="Trazado 983627" d="M169.907,282a20.385,20.385,0,0,1,.544-6.871l-2.323-1.361-2.619.623a20.38,20.38,0,0,1-1.486,6.73,2.719,2.719,0,0,0,2.439,3.734h.011l.011,0A2.719,2.719,0,0,0,169.907,282" transform="translate(-67.434 -112.686)" fill="#a89682"/>
            <path id="Trazado_983628" data-name="Trazado 983628" d="M165.836,271.343a5.662,5.662,0,0,1,4.446,2.9,1.121,1.121,0,0,0,2.013-.078,7.041,7.041,0,1,0-13.46-1.989,1.118,1.118,0,0,0,1.9.645,5.662,5.662,0,0,1,5.1-1.48" transform="translate(-65.36 -108.804)" fill="#a89682"/>
            <g id="Grupo_1148620" data-name="Grupo 1148620" transform="translate(99.268 164.813)" opacity="0.26" style="mix-blend-mode: overlay;isolation: isolate">
              <g id="Grupo_1148619" data-name="Grupo 1148619">
                <g id="Grupo_1148618" data-name="Grupo 1148618" clip-path="url(#clip-path-29)">
                  <path id="Trazado_983629" data-name="Trazado 983629" d="M171.034,280.7a30.809,30.809,0,0,0-.141,3.58c.064,1.551-.961,2.481-1.813,2.255s-.006-1.28.316-2.118a15.138,15.138,0,0,0,.628-3.547c0-.688.771-1.214,1.009-.169" transform="translate(-168.712 -280.112)" fill="#fff"/>
                </g>
              </g>
            </g>
            <g id="Grupo_1148623" data-name="Grupo 1148623" transform="translate(101.52 156.621)" opacity="0.26" style="mix-blend-mode: overlay;isolation: isolate">
              <g id="Grupo_1148622" data-name="Grupo 1148622">
                <g id="Grupo_1148621" data-name="Grupo 1148621" clip-path="url(#clip-path-30)">
                  <path id="Trazado_983630" data-name="Trazado 983630" d="M173.679,266.495s3.085,1.748,3.689,4.295.134,3.723-.356,2.386-.941-3.47-2.986-4.661-1.8-3.067-.347-2.02" transform="translate(-172.54 -266.188)" fill="#fff"/>
                </g>
              </g>
            </g>
            <g id="Grupo_1148626" data-name="Grupo 1148626" transform="translate(94.322 157.712)" opacity="0.6">
              <g id="Grupo_1148625" data-name="Grupo 1148625">
                <g id="Grupo_1148624" data-name="Grupo 1148624" clip-path="url(#clip-path-31)">
                  <path id="Trazado_983631" data-name="Trazado 983631" d="M162.291,268.278A7.3,7.3,0,0,0,160.307,273c.02,1.184.354.922,1.1-.139s1.51-2.838,2.467-3.324-.575-2.093-1.586-1.26" transform="translate(-160.306 -268.042)" fill="#664f38"/>
                </g>
              </g>
            </g>
            <path id="Trazado_983632" data-name="Trazado 983632" d="M182,261.7s-3.784,7.589-5.773,11.065-3.266,1.932-4.019,1.246,3.968-9.827,6.874-13.465S182,261.7,182,261.7" transform="translate(-70.851 -106.682)" fill="#52722e"/>
            <path id="Trazado_983633" data-name="Trazado 983633" d="M186.973,251.957a.96.96,0,0,1,.826.894,7.417,7.417,0,0,1-.477,2.807c-.8,2.355-2.29,5.975-3.25,5.54-.944-.682-.211-1.92-.211-1.92s-.79,1.334-1.267,1.053.116-1.729.116-1.729-1.346,1.756-1.981,1.137,2-3.663,3.164-5.5c.948-1.49,2.035-2.412,3.08-2.284" transform="translate(-74.351 -103.704)" fill="#2a4c07"/>
            <path id="Trazado_983634" data-name="Trazado 983634" d="M180.336,270.417s-3.024,6.942-4.6,7.836,4.6-7.836,4.6-7.836" transform="translate(-72.231 -111.308)" fill="#2a4c07"/>
            <path id="Trazado_983635" data-name="Trazado 983635" d="M179.533,268.03a38.185,38.185,0,0,0-2.688,3.706c-1.446,2.246,2.385-1.22,2.688-3.706" transform="translate(-72.658 -110.325)" fill="#2a4c07"/>
            <path id="Trazado_983636" data-name="Trazado 983636" d="M210.267,277.561a3.509,3.509,0,0,0,1.353-5.583,3.517,3.517,0,0,0-1.551-6.4,3.517,3.517,0,0,0-3.248-5.732,3.514,3.514,0,0,0-7.026.162,2.85,2.85,0,0,0-1.62,5.04,9.373,9.373,0,0,0,3.58,9.052,2.85,2.85,0,0,0,4.629,2.568,3.515,3.515,0,0,0,3.884.9" transform="translate(-81.146 -105.558)" fill="#2a4c07"/>
            <g id="Grupo_1148629" data-name="Grupo 1148629" transform="translate(119.031 150.89)" opacity="0.43" style="mix-blend-mode: overlay;isolation: isolate">
              <g id="Grupo_1148628" data-name="Grupo 1148628">
                <g id="Grupo_1148627" data-name="Grupo 1148627" clip-path="url(#clip-path-32)">
                  <path id="Trazado_983637" data-name="Trazado 983637" d="M205.505,260.455a3.292,3.292,0,0,1,.225,1.1,3.3,3.3,0,0,1,3.046,5.374,3.3,3.3,0,0,1,1.453,6,3.266,3.266,0,0,1,.586.955,3.3,3.3,0,0,1-.914,3.709,3.512,3.512,0,0,0,4.467-4.6,3.532,3.532,0,0,0-.625-1.019,3.517,3.517,0,0,0-1.551-6.4,3.517,3.517,0,0,0-3.248-5.731,3.511,3.511,0,0,0-6.643-1.468,3.3,3.3,0,0,1,3.2,2.079" transform="translate(-202.302 -256.448)" fill="#fff"/>
                </g>
              </g>
            </g>
            <path id="Trazado_983638" data-name="Trazado 983638" d="M197.783,274.14s-1.448-4.1-3.241-3.392c-1.293,3.294-10.583,7.142-10.583,7.142l.587,1.485.587,1.485s9.409-3.547,12.6-2.029c1.793-.709.045-4.691.045-4.691" transform="translate(-75.72 -111.41)" fill="#52722e"/>
            <path id="Trazado_983639" data-name="Trazado 983639" d="M197.167,274.9a44.47,44.47,0,0,1-8.13,4.433c-4.247,1.679,6.142.179,8.13-4.433" transform="translate(-77.395 -113.152)" fill="#2a4c07"/>
            <path id="Trazado_983640" data-name="Trazado 983640" d="M202.469,280.731a34,34,0,0,0-5.44,1.227c1.927-1.284,4.9-2.178,5.44-1.227" transform="translate(-81.1 -115.39)" fill="#2a4c07"/>
            <path id="Trazado_983641" data-name="Trazado 983641" d="M195.973,275.674c-.1,1.79-3.361,3.064-7.282,2.844s-7.019-1.849-6.919-3.64,3.361-3.064,7.282-2.844S196.073,273.883,195.973,275.674Z" transform="translate(-74.819 -111.963)" fill="none" stroke="#6a5077" stroke-miterlimit="10" stroke-width="1.391"/>
            <path id="Trazado_983642" data-name="Trazado 983642" d="M195.789,275.9c-.091,1.614-3.143,2.755-6.818,2.549s-6.582-1.681-6.492-3.295,3.143-2.755,6.819-2.549S195.88,274.29,195.789,275.9Z" transform="translate(-75.111 -112.2)" fill="none" stroke="#fff6de" stroke-miterlimit="10" stroke-width="1.278"/>
            <path id="Trazado_983643" data-name="Trazado 983643" d="M189.029,267.633c.811,1.6-1.37,4.336-4.872,6.115s-7,1.923-7.811.324,1.369-4.336,4.871-6.115S188.216,266.034,189.029,267.633Z" transform="translate(-72.517 -109.705)" fill="none" stroke="#6a5077" stroke-miterlimit="10" stroke-width="1.391"/>
            <path id="Trazado_983644" data-name="Trazado 983644" d="M188.9,268.126c.732,1.441-1.336,3.96-4.618,5.627s-6.536,1.849-7.268.408,1.336-3.96,4.618-5.627S188.166,266.684,188.9,268.126Z" transform="translate(-72.8 -109.965)" fill="none" stroke="#fff6de" stroke-miterlimit="10" stroke-width="1.278"/>
            <path id="Trazado_983645" data-name="Trazado 983645" d="M97.128,277.561a3.509,3.509,0,0,1-1.353-5.583,3.517,3.517,0,0,1,1.551-6.4,3.517,3.517,0,0,1,3.248-5.732,3.514,3.514,0,0,1,7.026.162,2.85,2.85,0,0,1,1.62,5.04,9.373,9.373,0,0,1-3.58,9.052,2.85,2.85,0,0,1-4.629,2.568,3.515,3.515,0,0,1-3.884.9" transform="translate(-38.787 -105.558)" fill="#2a4c07"/>
            <g id="Grupo_1148632" data-name="Grupo 1148632" transform="translate(55.444 150.89)" opacity="0.43" style="mix-blend-mode: overlay;isolation: isolate">
              <g id="Grupo_1148631" data-name="Grupo 1148631">
                <g id="Grupo_1148630" data-name="Grupo 1148630" clip-path="url(#clip-path-33)">
                  <path id="Trazado_983646" data-name="Trazado 983646" d="M104.014,260.455a3.278,3.278,0,0,0-.226,1.1,3.3,3.3,0,0,0-3.045,5.374,3.3,3.3,0,0,0-1.454,6,3.283,3.283,0,0,0,.329,4.664,3.511,3.511,0,0,1-3.842-5.616,3.517,3.517,0,0,1,1.55-6.4,3.517,3.517,0,0,1,3.248-5.731,3.511,3.511,0,0,1,6.643-1.468,3.3,3.3,0,0,0-3.2,2.079" transform="translate(-94.23 -256.448)" fill="#fff"/>
                </g>
              </g>
            </g>
            <path id="Trazado_983647" data-name="Trazado 983647" d="M110.617,274.14s1.448-4.1,3.241-3.392c1.293,3.294,10.583,7.142,10.583,7.142l-.587,1.485-.587,1.485s-9.409-3.547-12.6-2.029c-1.793-.709-.045-4.691-.045-4.691" transform="translate(-45.217 -111.41)" fill="#52722e"/>
            <path id="Trazado_983648" data-name="Trazado 983648" d="M115.043,274.9a44.47,44.47,0,0,0,8.13,4.433c4.247,1.679-6.142.179-8.13-4.433" transform="translate(-47.353 -113.152)" fill="#2a4c07"/>
            <path id="Trazado_983649" data-name="Trazado 983649" d="M112.331,280.731a34,34,0,0,1,5.44,1.227c-1.927-1.284-4.9-2.178-5.44-1.227" transform="translate(-46.237 -115.39)" fill="#2a4c07"/>
            <path id="Trazado_983650" data-name="Trazado 983650" d="M164.484,281.76l-6.549.193c-1.5-.361-3.234-.692-5.164-.975a62.957,62.957,0,0,0-22.986,1.081,14.47,14.47,0,0,0-2.937.81l-3.557.1v3.4a1.783,1.783,0,0,0,1.778,1.851c3.121.41,20.493.654,32.378-.522,4.81-.475,6.976-1.373,7.035-2.392h0Z" transform="translate(-50.747 -115.41)" fill="#631c1c"/>
            <path id="Trazado_983651" data-name="Trazado 983651" d="M129.784,276.275a62.956,62.956,0,0,1,22.986-1.081c12.31,1.806,16.56,5.553,4.675,6.729s-29.258.933-32.378.522-2.5-4.913,4.716-6.17" transform="translate(-50.746 -113.029)" fill="#892929"/>
            <path id="Trazado_983652" data-name="Trazado 983652" d="M143.079,276.807a113.3,113.3,0,0,0-12.126,5.18c6.276-.426,12.126-5.18,12.126-5.18" transform="translate(-53.902 -113.938)" fill="#631c1c"/>
            <path id="Trazado_983653" data-name="Trazado 983653" d="M158.084,276.807a113.3,113.3,0,0,0-12.126,5.18c6.276-.426,12.126-5.18,12.126-5.18" transform="translate(-60.079 -113.938)" fill="#631c1c"/>
            <path id="Trazado_983654" data-name="Trazado 983654" d="M174.418,277.654a100.314,100.314,0,0,0-10.744,4.589c5.56-.377,10.744-4.589,10.744-4.589" transform="translate(-67.371 -114.287)" fill="#631c1c"/>
            <path id="Trazado_983655" data-name="Trazado 983655" d="M156.406,291.34a237.314,237.314,0,0,0-25.417-1.156c-4.755.054-6.818-.578-7.7-1.213v.943a1.783,1.783,0,0,0,1.778,1.851c3.031.4,19.5.639,31.338-.425" transform="translate(-50.747 -118.945)" fill="#4c1414"/>
            <path id="Trazado_983656" data-name="Trazado 983656" d="M184.006,282.313c0,.176-.262.319-.585.319s-.585-.143-.585-.319.262-.319.585-.319.585.143.585.319" transform="translate(-75.258 -116.073)" fill="#4c1414"/>
            <path id="Trazado_983657" data-name="Trazado 983657" d="M158.349,285.176c0,.1-.305.181-.682.181s-.681-.081-.681-.181.305-.181.681-.181.682.081.682.181" transform="translate(-64.618 -117.308)" fill="#4c1414"/>
            <path id="Trazado_983658" data-name="Trazado 983658" d="M170.366,279.264c0,.121-.288.219-.644.219s-.644-.1-.644-.219.289-.219.644-.219.644.1.644.219" transform="translate(-69.595 -114.859)" fill="#4c1414"/>
            <path id="Trazado_983659" data-name="Trazado 983659" d="M153.051,278.811c0,.139-.334.252-.745.252s-.744-.113-.744-.252.334-.252.744-.252.745.113.745.252" transform="translate(-62.385 -114.659)" fill="#4c1414"/>
            <path id="Trazado_983660" data-name="Trazado 983660" d="M133.783,281.181c0,.086-.309.155-.691.155s-.691-.069-.691-.155.309-.155.691-.155.691.069.691.155" transform="translate(-54.498 -115.675)" fill="#4c1414"/>
            <path id="Trazado_983661" data-name="Trazado 983661" d="M127.5,283.445c0,.2-.238.366-.532.366s-.532-.164-.532-.366.238-.367.532-.367.532.164.532.367" transform="translate(-52.042 -116.519)" fill="#4c1414"/>
          </g>
        </g>
        <g id="Grupo_1148636" data-name="Grupo 1148636">
          <g id="Grupo_1148635" data-name="Grupo 1148635" clip-path="url(#clip-path-15)">
            <path id="Trazado_983662" data-name="Trazado 983662" d="M95.805,210.384s-2.144-21.768-23.965-29.059a6.927,6.927,0,1,0-2.789,13.482,35.357,35.357,0,0,1,26.754,15.577" transform="translate(-25.828 -74.491)" fill="#d85f3f"/>
            <path id="Trazado_983663" data-name="Trazado 983663" d="M93.251,227.2s-8.3-10.234-22.012-7.658a4.6,4.6,0,1,0,3.018,8.595c3.626-1.906,9.724-3.439,18.994-.937" transform="translate(-27.802 -90.195)" fill="#591b1b"/>
            <path id="Trazado_983664" data-name="Trazado 983664" d="M116.481,205.78a17.01,17.01,0,0,0-.651-16.594,3.277,3.277,0,1,0-4.915,4.239c2.208,1.909,4.812,5.556,5.566,12.355" transform="translate(-45.193 -77.252)" fill="#a5380e"/>
            <path id="Trazado_983665" data-name="Trazado 983665" d="M199.95,210.384s2.144-21.768,23.965-29.059a6.927,6.927,0,1,1,2.789,13.482,35.357,35.357,0,0,0-26.754,15.577" transform="translate(-82.303 -74.491)" fill="#d85f3f"/>
            <path id="Trazado_983666" data-name="Trazado 983666" d="M207.645,227.2s8.3-10.234,22.013-7.658a4.6,4.6,0,1,1-3.018,8.595c-3.626-1.906-9.725-3.439-18.995-.937" transform="translate(-85.47 -90.195)" fill="#591b1b"/>
            <path id="Trazado_983667" data-name="Trazado 983667" d="M196.408,205.78a17.01,17.01,0,0,1,.651-16.594,3.277,3.277,0,1,1,4.915,4.239c-2.208,1.909-4.812,5.556-5.566,12.355" transform="translate(-80.072 -77.252)" fill="#a5380e"/>
          </g>
        </g>
      </g>
      <path id="Trazado_983982" data-name="Trazado 983982" d="M71.664,126.07c0,3.959.662,7.168,1.478,7.168s1.478-3.209,1.478-7.168-.662-7.168-1.478-7.168-1.478,3.209-1.478,7.168" transform="translate(-81.302 -8.84)" fill="#d2cbac"/>
      <path id="Trazado_983983" data-name="Trazado 983983" d="M69.3,128.429c-3.958,0-7.168.662-7.168,1.478s3.209,1.478,7.168,1.478,7.168-.661,7.168-1.478-3.209-1.478-7.168-1.478" transform="translate(-77.465 -12.678)" fill="#d2cbac"/>
      <path id="Trazado_983984" data-name="Trazado 983984" d="M65.668,17.657a3.725,3.725,0,1,0,3.725-3.725,3.726,3.726,0,0,0-3.725,3.725" transform="translate(-76.22 33.44)" fill="#d2cbac"/>
    </g>
  </g>
</svg>
