<svg xmlns="http://www.w3.org/2000/svg" xmlns:xlink="http://www.w3.org/1999/xlink" width="102" height="102" viewBox="0 0 102 102">
  <defs>
    <filter id="Elipse_11493" x="0" y="0" width="102" height="102" filterUnits="userSpaceOnUse">
      <feOffset dy="3" input="SourceAlpha"/>
      <feGaussianBlur stdDeviation="3" result="blur"/>
      <feFlood flood-opacity="0.161"/>
      <feComposite operator="in" in2="blur"/>
      <feComposite in="SourceGraphic"/>
    </filter>
  </defs>
  <g id="Grupo_1148468" data-name="Grupo 1148468" transform="translate(-198 -495)">
    <g transform="matrix(1, 0, 0, 1, 198, 495)" filter="url(#Elipse_11493)">
      <g id="Elipse_11493-2" data-name="Elipse 11493" transform="translate(9 6)" fill="#f8fcf4" stroke="#89a068" stroke-width="3">
        <circle cx="42" cy="42" r="42" stroke="none"/>
        <circle cx="42" cy="42" r="40.5" fill="none"/>
      </g>
    </g>
    <g id="tikka-masala" transform="translate(219.932 513.932)">
      <path id="Trazado_983025" data-name="Trazado 983025" d="M24.234,132a20.9,20.9,0,1,1,0,29.547,20.893,20.893,0,0,1,0-29.547Z" transform="translate(-16.058 -111.591)" fill="#ff593f"/>
      <path id="Trazado_983026" data-name="Trazado 983026" d="M65.665,190.859a17.423,17.423,0,1,1,7.3-1.589A17.616,17.616,0,0,1,65.665,190.859Z" transform="translate(-42.715 -138.185)" fill="#fcbf58"/>
      <path id="Trazado_983027" data-name="Trazado 983027" d="M32.021,161.571a22.038,22.038,0,0,1-3.716-.317,21.784,21.784,0,1,1,3.716.317ZM17.866,125.635a19.987,19.987,0,1,0,28.262,0A20.007,20.007,0,0,0,17.866,125.635Z" transform="translate(-9.047 -104.58)"/>
      <path id="Trazado_983028" data-name="Trazado 983028" d="M59.121,207.4A18.52,18.52,0,0,1,56,207.132a18.32,18.32,0,0,1-9.851-31.01,18.419,18.419,0,0,1,3.143-2.521l.974,1.534a16.6,16.6,0,0,0-2.832,2.272,16.5,16.5,0,1,0,23.338,23.338,16.577,16.577,0,0,0,2.414-3.059l1.549.949A18.315,18.315,0,0,1,59.121,207.4Z" transform="translate(-36.15 -153.889)"/>
      <path id="Trazado_983029" data-name="Trazado 983029" d="M157.1,174.526l-1.651-.758a16.509,16.509,0,0,0-22.118-21.779l-.783-1.639A18.326,18.326,0,0,1,157.1,174.526Z" transform="translate(-117.5 -131.696)"/>
      <path id="Trazado_983030" data-name="Trazado 983030" d="M284.936,392.706a20.836,20.836,0,0,0,4.22-6.057l.918.918A7.267,7.267,0,1,1,279.8,397.845l-.918-.918a20.837,20.837,0,0,0,6.057-4.22Z" transform="translate(-247.213 -342.746)" fill="#cc4733"/>
      <path id="Trazado_983031" data-name="Trazado 983031" d="M277.844,393.791a8.123,8.123,0,0,1-5.781-2.4l-.918-.918a.908.908,0,0,1,.264-1.468,20.069,20.069,0,0,0,9.83-9.83.908.908,0,0,1,1.468-.264l.919.919a8.176,8.176,0,0,1-5.781,13.957Zm-4.52-3.7.024.024a6.359,6.359,0,1,0,8.993-8.992l-.024-.024a21.925,21.925,0,0,1-8.993,8.992Z" transform="translate(-240.121 -335.654)"/>
      <path id="Trazado_983032" data-name="Trazado 983032" d="M15.268,123.042a20.834,20.834,0,0,1,6.057-4.22l-.918-.919a7.267,7.267,0,1,0-10.277,10.277l.918.919A20.837,20.837,0,0,1,15.268,123.042Z" transform="translate(-7.092 -102.629)" fill="#cc4733"/>
      <ellipse id="Elipse_11495" data-name="Elipse 11495" cx="1.817" cy="3.146" rx="1.817" ry="3.146" transform="translate(12.674 38.464)" fill="#c6e67f"/>
      <path id="Trazado_983033" data-name="Trazado 983033" d="M106.341,338.854a.907.907,0,0,1-.455-.122,4.541,4.541,0,0,1,0-7.865.908.908,0,0,1,.91,0,4.541,4.541,0,0,1,0,7.865A.907.907,0,0,1,106.341,338.854Zm0-6.084a2.721,2.721,0,0,0,0,4.059,2.721,2.721,0,0,0,0-4.059Z" transform="translate(-91.851 -293.19)"/>
      <ellipse id="Elipse_11496" data-name="Elipse 11496" cx="3.146" cy="1.817" rx="3.146" ry="1.817" transform="translate(29.439 32.194)" fill="#c6e67f"/>
      <path id="Trazado_983034" data-name="Trazado 983034" d="M255.314,280.981a4.558,4.558,0,0,1-3.932-2.27.908.908,0,0,1,0-.91,4.541,4.541,0,0,1,7.865,0,.908.908,0,0,1,0,.91A4.558,4.558,0,0,1,255.314,280.981Zm-2.029-2.725a2.721,2.721,0,0,0,4.059,0,2.721,2.721,0,0,0-4.059,0Z" transform="translate(-222.73 -244.245)"/>
      <path id="Trazado_983035" data-name="Trazado 983035" d="M100.963,253.361l-.719-.24a2.271,2.271,0,0,1-1.369-3.049l.452-1.055a2.271,2.271,0,0,1,1.766-1.354l.39-.056a2.271,2.271,0,0,1,2.583,2.454l-.123,1.35A2.271,2.271,0,0,1,100.963,253.361Z" transform="translate(-87.484 -219.472)" fill="#ff7b66"/>
      <path id="Trazado_983036" data-name="Trazado 983036" d="M94.606,247.3a3.188,3.188,0,0,1-1.01-.165h0l-.719-.24a3.179,3.179,0,0,1-1.917-4.269l.452-1.055a3.2,3.2,0,0,1,2.473-1.895l.39-.056a3.179,3.179,0,0,1,3.616,3.435l-.123,1.35a3.183,3.183,0,0,1-3.162,2.893Zm.121-5.894a1.386,1.386,0,0,0-.2.014l-.39.056a1.371,1.371,0,0,0-1.06.812l-.452,1.055a1.363,1.363,0,0,0,.822,1.829l.719.24h0a1.363,1.363,0,0,0,1.788-1.169l.123-1.35a1.363,1.363,0,0,0-1.354-1.486Z" transform="translate(-80.404 -212.381)"/>
      <path id="Trazado_983037" data-name="Trazado 983037" d="M206.655,202.3l1.059-.265a2.271,2.271,0,0,0,1.652-2.754l-.4-1.614a2.271,2.271,0,0,0-1.652-1.652l-1.506-.377a2.271,2.271,0,0,0-2.778,1.758l-.037.185a2.271,2.271,0,0,0,.14,1.34l.887,2.07A2.271,2.271,0,0,0,206.655,202.3Z" transform="translate(-179.902 -173.368)" fill="#ff7b66"/>
      <path id="Trazado_983038" data-name="Trazado 983038" d="M199,196.184a3.165,3.165,0,0,1-2.913-1.929l-.887-2.07a3.167,3.167,0,0,1-.2-1.876l.037-.185a3.179,3.179,0,0,1,3.889-2.461l1.506.377a3.174,3.174,0,0,1,2.313,2.313l.4,1.614a3.179,3.179,0,0,1-2.313,3.855l-1.059.265a3.22,3.22,0,0,1-.781.1Zm-.844-6.8a1.365,1.365,0,0,0-1.333,1.1l-.037.185a1.355,1.355,0,0,0,.084.8l.887,2.07a1.358,1.358,0,0,0,1.583.785l1.059-.265a1.362,1.362,0,0,0,.991-1.652l-.4-1.614a1.36,1.36,0,0,0-.991-.991l-1.506-.377A1.363,1.363,0,0,0,198.154,189.384Z" transform="translate(-172.806 -166.269)"/>
      <path id="Trazado_983039" data-name="Trazado 983039" d="M219.623,349.056l.265-1.059a2.271,2.271,0,0,1,2.754-1.652l1.613.4a2.271,2.271,0,0,1,1.652,1.652l.377,1.506a2.271,2.271,0,0,1-1.758,2.778l-.185.037a2.271,2.271,0,0,1-1.34-.14l-2.07-.887A2.271,2.271,0,0,1,219.623,349.056Z" transform="translate(-194.625 -306.957)" fill="#ff7b66"/>
      <path id="Trazado_983040" data-name="Trazado 983040" d="M216.793,346.575a3.167,3.167,0,0,1-1.25-.258l-2.07-.887a3.166,3.166,0,0,1-1.832-3.693l.265-1.059a3.179,3.179,0,0,1,3.855-2.313l1.614.4a3.174,3.174,0,0,1,2.313,2.313l.376,1.506a3.179,3.179,0,0,1-2.461,3.889l-.185.037A3.194,3.194,0,0,1,216.793,346.575Zm-3.39-4.4a1.357,1.357,0,0,0,.785,1.583l2.07.887a1.355,1.355,0,0,0,.8.084l.185-.037a1.363,1.363,0,0,0,1.055-1.667l-.377-1.506a1.36,1.36,0,0,0-.991-.991l-1.614-.4a1.365,1.365,0,0,0-1.652.991Z" transform="translate(-187.524 -299.858)"/>
      <path id="Trazado_983041" data-name="Trazado 983041" d="M186.429,298.054l-1.284-1.285.321-.321a1.364,1.364,0,0,0,0-1.927l-.321-.321,1.284-1.285.321.321a3.183,3.183,0,0,1,0,4.5Z" transform="translate(-164.122 -259.655)"/>
      <path id="Trazado_983042" data-name="Trazado 983042" d="M138.087,199.581l-.321-.321a1.364,1.364,0,0,0-1.927,0l-.321.321-1.285-1.284.321-.321a3.183,3.183,0,0,1,4.5,0l.321.321Z" transform="translate(-118.991 -174.672)"/>
      <path id="Trazado_983043" data-name="Trazado 983043" d="M148.115,402.931a3.17,3.17,0,0,1-2.248-.93l-.321-.321,1.285-1.285.321.321a1.364,1.364,0,0,0,1.927,0l.321-.321,1.285,1.285-.321.321A3.169,3.169,0,0,1,148.115,402.931Z" transform="translate(-129.019 -354.932)"/>
      <path id="Trazado_983044" data-name="Trazado 983044" d="M0,0H1.817V1.817H0Z" transform="translate(19.091 30.047) rotate(-45)"/>
      <path id="Trazado_983045" data-name="Trazado 983045" d="M0,0H1.817V1.817H0Z" transform="translate(19.732 42.25) rotate(-45)"/>
      <path id="Trazado_983046" data-name="Trazado 983046" d="M0,0H1.817V1.817H0Z" transform="translate(33.862 40.966) rotate(-45)"/>
      <path id="Trazado_983047" data-name="Trazado 983047" d="M0,0H1.817V1.817H0Z" transform="translate(32.578 28.122) rotate(-45)"/>
      <path id="Trazado_983048" data-name="Trazado 983048" d="M0,0H1.817V1.817H0Z" transform="translate(8.172 37.111) rotate(-45)"/>
      <ellipse id="Elipse_11497" data-name="Elipse 11497" cx="5" cy="9.5" rx="5" ry="9.5" transform="translate(47.068 5.069)" fill="#fdce7f"/>
      <path id="Trazado_983049" data-name="Trazado 983049" d="M440,218.822v19.985a1.817,1.817,0,0,0,3.634,0V210.986a3.183,3.183,0,0,1-3.634,0v7.836Z" transform="translate(-390.039 -187.029)" fill="#fdce7f"/>
      <path id="Trazado_983050" data-name="Trazado 983050" d="M412.717,42.9c0-6.113-2.793-10.9-6.359-10.9S400,36.788,400,42.9c0,4.431,1.468,8.166,3.634,9.886v5.557h1.817V53.7q.094.022.189.04l.027.005.018,0,.045.007h0a3.959,3.959,0,0,0,1.252,0h0l.045-.007.018,0,.027,0q.095-.018.189-.04V80.145a.908.908,0,0,1-1.817,0V60.16h-1.817V80.145a2.725,2.725,0,0,0,5.45,0V52.786C411.25,51.067,412.717,47.332,412.717,42.9Zm-5.88,9.027a2.135,2.135,0,0,1-.957,0,4.434,4.434,0,0,1-2.578-2.4,14.131,14.131,0,0,1-1.485-6.631A14.13,14.13,0,0,1,403.3,36.27c.85-1.559,1.965-2.453,3.057-2.453s2.206.894,3.057,2.453A14.13,14.13,0,0,1,410.9,42.9a14.13,14.13,0,0,1-1.485,6.631A4.434,4.434,0,0,1,406.837,51.928Z" transform="translate(-354.581 -28.366)"/>
      <path id="Trazado_983051" data-name="Trazado 983051" d="M464,88h1.817v1.817H464Z" transform="translate(-411.314 -78.008)"/>
      <path id="Trazado_983052" data-name="Trazado 983052" d="M205.8,18.9a10.886,10.886,0,0,1-4.651,8.932q-.158-.165-.32-.327A20.855,20.855,0,0,0,184.3,21.458,10.9,10.9,0,1,1,205.8,18.9Z" transform="translate(-163.107 -7.092)" fill="#fdce7f"/>
      <path id="Trazado_983053" data-name="Trazado 983053" d="M13.957,110.2A8.175,8.175,0,1,0,2.4,121.764l.918.919a.908.908,0,0,0,1.468-.264,20.068,20.068,0,0,1,9.83-9.83.908.908,0,0,0,.264-1.468Zm-6.423,5.139A21.754,21.754,0,0,0,3.7,120.5l-.024-.024a6.359,6.359,0,0,1,8.992-8.993l.024.024a21.754,21.754,0,0,0-5.163,3.83Z" transform="translate(0 -95.569)"/>
      <path id="Trazado_983054" data-name="Trazado 983054" d="M187.809,0a11.817,11.817,0,0,0-11.482,14.579.908.908,0,0,0,.959.692,19.965,19.965,0,0,1,15.81,5.785q.155.155.307.313a.908.908,0,0,0,1.177.115A11.809,11.809,0,0,0,187.809,0Zm6.334,19.537a21.768,21.768,0,0,0-15.178-6.153c-.339,0-.68.008-1.021.024a9.993,9.993,0,1,1,16.2,6.129Z" transform="translate(-156.015)"/>
      <path id="Trazado_983055" data-name="Trazado 983055" d="M141.45,33.084a10.909,10.909,0,0,0,.3,2.557,20.976,20.976,0,0,0-5.009,1.047,9.076,9.076,0,0,1,9.472-12.615A10.891,10.891,0,0,0,141.45,33.084Z" transform="translate(-120.557 -21.275)" fill="#fcb641"/>
      <path id="Trazado_983056" data-name="Trazado 983056" d="M129.652,30.5a.909.909,0,0,1-.834-.548A10,10,0,0,1,137.992,16a10.048,10.048,0,0,1,1.245.08.908.908,0,0,1,.4,1.652,10.007,10.007,0,0,0-4.092,10.605.908.908,0,0,1-.807,1.118,20.09,20.09,0,0,0-4.792,1A.909.909,0,0,1,129.652,30.5Zm6.979-12.575A8.184,8.184,0,0,0,130.2,28.469a21.922,21.922,0,0,1,3.382-.717,11.827,11.827,0,0,1,3.05-9.822Z" transform="translate(-113.466 -14.183)"/>
      <path id="Trazado_983057" data-name="Trazado 983057" d="M264,40h1.817v1.817H264Z" transform="translate(-234.023 -35.458)"/>
      <path id="Trazado_983058" data-name="Trazado 983058" d="M320,64h1.817v1.817H320Z" transform="translate(-283.665 -56.733)"/>
      <path id="Trazado_983059" data-name="Trazado 983059" d="M280,96h1.817v1.817H280Z" transform="translate(-248.206 -85.099)"/>
      <path id="Trazado_983060" data-name="Trazado 983060" d="M224,64h1.817v1.817H224Z" transform="translate(-198.565 -56.733)"/>
      <path id="Trazado_983061" data-name="Trazado 983061" d="M328,120h1.817v1.817H328Z" transform="translate(-290.756 -106.374)"/>
    </g>
  </g>
</svg>
