<svg xmlns="http://www.w3.org/2000/svg" xmlns:xlink="http://www.w3.org/1999/xlink" width="292" height="219" viewBox="0 0 292 219">
  <defs>
    <clipPath id="clip-path">
      <rect id="Rectángulo_406123" data-name="Rectángulo 406123" width="292" height="219" transform="translate(227.051 2470)" fill="#fff" stroke="#707070" stroke-width="1"/>
    </clipPath>
    <clipPath id="clip-path-2">
      <rect id="Rectángulo_406122" data-name="Rectángulo 406122" width="274.916" height="353.028" fill="none"/>
    </clipPath>
    <clipPath id="clip-path-6">
      <rect id="Rectángulo_406115" data-name="Rectángulo 406115" width="5.483" height="2.923" fill="none"/>
    </clipPath>
    <clipPath id="clip-path-9">
      <rect id="Rectángulo_406118" data-name="Rectángulo 406118" width="5.895" height="3.113" fill="none"/>
    </clipPath>
    <clipPath id="clip-path-11">
      <rect id="Rectángulo_406120" data-name="Rectángulo 406120" width="45.588" height="65.54" fill="none"/>
    </clipPath>
  </defs>
  <g id="Enmascarar_grupo_1098678" data-name="Enmascarar grupo 1098678" transform="translate(-227.051 -2470)" clip-path="url(#clip-path)">
    <g id="Grupo_1148436" data-name="Grupo 1148436" transform="translate(243.982 2470.288)">
      <g id="Grupo_1148435" data-name="Grupo 1148435" clip-path="url(#clip-path-2)">
        <g id="Grupo_1148413" data-name="Grupo 1148413">
          <g id="Grupo_1148412" data-name="Grupo 1148412" clip-path="url(#clip-path-2)">
            <path id="Trazado_982813" data-name="Trazado 982813" d="M191.383,8.881C195.17,3.471,202,.208,208.861.081l-.047-.006c4.974-.4,11.474.755,15.086,3.993a19.583,19.583,0,0,1,6.287,12.444A21.073,21.073,0,0,1,222.224,34.9a12.62,12.62,0,0,0,4.727,4.34,10.929,10.929,0,0,1-8.807-1.836c-.073.034-.143.075-.216.108-8.2,3.663-18.872,1.578-24.835-4.853a19.314,19.314,0,0,1-1.71-23.773" transform="translate(-36.35 0)" fill="#a0d2f4"/>
            <path id="Trazado_982814" data-name="Trazado 982814" d="M227.023,5.053c-1.255.839-18.1,20.054-18.1,20.054s-8.083-13.627-8.236-14.032c0,0-4.4,1.669-4.827,3.058s8.661,18.106,12.5,17.888S231.793,9.037,231.793,9.037Z" transform="translate(-37.852 -0.977)" fill="#8380ff"/>
          </g>
        </g>
        <g id="Grupo_1148415" data-name="Grupo 1148415">
          <g id="Grupo_1148414" data-name="Grupo 1148414" clip-path="url(#clip-path-2)">
            <path id="Trazado_982815" data-name="Trazado 982815" d="M136.407,22.118c-4.84-4.511-13.244-5.984-19.689-4.488a20.655,20.655,0,0,0-14.369,12.533,14.549,14.549,0,0,0-.852,8.178,9.317,9.317,0,0,0,4.8,6.463,16.73,16.73,0,0,1-4.948,3.593c-.813.387-.836,1.754.053,1.9,4.2.677,7.636.236,10.351-1.557,4.416,2.275,10.952,1.961,15.887,1.387s9.753-3.308,12.1-7.689c3.038-5.679,2.906-14.955-3.334-20.317" transform="translate(-19.47 -3.298)" fill="#8380ff"/>
            <path id="Trazado_982816" data-name="Trazado 982816" d="M136.169,40.626a10.418,10.418,0,0,1-6.82-6.828c-.368-1.221-.54-2.876.645-3.715a2.4,2.4,0,0,1,3.337,1.012c1.871,3.1-.1,8.167-2.584,10.375a5.921,5.921,0,0,1-8.8-.62c-1.666-2.1-3.248-8.2.235-9.484,3.545-1.306,3.851,4.189,3.183,6.241a7.44,7.44,0,0,1-7.8,5.24,6.817,6.817,0,0,1-6.173-6.271c-.13-1.565.283-3.665,1.585-4.693,1.342-1.06,2.63.037,2.885,1.459.737,4.118-2.9,7.61-6.811,7.728-.833.025-.832-1.269,0-1.294a5.652,5.652,0,0,0,5.437-4.317,5.145,5.145,0,0,0,.126-1.662c-.059-.576.044-.564-.645-.517-.721.048-.444-.047-.732.347a4.9,4.9,0,0,0-.474,3.485c.941,4.967,7.594,5.929,10.415,2,1.071-1.495,2.037-4.466.674-6.082a1.215,1.215,0,0,0-2.022.3,4.51,4.51,0,0,0-.32,2.3,8.013,8.013,0,0,0,1.039,3.822,4.584,4.584,0,0,0,6.284,1.807c2.145-1.192,3.345-3.746,3.757-6.079a5.839,5.839,0,0,0-.014-2.537,3.414,3.414,0,0,0-.247-.663c-.2-.393-.849-1.138-1.4-.943-1.318.468-.138,3.083.22,3.789a9.131,9.131,0,0,0,5.365,4.547c.791.253.453,1.5-.344,1.248" transform="translate(-20.956 -5.745)" fill="#a0d2f4"/>
          </g>
        </g>
        <g id="Grupo_1148423" data-name="Grupo 1148423">
          <g id="Grupo_1148422" data-name="Grupo 1148422" clip-path="url(#clip-path-2)">
            <path id="Trazado_982817" data-name="Trazado 982817" d="M201.762,123.271s15.062,18.635,25.062,19.519,24.939-18.66,24.939-18.66l-5.8-14.419s-17.576,18.9-18.294,18.777-23.547-14.034-23.547-14.034Z" transform="translate(-38.995 -21.204)" fill="#ffae7a"/>
            <path id="Trazado_982818" data-name="Trazado 982818" d="M315.736,210.151s14.693,164.116,17.448,163.844l2.755-.272L319.278,209.941l-3.542-1.633" transform="translate(-61.023 -40.26)" fill="#421b36"/>
            <path id="Trazado_982819" data-name="Trazado 982819" d="M302.36,210.045s14.693,154.657,17.448,154.4l2.755-.257L305.9,209.847l-3.542-1.539" transform="translate(-58.437 -40.26)" fill="#421b36"/>
            <path id="Trazado_982820" data-name="Trazado 982820" d="M258.234,342.872c.833.417,56.114-2.223,57.5-.833a4.716,4.716,0,0,1,.972,3.75l-59.17,1.527v-4.027" transform="translate(-49.775 -66.027)" fill="#421b36"/>
            <path id="Trazado_982821" data-name="Trazado 982821" d="M315.752,202.245c0,1.768-12.854,3.2-28.711,3.2s-28.711-1.434-28.711-3.2,12.854-3.2,28.711-3.2,28.711,1.434,28.711,3.2" transform="translate(-49.928 -38.469)" fill="#421b36"/>
            <path id="Trazado_982822" data-name="Trazado 982822" d="M315.752,212.3c0,1.768-12.854,3.2-28.711,3.2s-28.711-1.434-28.711-3.2,12.854-3.2,28.711-3.2,28.711,1.434,28.711,3.2" transform="translate(-49.928 -40.413)" fill="#421b36"/>
            <path id="Trazado_982823" data-name="Trazado 982823" d="M258.239,203.012l.085,8.15,57.412.394v-8.544Z" transform="translate(-49.91 -39.236)" fill="#421b36"/>
            <path id="Trazado_982824" data-name="Trazado 982824" d="M264.924,209.1s-17.141,164.165-15.611,164.777,4.591,0,4.591,0L268.6,210Z" transform="translate(-48.166 -40.413)" fill="#421b36"/>
            <path id="Trazado_982825" data-name="Trazado 982825" d="M278.681,209.1S261.539,365.952,263.07,366.537s4.591,0,4.591,0l14.693-156.58Z" transform="translate(-50.825 -40.413)" fill="#421b36"/>
            <path id="Trazado_982826" data-name="Trazado 982826" d="M240.917,345.3a24.69,24.69,0,0,0,1.007-2.533,29,29,0,0,0-.417-13.464c-1.454-4.915-20.952-10.724-21.587-10.822l11.325-16.168s20.4,16.185,24.162,20.09,15.226,11.869,15.839,15.48-15.947,21.089-22.676,26.97c-10.454,9.135-17.905,7.294-19.023,5.911-.767-.949,9.878-20.876,11.37-25.464" transform="translate(-42.504 -58.428)" fill="#421b36"/>
            <path id="Trazado_982827" data-name="Trazado 982827" d="M231.8,377.884a13.816,13.816,0,0,1,.645-1.827h0c.341-.028,10.521-1.1,22.3-10.7,11.973-9.77,16.187-23.682,16.187-23.682,1.435,1.484,2.513,2.869,2.68,3.866a1.477,1.477,0,0,1,.007.375,3.611,3.611,0,0,1-.265.987c-2.153,5.424-16.322,20.281-22.419,25.61-8.037,7.027-14.188,7.516-17.21,6.8-1.554-.407-2.059-.885-1.922-1.431" transform="translate(-44.797 -66.035)" fill="#a0d2f4"/>
            <path id="Trazado_982828" data-name="Trazado 982828" d="M243.369,350.966,234.3,370.474l-1.693,3.644s10.462-.814,22.434-10.586,16.049-23.8,16.049-23.8c-2.211-2.262-5.621-5.124-9.242-8.093a13.142,13.142,0,0,1-5.182,8.2c-.181.136-.372.257-.561.381-1.192-1.724-3.238-4.137-5.7-4.8-3.7-.992-9.25,1.139-7.825,6.6a24.953,24.953,0,0,1,1.766,4.006c.363,1.42-.98,4.933-.98,4.933" transform="translate(-44.956 -64.097)" fill="#8380ff"/>
            <path id="Trazado_982829" data-name="Trazado 982829" d="M271.44,341.712c-5.152,14.9-20.27,34.118-37.6,34.071-.641,0-.766-.983-.1-1.011,18.206-.77,29.834-18.8,37.268-33.248a.235.235,0,0,1,.43.188" transform="translate(-45.09 -65.981)" fill="#421b36"/>
            <path id="Trazado_982830" data-name="Trazado 982830" d="M246.04,352.926a9.559,9.559,0,0,1,5.893.763c.6.239.877-.657.413-.981a6.744,6.744,0,0,0-6.526-.3c-.307.146-.081.585.22.523" transform="translate(-47.482 -67.975)" fill="#421b36"/>
            <path id="Trazado_982831" data-name="Trazado 982831" d="M244.47,358.23c1,.182,2.014.027,3.017.19a24.792,24.792,0,0,0,2.726.721.394.394,0,0,0,.275-.665c-1.168-1.363-4.616-1.585-6.068-.632-.139.09-.14.35.05.385" transform="translate(-47.22 -69.049)" fill="#421b36"/>
            <path id="Trazado_982832" data-name="Trazado 982832" d="M242.63,362.627c.792.225,1.615.3,2.407.542a21.265,21.265,0,0,1,2.472,1.091c.482.217,1.117-.412.621-.805a7.282,7.282,0,0,0-5.5-1.456.329.329,0,0,0,0,.628" transform="translate(-46.848 -69.944)" fill="#421b36"/>
            <path id="Trazado_982833" data-name="Trazado 982833" d="M246.445,351.189c.5-2.079,2.14-4.819,4.467-5.243.378-.069,1.351.056,1.546.436.12.236-.543.956-.732,1.138a8.779,8.779,0,0,1-1.684,1.13,22.717,22.717,0,0,1-3.953,1.651.418.418,0,0,0,.222.805,12.771,12.771,0,0,0,5.992-2.732c1.015-.82,1.9-2.722.264-3.463-1.392-.632-3.353.544-4.372,1.425a5.976,5.976,0,0,0-2.109,4.806.184.184,0,0,0,.359.048" transform="translate(-47.505 -66.627)" fill="#421b36"/>
            <path id="Trazado_982834" data-name="Trazado 982834" d="M245.2,350.265c-.987-.6-2.065-.987-3.01-1.668a9.865,9.865,0,0,1-1.5-1.334c-.347-.379-1.253-1.284-1.229-1.834l.906-1.2.63.291a5.563,5.563,0,0,1,.838.662,9.35,9.35,0,0,1,1.344,1.528,11.641,11.641,0,0,1,1.619,3.643c.148.524.858.288.79-.218a9.5,9.5,0,0,0-2.63-5.241c-.941-.98-3.02-2.662-4.218-1.067-1.082,1.441.419,3.25,1.413,4.244,1.262,1.263,3.131,2.5,4.983,2.428a.128.128,0,0,0,.065-.237" transform="translate(-46.069 -66.325)" fill="#421b36"/>
            <path id="Trazado_982835" data-name="Trazado 982835" d="M279.353,402.613a24.792,24.792,0,0,0,2.323-1.425,29.014,29.014,0,0,0,7.728-11.033c1.779-4.806-10.358-21.135-10.808-21.595l18.752-6.166s6.647,25.18,7.32,30.558,5.086,18.623,3.414,21.883-25.4,7.34-34.311,8.02c-13.843,1.056-18.707-4.882-18.774-6.658-.046-1.219,20.412-10.8,24.356-13.585" transform="translate(-49.283 -70.04)" fill="#421b36"/>
            <path id="Trazado_982836" data-name="Trazado 982836" d="M255.265,427.245a13.909,13.909,0,0,1,1.61-1.078h0c.29.181,9.084,5.422,24.266,4.781,15.439-.654,27.145-9.273,27.145-9.273.261,2.047.3,3.8-.168,4.7a1.438,1.438,0,0,1-.219.3,3.611,3.611,0,0,1-.8.632c-4.973,3.055-25.217,6.469-33.291,7.085-10.644.815-15.863-2.477-17.858-4.857-1-1.257-1.119-1.941-.682-2.3" transform="translate(-49.289 -81.498)" fill="#a0d2f4"/>
            <path id="Trazado_982837" data-name="Trazado 982837" d="M279.8,409.6,260.857,419.8l-3.538,1.9s8.866,5.612,24.306,4.957,27.1-9.448,27.1-9.448c-.416-3.136-1.433-7.47-2.556-12.016a13.141,13.141,0,0,1-9.06,3.462c-.226,0-.451-.018-.677-.031.077-2.1-.115-5.253-1.691-7.254-2.37-3.012-8.09-4.627-10.221.6a24.95,24.95,0,0,1-.984,4.266c-.56,1.355-3.739,3.364-3.739,3.364" transform="translate(-49.732 -77.032)" fill="#8380ff"/>
            <path id="Trazado_982838" data-name="Trazado 982838" d="M309.037,421.823c-13.05,8.85-36.665,15.186-50.513,4.773-.512-.385-.025-1.246.524-.87,15.042,10.286,35.149,2.811,49.757-4.31a.235.235,0,0,1,.232.408" transform="translate(-49.923 -81.442)" fill="#421b36"/>
            <path id="Trazado_982839" data-name="Trazado 982839" d="M286.671,410.3a9.385,9.385,0,0,1,2.517,1.655,13.269,13.269,0,0,1,1.747,2.446.539.539,0,0,0,.98-.414c-.561-2.152-2.951-3.816-5.023-4.21-.294-.056-.536.378-.22.523" transform="translate(-55.377 -79.197)" fill="#421b36"/>
            <path id="Trazado_982840" data-name="Trazado 982840" d="M282.326,413.618c.605.771,1.594,1.229,2.281,1.94a7.947,7.947,0,0,1,1.017,1.288c.238.375.369.732.774.945a.393.393,0,0,0,.573-.232c.147-.993-.956-2.093-1.627-2.737a4.479,4.479,0,0,0-2.869-1.563.213.213,0,0,0-.148.36" transform="translate(-54.555 -79.871)" fill="#421b36"/>
            <path id="Trazado_982841" data-name="Trazado 982841" d="M278.216,415.909c.516.705,1.183,1.28,1.693,2a25.437,25.437,0,0,1,1.291,2.326.515.515,0,0,0,.937-.4,7.155,7.155,0,0,0-3.474-4.375c-.258-.109-.665.148-.446.446" transform="translate(-53.759 -80.292)" fill="#421b36"/>
            <path id="Trazado_982842" data-name="Trazado 982842" d="M287.365,409.648a7.111,7.111,0,0,1,6.649-1.527l.681.3q.27,1.774-1.24,1.469a12.765,12.765,0,0,1-2.328-.188,25.343,25.343,0,0,1-3.574-.976.419.419,0,0,0-.321.762,12.164,12.164,0,0,0,6.885,1.4c1.263-.177,2.668-1.239,1.864-2.648-.784-1.374-3.29-1.556-4.639-1.388a5.975,5.975,0,0,0-4.264,2.571c-.127.183.138.344.287.222" transform="translate(-55.474 -78.623)" fill="#421b36"/>
            <path id="Trazado_982843" data-name="Trazado 982843" d="M287.387,407.684a25.808,25.808,0,0,1-1.463-3.325c-.214-.728-.918-3.274-.253-3.9l1.65-.2a4.856,4.856,0,0,1,.394,1.221,8.74,8.74,0,0,1,.186,2.216,11.865,11.865,0,0,1-.9,3.872c-.168.434.533.722.749.315a9.838,9.838,0,0,0,.921-6.668c-.257-1.213-.944-2.872-2.476-2.55-1.847.388-1.736,2.818-1.53,4.244a7.512,7.512,0,0,0,2.545,4.945c.113.087.219-.074.174-.174" transform="translate(-54.997 -77.043)" fill="#421b36"/>
            <path id="Trazado_982844" data-name="Trazado 982844" d="M236.882,142.625l-5.78,23.644s-52.3,48.577-51.4,67.956c.916,19.588,34.154,91.619,44.67,85.5S254.42,293.05,254.42,293.05l-35.21-53.8,33.708-40.031,6.725-51.759Z" transform="translate(-34.73 -27.565)" fill="#421b36"/>
            <path id="Trazado_982845" data-name="Trazado 982845" d="M263.943,183.963s6.384,162.5,12.393,165.863,37.555,0,37.555,0-9.879-163.844-10.091-166.5c-.01-.13-.021-.258-.031-.387A56.152,56.152,0,0,0,291.212,152.2l-9.642-11.8-15.142,14.051-.232,29.509" transform="translate(-51.013 -27.136)" fill="#421b36"/>
            <path id="Trazado_982846" data-name="Trazado 982846" d="M251.588,181.847c2.139,3.038,4.266,6.085,6.522,9.038,1.113,1.458,2.254,2.895,3.443,4.291.169.2.624.586.7.71.122.206.035-.071.052-.033.006.012,0,.031,0,.044a5.934,5.934,0,0,1,.054,1.625q.16,4.734.332,9.467.289,8.016.6,16.03.405,10.34.852,20.68.506,11.7,1.072,23.4.592,12.143,1.274,24.282.653,11.509,1.438,23.01c.461,6.64.965,13.28,1.58,19.909.463,5,.969,10,1.707,14.963.389,2.615.654,5.616,1.824,8.032a2.688,2.688,0,0,0,.513.774c.49.475,1.24-.273.749-.749a2.4,2.4,0,0,1-.388-.648,12.837,12.837,0,0,1-.414-1.216,39.19,39.19,0,0,1-.9-4.176c-.772-4.482-1.254-9.017-1.705-13.541-.634-6.342-1.142-12.7-1.605-19.057q-.818-11.214-1.462-22.439-.708-12.045-1.3-24.094-.593-11.806-1.112-23.616-.473-10.711-.9-21.422-.341-8.559-.657-17.12-.2-5.522-.393-11.042-.045-1.3-.088-2.6a3.057,3.057,0,0,0-.015-.471,2.77,2.77,0,0,0-.8-1.147c-1.267-1.473-2.479-2.991-3.655-4.536-2.211-2.9-4.3-5.9-6.4-8.879-.39-.553-1.309-.024-.915.535" transform="translate(-48.606 -34.997)" fill="#8380ff"/>
            <path id="Trazado_982847" data-name="Trazado 982847" d="M243.694,51.835q.282,11.546-.49,23.085a8.251,8.251,0,0,0-7.153,12.566c-3.457-.635-6.766,2.623-7.1,6.121s1.641,6.871,4.228,9.249a19.054,19.054,0,0,0,11.982,4.977,18.719,18.719,0,0,0,12.328-4.011l12.794-12.858-5.276-35.415Z" transform="translate(-44.243 -10.018)" fill="#421b36"/>
            <path id="Trazado_982848" data-name="Trazado 982848" d="M265.109,83.636c-.861.312-23.558,19.907-20.342,28.319s4.159,11.575,4.159,11.575-3.666,10.478.6,12.393,36.792-2.423,38.973-7.6-.5-48.794-1.542-48.529-21.85,3.841-21.85,3.841" transform="translate(-47.246 -15.422)" fill="#a0d2f4"/>
            <path id="Trazado_982849" data-name="Trazado 982849" d="M250.586,30.965a10.813,10.813,0,0,0-6.838,5.19,7.521,7.521,0,0,0,.786,8.271,4.3,4.3,0,0,1,1.024,1.373,3.885,3.885,0,0,1-.02,1.747,9.257,9.257,0,0,0,1.705,6.62l12.1-23.288a19.679,19.679,0,0,0-8.759.087" transform="translate(-46.94 -5.881)" fill="#421b36"/>
            <path id="Trazado_982850" data-name="Trazado 982850" d="M271.163,35.4a13.931,13.931,0,0,0-23.122,5.48c-.986,3.117-1.027,7.063-.143,12.19,2.467,14.3,14.611,12.478,14.611,12.478l4.072,9.7,2.988,1.006,9.059-7.294-3.939-10.738s.7-12.357-1.224-18.988a9.184,9.184,0,0,0-2.3-3.837" transform="translate(-47.79 -6.045)" fill="#ffae7a"/>
            <path id="Trazado_982851" data-name="Trazado 982851" d="M252.61,47.887a.873.873,0,1,0,.736-1.068.92.92,0,0,0-.736,1.068" transform="translate(-48.82 -9.047)" fill="#421b36"/>
            <path id="Trazado_982852" data-name="Trazado 982852" d="M263.507,46.345a.873.873,0,1,0,.736-1.068.92.92,0,0,0-.736,1.068" transform="translate(-50.926 -8.749)" fill="#421b36"/>
            <path id="Trazado_982853" data-name="Trazado 982853" d="M269.619,38.174c-1.96-1.124-4.794-1.675-6.728-.115-.453.366.048,1.019.53.91a14.829,14.829,0,0,1,2.946-.683,7.679,7.679,0,0,1,3,.476c.343.14.557-.411.248-.588" transform="translate(-50.775 -7.169)" fill="#421b36"/>
            <path id="Trazado_982854" data-name="Trazado 982854" d="M271.9,70.026a21.147,21.147,0,0,1-7.868,2.7c-.646.061-.653,1.079,0,1.017A11.493,11.493,0,0,0,271.96,70.1a.048.048,0,0,0-.058-.075" transform="translate(-50.936 -13.533)" fill="#421b36"/>
            <g id="Grupo_1148418" data-name="Grupo 1148418" transform="translate(213.744 40.193)" opacity="0.3">
              <g id="Grupo_1148417" data-name="Grupo 1148417">
                <g id="Grupo_1148416" data-name="Grupo 1148416" clip-path="url(#clip-path-6)">
                  <path id="Trazado_982855" data-name="Trazado 982855" d="M264.957,51.643c.1.782,1.41,1.255,2.921,1.057s2.651-.993,2.548-1.776-1.41-1.254-2.921-1.057-2.651.994-2.548,1.776" transform="translate(-264.951 -49.822)" fill="#421b36"/>
                </g>
              </g>
            </g>
            <g id="Grupo_1148421" data-name="Grupo 1148421" transform="translate(200.281 41.961)" opacity="0.3">
              <g id="Grupo_1148420" data-name="Grupo 1148420">
                <g id="Grupo_1148419" data-name="Grupo 1148419" clip-path="url(#clip-path-6)">
                  <path id="Trazado_982856" data-name="Trazado 982856" d="M248.269,53.835c.1.782,1.41,1.255,2.92,1.057s2.652-.993,2.549-1.776-1.411-1.254-2.921-1.056-2.651.993-2.548,1.775" transform="translate(-248.263 -52.014)" fill="#421b36"/>
                </g>
              </g>
            </g>
            <path id="Trazado_982857" data-name="Trazado 982857" d="M258.084,30.864c-1.593-3.6-7.495-3.943-10.274-1.688-.3.245.023.791.382.658a9.917,9.917,0,0,1,5.056-.952c1.822.264,3.141,1.294,4.738,2.079a.072.072,0,0,0,.1-.1" transform="translate(-47.871 -5.365)" fill="#421b36"/>
            <path id="Trazado_982858" data-name="Trazado 982858" d="M251.341,23.828a8.655,8.655,0,0,1,7.812,5.891c.2.621,1.183.355.982-.271a8.014,8.014,0,0,0-8.793-5.826.1.1,0,0,0,0,.207" transform="translate(-48.558 -4.553)" fill="#421b36"/>
            <path id="Trazado_982859" data-name="Trazado 982859" d="M252.121,40.621a5.375,5.375,0,0,1,2.17-.82c2.132-.24,2.976,1.63,3.175,3.412a16.853,16.853,0,0,1-1.146,6.852c-.19.611.753,1.027,1.046.441,1.431-2.862,2.3-7.981-.031-10.644a3.5,3.5,0,0,0-5.55.421.248.248,0,0,0,.337.337" transform="translate(-48.656 -7.477)" fill="#421b36"/>
            <path id="Trazado_982860" data-name="Trazado 982860" d="M276.243,33.086a16.834,16.834,0,0,0-12.791-2.971c-.684.12-3.41.236-3.476.929,1.866,4.179,7.323,8.27,11.714,9.561a1.263,1.263,0,0,1,1.121,1.724c-.544,5.232.6,10.771,4.336,14.476,3.287-3.073,5.828-7.8,5.477-12.286a16.017,16.017,0,0,0-6.381-11.431" transform="translate(-50.246 -5.772)" fill="#421b36"/>
            <path id="Trazado_982861" data-name="Trazado 982861" d="M276.083,98.135s-6.15-.646-8.9-11.892,6.974-14.924,6.974-14.924-3.6-10.278,4.292-14.281c.727-.369-5.408-20.139-5.408-20.139l-1.458-5.816s9.2-.093,12.512,7.409,7.132,22.492,7.132,22.492,15.342,4.464,15.29,12.449-1.936,8.079-1.936,8.079,10.556,2.66,4.994,12.942-13.336,9.768-13.336,9.768Z" transform="translate(-51.543 -6.008)" fill="#421b36"/>
            <path id="Trazado_982862" data-name="Trazado 982862" d="M254.351,119.038s16.194,37.988,25.843,32.825,10.56-23.4,12.453-33.472c1.972-10.493,3.215-31.483-1.457-34.669s-8.664-.656-12.108,1.961-5.633,41.868-5.633,41.868-11.1-15.473-18.051-20.948" transform="translate(-49.159 -15.893)" fill="#ffae7a"/>
            <path id="Trazado_982863" data-name="Trazado 982863" d="M283.874,47.406a2.533,2.533,0,0,1,2.594-.019,4,4,0,0,1,1.689,2.077,4.7,4.7,0,0,1-.386,4.342,3.474,3.474,0,0,1-3.993,1.313" transform="translate(-54.846 -9.091)" fill="#ffae7a"/>
            <path id="Trazado_982864" data-name="Trazado 982864" d="M286.829,51.792c-.152-.309-.165-.56-.482-.766a1.679,1.679,0,0,0-.971-.239,2.171,2.171,0,0,0-1.7,1.016c-.3.478.44,1.079.8.616a1.345,1.345,0,0,1,1.051-.621,2.952,2.952,0,0,1,.595.056,2.11,2.11,0,0,1,.57.073.1.1,0,0,0,.136-.136" transform="translate(-54.813 -9.815)" fill="#421b36"/>
            <path id="Trazado_982865" data-name="Trazado 982865" d="M278.068,101.565s21.257,7.246,23.024,4.631,2.847-27.84-10.411-25.618-12.613,20.988-12.613,20.988" transform="translate(-53.741 -15.546)" fill="#a0d2f4"/>
            <path id="Trazado_982866" data-name="Trazado 982866" d="M259.629,122.983s-7.837-12.392-16.118-15.042c0,0-15.9-5.68-21.027-2.072,0,0-.686,1.721,1.618,2.589s10.7,1.177,10.7,1.177-6.355,2.366-4.709,7.3c0,0-.662,3.725,2.306,4.319,0,0-.476,3.955,2.723,5.384s5.291,1.609,6.308-.143a2.79,2.79,0,0,0-.167-3.154l6.913.038L252,128.01Z" transform="translate(-42.981 -20.229)" fill="#ffae7a"/>
            <path id="Trazado_982867" data-name="Trazado 982867" d="M243.323,128.421l2.31.23a.532.532,0,0,0,.53-.53.546.546,0,0,0-.53-.53l-2.31-.23a.532.532,0,0,0-.53.53.545.545,0,0,0,.53.53" transform="translate(-46.925 -24.615)" fill="#421b36"/>
            <path id="Trazado_982868" data-name="Trazado 982868" d="M235.23,125.392a8.449,8.449,0,0,1,5.148-3.4c.666-.143.384-1.165-.282-1.021a9.533,9.533,0,0,0-5.782,3.885.53.53,0,0,0,.916.535" transform="translate(-45.272 -23.378)" fill="#421b36"/>
            <path id="Trazado_982869" data-name="Trazado 982869" d="M231.841,119.891a10.382,10.382,0,0,1,5.867-3.623c.666-.145.385-1.167-.282-1.022a11.3,11.3,0,0,0-6.335,3.9.546.546,0,0,0,0,.749.534.534,0,0,0,.749,0" transform="translate(-44.634 -22.271)" fill="#421b36"/>
            <path id="Trazado_982870" data-name="Trazado 982870" d="M234.937,111.674a14.706,14.706,0,0,1,5.252-1.7.546.546,0,0,0,.53-.53.533.533,0,0,0-.53-.529,16.053,16.053,0,0,0-5.787,1.843c-.6.327-.065,1.242.535.915" transform="translate(-45.253 -21.05)" fill="#421b36"/>
            <path id="Trazado_982871" data-name="Trazado 982871" d="M222.54,106.343a2.725,2.725,0,0,0,4.058-1.1.544.544,0,0,0-.19-.724.536.536,0,0,0-.725.19,2.512,2.512,0,0,1-.216.39c-.02.03-.041.055-.006.012l-.064.076c-.049.056-.1.109-.156.16-.031.028-.061.056-.093.082s-.055.041-.01.009c-.061.044-.122.085-.186.123s-.13.072-.2.1c.05-.023.027-.01-.01,0l-.117.04a1.962,1.962,0,0,1-.2.052c-.03.006-.12.021-.044.011l-.106.01a2.407,2.407,0,0,1-.241,0l-.107-.007c-.056,0,.048.012-.045,0a2.3,2.3,0,0,1-.438-.123c-.048-.019.031.019-.045-.022-.031-.017-.064-.032-.094-.05a2.441,2.441,0,0,1-.226-.144.532.532,0,0,0-.725.19.545.545,0,0,0,.19.725" transform="translate(-42.96 -20.187)" fill="#421b36"/>
            <path id="Trazado_982872" data-name="Trazado 982872" d="M276.529,137.754a48.322,48.322,0,0,1,7.94,11.556c.3.611,1.215.075.915-.536A49.3,49.3,0,0,0,277.278,137c-.465-.5-1.213.249-.749.749" transform="translate(-53.417 -26.447)" fill="#421b36"/>
            <path id="Trazado_982873" data-name="Trazado 982873" d="M259.21,58.166a5.828,5.828,0,0,0,4-2.545.53.53,0,1,0-.915-.535,4.8,4.8,0,0,1-3.366,2.058.533.533,0,0,0-.37.652.544.544,0,0,0,.652.37" transform="translate(-49.969 -10.596)" fill="#421b36"/>
            <path id="Trazado_982874" data-name="Trazado 982874" d="M189.882,85.447s1.938,32.426,4.572,34.247c2.873,1.986,21.712,7.009,22.612,7.184s2.287-.67,2.113-1.362-3.185-35.29-4.644-36.984c-1.409-1.636-22.569-4.749-23.625-4.272s-1.028,1.187-1.028,1.187" transform="translate(-36.699 -16.276)" fill="#421b36"/>
            <path id="Trazado_982875" data-name="Trazado 982875" d="M191.517,98.651l1.409,9.85-4.215-1.726L188.4,103.1Z" transform="translate(-36.412 -19.066)" fill="#ffae7a"/>
            <path id="Trazado_982876" data-name="Trazado 982876" d="M192.222,97.436s2.05-1.53,1.008-3.2-3.9-1.43-5.806,2.065-2.929,6.621.572,8.918c0,0-.722,1.42,1.065,3.339a4.546,4.546,0,0,0,.816,4.293s-.085,3.853,1.991,5.17,6.745,1.051,6.718-.686-4.319-3.32-4.319-3.32,3.6.11,4.368-1.261-1.069-3.416-1.069-3.416A2.341,2.341,0,0,0,198.7,106.9c-.286-1.694-2.164-2.724-4.915-3.111a19.261,19.261,0,0,0-5.011-.044s1.866-5.784,3.445-6.309" transform="translate(-35.886 -18.02)" fill="#ffae7a"/>
            <path id="Trazado_982877" data-name="Trazado 982877" d="M188.743,107a13.314,13.314,0,0,1,6.981-.582c.515.1.637-.71.122-.8a14.15,14.15,0,0,0-7.4.63c-.492.18-.193.937.3.757" transform="translate(-36.372 -20.367)" fill="#421b36"/>
            <path id="Trazado_982878" data-name="Trazado 982878" d="M189.857,112.68a42.673,42.673,0,0,1,8.569.489.407.407,0,0,0,.123-.8,43.769,43.769,0,0,0-8.788-.493c-.523.023-.426.832.1.808" transform="translate(-36.608 -21.613)" fill="#421b36"/>
            <path id="Trazado_982879" data-name="Trazado 982879" d="M191.133,117.96a13.721,13.721,0,0,0,6.752,1.146c.521-.044.426-.853-.1-.808a12.85,12.85,0,0,1-6.325-1.08.407.407,0,0,0-.332.743" transform="translate(-36.895 -22.647)" fill="#421b36"/>
            <path id="Trazado_982880" data-name="Trazado 982880" d="M190.612,105.036a10.9,10.9,0,0,1,2.525-5.552c.343-.4-.291-.908-.632-.511a11.687,11.687,0,0,0-2.7,5.941.407.407,0,0,0,.8.123" transform="translate(-36.683 -19.101)" fill="#421b36"/>
            <path id="Trazado_982881" data-name="Trazado 982881" d="M190.037,94.76a2.615,2.615,0,0,0,2.319.436,2.583,2.583,0,0,0,1.595-1.413.407.407,0,0,0-.744-.332,1.783,1.783,0,0,1-1.107.975,1.762,1.762,0,0,1-1.552-.3c-.416-.318-.928.315-.511.633" transform="translate(-36.699 -18.016)" fill="#421b36"/>
            <path id="Trazado_982882" data-name="Trazado 982882" d="M205.768,95.361c.805,1.395.812,2.9.015,3.358s-2.1-.3-2.9-1.692-.812-2.9-.015-3.358,2.1.3,2.9,1.692" transform="translate(-39.093 -18.078)" fill="#fff"/>
            <path id="Trazado_982883" data-name="Trazado 982883" d="M191.6,86.224a104.169,104.169,0,0,1,10.609,1.263,61.463,61.463,0,0,1,11.271,2.6c.642.234.918-.79.282-1.022a62.288,62.288,0,0,0-11.567-2.648A106,106,0,0,0,191.6,85.164c-.682-.039-.679,1.021,0,1.06" transform="translate(-36.931 -16.459)" fill="#8380ff"/>
            <path id="Trazado_982884" data-name="Trazado 982884" d="M219.471,93.761l.733,4.959a.533.533,0,0,0,.652.37.543.543,0,0,0,.37-.652l-.733-4.959a.533.533,0,0,0-.652-.37.544.544,0,0,0-.37.652" transform="translate(-42.416 -17.992)" fill="#8380ff"/>
            <path id="Trazado_982885" data-name="Trazado 982885" d="M221.281,102.475a.53.53,0,0,0,0-1.06.53.53,0,0,0,0,1.06" transform="translate(-42.668 -19.601)" fill="#8380ff"/>
            <path id="Trazado_982886" data-name="Trazado 982886" d="M221.571,104.646a.53.53,0,0,0,0-1.06.53.53,0,0,0,0,1.06" transform="translate(-42.724 -20.02)" fill="#8380ff"/>
          </g>
        </g>
        <g id="Grupo_1148434" data-name="Grupo 1148434">
          <g id="Grupo_1148433" data-name="Grupo 1148433" clip-path="url(#clip-path-2)">
            <path id="Trazado_982887" data-name="Trazado 982887" d="M67.209,230.5S82.054,389.7,84.837,389.425l2.784-.275L70.788,230.284l-3.579-1.65" transform="translate(-12.99 -44.188)" fill="#421b36"/>
            <path id="Trazado_982888" data-name="Trazado 982888" d="M9.111,364.591c.842.421,56.694-2.245,58.1-.842a4.762,4.762,0,0,1,.983,3.789L8.409,369.081v-4.069" transform="translate(-1.625 -70.222)" fill="#421b36"/>
            <path id="Trazado_982889" data-name="Trazado 982889" d="M67.226,222.508c0,1.787-12.988,3.235-29.008,3.235s-29.008-1.448-29.008-3.235,12.988-3.235,29.008-3.235,29.008,1.448,29.008,3.235" transform="translate(-1.78 -42.379)" fill="#421b36"/>
            <path id="Trazado_982890" data-name="Trazado 982890" d="M67.226,232.667c0,1.787-12.988,3.235-29.008,3.235s-29.008-1.448-29.008-3.235,12.988-3.235,29.008-3.235,29.008,1.448,29.008,3.235" transform="translate(-1.78 -44.343)" fill="#421b36"/>
            <path id="Trazado_982891" data-name="Trazado 982891" d="M9.116,223.283l.086,8.234,58.006.4v-8.632Z" transform="translate(-1.762 -43.154)" fill="#421b36"/>
            <path id="Trazado_982892" data-name="Trazado 982892" d="M15.87,229.432S-1.449,381.65.1,382.242s4.639,0,4.639,0L19.581,230.3Z" transform="translate(0 -44.343)" fill="#421b36"/>
            <path id="Trazado_982893" data-name="Trazado 982893" d="M54.032,230.376s14.845,149.04,17.629,148.783l2.783-.257L57.611,230.178l-3.579-1.545" transform="translate(-10.443 -44.188)" fill="#421b36"/>
            <path id="Trazado_982894" data-name="Trazado 982894" d="M26.871,229.432S9.552,388.685,11.1,389.3s4.639,0,4.639,0L30.582,230.34Z" transform="translate(-2.126 -44.343)" fill="#421b36"/>
            <path id="Trazado_982895" data-name="Trazado 982895" d="M97.717,106.614l13.133,25.159s15.792-25.923,18.675-25.3a47.148,47.148,0,0,1,7.937,3.129s-11.04,37.256-20.8,41.548l-.292.127a16.11,16.11,0,0,1-19.45-5.552L80.727,122.9Z" transform="translate(-15.602 -20.575)" fill="#cc8770"/>
            <path id="Trazado_982896" data-name="Trazado 982896" d="M83.464,31.81a6.848,6.848,0,0,1,3.179,3.49,6.664,6.664,0,0,1-.094,4.3,16.564,16.564,0,0,1-2.038,3.863L78.956,30.126a20.378,20.378,0,0,1,4.508,1.684" transform="translate(-15.26 -5.822)" fill="#421b36"/>
            <path id="Trazado_982897" data-name="Trazado 982897" d="M73.384,29.883a5.814,5.814,0,0,0-1.907-4.022,9.153,9.153,0,0,0-4.013-2.086,13.127,13.127,0,0,0-11.358,2.458c-1.669,1.349-2.978,3.094-4.6,4.5s-3.514,2.811-5.623,2.419l2.386,3.335,3.9,2.052" transform="translate(-8.868 -4.518)" fill="#421b36"/>
            <path id="Trazado_982898" data-name="Trazado 982898" d="M41.017,42.077a7.777,7.777,0,0,1,3.214-1.925,2.356,2.356,0,0,1-2.33-3.877,4.528,4.528,0,0,1,4.117-.994c3.075.566,4.31.352,6.636-1.415L48.807,50.7a7.461,7.461,0,0,1-4.434-.512c-1.309-.759-1.985-2.758-.9-3.814a2.126,2.126,0,0,1-3.158-.8,3.294,3.294,0,0,1,.7-3.5" transform="translate(-7.743 -6.545)" fill="#421b36"/>
            <path id="Trazado_982899" data-name="Trazado 982899" d="M54.862,31.3a23.421,23.421,0,0,1,3.761-1.838c1.694-.781,3.264-1.807,4.928-2.65a11.717,11.717,0,0,1,5.341-1.488,7.372,7.372,0,0,1,5.274,3.139c.65,1.034,1.359,2.761.71,3.8L52.8,34.76a4.356,4.356,0,0,1,2.06-3.458" transform="translate(-10.205 -4.894)" fill="#421b36"/>
            <path id="Trazado_982900" data-name="Trazado 982900" d="M54.239,37.764a14.95,14.95,0,0,1,25.5-.123c1.816,3,2.855,7.107,3.228,12.678,1.04,15.542-12.089,16.7-12.089,16.7L69.373,85.206,55.764,75.945l2.068-12.036c-2.438-2.319-7.056-13.192-5.025-21.562a16.209,16.209,0,0,1,1.433-4.583" transform="translate(-10.109 -5.906)" fill="#cc8770"/>
            <path id="Trazado_982901" data-name="Trazado 982901" d="M63.023,29.277c-8.412.326-16.539,8.24-16.911,13.4a22.289,22.289,0,0,0,10.51,20.981c-3.465-5.043-5.082-8.817-4.759-15.082,0,0,6.407,2.423,4.959-3.2a22.038,22.038,0,0,1-1.029-6.968C56,30.219,69.511,30.52,69.511,30.52s-.055-1.492-6.488-1.243" transform="translate(-8.899 -5.653)" fill="#421b36"/>
            <path id="Trazado_982902" data-name="Trazado 982902" d="M82.587,45.882a.937.937,0,1,1-1.037-.929.986.986,0,0,1,1.037.929" transform="translate(-15.602 -8.687)" fill="#421b36"/>
            <path id="Trazado_982903" data-name="Trazado 982903" d="M70.039,47.162A.937.937,0,1,1,69,46.234a.986.986,0,0,1,1.037.929" transform="translate(-13.177 -8.935)" fill="#421b36"/>
            <path id="Trazado_982904" data-name="Trazado 982904" d="M61.7,41.154a8.112,8.112,0,0,1,3.31-1.287,17.767,17.767,0,0,1,3.01.032c.588,0,.645-.861.172-1.079-2.385-1.1-5.124.232-6.86,1.835-.286.264.04.742.369.5" transform="translate(-11.832 -7.425)" fill="#421b36"/>
            <g id="Grupo_1148426" data-name="Grupo 1148426" transform="translate(49.84 40.891)" opacity="0.2">
              <g id="Grupo_1148425" data-name="Grupo 1148425">
                <g id="Grupo_1148424" data-name="Grupo 1148424" clip-path="url(#clip-path-9)">
                  <path id="Trazado_982905" data-name="Trazado 982905" d="M67.671,51.929c.09.841-1.154,1.665-2.779,1.84s-3.016-.366-3.107-1.208,1.154-1.666,2.779-1.84,3.016.366,3.107,1.208" transform="translate(-61.78 -50.688)" fill="#421b36"/>
                </g>
              </g>
            </g>
            <g id="Grupo_1148429" data-name="Grupo 1148429" transform="translate(64.782 39.509)" opacity="0.2">
              <g id="Grupo_1148428" data-name="Grupo 1148428">
                <g id="Grupo_1148427" data-name="Grupo 1148427" clip-path="url(#clip-path-9)">
                  <path id="Trazado_982906" data-name="Trazado 982906" d="M86.193,50.215c.09.841-1.154,1.665-2.779,1.84s-3.016-.366-3.107-1.208,1.154-1.665,2.779-1.839,3.016.366,3.107,1.208" transform="translate(-80.302 -48.974)" fill="#421b36"/>
                </g>
              </g>
            </g>
            <path id="Trazado_982907" data-name="Trazado 982907" d="M51.993,52.957a3.311,3.311,0,0,0-3.92.432,4.3,4.3,0,0,0-1.238,2.594,5.041,5.041,0,0,0,1.5,4.431,3.732,3.732,0,0,0,4.5.361Z" transform="translate(-9.042 -10.153)" fill="#cc8770"/>
            <path id="Trazado_982908" data-name="Trazado 982908" d="M49.918,58.24a2.9,2.9,0,0,1,1.179-.392,1.669,1.669,0,0,1,1.256.464.519.519,0,0,0,.74-.708,2.125,2.125,0,0,0-1.941-.77,1.907,1.907,0,0,0-.969.415c-.309.271-.29.518-.409.876-.028.083.062.182.144.116" transform="translate(-9.619 -10.981)" fill="#421b36"/>
            <path id="Trazado_982909" data-name="Trazado 982909" d="M80.357,37.35a3.719,3.719,0,0,0-5.963,1.25c-1.459,3.307.556,8.2,2.729,10.75a.593.593,0,0,0,.954-.7c-1.264-2.1-2.549-4.233-2.874-6.723-.224-1.73-.014-3.8,1.983-4.407a5.211,5.211,0,0,1,2.924.236.238.238,0,0,0,.246-.4" transform="translate(-14.282 -7.024)" fill="#421b36"/>
            <path id="Trazado_982910" data-name="Trazado 982910" d="M66.252,73.9a12.219,12.219,0,0,0,9.114,1.772.5.5,0,0,0-.106-.988,24.19,24.19,0,0,1-8.972-.865.046.046,0,0,0-.036.081" transform="translate(-12.801 -14.267)" fill="#421b36"/>
            <path id="Trazado_982911" data-name="Trazado 982911" d="M58.079,49.238a23.77,23.77,0,0,1,.526,6.806,2.691,2.691,0,0,1-.647,1.69,1.212,1.212,0,0,1-1.655.111c-.147-.152-.622-.535-.756-.7-1.716-2.091-2.022-3.5-3-5.711" transform="translate(-10.156 -9.516)" fill="#421b36"/>
            <path id="Trazado_982912" data-name="Trazado 982912" d="M68.61,54.251a4.824,4.824,0,0,0,.285,4.542,4.774,4.774,0,0,0,4.132,1.981,5.148,5.148,0,0,0,3.961-2.361,1.6,1.6,0,0,0,.28-1.449,1.769,1.769,0,0,0-.816-.735,43.105,43.105,0,0,0-6.84-2.645.981.981,0,0,0-1,.667" transform="translate(-13.177 -10.356)" fill="#421b36"/>
            <path id="Trazado_982913" data-name="Trazado 982913" d="M78.856,29.076c2.736-2.834,1.279-7.1-1.654-9.165-1.05-.741-2.377.958-1.384,1.793,2.218,1.863,2.66,4.352,2.428,7.119a.36.36,0,0,0,.609.253" transform="translate(-14.586 -3.813)" fill="#421b36"/>
            <path id="Trazado_982914" data-name="Trazado 982914" d="M78.66,30.713a3.785,3.785,0,0,0,2.635-.527,8.882,8.882,0,0,0,2.467-1.768c1-1-.606-2.6-1.551-1.551A15.613,15.613,0,0,1,80.3,28.676a6.627,6.627,0,0,0-1.823,1.579.316.316,0,0,0,.186.458" transform="translate(-15.158 -5.126)" fill="#421b36"/>
            <path id="Trazado_982915" data-name="Trazado 982915" d="M89.02,316.155A25.2,25.2,0,0,1,88,313.6a29.305,29.305,0,0,1,.422-13.6c1.468-4.966,21.168-10.835,21.811-10.934L98.792,272.724s-20.614,16.352-24.412,20.3-15.384,11.991-16,15.641,16.112,21.307,22.911,27.249c10.563,9.231,18.091,7.369,19.22,5.972.775-.959-9.98-21.092-11.488-25.728" transform="translate(-11.279 -52.71)" fill="#421b36"/>
            <path id="Trazado_982916" data-name="Trazado 982916" d="M100.525,349.08a14.028,14.028,0,0,0-.651-1.847h0c-.344-.028-10.631-1.108-22.528-10.813-12.1-9.871-16.354-23.928-16.354-23.928-1.45,1.5-2.54,2.9-2.708,3.906a1.472,1.472,0,0,0-.006.379,3.609,3.609,0,0,0,.267,1c2.175,5.481,16.49,20.492,22.651,25.876,8.12,7.1,14.335,7.593,17.389,6.874,1.569-.411,2.08-.894,1.941-1.446" transform="translate(-11.262 -60.396)" fill="#a0d2f4"/>
            <path id="Trazado_982917" data-name="Trazado 982917" d="M89.655,321.882l9.161,19.71,1.711,3.681s-10.571-.823-22.667-10.695-16.215-24.045-16.215-24.045c2.235-2.285,5.679-5.178,9.338-8.177a13.279,13.279,0,0,0,5.236,8.283c.183.137.377.259.567.386,1.2-1.743,3.271-4.18,5.757-4.847,3.74-1,9.345,1.15,7.906,6.672a25.229,25.229,0,0,0-1.784,4.047c-.367,1.435.991,4.985.991,4.985" transform="translate(-11.914 -58.437)" fill="#8380ff"/>
            <path id="Trazado_982918" data-name="Trazado 982918" d="M61.373,312.533C66.578,327.59,81.854,347,99.358,346.957c.648,0,.774-.993.1-1.021-18.4-.779-30.142-18.992-37.654-33.593a.237.237,0,0,0-.434.19" transform="translate(-11.859 -60.34)" fill="#421b36"/>
            <path id="Trazado_982919" data-name="Trazado 982919" d="M94.823,323.338a6.819,6.819,0,0,0-6.59.311c-.459.321-.191,1.222.414.981a9.618,9.618,0,0,1,5.956-.769c.3.062.53-.375.22-.523" transform="translate(-17.008 -62.357)" fill="#421b36"/>
            <path id="Trazado_982920" data-name="Trazado 982920" d="M96.391,328.837c-1.473-.958-4.941-.732-6.128.639a.394.394,0,0,0,.276.665,26.018,26.018,0,0,0,2.752-.729c1.016-.166,2.042-.01,3.05-.19.19-.034.189-.294.05-.385" transform="translate(-17.426 -63.442)" fill="#421b36"/>
            <path id="Trazado_982921" data-name="Trazado 982921" d="M98.286,333.033a7.374,7.374,0,0,0-5.553,1.471c-.491.389.135,1.025.621.806a20.647,20.647,0,0,1,2.5-1.1c.8-.242,1.632-.32,2.432-.545a.329.329,0,0,0,0-.628" transform="translate(-17.888 -64.346)" fill="#421b36"/>
            <path id="Trazado_982922" data-name="Trazado 982922" d="M94.367,322.059a6.011,6.011,0,0,0-2-4.727c-1.041-.943-3.088-2.226-4.549-1.563-1.537.7-.852,2.519.111,3.368a12.6,12.6,0,0,0,6.209,2.882.417.417,0,0,0,.222-.8,23.6,23.6,0,0,1-3.8-1.558,14.129,14.129,0,0,1-1.611-1.041,1.861,1.861,0,0,1-.8-.922q-.6-.638.382-.715a.776.776,0,0,1,.962-.174c2.352.411,4.015,3.208,4.514,5.3a.184.184,0,0,0,.359-.048" transform="translate(-16.799 -60.994)" fill="#421b36"/>
            <path id="Trazado_982923" data-name="Trazado 982923" d="M95.438,321.415a7.268,7.268,0,0,0,4.89-2.32c1.045-1,2.7-2.91,1.567-4.417-1.158-1.541-3.162-.017-4.115.936a9.628,9.628,0,0,0-2.795,5.437c-.069.5.642.742.79.218a11.918,11.918,0,0,1,1.522-3.52,9.607,9.607,0,0,1,1.328-1.571c.461-.439,2.857-2.352,2.552.115-.139,1.122-1.662,2.352-2.5,3a31.425,31.425,0,0,1-3.306,1.885.128.128,0,0,0,.065.237" transform="translate(-18.357 -60.691)" fill="#421b36"/>
            <path id="Trazado_982924" data-name="Trazado 982924" d="M74.719,399.989a24.809,24.809,0,0,1-2.461-1.236,29.3,29.3,0,0,1-8.727-10.442c-2.2-4.686,8.611-22.167,9.026-22.667l-19.407-4.6s-4.53,25.92-4.744,31.391-3.522,19.185-1.559,22.323,26.2,5.207,35.23,5.127c14.027-.126,18.414-6.521,18.328-8.315-.058-1.231-21.476-9.122-25.685-11.584" transform="translate(-8.934 -69.78)" fill="#421b36"/>
            <path id="Trazado_982925" data-name="Trazado 982925" d="M100.1,422.944A13.981,13.981,0,0,0,98.389,422h0c-.276.207-8.678,6.238-24.017,6.9-15.6.667-28.123-7-28.123-7-.087,2.084.03,3.854.574,4.718a1.454,1.454,0,0,0,.247.289,3.642,3.642,0,0,0,.862.567c5.269,2.648,25.941,4.347,34.122,4.274,10.785-.094,15.757-3.856,17.561-6.424.9-1.35.959-2.05.489-2.37" transform="translate(-8.934 -81.539)" fill="#a0d2f4"/>
            <path id="Trazado_982926" data-name="Trazado 982926" d="M74.725,406.846l19.946,8.634,3.725,1.613s-8.444,6.412-24.044,7.077-28.1-7.185-28.1-7.185c.149-3.192.8-7.643,1.54-12.315a13.28,13.28,0,0,0,9.418,2.707c.227-.019.453-.057.679-.089-.258-2.1-.335-5.3,1.079-7.448,2.128-3.236,7.747-5.353,10.342-.272a25.178,25.178,0,0,0,1.357,4.21c.68,1.317,4.054,3.066,4.054,3.066" transform="translate(-8.94 -76.637)" fill="#8380ff"/>
            <path id="Trazado_982927" data-name="Trazado 982927" d="M46.1,422.041c13.9,7.788,38.215,12.139,51.26.466.482-.431-.081-1.256-.6-.831-14.26,11.647-35.144,5.849-50.461-.066a.237.237,0,0,0-.2.431" transform="translate(-8.885 -81.475)" fill="#421b36"/>
            <path id="Trazado_982928" data-name="Trazado 982928" d="M78.429,406.979c-2.023.567-4.339,2.432-4.7,4.631-.094.566.66.979.981.414a13.976,13.976,0,0,1,1.54-2.623,9.35,9.35,0,0,1,2.4-1.9.287.287,0,0,0-.22-.523" transform="translate(-14.247 -78.655)" fill="#421b36"/>
            <path id="Trazado_982929" data-name="Trazado 982929" d="M83.328,410.111a4.529,4.529,0,0,0-2.74,1.795c-.619.7-1.643,1.887-1.441,2.886a.391.391,0,0,0,.572.233,2.373,2.373,0,0,0,.724-1.037,8.266,8.266,0,0,1,.966-1.451c.632-.758,1.552-1.3,2.1-2.11a.212.212,0,0,0-.182-.317" transform="translate(-15.292 -79.262)" fill="#421b36"/>
            <path id="Trazado_982930" data-name="Trazado 982930" d="M87.547,411.989a7.225,7.225,0,0,0-3.133,4.673c-.082.52.675.971.937.4a25.345,25.345,0,0,1,1.1-2.452c.454-.771,1.075-1.415,1.542-2.171a.329.329,0,0,0-.446-.446" transform="translate(-16.314 -79.618)" fill="#421b36"/>
            <path id="Trazado_982931" data-name="Trazado 982931" d="M77.209,406.72a6.087,6.087,0,0,0-4.928-2.2c-1.313.036-3.564.482-4.143,1.88-.616,1.492.952,2.392,2.227,2.423a12.484,12.484,0,0,0,6.683-1.99c.372-.243.139-.953-.321-.763a27.756,27.756,0,0,1-3.176,1.2,15.45,15.45,0,0,1-1.667.363,10.776,10.776,0,0,1-1.519.154q-1.432-1.451-.2-1.764c1.91-1.338,5.158-.16,6.826.983.183.125.345-.138.222-.287" transform="translate(-13.143 -78.182)" fill="#421b36"/>
            <path id="Trazado_982932" data-name="Trazado 982932" d="M78.187,405.1a7.831,7.831,0,0,0,2.137-5.592c.022-1.383-.2-3.624-2.013-3.734-1.53-.093-2.02,1.591-2.175,2.809a9.855,9.855,0,0,0,1.48,6.576.41.41,0,0,0,.707-.413,11.68,11.68,0,0,1-1.2-3.783,9.429,9.429,0,0,1-.061-1.72,5.628,5.628,0,0,1,.178-1.252q.172-1.154,1.98-.019c.511.8.086,2.932-.1,3.74a27.607,27.607,0,0,1-1.151,3.266c-.045.125.127.2.213.123" transform="translate(-14.699 -76.491)" fill="#421b36"/>
            <path id="Trazado_982933" data-name="Trazado 982933" d="M86.768,179.172c2.632.957,56.611,28.283,64.984,36.959,12.282,12.729-4.053,28.54-4.053,28.54s-40.111,41.231-44.9,39.317-20.76-24.409-20.76-24.409l34.64-24.409L76.115,215.051l-9.448-37.6,19.862-3.778Z" transform="translate(-12.885 -33.565)" fill="#8380ff"/>
            <path id="Trazado_982934" data-name="Trazado 982934" d="M31.165,185.806c-.478.449-1.328,16.558.572,23.424.379,1.369,3.5,6.118,3.5,6.118C37.012,231.9,36.6,267.441,36.6,267.441s-1.471,75.186,1.711,78.444c6.39,6.541,33.3,1.511,33.3,1.511s1.981-77.656,2.7-85.792,2.581-61.355,2.581-61.355l1.466-19.71,2.453-5.84-46.245,3.777Z" transform="translate(-5.906 -33.764)" fill="#8380ff"/>
            <path id="Trazado_982935" data-name="Trazado 982935" d="M129.482,249.933a90.437,90.437,0,0,1,20.165-3.051c.68-.025.683-1.085,0-1.06a91.754,91.754,0,0,0-20.447,3.089.53.53,0,0,0,.282,1.022" transform="translate(-24.898 -47.51)" fill="#421b36"/>
            <path id="Trazado_982936" data-name="Trazado 982936" d="M132.1,245.436a40.818,40.818,0,0,1,11.257-11.575c.559-.382.03-1.3-.535-.915A42.118,42.118,0,0,0,131.189,244.9c-.371.575.546,1.107.915.535" transform="translate(-25.338 -45.004)" fill="#421b36"/>
            <path id="Trazado_982937" data-name="Trazado 982937" d="M81.851,348.07c.372-5.787.442-11.607.636-17.4q.6-17.829,1.161-35.659.655-20.408,1.309-40.816.531-16.492,1.084-32.983c.106-3.081.211-6.162.333-9.243.028-.715.118-1.452.1-2.168-.01-.315-.186.239.017-.026a14.326,14.326,0,0,0,.8-1.343l2.344-3.926q.674-1.128,1.347-2.256a.53.53,0,0,0-.915-.535l-3.776,6.324a5.087,5.087,0,0,0-.875,1.712c-.038.257-.027.53-.04.79-.115,2.534-.2,5.069-.286,7.605q-.542,15.453-1.025,30.908-.658,20.366-1.307,40.731-.6,18.61-1.206,37.22c-.225,6.792-.4,13.589-.722,20.378-.01.229-.022.459-.036.689-.044.681,1.016.678,1.06,0" transform="translate(-15.614 -38.936)" fill="#421b36"/>
            <g id="Grupo_1148432" data-name="Grupo 1148432" transform="translate(70.335 165.688)" opacity="0.2">
              <g id="Grupo_1148431" data-name="Grupo 1148431">
                <g id="Grupo_1148430" data-name="Grupo 1148430" clip-path="url(#clip-path-11)">
                  <path id="Trazado_982938" data-name="Trazado 982938" d="M130.712,233.336V231.3c1.346.161,1.672,2.428,0,2.035m.748,3.053h-.748v1.628c1.167.352,1.61-.936.748-1.628m.924-2.2v1.083a1.651,1.651,0,0,0,.282.265c.049-.521.087-1.072.107-1.63l-.389.282m-2.118-.852h.446V231.5c-1.225-.418-1.15,1.325-.446,1.831m.446,4.884V236.8c-1.367-1.093-1.338,1.839,0,1.425m-.019-9.769q-.333-.243-.727-.518a.582.582,0,0,0,.727.518M118.3,245.808c1.6-.358,1.6-1.651.79-2.131l-1.561,1.1c.391.233.328.793.771,1.031M91.437,226.773l1.359.67c.027-.621-.728-.816-1.359-.67m-.67,44.138.009.011.837-.654c-.345,0-.615.3-.846.643m21.85-17.04.378-.3-.332.092a1.824,1.824,0,0,0-.046.2m-20.676,8.988a1.629,1.629,0,0,0,.424-.349l-.482.34c.02,0,.036.008.057.01m23.186-10.947,1.3-1.016a2.393,2.393,0,0,0-.431-.174,1.433,1.433,0,0,0-.87,1.19m-12.514-26.441c1.1.968,1.9.981,2.469-.5-.674-1.559-2.185-.929-2.469.5m6.11,5.59c.411-.617,1.567-.625,1.158-1.651-1.7-1.563-3.283,1.1-1.158,1.651m-11.238-2.869c.126-1.239.084-1.3-1.208-1.648-1.876.881-.373,2.981,1.208,1.648m30.92,5.62c-1.76.476-1.392,1.689-.123,2.193,1.284-.294,1.663-1.957.123-2.193m-5.52,6.9a4.439,4.439,0,0,0,1.731-.135c-.226-.852-.179-1.919-1.3-2.03a2.889,2.889,0,0,0-.9.987,5.491,5.491,0,0,1,.47,1.177m-11.9,12.381a1.665,1.665,0,0,0,1.393-.971,1.4,1.4,0,0,1-.478-1.012c-1.492-.5-2.636,1.517-.915,1.983m4.239-30.34c.4.206.3.5.248.817a1.5,1.5,0,0,0,1.561-.4c.585-2.92-2.561-1.5-1.809-.415m.382,25.219c.789.306,1.153-.288,1.581-.716-.206-.634-.051-1.18-.858-1.4a1.966,1.966,0,0,0-.484.108l-.549.386a1.342,1.342,0,0,0,.31,1.62m-9.1-16.783-1.132.557c-.762,3.1,3.7,1.385,1.132-.557m-4.059,25.307-.68-.611-1.418,1c.465,1.25,2.124,1.433,2.1-.389M122.184,244.7c.43.2.414.584.2,1.068a2.717,2.717,0,0,0,.666-.049l1.191-.929c.336-.995-.666-2.121-2.061-.09m-11.123-23.215a1.511,1.511,0,0,1-.977,1.151c1.213,3.023,3.6-.682.977-1.151m-9.565,7.14c.606-.042.842-.853.96-1.388-.46-1.434-1.581-.479-2.1.329-.553.656.719.859,1.138,1.059m11.162,20.9c.554,2.553,3.8-.222,1.15-1.014-.363.336-1.058.293-1.15,1.014m-12.251-31.9a1.081,1.081,0,0,0,2.152.153,1.092,1.092,0,0,0-2.152-.153m.739-5.934c-.25.412-.5.835-.77,1.275,1.614,2.688,3.282-.726.77-1.275M121.6,242.944c.684-.466.067-1.83-.677-1.985a1.618,1.618,0,0,0-.733.492l.535,1.071-.462.326a1.131,1.131,0,0,0,1.338.1m-27.939,20.18c-1.146.783-.173,2.6.968,1.8.975-.937.393-2.15-.968-1.8M95.3,215a1.133,1.133,0,0,0-2.179.478c.274,1.4,2.068.762,2.179-.478m2.915-5.252a1.49,1.49,0,0,1,.029,1c.345,1.289,2.006.51,1.943-.645l-.385-.381-.747-.435c-.3.1-.625.111-.841.464m28.079,26.334c-.61.4-1.434.523-1.457,1.363.591,1.193,1.846.985,2.248-.215-.42-.27-.307-.867-.791-1.148m-1.179-4.377c-.153,3.663,3.784.716.812-.329l-.812.329m-4.044,4.523c-1.029.322-1.364,1.047-.662,1.941,1.718.4,2.417-1.2.662-1.941M93.6,225.794a1.072,1.072,0,0,0,1.139-1.8c-1.205-.684-1.952.91-1.139,1.8m15.071,29.529c1.062.374,1.91-1.939.426-1.868-1.4-.131-1.889,1.5-.426,1.868M87.565,221.93l.042,1.261a1.016,1.016,0,0,0,.115-.218,1.127,1.127,0,0,0-.157-1.043m19.035-8.251-1.305-.762a.832.832,0,0,0,1.305.762m-4.9,17.742a1.623,1.623,0,0,0-.515.157l1.239.611a1.87,1.87,0,0,0-.047-.29l-.678-.478M92.792,217.65c-.34-.406-.631-.756-.924-1.1-.53-.14-.784.244-1.1.587-.157,1.781,1.379,2.113,2.021.518m-.682,49.912c1.826-1.85-1.872-3.069-1.388-.243.386.452.908.2,1.388.243m3.922-1.912a1.292,1.292,0,0,0-.152,1.288l1.388-1.083c-.278-.267-.6-.289-1.237-.2m24.409-32.276c.527.076,1.195,0,1.314-.622.264-1.172-.524-1.818-1.556-1.081-.065.537-.625,1.592.242,1.7M99.141,262.9c-.783.318-1.558,1.2-.843,1.977.073.015.129.012.2.023l1.409-1.1a2.292,2.292,0,0,0-.763-.9m24.078-31.758c.491-.265,1.157-.328,1.325-1.109-.947-2.328-2.97-.21-1.325,1.109m-32.87-5.988c-.75-2.03-2.474-.87-2.084.061l1.317.648a.761.761,0,0,0,.767-.708m8.738-8.693c.318-.22.59-.411.893-.623.432-2.977-3.725-.989-.893.623m8.658-.871c.167,1.061,1.855.839,1.843-.156l-1.476-.866a.961.961,0,0,0-.367,1.022m-.1,4.439c.01.98,1.305,1.6,1.877.716.965-1.411-1.079-2.08-1.877-.716m11.228,3.891c-1.155.475-1.6,1.367-.671,2.346l.938-.293a1.363,1.363,0,0,0-.267-2.053m-28.709-8.283a1.631,1.631,0,0,1,.039-1.053c-.341-.087-.628-.162-1.061-.274-2.481.975.6,3.032,1.022,1.327m6.3-3.842c-.516.38-1.285.858-.819,1.59l1.721.424c.336-.612.059-2.319-.9-2.014M95.788,262.4a3.839,3.839,0,0,0,1.395.066c1.521-2.194-2.129-2.692-1.395-.066m11.7-5.763c-.3-.986-1.862-.884-2.32.117.726,1.106,2.014,1.519,2.32-.117m4.811-20.145a1.133,1.133,0,0,0-1.309-.086l1.252.617a1.554,1.554,0,0,0,.056-.532M107.18,218.27V217.1c-.993-.662-1.573-.579-1.678.656-.687,1,1.228,1.075,1.678.518m-7.693.977c-.329.267-.845-.056-1.241.255a1.993,1.993,0,0,0,.221,1.565c1.48.861,2.027-1.213,1.02-1.82m7.165,33.655c.279-.282.554-.56.81-.82-.025-.056-.056-.1-.081-.152l-1.238.872c.157.037.324.069.509.1M87.495,265.941l-.31.219.51.677a.751.751,0,0,0-.2-.9m20.292-40.179a2.4,2.4,0,0,0,1.025.459c.315-.4.606-.764.975-1.227-.891-1.426-2.344-.872-2,.768m12.71-2.4c.624.06,1.014-.139,1.643.241a2.466,2.466,0,0,1-.115-.743q-.768-.47-1.568-.954a1.278,1.278,0,0,0,.04,1.456M102.958,258.7c-.285.566.354.968.412,1.481,2.566.395,1-3.216-.412-1.481m8.291-32.175a.955.955,0,0,0-.673,1.678l.86.282a1,1,0,0,0-.187-1.96m-14.986-8c1.359.029,1.747-1.672.282-2-1.026.238-1.469,1.726-.282,2M105,220.709c.014-1.756-1.68-1.963-2.134-.194.713.329,1.584,1.218,2.134.194m23.623,8.221c-1.485.748-2.1,1.663-.015,1.955,1.237-.487,1-1.353.015-1.955M98.992,260.4c.937-.106.791-.883.991-1.526a2.823,2.823,0,0,1-1.205-.737c-.313.429-.752.7-.946,1.274l1.16.989M91.7,221.643c-.94.137-.8.883-1.066,1.548,1.444,1.381,2.953-1.079,1.066-1.548m-1.981-.527a4.327,4.327,0,0,1,.273-.693c.629-.808-.883-1.228-1.458-1q-.224.455-.429.873c.438.921.453.929,1.614.82M97.369,208.3l-1.551-.9a2,2,0,0,0-.075.669c.093,1.24,1.254,1.03,1.626.234m21.38,40.184-1.24,1.028a1.014,1.014,0,0,0,.186.394l1.442-1.125a3.663,3.663,0,0,0-.388-.3M93.423,268.856l.888-.694c-.216-.067-.452-.118-.7-.206-.1.324-.1.641-.19.9m21.358-38.433c-.115-1.885-1.815-1.323-2.156-.07.686.82.947.825,2.156.07M87.4,217.008l.038,1.151c.179-.126.359-.253.536-.39a1.365,1.365,0,0,0-.574-.762m37.936,24.046c-.047.71-.616,1.465-.077,2a.909.909,0,0,0,1.389-.648c.18-.709-.553-1.8-1.312-1.348m-5.574,6.219a1.605,1.605,0,0,0,.55.587l1.47-1.147a1.192,1.192,0,0,0-.138-.286c-1.321-.294-1.324-.293-1.882.846M90.121,268.607c-.68-.651-.756-.716-1.4-.416l1.189,1.577c.027-.023.052-.035.08-.062.05-.4.094-.763.136-1.1m29.045-28.173a1.257,1.257,0,0,0,.31-.159c-.165-.6.063-1.546-.743-1.579-.82-.054-1.071.145-1.027.938-.006.03,0,.051,0,.079ZM93.951,206.307l-.738-.433c0,.014,0,.026,0,.04a1.285,1.285,0,0,0,.734.394m18.691,13.86c.651,1.06,1.7,1.392,2.2.035-.7-1.124-1.674-1.379-2.2-.035m.216,4.454a1.007,1.007,0,1,0,1.926.578c.306-.915-1.436-1.254-1.926-.578m-3.576,9.665a1.482,1.482,0,0,1-.987-.457c-.636.373-.579.7-.37,1.067l1.536.757c.124-.119.237-.243.326-.345-.18-.365-.341-.691-.5-1.022m-4.927,20.837c.546-.513.566-.918.3-1.273l-1.531,1.079a1.388,1.388,0,0,0,1.232.194m-.966-40.776-.493.691c.135.328.256.63.4.984,1.813.716,2-2.378.094-1.675m3.938,7.9c-.976-.824-1.026-.832-1.991-.288-.357,1.509,2.027,2.065,1.991.288m16.156,11.627c-1.046.143-1.221,1.768-.211,1.94,1.294.335,1.509-1.8.211-1.94M96.589,223.836c.715-.5.711-1.2.891-1.818-.4-.215-.62-.549-1.037-.556l-.624.47c-.081.675.215,1.015.207,1.626.173.087.352.173.563.278m30.9,16.2c.374,1.433,2.122.313,1.736-.827-.894-.628-2.065-.345-1.736.827m-25.759,20.7a1.187,1.187,0,0,0-1.267,1.231,1.275,1.275,0,0,0,.974.628l.818-.638c.063-.194.1-.4.164-.6-.266-.238-.508-.457-.689-.62m3.633-33.671c.154.581.019,1.178.528,1.634l.716-.043c.212-.6.783-1.056.371-1.788-.588-.12-1.155-.377-1.615.2m11.69,5.241a1.528,1.528,0,0,0-1.674-.685,3.765,3.765,0,0,0-.425.854,1.09,1.09,0,0,0,2.1-.169m-4.234,1.834c-.229,1.376.637,2.339,1.7,1.1.582-1.125-.866-1.234-1.7-1.1m-22.8-23.649a.8.8,0,1,0-1.572-.16c-.357,1.112,1.837,1.648,1.572.16m28.749,10.4-1.212-.728a.913.913,0,0,0,.249.532,1.652,1.652,0,0,0,.962.2m-28.6,43.167-1.128.795c.561.069,1.159-.271,1.128-.795m.674-51.224c.471,1.2,1.263,1.2,1.974.177-.369-1.049-1.71-1.691-1.974-.177m11.346,9.632c-.666-.947-1.646-.788-1.749.407.1.2.2.407.282.574,1.016.3,1.406.265,1.467-.982m13.071,14.423a11.368,11.368,0,0,0,.257,1.309,1.334,1.334,0,0,0,1.559-.47c-.176-.411-.343-.8-.515-1.208a1.193,1.193,0,0,0-1.3.369m-25.086-31.5-.237.4a3.739,3.739,0,0,1,.292-.236,1.055,1.055,0,0,0-.055-.161m7.77,19.553,1.091.808c.3-.24.73-.371.934-.7a1.058,1.058,0,0,0-.386-.959,1.354,1.354,0,0,0-1.64.855M112,218.425c.011-.607.14-1.685-.757-1.484-1.5.657-.924,2.448.757,1.484m13,9.427c.752.853,1.941.469,1.644-.655-.465-1.4-1.653-.427-1.644.655M103.146,229.7c-.162,1.279.3,1.456,1.405.936.845-1.549-.332-1.845-1.405-.936m18.3-1.43c.466-.9.408-1.166-.4-1.9l-.833.418c-.116,1.232.058,1.439,1.232,1.482m-26.6-18.356-.77-.526c-2.226,1.318,1.209,3.385.77.526M123.2,224.047c-1.446.368-.145,2.1,1.035,1.92a1.969,1.969,0,0,0-1.035-1.92M99.7,229.6c-.7-.352-1.439-.553-1.772.369l1.564.77A.96.96,0,0,0,99.7,229.6m19.22-.676c-.431.34-.815.642-1.2.942.106.308.19.553.294.856,1.279.364,2.142-.986.9-1.8m-25.76-8.534c.7.158,1.287.741,1.913.3.481-1.634-1.485-1.768-1.913-.3m17.026,11.818.866,1.119c1.1-.13,1.105-.895.62-1.718a1.313,1.313,0,0,0-1.485.6M91.05,208.43c1.251.828,1.739-.071,1.111-1.269-.893-.239-1.809.464-1.111,1.269m-3.8,3.924.031.964c.077-.047.148-.084.232-.144a.655.655,0,0,0-.263-.82m31.149,21.54c-.939.44-.425,1.9.365,2.127.207-.513.391-.97.607-1.5-.379-.048-.5-.921-.973-.624m-2.162-7.513c-.709.12-.852.657-1.046,1.155.587.441.675.453,1.848.253.2-.761-.429-1.021-.8-1.409" transform="translate(-87.185 -205.382)" fill="#421b36"/>
                </g>
              </g>
            </g>
            <path id="Trazado_982939" data-name="Trazado 982939" d="M93.4,89.841a15.392,15.392,0,0,1,4.433,2.824c1.916,1.837,13.731,22.176,12.772,26s-15.09,6.873-15.09,6.873Z" transform="translate(-18.052 -17.364)" fill="#a0d2f4"/>
            <path id="Trazado_982940" data-name="Trazado 982940" d="M66.067,85.468c3.044.508,14.113,2.315,15.468,3.877,1.809,2.083,3.288,61.539,3.3,62.331s1.628,7.169-.735,9.648c14.333,14.09-31.512,14.436-44.9,12.062-13.811-2.449-8.379-14.4-8.379-14.4-.344-2.8,2.469-54.039,2.565-57.316.883-3.5,3.884-13.013,4.735-13.248l13.618-4S64,90.459,66.067,85.468" transform="translate(-5.754 -16.315)" fill="#a0d2f4"/>
            <path id="Trazado_982941" data-name="Trazado 982941" d="M95.227,108.288c.683,9.015.612,18.1.943,27.132.073,2,.145,4.01.3,6.009.052.676,1.112.682,1.06,0-.683-9.015-.612-18.1-.943-27.131-.073-2-.145-4.01-.3-6.01-.052-.676-1.112-.682-1.06,0" transform="translate(-18.404 -20.831)" fill="#421b36"/>
            <path id="Trazado_982942" data-name="Trazado 982942" d="M48.918,186.483A91.957,91.957,0,0,0,84.6,180.456c.63-.242.357-1.267-.282-1.022a91.134,91.134,0,0,1-35.4,5.989c-.682-.021-.682,1.039,0,1.06" transform="translate(-9.356 -34.672)" fill="#421b36"/>
            <path id="Trazado_982943" data-name="Trazado 982943" d="M95.628,103.849a16.109,16.109,0,0,1,2.8-6.156c.365-.486-.461-1.129-.849-.655a9.628,9.628,0,0,0-2.211,6.777c.014.138.219.189.257.035" transform="translate(-18.425 -18.723)" fill="#421b36"/>
            <path id="Trazado_982944" data-name="Trazado 982944" d="M34.09,206.409a12.365,12.365,0,0,0,15.661-9.445c.2-.853-1.127-1.216-1.31-.361a12.281,12.281,0,0,1-14.3,9.615c-.123-.019-.178.157-.052.192" transform="translate(-6.575 -37.903)" fill="#421b36"/>
            <path id="Trazado_982945" data-name="Trazado 982945" d="M43.108,207.682c-1.409,11.924-.818,24.349-.806,36.345.011,12.115.151,24.23.292,36.345.281,24.238.385,48.453.021,72.69a.748.748,0,0,0,1.495,0c.761-24.211.322-48.474.021-72.69-.147-11.832-.3-23.666-.359-35.5-.066-12.324.727-24.9-.155-37.19a.255.255,0,0,0-.509,0" transform="translate(-8.15 -40.092)" fill="#421b36"/>
            <path id="Trazado_982946" data-name="Trazado 982946" d="M135.992,100.432a8.133,8.133,0,0,1-1.2-6.257c.457-2.36,1.12-4.665.623-6.65-.689-2.749-.381-4.623.906-5.021a2.573,2.573,0,0,1,3.292,1.9,15.53,15.53,0,0,1,.6,5.729s1.751-2.325,3.643-4.464c1.687-1.907,7.348-9.319,9.161-7.731a1.614,1.614,0,0,1,.2,2.478c-1.206,1.505-5.612,7.019-5.932,7.908s-.559.749-.072,1.117,2.261-2.01,2.914-2.468c.54-.377,4.66-5.28,7.461-5.778a1.579,1.579,0,0,1,1.832,1.652,3.045,3.045,0,0,1-.9,1.974s1.942-1.122,2.678.409-1.823,4.694-2.484,5.275-4.4,3.942-4.358,4.768.362.572.911.37,5.324-2.513,7.721-1.236c1.951,1.04.682,2.757-1.377,3.39-1.144.351-5.276,1.592-7.238,3.6a37.366,37.366,0,0,1-5.673,4.473c-2.046,1.356-2.582.874-3.363,2.171s-3.407,8.035-3.407,8.035-6.793.969-11.923-3.694Z" transform="translate(-25.127 -15.022)" fill="#cc8770"/>
            <path id="Trazado_982947" data-name="Trazado 982947" d="M164.238,86.15a46.616,46.616,0,0,0-8.3,8.521.533.533,0,0,1-.845-.649,47.865,47.865,0,0,1,8.5-8.717c.537-.426,1.188.417.65.844" transform="translate(-29.954 -16.465)" fill="#421b36"/>
            <path id="Trazado_982948" data-name="Trazado 982948" d="M142.7,93.51a6.834,6.834,0,0,1,3.916,10.383c-.369.576-1.212-.074-.844-.649a5.876,5.876,0,0,0,.5-5.307A5.941,5.941,0,0,0,142.3,94.5a.535.535,0,0,1-.292-.694.545.545,0,0,1,.694-.293" transform="translate(-27.439 -18.068)" fill="#421b36"/>
            <path id="Trazado_982949" data-name="Trazado 982949" d="M167.953,182.052c0,2.433,0,180.909,0,180.909h9.1V182.526Z" transform="translate(-32.46 -35.185)" fill="#421b36"/>
            <path id="Trazado_982950" data-name="Trazado 982950" d="M100.457,180.152l.014-9.891,20.4-11.11s76.171.273,78.35,0l14.962,11.11v9.7Z" transform="translate(-19.415 -30.759)" fill="#8380ff"/>
            <path id="Trazado_982951" data-name="Trazado 982951" d="M196.859,408.383c0,4.585-12.995,8.3-29.025,8.3s-29.024-3.717-29.024-8.3,12.995-8.3,29.024-8.3,29.025,3.717,29.025,8.3" transform="translate(-26.828 -77.324)" fill="#421b36"/>
            <path id="Trazado_982952" data-name="Trazado 982952" d="M174.678,138.461c-.06.247-.689,17.316-.689,17.316s-1.184,2.144-10.066,1.578-9.177-1.983-9.177-1.983l.359-17.084s.365-1.9,10.119-1.5,9.455,1.67,9.455,1.67" transform="translate(-29.908 -26.427)" fill="#421b36"/>
            <path id="Trazado_982953" data-name="Trazado 982953" d="M155.795,152.907a7.594,7.594,0,1,1,1.807-2.667,7.59,7.59,0,0,1-1.807,2.667m-9.874-5.612h0a4.586,4.586,0,1,0,.327-1.607,4.593,4.593,0,0,0-.327,1.607" transform="translate(-27.611 -27.009)" fill="#421b36"/>
            <path id="Trazado_982954" data-name="Trazado 982954" d="M174.357,139.474a65.628,65.628,0,0,1-17.6-.194c-.486-.072-.4-.831.086-.76a64.825,64.825,0,0,0,17.406.2.382.382,0,0,1,.112.756" transform="translate(-30.233 -26.771)" fill="#8380ff"/>
            <path id="Trazado_982955" data-name="Trazado 982955" d="M155.468,140.229a1.708,1.708,0,0,1,.762,1.642,1.733,1.733,0,0,1-1.273,1.407.384.384,0,0,1-.435-.322.4.4,0,0,1,.322-.434c-.069.02,0,0,.019-.01s.052-.02.077-.032.061-.029.09-.045c-.032.018-.025.016,0,0a1.531,1.531,0,0,0,.146-.113c.012-.01.067-.065.015-.011.019-.02.038-.041.056-.063a1.356,1.356,0,0,0,.1-.135c.019-.03.035-.062.01-.012.013-.025.026-.05.037-.075a1.652,1.652,0,0,0,.064-.173c-.011.034-.008.04,0,0s.011-.066.015-.1,0-.055.006-.082,0-.091,0-.016c0-.054-.009-.109-.019-.163,0-.027-.012-.053-.016-.081s.019.049-.006-.016-.038-.1-.061-.153c-.014-.029-.029-.059-.045-.087.018.031.018.028,0,0a1.474,1.474,0,0,0-.111-.144c-.01-.012-.065-.065-.009-.013-.02-.019-.04-.037-.061-.055a1.357,1.357,0,0,0-.148-.1.385.385,0,0,1-.073-.536.393.393,0,0,1,.536-.073" transform="translate(-29.864 -27.088)" fill="#8380ff"/>
            <path id="Trazado_982956" data-name="Trazado 982956" d="M154.848,154.338a2.175,2.175,0,0,1,.754,1.38,2.147,2.147,0,0,1-.516,1.66.382.382,0,1,1-.607-.463,1.729,1.729,0,0,0,.207-.282c-.021.037,0,.007.006-.013l.034-.07c.023-.053.044-.108.064-.163.01-.031.02-.061.028-.093-.011.04,0,.008,0-.015.011-.057.021-.115.027-.173a1.406,1.406,0,0,0,.01-.175c0,.041,0,0,0-.017s0-.057-.008-.086c-.006-.045-.012-.09-.021-.135-.006-.027-.012-.056-.019-.083s-.014-.04,0,0a2.41,2.41,0,0,0-.118-.283l-.032-.061c.027.048,0,.006-.013-.018s-.052-.075-.08-.111-.065-.079-.1-.117c-.047-.053.019.013-.015-.015l-.064-.056a.382.382,0,1,1,.463-.608" transform="translate(-29.809 -29.814)" fill="#8380ff"/>
            <path id="Trazado_982957" data-name="Trazado 982957" d="M158.765,152.66a5.094,5.094,0,0,1,2.4-1.166,6.078,6.078,0,0,1-2.748-1.683.852.852,0,0,1-.307-.72.6.6,0,0,1,.471-.41,1.542,1.542,0,0,1,.653.038,8.781,8.781,0,0,1,3.988,2.033l.043,1.706a11.642,11.642,0,0,1-3.1,1.648,2.221,2.221,0,0,1-1.154.143.879.879,0,0,1-.729-.8,1.174,1.174,0,0,1,.48-.786" transform="translate(-30.556 -28.732)" fill="#8380ff"/>
            <path id="Trazado_982958" data-name="Trazado 982958" d="M163.352,151.663c.151-.853,1.993-2.047,4.183-2.339a6.682,6.682,0,0,1,4.1.737,2.279,2.279,0,0,1,1.325,1.626,1.77,1.77,0,0,1-.791,1.517,4,4,0,0,1-1.665.61,9,9,0,0,1-3.887-.1c-1.263-.337-3.2-1.188-3.262-2.052" transform="translate(-31.571 -28.848)" fill="#a0d2f4"/>
            <path id="Trazado_982959" data-name="Trazado 982959" d="M175.4,148.43a.645.645,0,1,1-.632-.658.645.645,0,0,1,.632.658" transform="translate(-33.651 -28.56)" fill="#a0d2f4"/>
            <path id="Trazado_982960" data-name="Trazado 982960" d="M173,146.928a.376.376,0,1,1-.368-.383.376.376,0,0,1,.368.383" transform="translate(-33.29 -28.323)" fill="#a0d2f4"/>
            <path id="Trazado_982961" data-name="Trazado 982961" d="M102.913,173.365h110.84a.53.53,0,0,0,0-1.06H102.913a.53.53,0,0,0,0,1.06" transform="translate(-19.791 -33.302)" fill="#421b36"/>
            <path id="Trazado_982962" data-name="Trazado 982962" d="M114.658,166.153s8.3-6.165,11.154-5.991,38.767.088,40.249.766c2.768,1.269,7.491,6.5,7.491,6.5s.629,1.442.048,1.455c-7.307.155-58.1.161-58.978-.845a1.251,1.251,0,0,1,.036-1.887" transform="translate(-22.073 -30.954)" fill="#fff"/>
            <path id="Trazado_982963" data-name="Trazado 982963" d="M172.46,162.459c.619,1.012,1.258,2,1.953,2.962a21.1,21.1,0,0,0,1.972,2.647c.419.418,1.192-.133.842-.651-.658-.974-1.512-1.834-2.212-2.79-.646-.883-1.3-1.757-1.966-2.623-.263-.34-.808.1-.59.455" transform="translate(-33.322 -31.287)" fill="#421b36"/>
            <path id="Trazado_982964" data-name="Trazado 982964" d="M170.028,162.248a33.743,33.743,0,0,0,2.181,6.1c.268.536,1.195.16.98-.414-.738-1.975-1.647-3.925-2.436-5.89-.176-.437-.854-.28-.724.2" transform="translate(-32.858 -31.27)" fill="#421b36"/>
            <path id="Trazado_982965" data-name="Trazado 982965" d="M166.939,162.378c.065,1.925.318,3.823.565,5.732.066.517.873.547.834,0-.137-1.956-.271-3.9-.591-5.841-.077-.46-.824-.349-.808.109" transform="translate(-32.264 -31.305)" fill="#421b36"/>
            <path id="Trazado_982966" data-name="Trazado 982966" d="M162.9,162.137a35.43,35.43,0,0,0,.009,6.038c.065.462.862.357.82-.111-.174-1.956.173-3.953-.006-5.928a.412.412,0,0,0-.823,0" transform="translate(-31.457 -31.26)" fill="#421b36"/>
            <path id="Trazado_982967" data-name="Trazado 982967" d="M159.419,161.746a61.363,61.363,0,0,0-2.331,6.146c-.208.649.788.909,1.012.279a59.722,59.722,0,0,0,2.072-6.109c.1-.431-.555-.761-.752-.317" transform="translate(-30.355 -31.22)" fill="#421b36"/>
            <path id="Trazado_982968" data-name="Trazado 982968" d="M33.331,134.931s3.546,20.021,16.087,22.321,46.635-8.209,46.635-8.209L92.1,139.765l-39.882-.089S45.418,97.7,36.659,94.024s-9.746,10.111-9.4,15.695,6.067,25.213,6.067,25.213" transform="translate(-5.258 -18.053)" fill="#cc8770"/>
            <path id="Trazado_982969" data-name="Trazado 982969" d="M146.475,149.476S121.76,129.544,120.181,129.4s-2.759,2.469-2.511,2.978,25.367,19.486,26.631,19.83a20.306,20.306,0,0,0,3.73.383,14.242,14.242,0,0,0-1.555-3.116" transform="translate(-22.736 -25.008)" fill="#a0d2f4"/>
            <path id="Trazado_982970" data-name="Trazado 982970" d="M104.6,148.189s12.3-11.355,19.793-11.719,18.569,9.2,17.617,11.159-1.366,2.377-3.427,1.382-4.574-4.548-5.9-4.759l-1.33-.211s3.637,6.752-1.634,8.3a3.5,3.5,0,0,1-3.24,2.054s-.737,2.289-4.239,2.456a4.145,4.145,0,0,1-4.326-2.9s-2.786,3.255-5.382,2.918a8.158,8.158,0,0,0-3.341.5s-8.206,2.42-10.223,2.155c-1.154-.152-4.481-7.081-3.706-9.777.578-2.011,5.651.949,9.344-1.552" transform="translate(-18.387 -26.374)" fill="#cc8770"/>
            <path id="Trazado_982971" data-name="Trazado 982971" d="M123.561,147.224a13.1,13.1,0,0,1,5.758,3.626,12.787,12.787,0,0,1,1.949,2.765,4.508,4.508,0,0,1,.64,3.147c-.179.716-1.329.569-1.149-.154a3.8,3.8,0,0,0-.649-2.714,11.642,11.642,0,0,0-1.851-2.489,12.063,12.063,0,0,0-5.152-3.116c-.713-.216-.254-1.281.453-1.066" transform="translate(-23.724 -28.449)" fill="#421b36"/>
            <path id="Trazado_982972" data-name="Trazado 982972" d="M134.981,154.028a10.533,10.533,0,0,0-8.717-10.278c-.734-.127-.582-1.275.154-1.149a11.682,11.682,0,0,1,9.712,11.28c.01.739-1.14.892-1.15.147" transform="translate(-24.31 -27.559)" fill="#421b36"/>
            <path id="Trazado_982973" data-name="Trazado 982973" d="M137.81,145.557a10.454,10.454,0,0,0-6.9-4.732c-.732-.136-.581-1.286.153-1.15a11.611,11.611,0,0,1,7.68,5.19c.393.628-.532,1.326-.93.692" transform="translate(-25.208 -26.993)" fill="#421b36"/>
            <path id="Trazado_982974" data-name="Trazado 982974" d="M122.55,157.365a14.151,14.151,0,0,1,3.117-2.488.594.594,0,0,1,.811.119.585.585,0,0,1-.119.811,13.584,13.584,0,0,0-1.567,1.065q-.367.289-.712.6l-.177.163-.087.083-.022.021c-.114.113-.227.227-.337.344a.593.593,0,0,1-.814.094.586.586,0,0,1-.094-.815" transform="translate(-23.661 -29.913)" fill="#421b36"/>
            <path id="Trazado_982975" data-name="Trazado 982975" d="M53.189,127.341c.134.132-21.632,2.5-26.348,2.5-2.161,0-2.1-25.418.655-32.014S39.66,86.786,42.6,89.815s13.663,34.744,11.51,37.527" transform="translate(-4.893 -17.171)" fill="#a0d2f4"/>
            <path id="Trazado_982976" data-name="Trazado 982976" d="M31.377,133.917l17.744-1.906,2.526-.271a.541.541,0,0,0,.511-.671c-1.313-7.123-2.257-14.314-3.8-21.394-.145-.666-1.167-.384-1.022.282,1.544,7.081,2.488,14.271,3.8,21.394l.511-.67L33.9,132.586l-2.526.271c-.671.073-.678,1.133,0,1.06" transform="translate(-5.966 -21.124)" fill="#421b36"/>
            <path id="Trazado_982977" data-name="Trazado 982977" d="M58.715,149.075c8.313-.242,16.636-.194,24.951-.236,3.993-.019,7.987-.034,11.979-.081.933-.01,1.963.19,2.707-.425q1.538-1.271,3.1-2.513c1.83-1.45,3.688-2.87,5.6-4.208a22.671,22.671,0,0,1,5-2.951c.636-.232.361-1.256-.282-1.022a20.014,20.014,0,0,0-4.183,2.327c-1.742,1.167-3.425,2.42-5.085,3.7q-2.02,1.557-3.993,3.173c-.342.28-.718.545-1.035.854a.775.775,0,0,1-.155.13c.51-.261-.29-.141-.541-.138-8.5.125-17,.1-25.494.164-4.189.029-8.381.045-12.569.167-.681.02-.683,1.08,0,1.06" transform="translate(-11.249 -26.595)" fill="#421b36"/>
            <path id="Trazado_982978" data-name="Trazado 982978" d="M34.29,97.6a28.932,28.932,0,0,1,10.833,7.446c.441.487,1.154-.232.72-.719a22.676,22.676,0,0,0-11.472-7.019.151.151,0,0,0-.081.291" transform="translate(-6.607 -18.806)" fill="#421b36"/>
            <path id="Trazado_982979" data-name="Trazado 982979" d="M184.384,142.672c.06.247.736,17.314.736,17.314s1.19,2.141,10.07,1.551,9.172-2.007,9.172-2.007l-.4-17.084s-.37-1.9-10.122-1.469-9.451,1.695-9.451,1.695" transform="translate(-35.636 -27.234)" fill="#421b36"/>
            <path id="Trazado_982980" data-name="Trazado 982980" d="M202.609,154.4a7.644,7.644,0,1,1,14.728-3.05h0a7.646,7.646,0,0,1-14.728,3.049m11.342-4.583a4.587,4.587,0,1,0,.331,1.606,4.595,4.595,0,0,0-.331-1.606" transform="translate(-39.051 -27.81)" fill="#421b36"/>
            <path id="Trazado_982981" data-name="Trazado 982981" d="M185.111,143.678a65.63,65.63,0,0,0,17.6-.241c.486-.073.4-.832-.088-.759a64.855,64.855,0,0,1-17.405.244.382.382,0,0,0-.111.756" transform="translate(-35.716 -27.575)" fill="#8380ff"/>
            <path id="Trazado_982982" data-name="Trazado 982982" d="M207.96,144.383a1.71,1.71,0,0,0-.758,1.643,1.732,1.732,0,0,0,1.278,1.4.383.383,0,0,0,.433-.323.394.394,0,0,0-.324-.433c.07.019,0,0-.018-.01s-.052-.02-.077-.031l-.09-.045c.033.017.025.015,0,0a1.412,1.412,0,0,1-.147-.112c-.012-.01-.067-.065-.015-.011-.019-.02-.039-.041-.056-.062a1.36,1.36,0,0,1-.1-.135c-.019-.03-.035-.062-.01-.012-.013-.025-.026-.05-.037-.076-.026-.056-.044-.114-.065-.173.012.034.008.04,0,0s-.012-.066-.016-.1,0-.055-.006-.082,0-.091,0-.016a1.6,1.6,0,0,1,.018-.163c0-.027.012-.053.017-.081s-.019.049,0-.016.037-.1.061-.153c.015-.03.03-.059.045-.088-.018.032-.017.028,0,0,.035-.049.07-.1.11-.144.011-.012.066-.065.01-.013.02-.019.04-.037.061-.055a1.276,1.276,0,0,1,.147-.106.384.384,0,0,0,.071-.536.393.393,0,0,0-.536-.071" transform="translate(-40.043 -27.891)" fill="#8380ff"/>
            <path id="Trazado_982983" data-name="Trazado 982983" d="M208.7,158.49a2.123,2.123,0,0,0-.231,3.041.382.382,0,0,0,.607-.465,1.769,1.769,0,0,1-.208-.281c.022.036,0,.007,0-.014s-.023-.046-.034-.07c-.024-.052-.045-.107-.065-.162-.01-.031-.02-.062-.029-.093.011.04,0,.008,0-.015-.011-.057-.022-.115-.027-.173a1.581,1.581,0,0,1-.01-.175c0,.041,0,0,0-.017s0-.057.008-.086c0-.045.012-.09.021-.135.006-.028.012-.056.019-.083s.014-.04,0,0a2.281,2.281,0,0,1,.116-.284c.01-.02.021-.04.032-.061-.027.048,0,.006.013-.017q.037-.058.08-.111c.031-.041.065-.079.1-.118s-.019.013.015-.015.042-.039.064-.057a.382.382,0,1,0-.465-.607" transform="translate(-40.188 -30.616)" fill="#8380ff"/>
            <path id="Trazado_982984" data-name="Trazado 982984" d="M203.873,156.822a5.094,5.094,0,0,0-2.406-1.159,6.069,6.069,0,0,0,2.743-1.69.851.851,0,0,0,.306-.721.6.6,0,0,0-.472-.409,1.556,1.556,0,0,0-.653.04,8.781,8.781,0,0,0-3.983,2.044l-.039,1.706a11.651,11.651,0,0,0,3.1,1.639,2.225,2.225,0,0,0,1.154.14.878.878,0,0,0,.727-.806,1.168,1.168,0,0,0-.482-.784" transform="translate(-38.532 -29.536)" fill="#8380ff"/>
            <path id="Trazado_982985" data-name="Trazado 982985" d="M198.218,155.84c-.153-.852-2-2.042-4.189-2.327a6.673,6.673,0,0,0-4.1.748,2.279,2.279,0,0,0-1.321,1.63,1.769,1.769,0,0,0,.795,1.515,4.02,4.02,0,0,0,1.668.606,8.994,8.994,0,0,0,3.886-.111c1.262-.34,3.2-1.2,3.257-2.06" transform="translate(-36.453 -29.658)" fill="#a0d2f4"/>
            <path id="Trazado_982986" data-name="Trazado 982986" d="M188.149,152.638a.645.645,0,1,0,.629-.66.645.645,0,0,0-.629.66" transform="translate(-36.364 -29.373)" fill="#a0d2f4"/>
            <path id="Trazado_982987" data-name="Trazado 982987" d="M190.684,151.128a.376.376,0,1,0,.366-.385.375.375,0,0,0-.366.385" transform="translate(-36.854 -29.134)" fill="#a0d2f4"/>
          </g>
        </g>
      </g>
    </g>
  </g>
</svg>
