<svg xmlns="http://www.w3.org/2000/svg" xmlns:xlink="http://www.w3.org/1999/xlink" width="348" height="298.567" viewBox="0 0 348 298.567">
  <defs>
    <clipPath id="clip-path">
      <rect id="Rectángulo_406347" data-name="Rectángulo 406347" width="288.448" height="298.567" fill="none"/>
    </clipPath>
    <clipPath id="clip-path-2">
      <rect id="Rectángulo_406331" data-name="Rectángulo 406331" width="288.448" height="301.736" fill="none"/>
    </clipPath>
    <clipPath id="clip-path-3">
      <rect id="Rectángulo_406345" data-name="Rectángulo 406345" width="288.448" height="298.567" transform="translate(-23.837)" fill="none"/>
    </clipPath>
    <clipPath id="clip-path-4">
      <rect id="Rectángulo_406335" data-name="Rectángulo 406335" width="55.449" height="81.367" fill="none"/>
    </clipPath>
    <clipPath id="clip-path-5">
      <rect id="Rectángulo_406336" data-name="Rectángulo 406336" width="79.916" height="23.004" fill="none"/>
    </clipPath>
    <clipPath id="clip-path-6">
      <rect id="Rectángulo_406337" data-name="Rectángulo 406337" width="8.584" height="4.707" fill="none"/>
    </clipPath>
    <clipPath id="clip-path-7">
      <rect id="Rectángulo_406338" data-name="Rectángulo 406338" width="27.006" height="42.991" fill="none"/>
    </clipPath>
    <clipPath id="clip-path-8">
      <rect id="Rectángulo_406339" data-name="Rectángulo 406339" width="32.618" height="18.851" fill="none"/>
    </clipPath>
    <clipPath id="clip-path-9">
      <rect id="Rectángulo_406340" data-name="Rectángulo 406340" width="30.766" height="48.442" fill="none"/>
    </clipPath>
    <clipPath id="clip-path-10">
      <rect id="Rectángulo_406341" data-name="Rectángulo 406341" width="20.672" height="17.509" fill="none"/>
    </clipPath>
    <clipPath id="clip-path-11">
      <rect id="Rectángulo_406342" data-name="Rectángulo 406342" width="38.533" height="11.672" fill="none"/>
    </clipPath>
    <clipPath id="clip-path-12">
      <rect id="Rectángulo_406343" data-name="Rectángulo 406343" width="16.717" height="4.286" fill="none"/>
    </clipPath>
    <clipPath id="clip-path-13">
      <rect id="Rectángulo_406344" data-name="Rectángulo 406344" width="63.665" height="52.075" fill="none"/>
    </clipPath>
  </defs>
  <g id="Grupo_1148722" data-name="Grupo 1148722" transform="translate(-507.051 -5279.352)">
    <rect id="Rectángulo_406279" data-name="Rectángulo 406279" width="348" height="86" rx="43" transform="translate(507.051 5363)" fill="#fff" opacity="0.63"/>
    <g id="Grupo_1148680" data-name="Grupo 1148680" transform="translate(554.5 5279.352)">
      <g id="Grupo_1148679" data-name="Grupo 1148679" clip-path="url(#clip-path)">
        <g id="Grupo_1148644" data-name="Grupo 1148644">
          <g id="Grupo_1148643" data-name="Grupo 1148643" clip-path="url(#clip-path-2)">
            <path id="Trazado_983668" data-name="Trazado 983668" d="M75.385,127.925c0,4.984-.833,9.023-1.861,9.023s-1.86-4.04-1.86-9.023.833-9.023,1.86-9.023,1.861,4.04,1.861,9.023" transform="translate(-17.786 -29.509)" fill="#f0ebd6"/>
            <path id="Trazado_983669" data-name="Trazado 983669" d="M71.16,128.429c4.983,0,9.023.833,9.023,1.861s-4.04,1.86-9.023,1.86-9.023-.832-9.023-1.86,4.04-1.861,9.023-1.861" transform="translate(-15.421 -31.873)" fill="#f0ebd6"/>
            <path id="Trazado_983670" data-name="Trazado 983670" d="M130.863,148.809l-4.174-2.872-4.174-2.872,4.574-2.179,4.574-2.18-.4,5.051Z" transform="translate(-30.406 -34.424)" fill="#d85f3f"/>
            <path id="Trazado_983671" data-name="Trazado 983671" d="M160.909,26.479l1.182-6.429,1.181-6.43,4.978,4.238,4.976,4.238-6.158,2.192Z" transform="translate(-39.934 -3.38)" fill="#d85f3f"/>
            <path id="Trazado_983672" data-name="Trazado 983672" d="M180.265,62.843a3.184,3.184,0,1,1-3.184-3.184,3.184,3.184,0,0,1,3.184,3.184" transform="translate(-43.158 -14.806)" fill="#591b1b"/>
            <path id="Trazado_983673" data-name="Trazado 983673" d="M75.048,18.622a4.69,4.69,0,1,1-4.69-4.69,4.69,4.69,0,0,1,4.69,4.69" transform="translate(-16.297 -3.458)" fill="#e0dbc3"/>
          </g>
        </g>
        <g id="Grupo_1148676" data-name="Grupo 1148676" transform="translate(23.837)">
          <g id="Grupo_1148675" data-name="Grupo 1148675" clip-path="url(#clip-path-3)">
            <rect id="Rectángulo_406332" data-name="Rectángulo 406332" width="129.648" height="70.706" transform="translate(-6.041 230.66)" fill="#60200a"/>
            <rect id="Rectángulo_406333" data-name="Rectángulo 406333" width="129.648" height="8.138" transform="translate(-6.041 230.661)" fill="#3f1307"/>
            <rect id="Rectángulo_406334" data-name="Rectángulo 406334" width="175.544" height="11.174" transform="translate(-23.837 219.999)" fill="#82320f"/>
            <line id="Línea_608" data-name="Línea 608" x2="162.09" transform="translate(-23.837 228.054)" fill="none" stroke="#60200a" stroke-miterlimit="10" stroke-width="0.983"/>
            <g id="Grupo_1148647" data-name="Grupo 1148647" transform="translate(96.258 219.999)" opacity="0.58" style="mix-blend-mode: multiply;isolation: isolate">
              <g id="Grupo_1148646" data-name="Grupo 1148646">
                <g id="Grupo_1148645" data-name="Grupo 1148645" clip-path="url(#clip-path-4)">
                  <path id="Trazado_983674" data-name="Trazado 983674" d="M187.088,373.989V303.8h28.1V292.622H168.608L166.593,303.8H172.2l-12.46,70.192Z" transform="translate(-159.739 -292.622)" fill="#3f1307"/>
                </g>
              </g>
            </g>
            <path id="Trazado_983675" data-name="Trazado 983675" d="M57.957,264.018S47.331,243.306,23.67,236.263c6.006,3.09,24.931,12.418,32.767,29.928a4.96,4.96,0,0,0,1.52-2.173" transform="translate(-29.712 -58.636)" fill="#9fa52f"/>
            <path id="Trazado_983676" data-name="Trazado 983676" d="M36.778,245.647s-2.7,6.19-11.873,4.128c1.268-5.511,7.9-6.817,11.873-4.128" transform="translate(-30.018 -60.63)" fill="#9fa52f"/>
            <path id="Trazado_983677" data-name="Trazado 983677" d="M37.607,246.091s-5.833-.223-9.36,2.483" transform="translate(-30.848 -61.074)" fill="#616602"/>
            <path id="Trazado_983678" data-name="Trazado 983678" d="M48.722,254.726s-2.7,6.191-11.873,4.128c1.268-5.511,7.9-6.817,11.873-4.128" transform="translate(-32.982 -62.883)" fill="#9fa52f"/>
            <path id="Trazado_983679" data-name="Trazado 983679" d="M49.551,255.17s-5.833-.223-9.36,2.482" transform="translate(-33.812 -63.327)" fill="#616602"/>
            <path id="Trazado_983680" data-name="Trazado 983680" d="M45.252,243.981s5.176-4.336.606-12.555c-4.928,2.773-4.307,9.5-.606,12.555" transform="translate(-34.34 -57.435)" fill="#9fa52f"/>
            <path id="Trazado_983681" data-name="Trazado 983681" d="M45.919,244.93s-1.862-5.533-.263-9.68" transform="translate(-35.007 -58.384)" fill="#616602"/>
            <path id="Trazado_983682" data-name="Trazado 983682" d="M58.975,256.979s5.176-4.337.606-12.555c-4.928,2.773-4.307,9.5-.606,12.555" transform="translate(-37.746 -60.661)" fill="#9fa52f"/>
            <path id="Trazado_983683" data-name="Trazado 983683" d="M59.642,257.928s-1.862-5.533-.263-9.68" transform="translate(-38.413 -61.61)" fill="#616602"/>
            <path id="Trazado_983684" data-name="Trazado 983684" d="M87.183,275.619s16.449-20.37,29.168-25.932,9.539,1.694,1.782,9.339c23.58-10.242,26.956-7,30.143-3.254s-18.941,12.389-31.289,13.779c12.866,3.255,17.329,13.126-29.8,6.067" transform="translate(-45.474 -61.48)" fill="#9fa52f"/>
            <path id="Trazado_983685" data-name="Trazado 983685" d="M87.183,278.463s30.677-14.267,52.4-19.28c-20.9,7.875-45.742,16.9-52.4,19.28" transform="translate(-45.474 -64.324)" fill="#616602"/>
            <path id="Trazado_983686" data-name="Trazado 983686" d="M105.441,277.344s11.092.859,18.979,4.22c-7.49-.756-21-3.108-21-3.108Z" transform="translate(-49.503 -68.831)" fill="#616602"/>
            <path id="Trazado_983687" data-name="Trazado 983687" d="M109.583,270.4s12.441-11.752,16-16.818c-3.966,3.773-17.232,16.884-17.232,16.884Z" transform="translate(-50.728 -62.933)" fill="#616602"/>
            <path id="Trazado_983688" data-name="Trazado 983688" d="M265.26,291.559s6.509,45.24,7.486,81.042H180.964s4.231-57.283,8.137-79.089c23.759-13.344,76.159-1.953,76.159-1.953" transform="translate(-68.749 -71.235)" fill="#f0ebd6"/>
            <path id="Trazado_983689" data-name="Trazado 983689" d="M211.265,299.548s-.651,31.245,9.438,42.311c1.628-27.99,5.208-40.683,5.208-40.683" transform="translate(-76.267 -74.342)" fill="none" stroke="#9b9478" stroke-miterlimit="10" stroke-width="0.654"/>
            <line id="Línea_609" data-name="Línea 609" x1="1.307" y2="34.209" transform="translate(143.13 267.517)" fill="none" stroke="#9b9478" stroke-miterlimit="10" stroke-width="0.654"/>
            <line id="Línea_610" data-name="Línea 610" x2="3.906" y2="77.47" transform="translate(187.399 223.907)" fill="none" stroke="#9b9478" stroke-miterlimit="10" stroke-width="0.654"/>
            <g id="Grupo_1148650" data-name="Grupo 1148650" transform="translate(118.858 215.794)" style="mix-blend-mode: multiply;isolation: isolate">
              <g id="Grupo_1148649" data-name="Grupo 1148649">
                <g id="Grupo_1148648" data-name="Grupo 1148648" clip-path="url(#clip-path-5)">
                  <path id="Trazado_983690" data-name="Trazado 983690" d="M189.8,303.346c13.206,3.537,41.1,8.959,79.915,5.666-1.269-10.549-2.262-17.453-2.262-17.453s-52.4-11.392-76.159,1.953c-.5,2.769-1,6.112-1.494,9.834" transform="translate(-189.8 -287.029)" fill="#e0dbc3"/>
                </g>
              </g>
            </g>
            <path id="Trazado_983691" data-name="Trazado 983691" d="M253.412,98.34s-11.07-2.1-27.332,1.232c3.51,5.94,14.17,9.276,14.17,9.276Z" transform="translate(-79.946 -24.243)" fill="#9e977a"/>
            <path id="Trazado_983692" data-name="Trazado 983692" d="M76.913,169.178s-8.269,1.937-9.9,6.527-.813,10.284,0,11.1,9.9-17.625,9.9-17.625" transform="translate(-40.236 -41.987)" fill="#d8714c"/>
            <path id="Trazado_983693" data-name="Trazado 983693" d="M101.948,192.212s-8.3-1.616-11.228-4.958c-4.231-2.04-11.229.564-13.67,3.493s-4.72-4.231-1.139-6.835,7.811-4.231,6.509-6.021-5.744.954-6.835,4.394-5.045,6.747-8.3,7.2-.163-5.245,1.3-8.5,4.557-11.717,10.741-13.344,22.458,4.394,31.083,10.577c-1.3,14.158-8.462,14-8.462,14" transform="translate(-40.18 -41.538)" fill="#fb8f62"/>
            <path id="Trazado_983694" data-name="Trazado 983694" d="M185.792,110.664s-7.486-1.859-22.132,19.947a340.612,340.612,0,0,0-23.108,39.707L122,161.531s-1.952,13.019-8.136,16.6c8.787,15.3,32.871,31.57,42.636,33.524s26.687-38.731,26.687-38.731Z" transform="translate(-52.096 -27.455)" fill="#e0dbc3"/>
            <path id="Trazado_983695" data-name="Trazado 983695" d="M244.535,111.551s16.273-1.208,27.014,2.162c-7.16,18.993-4.556,56.747-4.556,56.747L269.27,251.5s-37.1,15.623-86.574,0c9.113-54.678,10.74-66.609,10.74-66.609s-6.509-8.574,0-36.238,9.438-38.173,9.438-38.173,7.315-1.743,13.406.744,28.253.326,28.253.326" transform="translate(-69.179 -27.272)" fill="#f0ebd6"/>
            <path id="Trazado_983696" data-name="Trazado 983696" d="M284.633,19.706s7.614-3.738,13.845,1.523,14.952,29.489,20.075,32.535,2.631,4.43-4.015,1.8c5.123,7.476,7.892,10.661,11.768,12.322S320.491,75.5,306.785,66.5s-21.713-24.218-21.863-38.76a70.431,70.431,0,0,1-.289-8.035" transform="translate(-94.472 -4.571)" fill="#591b1b"/>
            <path id="Trazado_983697" data-name="Trazado 983697" d="M273.038,18.517s4.015-3.738,7.614-2.353,7.061,8.169,6.507,11.352-7.031,5.538-7.031,5.538Z" transform="translate(-91.6 -3.935)" fill="#fff6e0"/>
            <path id="Trazado_983698" data-name="Trazado 983698" d="M221.66,25.162s8.379-19.568,34.456-11.076c13,4.233,21.477,21.6,12.893,36.135-4.984,7.476-22.428,17.444-22.428,17.444l-4.569-4.707L231.905,27.931Z" transform="translate(-78.849 -2.966)" fill="#591b1b"/>
            <path id="Trazado_983699" data-name="Trazado 983699" d="M253.252,67.177s-3.046,22.779-2.492,32.47c-8.722,5.676-20.628,2.908-20.628,2.908s4.984-15,4.015-27.505c10.383-3.784,19.106-7.872,19.106-7.872" transform="translate(-80.951 -16.672)" fill="#fb8f62"/>
            <path id="Trazado_983700" data-name="Trazado 983700" d="M234.983,84.019l13.8-3.234S242.234,92.628,233.2,97.146a79.921,79.921,0,0,0,1.779-13.127" transform="translate(-81.714 -20.049)" fill="#380403"/>
            <path id="Trazado_983701" data-name="Trazado 983701" d="M219.518,29.309s-5.676,5.815-6.23,20.49-.831,27.136,5.954,27.69,23.951-2.077,28.52-17.167L249.7,51.46s-3.876-12.183-7.754-16.614-16.475-7.614-22.428-5.538" transform="translate(-76.707 -7.113)" fill="#fb8f62"/>
            <path id="Trazado_983702" data-name="Trazado 983702" d="M218.074,63.407a19.8,19.8,0,0,0-1.938,6.645,17.466,17.466,0,0,0,4.153-.692" transform="translate(-77.478 -15.736)" fill="none" stroke="#ad4727" stroke-miterlimit="10" stroke-width="0.558"/>
            <path id="Trazado_983703" data-name="Trazado 983703" d="M217.793,77.175a27.192,27.192,0,0,0,9.692-1.246" transform="translate(-77.889 -18.844)" fill="none" stroke="#ad4727" stroke-miterlimit="10" stroke-width="0.558"/>
            <g id="Grupo_1148653" data-name="Grupo 1148653" transform="translate(148.765 46.84)" opacity="0.56">
              <g id="Grupo_1148652" data-name="Grupo 1148652">
                <g id="Grupo_1148651" data-name="Grupo 1148651" clip-path="url(#clip-path-6)">
                  <path id="Trazado_983704" data-name="Trazado 983704" d="M229.579,64.655c0,1.3,1.922,2.354,4.292,2.354s4.291-1.054,4.291-2.354-1.922-2.352-4.291-2.352-4.292,1.053-4.292,2.352" transform="translate(-229.579 -62.302)" fill="#a5380e"/>
                </g>
              </g>
            </g>
            <path id="Trazado_983705" data-name="Trazado 983705" d="M227.369,59.022c2.491-2.979,7.432-2.6,10.245-.277-3.473-.559-6.818-1.067-10.245.277" transform="translate(-80.266 -14.121)" fill="#591b1b"/>
            <path id="Trazado_983706" data-name="Trazado 983706" d="M216.513,59.113a7.77,7.77,0,0,1-3.876-1.5,2.675,2.675,0,0,1,3.876,1.5" transform="translate(-76.609 -14.212)" fill="#591b1b"/>
            <path id="Trazado_983707" data-name="Trazado 983707" d="M226.08,49.821s7.476-5.39,14.121,1.459c-.138-6.72-13.152-8.1-14.121-1.459" transform="translate(-79.946 -11.288)" fill="#591b1b"/>
            <path id="Trazado_983708" data-name="Trazado 983708" d="M214.44,46.262a3.707,3.707,0,0,1,2.846,4.029,3.935,3.935,0,0,0-3.206-1.946q.162-1.086.359-2.083" transform="translate(-76.968 -11.481)" fill="#591b1b"/>
            <path id="Trazado_983709" data-name="Trazado 983709" d="M259.367,59.6c-1.249,3.936.426,7.979,3.743,9.032s7.017-1.284,8.266-5.22-.426-7.979-3.742-9.032-7.017,1.284-8.266,5.22" transform="translate(-88.104 -13.432)" fill="#fb8f62"/>
            <path id="Trazado_983710" data-name="Trazado 983710" d="M271.108,60.856a5.377,5.377,0,0,1,1.5.762,8.593,8.593,0,0,1-.372,3.4c-1.249,3.935-4.95,6.272-8.266,5.22a5.379,5.379,0,0,1-1.5-.763,8.587,8.587,0,0,1,.371-3.4c1.25-3.935,4.951-6.272,8.266-5.22" transform="translate(-88.968 -15.041)" fill="#b85639"/>
            <g id="Grupo_1148656" data-name="Grupo 1148656" transform="translate(196.252 13.849)" opacity="0.29" style="mix-blend-mode: overlay;isolation: isolate">
              <g id="Grupo_1148655" data-name="Grupo 1148655">
                <g id="Grupo_1148654" data-name="Grupo 1148654" clip-path="url(#clip-path-7)">
                  <path id="Trazado_983711" data-name="Trazado 983711" d="M300.5,21.23c5.909,4.99,14.058,27.029,19.253,31.888a40.411,40.411,0,0,1-11.841-4.394s9.064,14.872,3.526,12.413-8.307-8.617-11.076-26.412c-1.5-9.61-4.847-14.153-7.615-16.3a11.8,11.8,0,0,1,7.754,2.81" transform="translate(-292.742 -18.42)" fill="#f9ece4"/>
                </g>
              </g>
            </g>
            <g id="Grupo_1148659" data-name="Grupo 1148659" transform="translate(158.654 8.99)" opacity="0.29" style="mix-blend-mode: overlay;isolation: isolate">
              <g id="Grupo_1148658" data-name="Grupo 1148658">
                <g id="Grupo_1148657" data-name="Grupo 1148657" clip-path="url(#clip-path-8)">
                  <path id="Trazado_983712" data-name="Trazado 983712" d="M275.351,27.048a24.09,24.09,0,0,0-14-12.96c-7.654-2.492-13.773-2.558-18.613-1.42,5.115,1.027,19.331,4.612,23.394,13.336,4.984,10.7,4.961.7,2.9-2.882-1.56-2.707,3.112.173,6.327,3.927" transform="translate(-242.733 -11.958)" fill="#f9ece4"/>
                </g>
              </g>
            </g>
            <g id="Grupo_1148662" data-name="Grupo 1148662" transform="translate(136.324 22.001)" opacity="0.19" style="mix-blend-mode: overlay;isolation: isolate">
              <g id="Grupo_1148661" data-name="Grupo 1148661">
                <g id="Grupo_1148660" data-name="Grupo 1148660" clip-path="url(#clip-path-9)">
                  <path id="Trazado_983713" data-name="Trazado 983713" d="M213.288,49.949c.554-14.676,6.23-20.49,6.23-20.49.2-.071.42-.135.64-.195l23.62,9.7s1.3,28.178-17.91,38.353a29.7,29.7,0,0,1-6.627.32c-6.784-.553-6.507-13.014-5.953-27.69" transform="translate(-213.031 -29.264)" fill="#f9ece4"/>
                </g>
              </g>
            </g>
            <path id="Trazado_983714" data-name="Trazado 983714" d="M235.471,110.9l4.153-8.671,16.118-3.673,1.891,10.183s-11.451,5.3-22.161,2.162" transform="translate(-82.276 -24.46)" fill="#f0ebd6"/>
            <path id="Trazado_983715" data-name="Trazado 983715" d="M232.043,111.307l-.138-9.345-6.923-1.768-3.322,8.626a19.9,19.9,0,0,0,10.383,2.488" transform="translate(-78.849 -24.866)" fill="#f0ebd6"/>
            <path id="Trazado_983716" data-name="Trazado 983716" d="M122.512,180.609a52.647,52.647,0,0,0-5.9-3.6c.5,4.024.8,11.221-2,17.539,1.709-.3,6.821-2.187,7.9-13.936" transform="translate(-52.281 -43.929)" fill="#d86e4a"/>
            <line id="Línea_611" data-name="Línea 611" x2="17.25" y2="8.137" transform="translate(88.457 142.863)" fill="none" stroke="#9b9478" stroke-miterlimit="10" stroke-width="0.601"/>
            <line id="Línea_612" data-name="Línea 612" x1="11.971" y2="0.5" transform="translate(95.037 145.467)" fill="none" stroke="#9b9478" stroke-miterlimit="10" stroke-width="0.601"/>
            <path id="Trazado_983717" data-name="Trazado 983717" d="M163.39,228.552a15.429,15.429,0,0,0-11.931,5.627c5.7,3.578,10.929,6.052,14.372,6.74,2.771.554,6.118-2.327,9.492-6.736a15.429,15.429,0,0,0-11.934-5.631" transform="translate(-61.426 -56.722)" fill="#d3cdb6"/>
            <path id="Trazado_983718" data-name="Trazado 983718" d="M133.608,183.832,122,178.335s-1.952,13.019-8.136,16.6a57.733,57.733,0,0,0,8.73,11.14c6.46-6.839,9.586-16.238,11.013-22.241" transform="translate(-52.096 -44.259)" fill="#d3cdb6"/>
            <path id="Trazado_983719" data-name="Trazado 983719" d="M269.27,295.745l-.214-7.589c-11.313,4.565-42.1,13.7-85.235.826-.362,2.18-.737,4.429-1.125,6.763,49.471,15.622,86.574,0,86.574,0" transform="translate(-69.179 -71.515)" fill="#c1411a"/>
            <path id="Trazado_983720" data-name="Trazado 983720" d="M301.434,255.284s-9.886.854-16.477.732-13.059,5.248-14.89,6.713-1.1,2.685.854,3.051,10.13-2.319,10.13-2.319-13.3,6.224-13.181,9.153,2.074,3.3,5.614,1.831a55.738,55.738,0,0,1,8.056-2.44s-7.323,3.9-8.056,5.248.855,2.926,1.953,2.745l1.1-.182A7.716,7.716,0,0,0,283,281.159c3.661-.977,12.449-3.052,14.89-5.248s12.937-5.37,12.937-5.37-6.1-11.106-9.4-15.256" transform="translate(-90.317 -63.356)" fill="#fb8f62"/>
            <line id="Línea_613" data-name="Línea 613" y1="3.784" x2="11.839" transform="translate(186.219 212.676)" fill="none" stroke="#931c0f" stroke-miterlimit="10" stroke-width="0.601"/>
            <path id="Trazado_983721" data-name="Trazado 983721" d="M257.309,144.634a3.549,3.549,0,1,1-3.549-3.549,3.55,3.55,0,0,1,3.549,3.549" transform="translate(-85.934 -35.014)" fill="#72130a"/>
            <path id="Trazado_983722" data-name="Trazado 983722" d="M252.588,185.934a3.549,3.549,0,1,1-3.549-3.549,3.549,3.549,0,0,1,3.549,3.549" transform="translate(-84.763 -45.264)" fill="#72130a"/>
            <path id="Trazado_983723" data-name="Trazado 983723" d="M250.666,227.138a3.549,3.549,0,1,1-3.549-3.549,3.55,3.55,0,0,1,3.549,3.549" transform="translate(-84.286 -55.49)" fill="#72130a"/>
            <path id="Trazado_983724" data-name="Trazado 983724" d="M248.907,271.479a3.549,3.549,0,1,1-3.549-3.549,3.55,3.55,0,0,1,3.549,3.549" transform="translate(-83.849 -66.495)" fill="#72130a"/>
            <path id="Trazado_983725" data-name="Trazado 983725" d="M221.66,28.645S234.4,41.054,250.223,44.1c1.663-8.91-11.434-24.329-28.563-15.46" transform="translate(-78.849 -6.449)" fill="#591b1b"/>
            <g id="Grupo_1148665" data-name="Grupo 1148665" transform="translate(150.702 20.147)" opacity="0.29" style="mix-blend-mode: overlay;isolation: isolate">
              <g id="Grupo_1148664" data-name="Grupo 1148664">
                <g id="Grupo_1148663" data-name="Grupo 1148663" clip-path="url(#clip-path-10)">
                  <path id="Trazado_983726" data-name="Trazado 983726" d="M252.828,44.306S251.439,28.1,232.156,27.17c13.791-2.148,20.23,5.176,20.672,17.136" transform="translate(-232.156 -26.797)" fill="#f9ece4"/>
                </g>
              </g>
            </g>
            <path id="Trazado_983727" data-name="Trazado 983727" d="M268.142,72.95a1.6,1.6,0,1,1-1.6-1.6,1.6,1.6,0,0,1,1.6,1.6" transform="translate(-89.592 -17.708)" fill="#f9ece4"/>
            <path id="Trazado_983728" data-name="Trazado 983728" d="M298.618,114.976s18.552,10.531,33.2,35.266,30.269,55,28.967,64.117-28.967,24.085-49.8,26.363c0-8.137-.65-15.623-6.184-21.481L321.4,207.2l-27.339-35.475s-7.478-33.514,4.557-56.747" transform="translate(-96.247 -28.535)" fill="#e0dbc3"/>
            <path id="Trazado_983729" data-name="Trazado 983729" d="M306.483,255.619c1.894,3.5,5.231,11,3.979,18.557a96.127,96.127,0,0,1,9.953-3.636s-6.1-11.107-9.4-15.256c0,0-1.874.162-4.534.335" transform="translate(-99.9 -63.356)" fill="#d86e4a"/>
            <path id="Trazado_983730" data-name="Trazado 983730" d="M327.373,270.352c.669-13.623-4.658-21.9-8.548-26.072l-9.721,7.053c5.533,5.858,6.184,13.344,6.184,21.481a73.871,73.871,0,0,0,12.085-2.461" transform="translate(-100.551 -60.625)" fill="#d3cdb6"/>
            <path id="Trazado_983731" data-name="Trazado 983731" d="M298.566,114.976s-12.043,25.5-4.557,56.747" transform="translate(-96.196 -28.535)" fill="none" stroke="#9b9478" stroke-miterlimit="10" stroke-width="0.601"/>
            <path id="Trazado_983732" data-name="Trazado 983732" d="M195.4,189.282l.619-4.193s-6.141-12.564-.619-34.612,10.057-39.8,10.057-39.8" transform="translate(-71.76 -27.468)" fill="none" stroke="#9b9478" stroke-miterlimit="10" stroke-width="0.601"/>
            <path id="Trazado_983733" data-name="Trazado 983733" d="M234.49,171.583s-25.608-12.926-24.957-25.375,11.673,18.772,24.957,25.375" transform="translate(-75.836 -35.565)" fill="#e0dbc3"/>
            <path id="Trazado_983734" data-name="Trazado 983734" d="M221.66,109.887a30.512,30.512,0,0,0,10.383,3.826,39.4,39.4,0,0,0,22.161-2.162" transform="translate(-78.849 -27.272)" fill="none" stroke="#9b9478" stroke-miterlimit="10" stroke-width="0.601"/>
            <path id="Trazado_983735" data-name="Trazado 983735" d="M252.213,258.741c1.907-.164,3.743-.359,5.5-.582,1.177-15.593,3.352-48.116,3.141-73.184A253.314,253.314,0,0,1,268.7,121.8s-20.83-5.421-28.478-8.569h0c-1.223,0-2.42-.03-3.562-.083a4.03,4.03,0,0,0-1.186,1.376s13.374,9.229,26.718,10.856c-6.92,39.707-6.92,60.862-6.92,60.862s-.912,49.986-3.057,72.5" transform="translate(-82.276 -28.081)" fill="#c1411a"/>
            <path id="Trazado_983736" data-name="Trazado 983736" d="M239.625,103.109l4.43-1.01-3.507,9.727-5.077-.046Z" transform="translate(-82.276 -25.339)" fill="#c1411a"/>
            <path id="Trazado_983737" data-name="Trazado 983737" d="M258.954,114.125s22.749.583,30.382,2.872" transform="translate(-88.104 -28.324)" fill="none" stroke="#9b9478" stroke-miterlimit="10" stroke-width="0.601"/>
            <path id="Trazado_983738" data-name="Trazado 983738" d="M221.825,112.1s-9.84-.551-12.888.563" transform="translate(-75.691 -27.787)" fill="none" stroke="#9b9478" stroke-miterlimit="10" stroke-width="0.601"/>
            <path id="Trazado_983739" data-name="Trazado 983739" d="M199.58,209.975a105.927,105.927,0,0,0,30.953,1.924c15.829-1.627.22,9.972-30.953-1.924" transform="translate(-73.369 -52.112)" fill="#e0dbc3"/>
            <path id="Trazado_983740" data-name="Trazado 983740" d="M69.711,201.93a.651.651,0,1,1-.651-.651.651.651,0,0,1,.651.651" transform="translate(-40.815 -49.953)" fill="#f0ebd6"/>
            <path id="Trazado_983741" data-name="Trazado 983741" d="M76,195.283a1.194,1.194,0,1,1-1.194-1.194A1.194,1.194,0,0,1,76,195.283" transform="translate(-42.107 -48.169)" fill="#f0ebd6"/>
            <path id="Trazado_983742" data-name="Trazado 983742" d="M77.974,209.573a.886.886,0,1,1-.886-.886.886.886,0,0,1,.886.886" transform="translate(-42.749 -51.792)" fill="#f0ebd6"/>
            <path id="Trazado_983743" data-name="Trazado 983743" d="M72.772,211.361a.775.775,0,1,1-.774-.774.774.774,0,0,1,.774.774" transform="translate(-41.513 -52.263)" fill="#f0ebd6"/>
            <path id="Trazado_983744" data-name="Trazado 983744" d="M74.472,221.652a1.109,1.109,0,1,1-1.109-1.109,1.109,1.109,0,0,1,1.109,1.109" transform="translate(-41.769 -54.734)" fill="#f0ebd6"/>
            <path id="Trazado_983745" data-name="Trazado 983745" d="M77.668,234.089a1.058,1.058,0,1,1-1.058-1.058,1.058,1.058,0,0,1,1.058,1.058" transform="translate(-42.588 -57.834)" fill="#f0ebd6"/>
            <path id="Trazado_983746" data-name="Trazado 983746" d="M72.772,251.188a.775.775,0,1,1-.774-.774.774.774,0,0,1,.774.774" transform="translate(-41.513 -62.148)" fill="#f0ebd6"/>
            <path id="Trazado_983747" data-name="Trazado 983747" d="M73.591,283s-25.581.354-31.74-.607-6.444-6.258-5.271-8.2,2.261-5.763,12.539-2.167,23.584,9.1,24.771,9.75.638.777-.3,1.222" transform="translate(-32.78 -67.144)" fill="#d8691e"/>
            <g id="Grupo_1148668" data-name="Grupo 1148668" transform="translate(3.254 204.249)" opacity="0.39">
              <g id="Grupo_1148667" data-name="Grupo 1148667">
                <g id="Grupo_1148666" data-name="Grupo 1148666" clip-path="url(#clip-path-11)">
                  <path id="Trazado_983748" data-name="Trazado 983748" d="M73.89,282.059c-.214-.118-.826-.395-1.743-.789a13.669,13.669,0,0,1-4.884.051c-3.938-.832-16.227-2.125-18.871-1.58s-6.269,1.083-8.847-.866c-2.443-1.846-.931-6.7-.765-7.2a7.368,7.368,0,0,0-2.2,2.8c-1.173,1.94-.887,7.238,5.272,8.2s31.74.607,31.74.607c.937-.444,1.485-.57.3-1.222" transform="translate(-36.035 -271.673)" fill="#a54c11"/>
                </g>
              </g>
            </g>
            <path id="Trazado_983749" data-name="Trazado 983749" d="M48.761,271.181a20.8,20.8,0,0,0-2.513-.493c.9,1.823,1.983,4.539,1.523,6.357.878,1.6,2.024-2.064.99-5.863" transform="translate(-35.315 -67.179)" fill="#a54c11"/>
            <path id="Trazado_983750" data-name="Trazado 983750" d="M54.9,273.035a9.408,9.408,0,0,1,.959,3.944c.02,1.3,1.94-.722,2.029-2.862-1.01-.371-2.01-.734-2.988-1.082" transform="translate(-37.462 -67.762)" fill="#a54c11"/>
            <path id="Trazado_983751" data-name="Trazado 983751" d="M62.982,276.007a8.158,8.158,0,0,1,.24,2.839c.08,1.038,1.086-.259,1.622-2.13q-.927-.355-1.862-.709" transform="translate(-39.468 -68.499)" fill="#a54c11"/>
            <path id="Trazado_983752" data-name="Trazado 983752" d="M31.616,277.106s-8.511-1.724-12.434.036,2.669,7.407,8.3,10.1-.233-2.66-2.4-3.519c3.263.209,1.181-1.335-1.626-2.77,2.946.02.288-2.027-.562-2.467.406-.5,7.245-.931,9.305-.16.486-.4.58-1.016-.58-1.221" transform="translate(-28.303 -68.584)" fill="#9fa52f"/>
            <path id="Trazado_983753" data-name="Trazado 983753" d="M34.037,272.636a44.472,44.472,0,0,1-6.178-5.143c2.986,1.258,4.055.38,2.018-.713,3.459.249,2.855-.882.738-2.071,3.317-.122,10.156.279-1.475-3.182-4.063-1.38-6.648,2.894-2.062,7.227a37.613,37.613,0,0,0,6.9,4.878Z" transform="translate(-29.953 -64.84)" fill="#8e8e2d"/>
            <g id="Grupo_1148671" data-name="Grupo 1148671" transform="translate(6.749 205.007)" opacity="0.26" style="mix-blend-mode: overlay;isolation: isolate">
              <g id="Grupo_1148670" data-name="Grupo 1148670">
                <g id="Grupo_1148669" data-name="Grupo 1148669" clip-path="url(#clip-path-12)">
                  <path id="Trazado_983754" data-name="Trazado 983754" d="M40.935,272.682s6.215-.159,15.67,3.625c3.064,1.551-3.473-.031-6.887-.658s-10.45-1.826-8.784-2.967" transform="translate(-40.683 -272.681)" fill="#fff"/>
                </g>
              </g>
            </g>
            <path id="Trazado_983755" data-name="Trazado 983755" d="M133.188,258.691a3.391,3.391,0,0,0-4.222-2.274,3.391,3.391,0,1,0-4.222-2.275,3.356,3.356,0,0,0,.227.562L108.6,259.61l1.6,5.341,16.366-4.906a3.442,3.442,0,0,0,.119.595,3.391,3.391,0,1,0,6.5-1.948" transform="translate(-50.791 -61.989)" fill="#ffd9ab"/>
            <path id="Trazado_983756" data-name="Trazado 983756" d="M131.368,253.046a3.386,3.386,0,1,0-6.626,1.1,3.442,3.442,0,0,0,.228.562L108.6,259.61l1.6,5.342,5.594-1.677a3.737,3.737,0,0,0-1.382-1.374c1.451-1.34-.433-2.611-.433-2.611l13.128-3.614a3.152,3.152,0,0,1,.058-3.812c1.5-1.807,4.1,1.074,4.2,1.182" transform="translate(-50.791 -61.99)" fill="#ddb180"/>
            <path id="Trazado_983757" data-name="Trazado 983757" d="M89.192,275.488a11.143,11.143,0,0,1,6.5-5.169l.342-.1,4.294-1.287,1.2-.361a1.649,1.649,0,0,0-.947-3.16,1.649,1.649,0,0,0-.947-3.159,1.649,1.649,0,0,0-.947-3.16l-1.2.361-4.294,1.287-.341.1a11.143,11.143,0,0,1-8.27-.743,15.349,15.349,0,0,0-11.34-.84c-7.52,2.255-12.062,9.269-10.144,15.668s9.57,9.758,17.09,7.5a15.349,15.349,0,0,0,9.008-6.939" transform="translate(-39.387 -64.168)" fill="#82320f"/>
            <path id="Trazado_983758" data-name="Trazado 983758" d="M65.572,277.83c-1.918-6.4,2.623-13.413,10.144-15.668a15.351,15.351,0,0,1,11.34.84,11.141,11.141,0,0,0,8.269.743l.342-.1,4.294-1.287.462-.138a1.631,1.631,0,0,0-.789.032,1.649,1.649,0,0,0-.947-3.16l-1.2.361-4.294,1.287-.341.1a11.141,11.141,0,0,1-8.269-.743,15.351,15.351,0,0,0-11.34-.84c-7.52,2.255-12.062,9.269-10.144,15.668a10.679,10.679,0,0,0,3.455,5.157,10.437,10.437,0,0,1-.976-2.251" transform="translate(-39.387 -64.168)" fill="#63210a"/>
            <path id="Trazado_983759" data-name="Trazado 983759" d="M86.932,281.132s-7.56,5.96-14.929,3.262.135-3.2,3.846-3.219,6.941-.55,10.121-3.254,3.135,1.8.962,3.21" transform="translate(-40.932 -68.764)" fill="#a0492a"/>
            <path id="Trazado_983760" data-name="Trazado 983760" d="M105.424,290.829H19.745l-4.15-5.431h94.653Z" transform="translate(-27.708 -70.83)" fill="#f0ebd6"/>
            <g id="Grupo_1148674" data-name="Grupo 1148674" transform="translate(-6.041 249.291)" opacity="0.26" style="mix-blend-mode: overlay;isolation: isolate">
              <g id="Grupo_1148673" data-name="Grupo 1148673">
                <g id="Grupo_1148672" data-name="Grupo 1148672" clip-path="url(#clip-path-13)">
                  <path id="Trazado_983761" data-name="Trazado 983761" d="M23.67,331.583s44.062,6.509,63.666,52.075H23.67Z" transform="translate(-23.67 -331.583)" fill="#f9ece4"/>
                </g>
              </g>
            </g>
          </g>
        </g>
        <g id="Grupo_1148678" data-name="Grupo 1148678">
          <g id="Grupo_1148677" data-name="Grupo 1148677" clip-path="url(#clip-path-2)">
            <path id="Trazado_983762" data-name="Trazado 983762" d="M142.547,70.618a31.232,31.232,0,1,1-31.232-31.232,31.232,31.232,0,0,1,31.232,31.232" transform="translate(-19.875 -9.775)" fill="#491507"/>
          </g>
        </g>
      </g>
    </g>
  </g>
</svg>
