<svg xmlns="http://www.w3.org/2000/svg" xmlns:xlink="http://www.w3.org/1999/xlink" width="446" height="223.309" viewBox="0 0 446 223.309">
  <defs>
    <clipPath id="clip-path">
      <rect id="Rectángulo_406367" data-name="Rectángulo 406367" width="325.95" height="223.309" fill="none"/>
    </clipPath>
    <clipPath id="clip-path-3">
      <rect id="Rectángulo_406353" data-name="Rectángulo 406353" width="47.498" height="43.153" fill="none"/>
    </clipPath>
    <clipPath id="clip-path-4">
      <rect id="Rectángulo_406365" data-name="Rectángulo 406365" width="245.56" height="223.309" fill="none"/>
    </clipPath>
    <clipPath id="clip-path-5">
      <rect id="Rectángulo_406355" data-name="Rectángulo 406355" width="5.859" height="2.7" fill="none"/>
    </clipPath>
    <clipPath id="clip-path-6">
      <rect id="Rectángulo_406356" data-name="Rectángulo 406356" width="5.858" height="2.7" fill="none"/>
    </clipPath>
    <clipPath id="clip-path-9">
      <rect id="Rectángulo_406359" data-name="Rectángulo 406359" width="64.226" height="19.137" fill="none"/>
    </clipPath>
    <clipPath id="clip-path-10">
      <rect id="Rectángulo_406360" data-name="Rectángulo 406360" width="6.273" height="3.15" fill="none"/>
    </clipPath>
    <clipPath id="clip-path-12">
      <rect id="Rectángulo_406362" data-name="Rectángulo 406362" width="23.325" height="37.506" fill="none"/>
    </clipPath>
    <clipPath id="clip-path-13">
      <rect id="Rectángulo_406363" data-name="Rectángulo 406363" width="23.812" height="22.868" fill="none"/>
    </clipPath>
  </defs>
  <g id="Grupo_1148724" data-name="Grupo 1148724" transform="translate(-223.051 -5643.117)">
    <rect id="Rectángulo_406371" data-name="Rectángulo 406371" width="446" height="86" rx="43" transform="translate(223.051 5714)" fill="#fff" opacity="0.63"/>
    <g id="Grupo_1148681" data-name="Grupo 1148681" transform="translate(282.862 5643.117)">
      <g id="Grupo_1148717" data-name="Grupo 1148717" clip-path="url(#clip-path)">
        <g id="Grupo_1148685" data-name="Grupo 1148685">
          <g id="Grupo_1148684" data-name="Grupo 1148684" clip-path="url(#clip-path)">
            <path id="Trazado_983763" data-name="Trazado 983763" d="M104.538,199.076a18.443,18.443,0,1,1-18.443-18.443,18.443,18.443,0,0,1,18.443,18.443" transform="translate(-29.61 -79.061)" fill="#d2cbac"/>
            <path id="Trazado_983764" data-name="Trazado 983764" d="M80.289,159.53a13.747,13.747,0,1,1-13.747-13.747A13.747,13.747,0,0,1,80.289,159.53" transform="translate(-23.108 -63.807)" fill="#d2cbac"/>
            <path id="Trazado_983765" data-name="Trazado 983765" d="M74.79,126.231a9.183,9.183,0,1,1-9.183-9.183,9.182,9.182,0,0,1,9.183,9.183" transform="translate(-24.696 -51.231)" fill="#d2cbac"/>
            <path id="Trazado_983766" data-name="Trazado 983766" d="M105.208,103.448a4.737,4.737,0,1,1-4.737-4.737,4.737,4.737,0,0,1,4.737,4.737" transform="translate(-41.902 -43.205)" fill="#d2cbac"/>
            <path id="Trazado_983767" data-name="Trazado 983767" d="M57.247,92.482a3.711,3.711,0,1,1-3.711-3.711,3.711,3.711,0,0,1,3.711,3.711" transform="translate(-21.808 -38.854)" fill="#d2cbac"/>
            <path id="Trazado_983768" data-name="Trazado 983768" d="M102.756,248.838H67.345a3.671,3.671,0,0,1-3.671-3.671v-27h42.754v27a3.672,3.672,0,0,1-3.672,3.672" transform="translate(-27.869 -95.488)" fill="#82320f"/>
            <path id="Trazado_983769" data-name="Trazado 983769" d="M93.83,245.166v-27h24.19v27a3.672,3.672,0,0,1-3.671,3.672H90.159a3.672,3.672,0,0,0,3.671-3.672" transform="translate(-39.462 -95.488)" fill="#6d240b"/>
            <rect id="Rectángulo_406348" data-name="Rectángulo 406348" width="75.44" height="2.25" transform="translate(20.986 153.35)" fill="#491507"/>
            <line id="Línea_614" data-name="Línea 614" x2="42.754" transform="translate(35.804 128.907)" fill="none" stroke="#60200a" stroke-miterlimit="10" stroke-width="1"/>
            <path id="Trazado_983770" data-name="Trazado 983770" d="M1.857,228.069H35.8v3.714H1.857a1.857,1.857,0,1,1,0-3.714" transform="translate(0 -99.823)" fill="#82320f"/>
            <rect id="Rectángulo_406349" data-name="Rectángulo 406349" width="5.625" height="3.714" transform="translate(30.179 128.246)" fill="#60200a"/>
            <rect id="Rectángulo_406350" data-name="Rectángulo 406350" width="240.594" height="58.591" transform="translate(29.9 164.435)" fill="#6d2411"/>
            <rect id="Rectángulo_406351" data-name="Rectángulo 406351" width="240.594" height="6.743" transform="translate(29.9 164.435)" fill="#3f1307"/>
            <rect id="Rectángulo_406352" data-name="Rectángulo 406352" width="297.05" height="9.26" transform="translate(1.863 155.6)" fill="#82320f"/>
            <line id="Línea_615" data-name="Línea 615" x1="297.05" transform="translate(1.863 162.275)" fill="none" stroke="#60200a" stroke-miterlimit="10" stroke-width="1.089"/>
            <g id="Grupo_1148683" data-name="Grupo 1148683" transform="translate(222.997 179.873)" opacity="0.26" style="mix-blend-mode: overlay;isolation: isolate">
              <g id="Grupo_1148682" data-name="Grupo 1148682">
                <g id="Grupo_1148681-2" data-name="Grupo 1148681" clip-path="url(#clip-path-3)">
                  <path id="Trazado_983771" data-name="Trazado 983771" d="M444.07,319.882s-32.872,5.394-47.5,43.153h47.5Z" transform="translate(-396.572 -319.882)" fill="#f9ece4"/>
                </g>
              </g>
            </g>
          </g>
        </g>
        <g id="Grupo_1148714" data-name="Grupo 1148714" transform="translate(63.306)">
          <g id="Grupo_1148713" data-name="Grupo 1148713" clip-path="url(#clip-path-4)">
            <path id="Trazado_983772" data-name="Trazado 983772" d="M196.585,203.215s1.122-9.624,17.053-12.984c-2.131,12.193-10.4,15.029-17.053,12.984" transform="translate(-149.349 -83.262)" fill="#918769"/>
            <path id="Trazado_983773" data-name="Trazado 983773" d="M487.648,203.215s-1.122-9.624-17.054-12.984c2.131,12.193,10.4,15.029,17.054,12.984" transform="translate(-269.28 -83.262)" fill="#918769"/>
            <path id="Trazado_983774" data-name="Trazado 983774" d="M509.232,112.835c-2.827-2.648-4.443-7.04-2.779-10.767.238-.524.609-1.2.9-1.707a16.073,16.073,0,0,0,2.371-8.376,16.24,16.24,0,0,0-2.1-6.877,12.154,12.154,0,0,1,3.465,6.747,14.464,14.464,0,0,1-2.228,9.361c-2.706,3.751-1.786,7.812.371,11.618" transform="translate(-284.681 -37.251)" fill="#c6be9b"/>
            <path id="Trazado_983775" data-name="Trazado 983775" d="M521.48,111.682c-2.261-2.086-3.376-5.713-1.687-8.5,1.681-2.752,2.688-6.064,1.583-9.206a18.165,18.165,0,0,0-1.066-2.465,8.841,8.841,0,0,1,2.521,4.908,10.987,10.987,0,0,1-1.986,7.406c-1.555,2.453-.767,5.4.634,7.857" transform="translate(-290.456 -40.053)" fill="#c6be9b"/>
            <path id="Trazado_983776" data-name="Trazado 983776" d="M461.525,155.2s9.795-.236,20.1,7.376a.454.454,0,0,0,.554-.01l.007-.006a.452.452,0,0,0-.027-.725c-2.135-1.466-10.914-7.035-20.638-6.635" transform="translate(-265.31 -67.919)" fill="#beb556"/>
            <path id="Trazado_983777" data-name="Trazado 983777" d="M487.6,165.538s-5.226-1.233-7.8,3.323c3.573-.128,7.8-3.323,7.8-3.323" transform="translate(-273.313 -72.387)" fill="#beb556"/>
            <path id="Trazado_983778" data-name="Trazado 983778" d="M488.845,165.656a11.021,11.021,0,0,0-6.2,2.233,30.749,30.749,0,0,1,6.2-2.233" transform="translate(-274.553 -72.506)" fill="#7d8e04"/>
            <path id="Trazado_983779" data-name="Trazado 983779" d="M491.2,158.546s-4.7-2.6-3.545-7.7c2.562,2.495,3.545,7.7,3.545,7.7" transform="translate(-276.668 -66.025)" fill="#beb556"/>
            <path id="Trazado_983780" data-name="Trazado 983780" d="M491.694,160.007a11.02,11.02,0,0,1-3.1-5.82,30.728,30.728,0,0,0,3.1,5.82" transform="translate(-277.16 -67.486)" fill="#7d8e04"/>
            <path id="Trazado_983781" data-name="Trazado 983781" d="M480.8,161.088s-5.312-.783-7.484,3.974c3.55-.432,7.484-3.974,7.484-3.974" transform="translate(-270.47 -70.485)" fill="#beb556"/>
            <path id="Trazado_983782" data-name="Trazado 983782" d="M481.961,161.125a11.017,11.017,0,0,0-5.989,2.754,30.724,30.724,0,0,1,5.989-2.754" transform="translate(-271.634 -70.523)" fill="#7d8e04"/>
            <path id="Trazado_983783" data-name="Trazado 983783" d="M463.353,154.921s-4.623-2.731-8.431.855c3.45.94,8.431-.855,8.431-.855" transform="translate(-262.42 -67.372)" fill="#beb556"/>
            <path id="Trazado_983784" data-name="Trazado 983784" d="M464.79,155.4a11.02,11.02,0,0,0-6.586.288,30.749,30.749,0,0,1,6.586-.288" transform="translate(-263.857 -67.854)" fill="#7d8e04"/>
            <path id="Trazado_983785" data-name="Trazado 983785" d="M483.044,154.979s-4.9-2.186-4.188-7.367c2.765,2.268,4.188,7.367,4.188,7.367" transform="translate(-272.865 -64.608)" fill="#beb556"/>
            <path id="Trazado_983786" data-name="Trazado 983786" d="M483.573,156.405a11.021,11.021,0,0,1-3.58-5.535,30.747,30.747,0,0,0,3.58,5.535" transform="translate(-273.393 -66.034)" fill="#7d8e04"/>
            <path id="Trazado_983787" data-name="Trazado 983787" d="M471.959,157.816s-5.312-.783-7.484,3.974c3.55-.432,7.484-3.974,7.484-3.974" transform="translate(-266.601 -69.053)" fill="#beb556"/>
            <path id="Trazado_983788" data-name="Trazado 983788" d="M473.123,157.853a11.017,11.017,0,0,0-5.989,2.754,30.722,30.722,0,0,1,5.989-2.754" transform="translate(-267.765 -69.09)" fill="#7d8e04"/>
            <path id="Trazado_983789" data-name="Trazado 983789" d="M474.206,151.706s-4.9-2.186-4.188-7.367c2.766,2.268,4.188,7.367,4.188,7.367" transform="translate(-268.996 -63.175)" fill="#beb556"/>
            <path id="Trazado_983790" data-name="Trazado 983790" d="M474.735,153.132a11.021,11.021,0,0,1-3.58-5.535,30.752,30.752,0,0,0,3.58,5.535" transform="translate(-269.525 -64.601)" fill="#7d8e04"/>
            <path id="Trazado_983791" data-name="Trazado 983791" d="M556.842,155.2s-9.8-.236-20.1,7.376a.453.453,0,0,1-.554-.01l-.007-.006a.452.452,0,0,1,.027-.725c2.134-1.466,10.914-7.035,20.638-6.635" transform="translate(-297.911 -67.919)" fill="#beb556"/>
            <path id="Trazado_983792" data-name="Trazado 983792" d="M540.912,165.538s5.226-1.233,7.8,3.323c-3.574-.128-7.8-3.323-7.8-3.323" transform="translate(-300.057 -72.387)" fill="#beb556"/>
            <path id="Trazado_983793" data-name="Trazado 983793" d="M540.912,165.656a11.023,11.023,0,0,1,6.2,2.233,30.766,30.766,0,0,0-6.2-2.233" transform="translate(-300.057 -72.506)" fill="#7d8e04"/>
            <path id="Trazado_983794" data-name="Trazado 983794" d="M540.48,158.546s4.7-2.6,3.545-7.7c-2.562,2.495-3.545,7.7-3.545,7.7" transform="translate(-299.868 -66.025)" fill="#beb556"/>
            <path id="Trazado_983795" data-name="Trazado 983795" d="M540.48,160.007a11.019,11.019,0,0,0,3.1-5.82,30.755,30.755,0,0,1-3.1,5.82" transform="translate(-299.868 -67.486)" fill="#7d8e04"/>
            <path id="Trazado_983796" data-name="Trazado 983796" d="M547.961,161.088s5.312-.783,7.484,3.974c-3.55-.432-7.484-3.974-7.484-3.974" transform="translate(-303.142 -70.485)" fill="#beb556"/>
            <path id="Trazado_983797" data-name="Trazado 983797" d="M547.961,161.125a11.017,11.017,0,0,1,5.989,2.754,30.719,30.719,0,0,0-5.989-2.754" transform="translate(-303.142 -70.523)" fill="#7d8e04"/>
            <path id="Trazado_983798" data-name="Trazado 983798" d="M548.224,154.979s4.9-2.186,4.188-7.367c-2.765,2.268-4.188,7.367-4.188,7.367" transform="translate(-303.257 -64.608)" fill="#beb556"/>
            <path id="Trazado_983799" data-name="Trazado 983799" d="M548.224,156.405a11.021,11.021,0,0,0,3.58-5.535,30.748,30.748,0,0,1-3.58,5.535" transform="translate(-303.257 -66.034)" fill="#7d8e04"/>
            <path id="Trazado_983800" data-name="Trazado 983800" d="M548.748,144.944c1.42,0,2.571,2.891,2.571,6.459s-1.151,6.459-2.571,6.459h-6.076V144.944Z" transform="translate(-300.827 -63.44)" fill="#3f3b0a"/>
            <path id="Trazado_983801" data-name="Trazado 983801" d="M542.673,160.894a19.278,19.278,0,0,1,1.93.1,6.251,6.251,0,0,0,6.712-3.879c-.08,3.387-1.2,6.073-2.566,6.073h-6.076Z" transform="translate(-300.828 -68.767)" fill="#2d2907"/>
            <path id="Trazado_983802" data-name="Trazado 983802" d="M538.1,151.4c0,3.567,1.151,6.459,2.571,6.459s2.57-2.892,2.57-6.459-1.15-6.459-2.57-6.459-2.571,2.892-2.571,6.459" transform="translate(-298.827 -63.44)" fill="#564f11"/>
            <path id="Trazado_983803" data-name="Trazado 983803" d="M538.389,151.694c0,3.342,1.03,6.051,2.3,6.051s2.3-2.709,2.3-6.051-1.029-6.051-2.3-6.051-2.3,2.709-2.3,6.051" transform="translate(-298.953 -63.746)" fill="#fffee6"/>
            <path id="Trazado_983804" data-name="Trazado 983804" d="M542.1,150.937s-.17,1.416-.793,1.614-1.331-.566-1.36-.878a3.413,3.413,0,0,1,.793-1.955c.418-.227,1.36,1.218,1.36,1.218" transform="translate(-299.636 -65.52)" fill="#e05b32"/>
            <path id="Trazado_983805" data-name="Trazado 983805" d="M539.9,153.214a5.044,5.044,0,0,0,0,1.515c.143.5,1.05.949,1.333.977s.2-2.1.2-2.1Z" transform="translate(-299.587 -67.06)" fill="#feb800"/>
            <path id="Trazado_983806" data-name="Trazado 983806" d="M542.634,151.9a10.73,10.73,0,0,1,.51,1.813,2.835,2.835,0,0,1,.019.55c-.035.476-.224.867-.7.867a2.2,2.2,0,0,1-1.3-.765,10.53,10.53,0,0,1,1.473-2.465" transform="translate(-300.166 -66.487)" fill="#565317"/>
            <path id="Trazado_983807" data-name="Trazado 983807" d="M539.95,155.909a9.1,9.1,0,0,0,.54,2.394,1.748,1.748,0,0,0,1.473.4c.312-.085.312-2.352.312-2.352Z" transform="translate(-299.636 -68.24)" fill="#8c2a0c"/>
            <path id="Trazado_983808" data-name="Trazado 983808" d="M540.575,159.391a4.593,4.593,0,0,0,.328,2.079c.4.509.477.651.861.4a2.464,2.464,0,0,0,.832-1.613c.155-.793-2.021-.862-2.021-.862" transform="translate(-299.908 -69.764)" fill="#f7c34d"/>
            <path id="Trazado_983809" data-name="Trazado 983809" d="M543.238,156.052a18.759,18.759,0,0,0,0,2.55c.113.51.227.51.4.368a9.9,9.9,0,0,0,.416-2.991c-.1-.408-.812.073-.812.073" transform="translate(-301.053 -68.198)" fill="#7d8e04"/>
            <path id="Trazado_983810" data-name="Trazado 983810" d="M543.213,148.193c.135.234.321.379.416.324s.063-.289-.072-.522-.322-.379-.417-.324-.062.288.073.522" transform="translate(-301.009 -64.629)" fill="#f2efda"/>
            <path id="Trazado_983811" data-name="Trazado 983811" d="M540.133,148.759c-.234.135-.379.322-.324.417s.289.062.522-.073.379-.322.324-.416-.288-.063-.522.072" transform="translate(-299.569 -65.055)" fill="#f2efda"/>
            <path id="Trazado_983812" data-name="Trazado 983812" d="M542.749,165.3c.255-.088.432-.244.4-.348s-.272-.116-.527-.028-.432.244-.4.348.272.116.527.028" transform="translate(-300.629 -72.162)" fill="#f2efda"/>
            <path id="Trazado_983813" data-name="Trazado 983813" d="M541.532,146.7c-.255.088-.432.244-.4.348s.272.116.527.028.432-.244.4-.348-.272-.116-.527-.028" transform="translate(-300.153 -64.182)" fill="#f2efda"/>
            <path id="Trazado_983814" data-name="Trazado 983814" d="M540.886,164.374c-.191-.191-.408-.283-.486-.205s.014.3.2.486.409.282.486.2-.015-.3-.205-.486" transform="translate(-299.821 -71.843)" fill="#f2efda"/>
            <path id="Trazado_983815" data-name="Trazado 983815" d="M540.114,161.986c.037-.267-.021-.5-.13-.511s-.227.189-.264.457.021.5.13.511.227-.189.264-.457" transform="translate(-299.531 -70.675)" fill="#f2efda"/>
            <path id="Trazado_983816" data-name="Trazado 983816" d="M544.093,150.47c-.255.088-.433.244-.4.348s.272.116.527.028.432-.244.4-.348-.272-.116-.527-.028" transform="translate(-301.274 -65.833)" fill="#f2efda"/>
            <path id="Trazado_983817" data-name="Trazado 983817" d="M545.013,152.954c.034.268.15.473.259.459s.169-.242.135-.509-.15-.473-.259-.46-.169.242-.135.51" transform="translate(-301.848 -66.722)" fill="#f2efda"/>
            <path id="Trazado_983818" data-name="Trazado 983818" d="M538.818,155.7c.034.268.15.473.259.459s.169-.242.135-.51-.15-.473-.259-.459-.169.242-.135.51" transform="translate(-299.136 -67.924)" fill="#f2efda"/>
            <path id="Trazado_983819" data-name="Trazado 983819" d="M539.047,151.476c-.088.255-.075.491.029.527s.259-.142.347-.4.075-.491-.029-.526-.259.142-.347.4" transform="translate(-299.215 -66.124)" fill="#f2efda"/>
            <path id="Trazado_983820" data-name="Trazado 983820" d="M544.938,159.376c.034.268.15.473.259.459s.169-.242.135-.51-.15-.473-.259-.459-.169.242-.135.51" transform="translate(-301.815 -69.534)" fill="#f2efda"/>
            <path id="Trazado_983821" data-name="Trazado 983821" d="M539.035,159.427c.2.179.425.257.5.175s-.032-.294-.234-.472-.425-.257-.5-.175.032.294.234.472" transform="translate(-299.123 -69.558)" fill="#f2efda"/>
            <path id="Trazado_983822" data-name="Trazado 983822" d="M545.19,156.136c-.088.255-.075.491.029.527s.259-.142.347-.4.076-.491-.029-.526-.259.142-.347.4" transform="translate(-301.904 -68.163)" fill="#f2efda"/>
            <path id="Trazado_983823" data-name="Trazado 983823" d="M544.4,162.211c-.088.255-.075.491.029.527s.259-.142.347-.4.075-.491-.029-.526-.259.142-.347.4" transform="translate(-301.559 -70.822)" fill="#f2efda"/>
            <g id="Grupo_1148688" data-name="Grupo 1148688" transform="translate(243.563 82.009)" opacity="0.31" style="mix-blend-mode: overlay;isolation: isolate">
              <g id="Grupo_1148687" data-name="Grupo 1148687">
                <g id="Grupo_1148686" data-name="Grupo 1148686" clip-path="url(#clip-path-5)">
                  <path id="Trazado_983824" data-name="Trazado 983824" d="M550.065,145.889s-2.98-.106-3.952,0,.043.765,1.4.765,2.762-.17,3.187,1.147,1.275.68.68-.382-.932-1.517-1.317-1.529" transform="translate(-545.728 -145.842)" fill="#fffee6"/>
                </g>
              </g>
            </g>
            <path id="Trazado_983825" data-name="Trazado 983825" d="M529.878,144.944c1.42,0,2.571,2.891,2.571,6.459s-1.151,6.459-2.571,6.459H523.8V144.944Z" transform="translate(-292.568 -63.44)" fill="#3f3b0a"/>
            <path id="Trazado_983826" data-name="Trazado 983826" d="M523.8,160.894a19.274,19.274,0,0,1,1.93.1,6.251,6.251,0,0,0,6.712-3.879c-.08,3.387-1.2,6.073-2.566,6.073H523.8Z" transform="translate(-292.568 -68.767)" fill="#2d2907"/>
            <path id="Trazado_983827" data-name="Trazado 983827" d="M519.23,151.4c0,3.567,1.151,6.459,2.571,6.459s2.57-2.892,2.57-6.459-1.151-6.459-2.57-6.459-2.571,2.892-2.571,6.459" transform="translate(-290.567 -63.44)" fill="#564f11"/>
            <path id="Trazado_983828" data-name="Trazado 983828" d="M519.519,151.694c0,3.342,1.03,6.051,2.3,6.051s2.3-2.709,2.3-6.051-1.029-6.051-2.3-6.051-2.3,2.709-2.3,6.051" transform="translate(-290.693 -63.746)" fill="#fffee6"/>
            <path id="Trazado_983829" data-name="Trazado 983829" d="M523.234,150.937s-.17,1.416-.793,1.614-1.331-.566-1.36-.878a3.413,3.413,0,0,1,.793-1.955c.418-.227,1.36,1.218,1.36,1.218" transform="translate(-291.376 -65.52)" fill="#e05b32"/>
            <path id="Trazado_983830" data-name="Trazado 983830" d="M521.032,153.214a5.036,5.036,0,0,0,0,1.515c.143.5,1.049.949,1.333.977s.2-2.1.2-2.1Z" transform="translate(-291.327 -67.06)" fill="#feb800"/>
            <path id="Trazado_983831" data-name="Trazado 983831" d="M523.764,151.9a10.734,10.734,0,0,1,.51,1.813,2.84,2.84,0,0,1,.019.55c-.035.476-.224.867-.7.867a2.2,2.2,0,0,1-1.3-.765,10.532,10.532,0,0,1,1.473-2.465" transform="translate(-291.907 -66.487)" fill="#565317"/>
            <path id="Trazado_983832" data-name="Trazado 983832" d="M521.08,155.909a9.121,9.121,0,0,0,.539,2.394,1.749,1.749,0,0,0,1.473.4c.312-.085.312-2.352.312-2.352Z" transform="translate(-291.377 -68.24)" fill="#8c2a0c"/>
            <path id="Trazado_983833" data-name="Trazado 983833" d="M521.7,159.391a4.592,4.592,0,0,0,.328,2.079c.4.509.477.651.861.4a2.464,2.464,0,0,0,.832-1.613c.155-.793-2.021-.862-2.021-.862" transform="translate(-291.648 -69.764)" fill="#f7c34d"/>
            <path id="Trazado_983834" data-name="Trazado 983834" d="M524.368,156.052a18.759,18.759,0,0,0,0,2.55c.114.51.227.51.4.368a9.9,9.9,0,0,0,.416-2.991c-.1-.408-.812.073-.812.073" transform="translate(-292.794 -68.198)" fill="#7d8e04"/>
            <path id="Trazado_983835" data-name="Trazado 983835" d="M524.342,148.193c.135.234.321.379.416.324s.063-.289-.072-.522-.322-.379-.417-.324-.062.288.073.522" transform="translate(-292.749 -64.629)" fill="#f2efda"/>
            <path id="Trazado_983836" data-name="Trazado 983836" d="M521.262,148.759c-.234.135-.379.322-.324.417s.289.062.522-.073.379-.322.324-.416-.289-.063-.522.072" transform="translate(-291.309 -65.055)" fill="#f2efda"/>
            <path id="Trazado_983837" data-name="Trazado 983837" d="M523.878,165.3c.255-.088.432-.244.4-.348s-.272-.116-.527-.028-.433.244-.4.348.272.116.527.028" transform="translate(-292.369 -72.162)" fill="#f2efda"/>
            <path id="Trazado_983838" data-name="Trazado 983838" d="M522.662,146.7c-.255.088-.432.244-.4.348s.272.116.527.028.433-.244.4-.348-.272-.116-.527-.028" transform="translate(-291.894 -64.182)" fill="#f2efda"/>
            <path id="Trazado_983839" data-name="Trazado 983839" d="M522.015,164.374c-.191-.191-.408-.283-.486-.205s.014.3.2.486.409.282.486.2-.015-.3-.205-.486" transform="translate(-291.561 -71.843)" fill="#f2efda"/>
            <path id="Trazado_983840" data-name="Trazado 983840" d="M521.243,161.986c.037-.267-.021-.5-.13-.511s-.227.189-.264.457.021.5.13.511.227-.189.264-.457" transform="translate(-291.271 -70.675)" fill="#f2efda"/>
            <path id="Trazado_983841" data-name="Trazado 983841" d="M525.223,150.47c-.255.088-.433.244-.4.348s.272.116.527.028.433-.244.4-.348-.272-.116-.527-.028" transform="translate(-293.014 -65.833)" fill="#f2efda"/>
            <path id="Trazado_983842" data-name="Trazado 983842" d="M526.143,152.954c.034.268.15.473.259.459s.169-.242.135-.509-.15-.473-.259-.46-.169.242-.135.51" transform="translate(-293.589 -66.722)" fill="#f2efda"/>
            <path id="Trazado_983843" data-name="Trazado 983843" d="M519.947,155.7c.034.268.15.473.259.459s.169-.242.135-.51-.15-.473-.259-.459-.169.242-.135.51" transform="translate(-290.876 -67.924)" fill="#f2efda"/>
            <path id="Trazado_983844" data-name="Trazado 983844" d="M520.177,151.476c-.088.255-.075.491.029.527s.259-.142.347-.4.075-.491-.029-.526-.259.142-.347.4" transform="translate(-290.956 -66.124)" fill="#f2efda"/>
            <path id="Trazado_983845" data-name="Trazado 983845" d="M526.068,159.376c.034.268.15.473.259.459s.169-.242.135-.51-.15-.473-.259-.459-.169.242-.135.51" transform="translate(-293.556 -69.534)" fill="#f2efda"/>
            <path id="Trazado_983846" data-name="Trazado 983846" d="M520.165,159.427c.2.179.425.257.5.175s-.032-.294-.234-.472-.425-.257-.5-.175.033.294.234.472" transform="translate(-290.863 -69.558)" fill="#f2efda"/>
            <path id="Trazado_983847" data-name="Trazado 983847" d="M526.32,156.136c-.088.255-.075.491.029.527s.259-.142.347-.4.076-.491-.029-.526-.259.142-.347.4" transform="translate(-293.645 -68.163)" fill="#f2efda"/>
            <path id="Trazado_983848" data-name="Trazado 983848" d="M525.533,162.211c-.088.255-.075.491.029.527s.259-.142.347-.4.075-.491-.029-.526-.259.142-.347.4" transform="translate(-293.3 -70.822)" fill="#f2efda"/>
            <g id="Grupo_1148691" data-name="Grupo 1148691" transform="translate(232.952 82.009)" opacity="0.31" style="mix-blend-mode: overlay;isolation: isolate">
              <g id="Grupo_1148690" data-name="Grupo 1148690">
                <g id="Grupo_1148689" data-name="Grupo 1148689" clip-path="url(#clip-path-6)">
                  <path id="Trazado_983849" data-name="Trazado 983849" d="M531.194,145.889s-2.98-.106-3.952,0,.043.765,1.4.765,2.762-.17,3.187,1.147,1.275.68.68-.382-.932-1.517-1.317-1.529" transform="translate(-526.858 -145.842)" fill="#fffee6"/>
                </g>
              </g>
            </g>
            <path id="Trazado_983850" data-name="Trazado 983850" d="M511.007,144.944c1.42,0,2.571,2.891,2.571,6.459s-1.151,6.459-2.571,6.459h-6.076V144.944Z" transform="translate(-284.309 -63.44)" fill="#3f3b0a"/>
            <path id="Trazado_983851" data-name="Trazado 983851" d="M504.932,160.894a19.275,19.275,0,0,1,1.93.1,6.251,6.251,0,0,0,6.712-3.879c-.08,3.387-1.2,6.073-2.566,6.073h-6.076Z" transform="translate(-284.309 -68.767)" fill="#2d2907"/>
            <path id="Trazado_983852" data-name="Trazado 983852" d="M500.36,151.4c0,3.567,1.151,6.459,2.571,6.459s2.57-2.892,2.57-6.459-1.151-6.459-2.57-6.459-2.571,2.892-2.571,6.459" transform="translate(-282.308 -63.44)" fill="#564f11"/>
            <path id="Trazado_983853" data-name="Trazado 983853" d="M500.648,151.694c0,3.342,1.03,6.051,2.3,6.051s2.3-2.709,2.3-6.051-1.029-6.051-2.3-6.051-2.3,2.709-2.3,6.051" transform="translate(-282.434 -63.746)" fill="#fffee6"/>
            <path id="Trazado_983854" data-name="Trazado 983854" d="M504.363,150.937s-.17,1.416-.793,1.614-1.331-.566-1.36-.878a3.413,3.413,0,0,1,.793-1.955c.418-.227,1.36,1.218,1.36,1.218" transform="translate(-283.117 -65.52)" fill="#e05b32"/>
            <path id="Trazado_983855" data-name="Trazado 983855" d="M502.161,153.214a5.048,5.048,0,0,0,0,1.515c.143.5,1.05.949,1.333.977s.2-2.1.2-2.1Z" transform="translate(-283.068 -67.06)" fill="#feb800"/>
            <path id="Trazado_983856" data-name="Trazado 983856" d="M504.893,151.9a10.73,10.73,0,0,1,.51,1.813,2.835,2.835,0,0,1,.019.55c-.035.476-.224.867-.7.867a2.2,2.2,0,0,1-1.3-.765,10.53,10.53,0,0,1,1.473-2.465" transform="translate(-283.647 -66.487)" fill="#565317"/>
            <path id="Trazado_983857" data-name="Trazado 983857" d="M502.209,155.909a9.125,9.125,0,0,0,.54,2.394,1.748,1.748,0,0,0,1.473.4c.312-.085.312-2.352.312-2.352Z" transform="translate(-283.117 -68.24)" fill="#8c2a0c"/>
            <path id="Trazado_983858" data-name="Trazado 983858" d="M502.834,159.391a4.593,4.593,0,0,0,.328,2.079c.4.509.477.651.861.4a2.464,2.464,0,0,0,.832-1.613c.155-.793-2.021-.862-2.021-.862" transform="translate(-283.389 -69.764)" fill="#f7c34d"/>
            <path id="Trazado_983859" data-name="Trazado 983859" d="M505.5,156.052a18.668,18.668,0,0,0,0,2.55c.114.51.227.51.4.368a9.9,9.9,0,0,0,.416-2.991c-.1-.408-.812.073-.812.073" transform="translate(-284.534 -68.198)" fill="#7d8e04"/>
            <path id="Trazado_983860" data-name="Trazado 983860" d="M505.472,148.193c.135.234.321.379.416.324s.063-.289-.072-.522-.322-.379-.417-.324-.062.288.073.522" transform="translate(-284.49 -64.629)" fill="#f2efda"/>
            <path id="Trazado_983861" data-name="Trazado 983861" d="M502.392,148.759c-.234.135-.378.322-.324.417s.289.062.522-.073.379-.322.324-.416-.288-.063-.522.072" transform="translate(-283.05 -65.055)" fill="#f2efda"/>
            <path id="Trazado_983862" data-name="Trazado 983862" d="M505.008,165.3c.255-.088.433-.244.4-.348s-.272-.116-.527-.028-.432.244-.4.348.272.116.527.028" transform="translate(-284.11 -72.162)" fill="#f2efda"/>
            <path id="Trazado_983863" data-name="Trazado 983863" d="M503.791,146.7c-.255.088-.433.244-.4.348s.272.116.527.028.433-.244.4-.348-.272-.116-.527-.028" transform="translate(-283.634 -64.182)" fill="#f2efda"/>
            <path id="Trazado_983864" data-name="Trazado 983864" d="M503.145,164.374c-.191-.191-.408-.283-.486-.205s.014.3.2.486.409.282.486.2-.015-.3-.205-.486" transform="translate(-283.302 -71.843)" fill="#f2efda"/>
            <path id="Trazado_983865" data-name="Trazado 983865" d="M502.373,161.986c.037-.267-.021-.5-.13-.511s-.227.189-.264.457.021.5.13.511.227-.189.264-.457" transform="translate(-283.012 -70.675)" fill="#f2efda"/>
            <path id="Trazado_983866" data-name="Trazado 983866" d="M506.352,150.47c-.255.088-.433.244-.4.348s.272.116.527.028.432-.244.4-.348-.272-.116-.527-.028" transform="translate(-284.755 -65.833)" fill="#f2efda"/>
            <path id="Trazado_983867" data-name="Trazado 983867" d="M507.273,152.954c.034.268.15.473.259.459s.169-.242.135-.509-.15-.473-.259-.46-.169.242-.135.51" transform="translate(-285.329 -66.722)" fill="#f2efda"/>
            <path id="Trazado_983868" data-name="Trazado 983868" d="M501.077,155.7c.034.268.15.473.259.459s.17-.242.135-.51-.15-.473-.259-.459-.169.242-.135.51" transform="translate(-282.617 -67.924)" fill="#f2efda"/>
            <path id="Trazado_983869" data-name="Trazado 983869" d="M501.306,151.476c-.088.255-.075.491.029.527s.259-.142.347-.4.075-.491-.029-.526-.259.142-.347.4" transform="translate(-282.697 -66.124)" fill="#f2efda"/>
            <path id="Trazado_983870" data-name="Trazado 983870" d="M507.2,159.376c.034.268.15.473.259.459s.169-.242.135-.51-.15-.473-.259-.459-.169.242-.135.51" transform="translate(-285.296 -69.534)" fill="#f2efda"/>
            <path id="Trazado_983871" data-name="Trazado 983871" d="M501.295,159.427c.2.179.425.257.5.175s-.032-.294-.234-.472-.425-.257-.5-.175.033.294.234.472" transform="translate(-282.604 -69.558)" fill="#f2efda"/>
            <path id="Trazado_983872" data-name="Trazado 983872" d="M507.45,156.136c-.088.255-.075.491.029.527s.259-.142.347-.4.075-.491-.029-.526-.259.142-.347.4" transform="translate(-285.385 -68.163)" fill="#f2efda"/>
            <path id="Trazado_983873" data-name="Trazado 983873" d="M506.662,162.211c-.088.255-.075.491.029.527s.259-.142.347-.4.075-.491-.029-.526-.259.142-.347.4" transform="translate(-285.04 -70.822)" fill="#f2efda"/>
            <g id="Grupo_1148694" data-name="Grupo 1148694" transform="translate(222.341 82.009)" opacity="0.31" style="mix-blend-mode: overlay;isolation: isolate">
              <g id="Grupo_1148693" data-name="Grupo 1148693">
                <g id="Grupo_1148692" data-name="Grupo 1148692" clip-path="url(#clip-path-5)">
                  <path id="Trazado_983874" data-name="Trazado 983874" d="M512.324,145.889s-2.98-.106-3.951,0,.042.765,1.4.765,2.763-.17,3.187,1.147,1.274.68.68-.382-.933-1.517-1.317-1.529" transform="translate(-507.987 -145.842)" fill="#fffee6"/>
                </g>
              </g>
            </g>
            <path id="Trazado_983875" data-name="Trazado 983875" d="M492.137,144.944c1.42,0,2.571,2.891,2.571,6.459s-1.151,6.459-2.571,6.459h-6.076V144.944Z" transform="translate(-276.049 -63.44)" fill="#3f3b0a"/>
            <path id="Trazado_983876" data-name="Trazado 983876" d="M486.061,160.894a19.284,19.284,0,0,1,1.93.1,6.25,6.25,0,0,0,6.711-3.879c-.079,3.387-1.2,6.073-2.565,6.073h-6.076Z" transform="translate(-276.049 -68.767)" fill="#2d2907"/>
            <path id="Trazado_983877" data-name="Trazado 983877" d="M481.489,151.4c0,3.567,1.151,6.459,2.571,6.459s2.57-2.892,2.57-6.459-1.15-6.459-2.57-6.459-2.571,2.892-2.571,6.459" transform="translate(-274.048 -63.44)" fill="#564f11"/>
            <path id="Trazado_983878" data-name="Trazado 983878" d="M481.778,151.694c0,3.342,1.03,6.051,2.3,6.051s2.3-2.709,2.3-6.051-1.03-6.051-2.3-6.051-2.3,2.709-2.3,6.051" transform="translate(-274.175 -63.746)" fill="#fffee6"/>
            <path id="Trazado_983879" data-name="Trazado 983879" d="M485.492,150.937s-.17,1.416-.793,1.614-1.331-.566-1.36-.878a3.413,3.413,0,0,1,.793-1.955c.418-.227,1.36,1.218,1.36,1.218" transform="translate(-274.857 -65.52)" fill="#e05b32"/>
            <path id="Trazado_983880" data-name="Trazado 983880" d="M483.291,153.214a5.035,5.035,0,0,0,0,1.515c.143.5,1.049.949,1.333.977s.2-2.1.2-2.1Z" transform="translate(-274.809 -67.06)" fill="#feb800"/>
            <path id="Trazado_983881" data-name="Trazado 983881" d="M486.022,151.9a10.733,10.733,0,0,1,.51,1.813,2.832,2.832,0,0,1,.019.55c-.035.476-.224.867-.7.867a2.2,2.2,0,0,1-1.3-.765,10.531,10.531,0,0,1,1.473-2.465" transform="translate(-275.388 -66.487)" fill="#565317"/>
            <path id="Trazado_983882" data-name="Trazado 983882" d="M483.338,155.909a9.1,9.1,0,0,0,.54,2.394,1.748,1.748,0,0,0,1.473.4c.311-.085.311-2.352.311-2.352Z" transform="translate(-274.858 -68.24)" fill="#8c2a0c"/>
            <path id="Trazado_983883" data-name="Trazado 983883" d="M483.963,159.391a4.6,4.6,0,0,0,.327,2.079c.4.509.477.651.862.4a2.464,2.464,0,0,0,.832-1.613c.155-.793-2.021-.862-2.021-.862" transform="translate(-275.129 -69.764)" fill="#f7c34d"/>
            <path id="Trazado_983884" data-name="Trazado 983884" d="M486.627,156.052a18.759,18.759,0,0,0,0,2.55c.114.51.227.51.4.368a9.9,9.9,0,0,0,.415-2.991c-.1-.408-.812.073-.812.073" transform="translate(-276.275 -68.198)" fill="#7d8e04"/>
            <path id="Trazado_983885" data-name="Trazado 983885" d="M486.6,148.193c.135.234.321.379.416.324s.063-.289-.072-.522-.322-.379-.417-.324-.062.288.073.522" transform="translate(-276.23 -64.629)" fill="#f2efda"/>
            <path id="Trazado_983886" data-name="Trazado 983886" d="M483.521,148.759c-.234.135-.378.322-.324.417s.289.062.522-.073.379-.322.324-.416-.288-.063-.522.072" transform="translate(-274.791 -65.055)" fill="#f2efda"/>
            <path id="Trazado_983887" data-name="Trazado 983887" d="M486.137,165.3c.255-.088.432-.244.4-.348s-.272-.116-.527-.028-.433.244-.4.348.272.116.527.028" transform="translate(-275.85 -72.162)" fill="#f2efda"/>
            <path id="Trazado_983888" data-name="Trazado 983888" d="M484.921,146.7c-.255.088-.432.244-.4.348s.272.116.527.028.433-.244.4-.348-.272-.116-.527-.028" transform="translate(-275.375 -64.182)" fill="#f2efda"/>
            <path id="Trazado_983889" data-name="Trazado 983889" d="M484.274,164.374c-.191-.191-.408-.283-.486-.205s.014.3.2.486.409.282.486.2-.015-.3-.205-.486" transform="translate(-275.043 -71.843)" fill="#f2efda"/>
            <path id="Trazado_983890" data-name="Trazado 983890" d="M483.5,161.986c.037-.267-.021-.5-.13-.511s-.227.189-.264.457.021.5.13.511.227-.189.264-.457" transform="translate(-274.752 -70.675)" fill="#f2efda"/>
            <path id="Trazado_983891" data-name="Trazado 983891" d="M487.482,150.47c-.255.088-.432.244-.4.348s.272.116.527.028.433-.244.4-.348-.272-.116-.527-.028" transform="translate(-276.496 -65.833)" fill="#f2efda"/>
            <path id="Trazado_983892" data-name="Trazado 983892" d="M488.4,152.954c.034.268.15.473.259.459s.169-.242.135-.509-.15-.473-.259-.46-.169.242-.135.51" transform="translate(-277.07 -66.722)" fill="#f2efda"/>
            <path id="Trazado_983893" data-name="Trazado 983893" d="M482.206,155.7c.034.268.15.473.259.459s.17-.242.136-.51-.15-.473-.259-.459-.169.242-.135.51" transform="translate(-274.358 -67.924)" fill="#f2efda"/>
            <path id="Trazado_983894" data-name="Trazado 983894" d="M482.436,151.476c-.088.255-.075.491.029.527s.259-.142.347-.4.075-.491-.029-.526-.259.142-.347.4" transform="translate(-274.437 -66.124)" fill="#f2efda"/>
            <path id="Trazado_983895" data-name="Trazado 983895" d="M488.327,159.376c.034.268.15.473.259.459s.17-.242.135-.51-.15-.473-.259-.459-.169.242-.135.51" transform="translate(-277.037 -69.534)" fill="#f2efda"/>
            <path id="Trazado_983896" data-name="Trazado 983896" d="M482.424,159.427c.2.179.425.257.5.175s-.032-.294-.234-.472-.425-.257-.5-.175.033.294.234.472" transform="translate(-274.345 -69.558)" fill="#f2efda"/>
            <path id="Trazado_983897" data-name="Trazado 983897" d="M488.58,156.136c-.088.255-.075.491.029.527s.259-.142.347-.4.075-.491-.029-.526-.259.142-.347.4" transform="translate(-277.126 -68.163)" fill="#f2efda"/>
            <path id="Trazado_983898" data-name="Trazado 983898" d="M487.792,162.211c-.088.255-.075.491.029.527s.259-.142.347-.4.075-.491-.029-.526-.259.142-.347.4" transform="translate(-276.781 -70.822)" fill="#f2efda"/>
            <g id="Grupo_1148697" data-name="Grupo 1148697" transform="translate(211.73 82.009)" opacity="0.31" style="mix-blend-mode: overlay;isolation: isolate">
              <g id="Grupo_1148696" data-name="Grupo 1148696">
                <g id="Grupo_1148695" data-name="Grupo 1148695" clip-path="url(#clip-path-6)">
                  <path id="Trazado_983899" data-name="Trazado 983899" d="M493.453,145.889s-2.98-.106-3.952,0,.043.765,1.4.765,2.762-.17,3.187,1.147,1.275.68.68-.382-.932-1.517-1.317-1.529" transform="translate(-489.117 -145.842)" fill="#fffee6"/>
                </g>
              </g>
            </g>
            <path id="Trazado_983900" data-name="Trazado 983900" d="M291.989,328.772l31.768,10.594,31.768-10.594s1.809,22.221-2.842,38.241H294.831c-4.651-16.02-2.842-38.241-2.842-38.241" transform="translate(-190.955 -143.9)" fill="#f0ebd6"/>
            <path id="Trazado_983901" data-name="Trazado 983901" d="M341.885,350.369s1.007,16.537,3.863,23c3.631-5.426,3.862-22.221,3.862-22.221" transform="translate(-212.945 -153.352)" fill="none" stroke="#9b9478" stroke-miterlimit="10" stroke-width="0.694"/>
            <line id="Línea_616" data-name="Línea 616" y2="3.101" transform="translate(132.802 220.013)" fill="none" stroke="#9b9478" stroke-miterlimit="10" stroke-width="0.694"/>
            <path id="Trazado_983902" data-name="Trazado 983902" d="M299.387,344.015s.125,20.11,3.485,29.67" transform="translate(-194.344 -150.571)" fill="none" stroke="#9b9478" stroke-miterlimit="10" stroke-width="0.694"/>
            <path id="Trazado_983903" data-name="Trazado 983903" d="M396.077,344.015s-.125,20.11-3.485,29.67" transform="translate(-235.139 -150.571)" fill="none" stroke="#9b9478" stroke-miterlimit="10" stroke-width="0.694"/>
            <g id="Grupo_1148700" data-name="Grupo 1148700" transform="translate(100.689 184.872)" style="mix-blend-mode: multiply;isolation: isolate">
              <g id="Grupo_1148699" data-name="Grupo 1148699">
                <g id="Grupo_1148698" data-name="Grupo 1148698" clip-path="url(#clip-path-9)">
                  <path id="Trazado_983904" data-name="Trazado 983904" d="M323.758,339.366l31.768-10.594a153.125,153.125,0,0,1,.2,17.036c-25.112,4.739-52.97.283-64.014-1.909-.259-8.562.273-15.127.273-15.127Z" transform="translate(-291.645 -328.772)" fill="#e0dbc3"/>
                </g>
              </g>
            </g>
            <path id="Trazado_983905" data-name="Trazado 983905" d="M470.939,186.643s7.945-10.465,12.79-12.209,29.262-1.162,29.262-1.162-1.55,7.364-18.023,8.72c-6.783,1.938-12.6,14.341-12.6,14.341s-8.72-5.232-11.433-9.69" transform="translate(-269.431 -75.798)" fill="#fb8f62"/>
            <path id="Trazado_983906" data-name="Trazado 983906" d="M398.923,138.282s9.819,5.957,17.183,23.01,9.5,22.48,9.5,22.48l13.565-16.278s5.62,10.852,17.054,12.984c-24.03,37.014-27.712,41.277-38.564,40.308S402.023,190.1,402.023,190.1s-4-38.4-3.1-51.82" transform="translate(-237.852 -60.524)" fill="#e0dbc3"/>
            <path id="Trazado_983907" data-name="Trazado 983907" d="M359.253,139.8s8.873-3.235,17.916-1.8c6.46,43.552,5.168,39.417,3.1,51.82-1.808,10.077,6.718,48.06,8.01,64.855-30.49,5.943-39.191,5.426-39.191,5.426V146.665Z" transform="translate(-216.098 -60.239)" fill="#f0ebd6"/>
            <path id="Trazado_983908" data-name="Trazado 983908" d="M486.318,177.166a14.542,14.542,0,0,1,4.143-2.731c4.844-1.744,29.262-1.163,29.262-1.163s-1.467,6.949-16.655,8.589c-4.79-2.65-11.861-4.022-16.75-4.695" transform="translate(-276.162 -75.798)" fill="#c6916d"/>
            <path id="Trazado_983909" data-name="Trazado 983909" d="M486.318,177.166a14.542,14.542,0,0,1,4.143-2.731c4.844-1.744,29.262-1.163,29.262-1.163s-1.467,6.949-16.655,8.589c-4.79-2.65-11.861-4.022-16.75-4.695" transform="translate(-276.162 -75.798)" fill="#d86e4a"/>
            <path id="Trazado_983910" data-name="Trazado 983910" d="M465.36,190.23l-6.724,8.069c3.75,4.284,10.341,10.683,18.2,13.474,1.731-2.639,3.585-5.484,5.581-8.559-11.434-2.132-17.054-12.984-17.054-12.984" transform="translate(-264.046 -83.261)" fill="#d3cdb6"/>
            <line id="Línea_617" data-name="Línea 617" x1="11.433" y2="13.372" transform="translate(176.316 123.247)" fill="none" stroke="#9b9478" stroke-miterlimit="10" stroke-width="0.694"/>
            <line id="Línea_618" data-name="Línea 618" y1="3.65" x2="8.914" transform="translate(174.765 128.512)" fill="none" stroke="#9b9478" stroke-miterlimit="10" stroke-width="0.694"/>
            <path id="Trazado_983911" data-name="Trazado 983911" d="M440.878,268.515a12.1,12.1,0,0,0-22.159-.12c2.1,3.447,4.648,5.932,7.659,6.2,5.48.489,9.133-.359,14.5-6.081" transform="translate(-246.575 -114.335)" fill="#d3cdb6"/>
            <path id="Trazado_983912" data-name="Trazado 983912" d="M363.78,175.463a2.284,2.284,0,1,1-2.284-2.284,2.284,2.284,0,0,1,2.284,2.284" transform="translate(-220.529 -75.798)" fill="#72130a"/>
            <path id="Trazado_983913" data-name="Trazado 983913" d="M363.78,211.989A2.284,2.284,0,1,1,361.5,209.7a2.284,2.284,0,0,1,2.284,2.284" transform="translate(-220.529 -91.785)" fill="#72130a"/>
            <path id="Trazado_983914" data-name="Trazado 983914" d="M363.78,248.516a2.284,2.284,0,1,1-2.284-2.284,2.284,2.284,0,0,1,2.284,2.284" transform="translate(-220.529 -107.773)" fill="#72130a"/>
            <path id="Trazado_983915" data-name="Trazado 983915" d="M363.78,285.043a2.284,2.284,0,1,1-2.284-2.284,2.284,2.284,0,0,1,2.284,2.284" transform="translate(-220.529 -123.76)" fill="#72130a"/>
            <path id="Trazado_983916" data-name="Trazado 983916" d="M363.78,321.569a2.284,2.284,0,1,1-2.284-2.284,2.284,2.284,0,0,1,2.284,2.284" transform="translate(-220.529 -139.747)" fill="#72130a"/>
            <path id="Trazado_983917" data-name="Trazado 983917" d="M399.026,138.282s5.344,32.093,4.739,41.311-1.638,10.509-1.638,10.509" transform="translate(-237.955 -60.524)" fill="none" stroke="#9b9478" stroke-miterlimit="10" stroke-width="0.694"/>
            <path id="Trazado_983918" data-name="Trazado 983918" d="M529.031,173.178s-1.154,3.834-9.491,4.192" transform="translate(-290.703 -75.798)" fill="none" stroke="#931c0f" stroke-miterlimit="10" stroke-width="0.694"/>
            <path id="Trazado_983919" data-name="Trazado 983919" d="M523.734,171.748H460.317a.751.751,0,0,1-.751-.751v-2.761a.751.751,0,0,1,.751-.751h63.417a.751.751,0,0,1,.751.751V171a.751.751,0,0,1-.751.751" transform="translate(-264.453 -73.306)" fill="#c1bca8"/>
            <path id="Trazado_983920" data-name="Trazado 983920" d="M390.3,207s3.9,15.3-10.9,37.235c4.062-10.879,10-27.674,10.9-37.235" transform="translate(-229.363 -90.603)" fill="#e0dbc3"/>
            <path id="Trazado_983921" data-name="Trazado 983921" d="M368.3,145.486a53.455,53.455,0,0,1,17.879-.864" transform="translate(-224.508 -63.116)" fill="none" stroke="#9b9478" stroke-miterlimit="10" stroke-width="0.694"/>
            <path id="Trazado_983922" data-name="Trazado 983922" d="M194.505,186.643s-7.945-10.465-12.79-12.209-29.262-1.162-29.262-1.162,1.55,7.364,18.023,8.72c6.783,1.938,12.6,14.341,12.6,14.341s8.72-5.232,11.433-9.69" transform="translate(-130.033 -75.798)" fill="#fb8f62"/>
            <path id="Trazado_983923" data-name="Trazado 983923" d="M254.552,138.282s-9.819,5.957-17.183,23.01-9.5,22.48-9.5,22.48l-13.565-16.278s-5.62,10.852-17.054,12.984c24.03,37.014,27.712,41.277,38.564,40.308S251.452,190.1,251.452,190.1s4-38.4,3.1-51.82" transform="translate(-149.642 -60.524)" fill="#e0dbc3"/>
            <path id="Trazado_983924" data-name="Trazado 983924" d="M308.419,139.8s-8.873-3.235-17.916-1.8c-6.46,43.552-5.168,39.417-3.1,51.82,1.808,10.077-6.719,48.06-8.01,64.855,30.49,5.943,39.191,5.426,39.191,5.426V146.665Z" transform="translate(-185.593 -60.239)" fill="#f0ebd6"/>
            <path id="Trazado_983925" data-name="Trazado 983925" d="M339.765,31.369s2.713,5.813,12.4,3.115,3.417-9.869-7.3-10.838c0-7.558-5.857-11.567-10.661-12.6-9.05-1.938-13.623,3.488-16.143,6.4-8.333-3.682-16.666-1.55-16.278,6.589-8.139.775-9.883,10.271-1.162,9.883s12.5-4.457,12.5-4.457Z" transform="translate(-192.351 -4.657)" fill="#e0dbc3"/>
            <path id="Trazado_983926" data-name="Trazado 983926" d="M185.886,177.166a14.533,14.533,0,0,0-4.143-2.731c-4.844-1.744-29.262-1.163-29.262-1.163s1.467,6.949,16.655,8.589c4.79-2.65,11.861-4.022,16.75-4.695" transform="translate(-130.045 -75.798)" fill="#d86e4a"/>
            <path id="Trazado_983927" data-name="Trazado 983927" d="M366.241,31.37c10.8-1.565,6.684-5.592-1.605-7.529-.73-10.158-12.185-12.813-12.195-12.815a15.57,15.57,0,0,1,6.977.025c4.8,1.029,10.661,5.038,10.661,12.6,10.719.969,16.992,8.139,7.3,10.838-7.24,2.016-10.584-.72-11.812-2.231a5.315,5.315,0,0,1,.672-.883" transform="translate(-217.565 -4.658)" fill="#c1bca8"/>
            <path id="Trazado_983928" data-name="Trazado 983928" d="M364.141,49.6l2.713-10.8s-6.939-8.139-18.1-8.139V43.249Z" transform="translate(-215.951 -13.423)" fill="#f0ebd6"/>
            <path id="Trazado_983929" data-name="Trazado 983929" d="M305.442,28.36c-3.152,1.208-9.491,3.546-9.484,8.2-2.772-2.552-.263-8.011,5.825-8.59-.387-8.139,7.945-10.271,16.278-6.589,0,0-11.868-4.263-12.619,6.977" transform="translate(-192.352 -8.596)" fill="#f0ebd6"/>
            <path id="Trazado_983930" data-name="Trazado 983930" d="M352.765,38.806a24.2,24.2,0,0,0-36.2,0" transform="translate(-201.863 -13.423)" fill="none" stroke="#c1bca8" stroke-miterlimit="10" stroke-width="0.694"/>
            <line id="Línea_619" data-name="Línea 619" x1="1.714" y2="7.896" transform="translate(145.085 21.314)" fill="none" stroke="#c1bca8" stroke-miterlimit="10" stroke-width="0.694"/>
            <line id="Línea_620" data-name="Línea 620" x1="0.787" y2="5.693" transform="translate(137.519 17.903)" fill="none" stroke="#c1bca8" stroke-miterlimit="10" stroke-width="0.694"/>
            <line id="Línea_621" data-name="Línea 621" x2="1.088" y2="5.696" transform="translate(122.186 19.812)" fill="none" stroke="#c1bca8" stroke-miterlimit="10" stroke-width="0.694"/>
            <path id="Trazado_983931" data-name="Trazado 983931" d="M319.277,49.6l-2.713-10.8s6.939-8.139,18.1-8.139V43.249Z" transform="translate(-201.863 -13.423)" fill="#f0ebd6"/>
            <path id="Trazado_983932" data-name="Trazado 983932" d="M335.485,115.271l5.5.675,5.5-.675s-2.166,9.9,4.473,14.739l-9.977,11.139-9.977-11.139c6.639-4.838,4.473-14.739,4.473-14.739" transform="translate(-208.186 -50.453)" fill="#fb8f62"/>
            <path id="Trazado_983933" data-name="Trazado 983933" d="M341.283,118.159l3.681-2.276.52.064,5.5-.675a20,20,0,0,0,.047,7.527,19.145,19.145,0,0,1-9.752-4.639" transform="translate(-212.682 -50.453)" fill="#661420"/>
            <path id="Trazado_983934" data-name="Trazado 983934" d="M348.754,37.43s22.2-1.079,16.427,28.026c-5.7,5.176-5.7,4.154-5.7,4.154l-10.727-21.3Z" transform="translate(-215.952 -16.38)" fill="#591b1b"/>
            <path id="Trazado_983935" data-name="Trazado 983935" d="M377.277,89.824c-1.1,2.47-3.459,3.818-5.271,3.012s-2.39-3.462-1.292-5.931,3.459-3.818,5.271-3.012,2.39,3.462,1.291,5.932" transform="translate(-225.32 -36.617)" fill="#d86e4a"/>
            <path id="Trazado_983936" data-name="Trazado 983936" d="M378.137,84.767A5.1,5.1,0,0,0,374.2,88c-.96,2.158-.64,4.458.666,5.542a5.1,5.1,0,0,0,3.936-3.233c.96-2.158.64-4.458-.666-5.542" transform="translate(-226.846 -37.102)" fill="#fb8f62"/>
            <path id="Trazado_983937" data-name="Trazado 983937" d="M335.221,37.43s-22.2-1.079-16.427,28.026c5.7,5.176,5.7,4.154,5.7,4.154l10.727-21.3Z" transform="translate(-202.419 -16.38)" fill="#591b1b"/>
            <path id="Trazado_983938" data-name="Trazado 983938" d="M314.256,89.824c1.1,2.47,3.459,3.818,5.271,3.012s2.39-3.462,1.292-5.931-3.459-3.818-5.271-3.012-2.39,3.462-1.292,5.932" transform="translate(-200.609 -36.617)" fill="#d86e4a"/>
            <path id="Trazado_983939" data-name="Trazado 983939" d="M314.921,84.767A5.1,5.1,0,0,1,318.857,88c.96,2.158.64,4.458-.666,5.542a5.1,5.1,0,0,1-3.936-3.233c-.96-2.158-.64-4.458.666-5.542" transform="translate(-200.608 -37.102)" fill="#fb8f62"/>
            <path id="Trazado_983940" data-name="Trazado 983940" d="M338.474,53.042s14.4-.075,13.127,17.777c-1.125,15.152-1.725,13.2-8.926,20.1a7.555,7.555,0,0,1-8.4,0c-7.2-6.9-7.8-4.951-8.926-20.1-1.275-17.852,13.127-17.777,13.127-17.777" transform="translate(-205.672 -23.216)" fill="#fb8f62"/>
            <path id="Trazado_983941" data-name="Trazado 983941" d="M335.968,78.216a35.012,35.012,0,0,0-5.851-.928,6,6,0,0,0-3.207,1.378A4.576,4.576,0,0,1,330,76.36c2.11-.338,5.963.647,5.963.647Z" transform="translate(-206.391 -33.391)" fill="#591b1b"/>
            <g id="Grupo_1148703" data-name="Grupo 1148703" transform="translate(121.025 52.053)" opacity="0.56">
              <g id="Grupo_1148702" data-name="Grupo 1148702">
                <g id="Grupo_1148701" data-name="Grupo 1148701" clip-path="url(#clip-path-10)">
                  <path id="Trazado_983942" data-name="Trazado 983942" d="M327.81,94.145c0,.87,1.4,1.575,3.137,1.575s3.136-.705,3.136-1.575-1.4-1.575-3.136-1.575-3.137.705-3.137,1.575" transform="translate(-327.81 -92.57)" fill="#a5380e"/>
                </g>
              </g>
            </g>
            <g id="Grupo_1148706" data-name="Grupo 1148706" transform="translate(138.306 52.053)" opacity="0.56">
              <g id="Grupo_1148705" data-name="Grupo 1148705">
                <g id="Grupo_1148704" data-name="Grupo 1148704" clip-path="url(#clip-path-10)">
                  <path id="Trazado_983943" data-name="Trazado 983943" d="M364.815,94.145c0,.87-1.4,1.575-3.137,1.575s-3.136-.705-3.136-1.575,1.4-1.575,3.136-1.575,3.137.705,3.137,1.575" transform="translate(-358.542 -92.57)" fill="#a5380e"/>
                </g>
              </g>
            </g>
            <g id="Grupo_1148709" data-name="Grupo 1148709" transform="translate(119.595 30.053)" opacity="0.23" style="mix-blend-mode: overlay;isolation: isolate">
              <g id="Grupo_1148708" data-name="Grupo 1148708">
                <g id="Grupo_1148707" data-name="Grupo 1148707" clip-path="url(#clip-path-12)">
                  <path id="Trazado_983944" data-name="Trazado 983944" d="M333.9,90.743c-6.848-6.481-7.447-4.862-8.552-19.747-.973-13.626,7.186-16.807,11.1-17.55L348.218,66.5S350.01,78.22,345.75,84.02c-3.709,5.05-7.234,7.724-11.85,6.723" transform="translate(-325.267 -53.445)" fill="#efeee4"/>
                </g>
              </g>
            </g>
            <path id="Trazado_983945" data-name="Trazado 983945" d="M331.674,41.963s-2.248,9.38,9.529,15.831,13.174,9.334,13.174,9.334,4.153-9.485-3.723-16.986-18.98-8.18-18.98-8.18" transform="translate(-208.401 -18.367)" fill="#591b1b"/>
            <path id="Trazado_983946" data-name="Trazado 983946" d="M344.778,104.9a24.436,24.436,0,0,0,4.308-.384.45.45,0,0,1,.419.737,6.159,6.159,0,0,1-9.455,0,.45.45,0,0,1,.42-.737,24.441,24.441,0,0,0,4.308.384" transform="translate(-212.094 -45.742)" fill="#efeee4"/>
            <path id="Trazado_983947" data-name="Trazado 983947" d="M346.554,91.11v5.649l2.85-.9" transform="translate(-214.989 -39.878)" fill="none" stroke="#75413d" stroke-miterlimit="10" stroke-width="0.606"/>
            <path id="Trazado_983948" data-name="Trazado 983948" d="M335.988,86.067a11.912,11.912,0,0,0-7.576-1.229,5.246,5.246,0,0,1,7.576,1.229" transform="translate(-207.048 -36.652)" fill="#591b1b"/>
            <path id="Trazado_983949" data-name="Trazado 983949" d="M354.49,78.216a35,35,0,0,1,5.851-.928,6,6,0,0,1,3.207,1.378,4.576,4.576,0,0,0-3.094-2.306c-2.11-.338-5.963.647-5.963.647Z" transform="translate(-218.462 -33.391)" fill="#591b1b"/>
            <path id="Trazado_983950" data-name="Trazado 983950" d="M355.622,86.067a5.246,5.246,0,0,1,7.576-1.229,11.912,11.912,0,0,0-7.576,1.229" transform="translate(-218.958 -36.652)" fill="#591b1b"/>
            <path id="Trazado_983951" data-name="Trazado 983951" d="M331.808,41.963c9.616.72,20.369,5.158,22.757,15.462a20.173,20.173,0,0,1-.054,9.7,20.548,20.548,0,0,0-2.16-14.04c-4.186-7.191-12.763-9.941-20.543-11.125" transform="translate(-208.535 -18.367)" fill="#a35548"/>
            <path id="Trazado_983952" data-name="Trazado 983952" d="M333.549,50.883a15.389,15.389,0,0,1-1.775-8.92,61.3,61.3,0,0,0,1.775,8.92" transform="translate(-208.501 -18.367)" fill="#a35548"/>
            <path id="Trazado_983953" data-name="Trazado 983953" d="M328.374,127.893s4.988,2.273,8.213,2.675l3.225,9.51V148.8s-9.777-6.675-11.439-12.349c-.111-5.286,0-8.558,0-8.558" transform="translate(-207.01 -55.977)" fill="#f0ebd6"/>
            <path id="Trazado_983954" data-name="Trazado 983954" d="M360.192,127.893s-4.988,2.273-8.213,2.675l-3.225,9.51V148.8s9.777-6.675,11.439-12.349c.111-5.286,0-8.558,0-8.558" transform="translate(-215.951 -55.977)" fill="#f0ebd6"/>
            <path id="Trazado_983955" data-name="Trazado 983955" d="M214.309,190.23l6.724,8.069c-3.749,4.284-10.341,10.683-18.2,13.474-1.731-2.639-3.585-5.484-5.581-8.559,11.434-2.132,17.054-12.984,17.054-12.984" transform="translate(-149.642 -83.261)" fill="#d3cdb6"/>
            <line id="Línea_622" data-name="Línea 622" x2="11.433" y2="13.372" transform="translate(78.231 123.247)" fill="none" stroke="#9b9478" stroke-miterlimit="10" stroke-width="0.694"/>
            <line id="Línea_623" data-name="Línea 623" x1="8.914" y1="3.65" transform="translate(82.301 128.512)" fill="none" stroke="#9b9478" stroke-miterlimit="10" stroke-width="0.694"/>
            <path id="Trazado_983956" data-name="Trazado 983956" d="M240.051,268.515a12.1,12.1,0,0,1,22.158-.12c-2.1,3.447-4.647,5.932-7.659,6.2-5.48.489-9.133-.359-14.5-6.081" transform="translate(-168.374 -114.335)" fill="#d3cdb6"/>
            <path id="Trazado_983957" data-name="Trazado 983957" d="M340.592,132.081l3.225,9.51v8.721s-.877-.6-2.147-1.588c.681-7.6-4.195-17.375-4.195-17.375a18.876,18.876,0,0,0,3.116.732" transform="translate(-211.015 -57.49)" fill="#c1411a"/>
            <path id="Trazado_983958" data-name="Trazado 983958" d="M351.979,132.081l-3.225,9.51v8.721s.877-.6,2.147-1.588c-.682-7.6,4.195-17.375,4.195-17.375a18.876,18.876,0,0,1-3.116.732" transform="translate(-215.952 -57.49)" fill="#c1411a"/>
            <path id="Trazado_983959" data-name="Trazado 983959" d="M330.841,175.463a2.284,2.284,0,1,0,2.284-2.284,2.284,2.284,0,0,0-2.284,2.284" transform="translate(-208.111 -75.798)" fill="#72130a"/>
            <path id="Trazado_983960" data-name="Trazado 983960" d="M330.841,211.989a2.284,2.284,0,1,0,2.284-2.284,2.284,2.284,0,0,0-2.284,2.284" transform="translate(-208.111 -91.785)" fill="#72130a"/>
            <path id="Trazado_983961" data-name="Trazado 983961" d="M330.841,248.516a2.284,2.284,0,1,0,2.284-2.284,2.284,2.284,0,0,0-2.284,2.284" transform="translate(-208.111 -107.773)" fill="#72130a"/>
            <path id="Trazado_983962" data-name="Trazado 983962" d="M330.841,285.043a2.284,2.284,0,1,0,2.284-2.284,2.284,2.284,0,0,0-2.284,2.284" transform="translate(-208.111 -123.76)" fill="#72130a"/>
            <path id="Trazado_983963" data-name="Trazado 983963" d="M330.841,321.569a2.284,2.284,0,1,0,2.284-2.284,2.284,2.284,0,0,0-2.284,2.284" transform="translate(-208.111 -139.747)" fill="#72130a"/>
            <path id="Trazado_983964" data-name="Trazado 983964" d="M280.138,333.566c15.978,5.3,32.691,5.871,38.445,5.894,5.754-.022,22.467-.589,38.445-5.894.332,2.535.592,4.853.746,6.865-30.49,5.943-39.191,5.426-39.191,5.426s-8.7.517-39.191-5.426c.155-2.011.414-4.33.746-6.865" transform="translate(-185.593 -145.998)" fill="#c1411a"/>
            <path id="Trazado_983965" data-name="Trazado 983965" d="M295.425,138.282s-5.344,32.093-4.739,41.311,1.638,10.509,1.638,10.509" transform="translate(-190.515 -60.524)" fill="none" stroke="#9b9478" stroke-miterlimit="10" stroke-width="0.694"/>
            <path id="Trazado_983966" data-name="Trazado 983966" d="M161.758,173.178s1.154,3.834,9.491,4.192" transform="translate(-134.106 -75.798)" fill="none" stroke="#931c0f" stroke-miterlimit="10" stroke-width="0.694"/>
            <path id="Trazado_983967" data-name="Trazado 983967" d="M175.387,119.162a.579.579,0,0,1,.439-.96h7.7a.579.579,0,0,1,.438.96,8.492,8.492,0,0,0-2.155,6.792c-1.744-.193-2.132.485-2.132.485s-.387-.678-2.132-.485a8.49,8.49,0,0,0-2.155-6.792" transform="translate(-140.007 -51.736)" fill="#f0ebd6"/>
            <path id="Trazado_983968" data-name="Trazado 983968" d="M182.952,125.954c-1.744-.194-2.132.485-2.132.485s-.387-.679-2.132-.485a8.5,8.5,0,0,0-.829-4.853,4.263,4.263,0,0,0,3.639-1.445,1.959,1.959,0,0,0,.64-1.454h2.53a.579.579,0,0,1,.439.96,8.49,8.49,0,0,0-2.155,6.792" transform="translate(-141.153 -51.736)" fill="#c1bca8"/>
            <path id="Trazado_983969" data-name="Trazado 983969" d="M125.291,171.748h60.656a2.132,2.132,0,0,0,0-4.263H125.291a2.132,2.132,0,1,0,0,4.263" transform="translate(-117.211 -73.306)" fill="#c1bca8"/>
            <path id="Trazado_983970" data-name="Trazado 983970" d="M140.779,149.686a23.831,23.831,0,0,1,47.623,0Z" transform="translate(-124.924 -55.507)" fill="#f0ebd6"/>
            <g id="Grupo_1148712" data-name="Grupo 1148712" transform="translate(39.667 71.311)" opacity="0.48">
              <g id="Grupo_1148711" data-name="Grupo 1148711">
                <g id="Grupo_1148710" data-name="Grupo 1148710" clip-path="url(#clip-path-13)">
                  <path id="Trazado_983971" data-name="Trazado 983971" d="M183.125,126.818a23.834,23.834,0,0,1,23.812,22.868H195.915c0-19.38-12.79-22.868-12.79-22.868" transform="translate(-183.125 -126.818)" fill="#c1bca8"/>
                </g>
              </g>
            </g>
            <path id="Trazado_983972" data-name="Trazado 983972" d="M193.636,130.265c6.649,1.688,11.865,7.511,13.674,14.021a26.954,26.954,0,0,1,.569,2.839c-.41-.881-.706-1.785-1.111-2.644a29.053,29.053,0,0,0-13.132-14.216" transform="translate(-148.058 -57.015)" fill="#f0ebd6"/>
            <path id="Trazado_983973" data-name="Trazado 983973" d="M162.067,127.059c-.173.068-13.665,5.4-14.724,22.732h-6.564a23.836,23.836,0,0,1,21.288-22.732" transform="translate(-124.924 -55.612)" fill="#f7f5eb"/>
            <path id="Trazado_983974" data-name="Trazado 983974" d="M299.026,207s-3.9,15.3,10.9,37.235c-4.062-10.879-10-27.674-10.9-37.235" transform="translate(-193.984 -90.603)" fill="#e0dbc3"/>
            <path id="Trazado_983975" data-name="Trazado 983975" d="M315.956,145.486a53.455,53.455,0,0,0-17.879-.864" transform="translate(-193.771 -63.116)" fill="none" stroke="#9b9478" stroke-miterlimit="10" stroke-width="0.694"/>
            <rect id="Rectángulo_406364" data-name="Rectángulo 406364" width="4.294" height="104.232" transform="translate(130.655 91.235)" fill="#c1411a"/>
            <line id="Línea_624" data-name="Línea 624" x1="64.919" transform="translate(195.113 95.723)" fill="none" stroke="#f0ebd6" stroke-miterlimit="10" stroke-width="1.043"/>
            <path id="Trazado_983976" data-name="Trazado 983976" d="M176.948,79.38s-13.45-14.76-5.055-34.013a6.324,6.324,0,1,1,10.846,6.35,32.278,32.278,0,0,0-5.792,27.663" transform="translate(-137.335 -18.209)" fill="#c1411a"/>
            <path id="Trazado_983977" data-name="Trazado 983977" d="M189.184,88.615s-1.866-11.884,8.263-19.607a4.2,4.2,0,1,1,3.983,7.3c-3.509,1.293-8.277,4.492-12.246,12.307" transform="translate(-146.05 -29.837)" fill="#300d0d"/>
            <path id="Trazado_983978" data-name="Trazado 983978" d="M164.187,91.181A15.529,15.529,0,0,1,153.332,80.6a2.992,2.992,0,1,1,5.879-.742c-.056,2.664.825,6.659,4.975,11.327" transform="translate(-130.369 -33.624)" fill="#d2cbac"/>
          </g>
        </g>
        <g id="Grupo_1148716" data-name="Grupo 1148716">
          <g id="Grupo_1148715" data-name="Grupo 1148715" clip-path="url(#clip-path)">
            <path id="Trazado_983979" data-name="Trazado 983979" d="M433.2,76.967c0,3.728-.623,6.749-1.392,6.749s-1.391-3.021-1.391-6.749.623-6.749,1.391-6.749,1.392,3.022,1.392,6.749" transform="translate(-188.391 -30.734)" fill="#c6be9b"/>
            <path id="Trazado_983980" data-name="Trazado 983980" d="M427.644,79.745c3.728,0,6.749.623,6.749,1.392s-3.021,1.391-6.749,1.391-6.749-.622-6.749-1.391,3.021-1.392,6.749-1.392" transform="translate(-184.221 -34.903)" fill="#c6be9b"/>
            <path id="Trazado_983981" data-name="Trazado 983981" d="M430.877,139.772l.884-4.808.883-4.809,3.723,3.17,3.722,3.17-4.606,1.639Z" transform="translate(-188.59 -56.967)" fill="#d85f3f"/>
          </g>
        </g>
      </g>
    </g>
  </g>
</svg>
