<svg xmlns="http://www.w3.org/2000/svg" xmlns:xlink="http://www.w3.org/1999/xlink" width="108" height="108" viewBox="0 0 108 108">
  <defs>
    <filter id="Trazado_982804" x="0" y="0" width="108" height="108" filterUnits="userSpaceOnUse">
      <feOffset dy="3" input="SourceAlpha"/>
      <feGaussianBlur stdDeviation="3" result="blur"/>
      <feFlood flood-opacity="0.161"/>
      <feComposite operator="in" in2="blur"/>
      <feComposite in="SourceGraphic"/>
    </filter>
    <linearGradient id="linear-gradient" x1="-0.092" y1="0.076" x2="0.811" y2="0.819" gradientUnits="objectBoundingBox">
      <stop offset="0"/>
      <stop offset="1" stop-opacity="0"/>
    </linearGradient>
  </defs>
  <g id="number-one_3840653" transform="translate(2.975 -0.025)">
    <g transform="matrix(1, 0, 0, 1, -2.98, 0.02)" filter="url(#Trazado_982804)">
      <path id="Trazado_982804-2" data-name="Trazado 982804" d="M45,0A45,45,0,1,1,0,45,45,45,0,0,1,45,0Z" transform="translate(9 6)" fill="#f1c112"/>
    </g>
    <path id="Trazado_982802" data-name="Trazado 982802" d="M257.014,165.567l-34.256-34.256H203.925V141.53l6.685,6.685v28.191l19.461,19.46A45.309,45.309,0,0,0,257.014,165.567Z" transform="translate(-162.317 -102.833)" opacity="0.49" fill="url(#linear-gradient)"/>
    <path id="Trazado_982803" data-name="Trazado 982803" d="M222.758,131.311V176.4H210.61V141.53h-6.685V131.311Z" transform="translate(-162.317 -102.833)" fill="#fff"/>
  </g>
</svg>
