<svg xmlns="http://www.w3.org/2000/svg" xmlns:xlink="http://www.w3.org/1999/xlink" width="348" height="269.381" viewBox="0 0 348 269.381">
  <defs>
    <clipPath id="clip-path">
      <rect id="Rectángulo_406300" data-name="Rectángulo 406300" width="71.293" height="15.951" fill="none"/>
    </clipPath>
    <clipPath id="clip-path-2">
      <rect id="Rectángulo_406301" data-name="Rectángulo 406301" width="20.284" height="15.887" fill="none"/>
    </clipPath>
    <clipPath id="clip-path-3">
      <rect id="Rectángulo_406302" data-name="Rectángulo 406302" width="7.719" height="3.827" fill="none"/>
    </clipPath>
    <clipPath id="clip-path-4">
      <rect id="Rectángulo_406303" data-name="Rectángulo 406303" width="2.461" height="3.226" fill="none"/>
    </clipPath>
    <clipPath id="clip-path-5">
      <rect id="Rectángulo_406305" data-name="Rectángulo 406305" width="4.728" height="2.809" fill="none"/>
    </clipPath>
    <clipPath id="clip-path-6">
      <rect id="Rectángulo_406306" data-name="Rectángulo 406306" width="31.39" height="40.717" fill="none"/>
    </clipPath>
  </defs>
  <g id="Grupo_1148723" data-name="Grupo 1148723" transform="translate(-517.051 -6862.88)">
    <rect id="Rectángulo_406369" data-name="Rectángulo 406369" width="348" height="86" rx="43" transform="translate(517.051 6939)" fill="#fff" opacity="0.63"/>
    <g id="Grupo_1148721" data-name="Grupo 1148721" transform="translate(550.021 6862.88)">
      <path id="Trazado_983400" data-name="Trazado 983400" d="M117.311,119.339s-1.308-2.286-9.922-2.077c-4.668,1.773,2.5,6.259,2.5,6.259s6.025-2.419,7.425-4.183" transform="translate(49.824 -46.673)" fill="#ada689"/>
      <path id="Trazado_983401" data-name="Trazado 983401" d="M88.394,345.881s2.7,49.66,5.4,61.135h66.243l-.415-56.336Z" transform="translate(17.533 -137.686)" fill="#f0ebd6"/>
      <path id="Trazado_983402" data-name="Trazado 983402" d="M160.609,353.68s.176,25.664,13.326,35.68" transform="translate(-39.627 -140.791)" fill="none" stroke="#9b9478" stroke-miterlimit="10" stroke-width="0.787"/>
      <line id="Línea_589" data-name="Línea 589" x2="6.989" y2="54.876" transform="translate(130.015 214.455)" fill="none" stroke="#9b9478" stroke-miterlimit="10" stroke-width="0.787"/>
      <line id="Línea_590" data-name="Línea 590" x2="2.699" y2="56.441" transform="translate(168.847 212.89)" fill="none" stroke="#9b9478" stroke-miterlimit="10" stroke-width="0.787"/>
      <g id="Grupo_1148559" data-name="Grupo 1148559" transform="translate(105.927 208.195)" style="mix-blend-mode: multiply;isolation: isolate">
        <g id="Grupo_1148558" data-name="Grupo 1148558" transform="translate(0 0)">
          <g id="Grupo_1148557" data-name="Grupo 1148557" clip-path="url(#clip-path)">
            <path id="Trazado_983403" data-name="Trazado 983403" d="M160.271,359.658c-34.944,5.651-60.96-1.144-70.732-4.25-.355-5.731-.562-9.527-.562-9.527l71.228,4.8Z" transform="translate(-88.978 -345.881)" fill="#e0dbc3"/>
          </g>
        </g>
      </g>
      <path id="Trazado_983404" data-name="Trazado 983404" d="M65.349,297.351,42.506,317.173l5.4,12.326L75.732,314.46s2.994-11.061-10.383-17.109" transform="translate(129.041 -118.368)" fill="#fb8f62"/>
      <path id="Trazado_983405" data-name="Trazado 983405" d="M84.134,326.132l-15.985,8.639-5.4-12.326L76.4,310.6c.721,5.08,2.69,11.322,7.73,15.536" transform="translate(108.798 -123.64)" fill="#d86e4a"/>
      <path id="Trazado_983406" data-name="Trazado 983406" d="M306.394,196.714s-16.2-18.779-18.482-22.117-2.076-5.425-8.722-5.842-37.794-2.086-37.794-2.086,4.568,7.3,15.367,8.555,17.651,2.921,20.766,8.346S292.9,212.363,292.9,212.363s15.159,3.13,13.5-15.649" transform="translate(-220.61 -66.346)" fill="#fb8f62"/>
      <path id="Trazado_983407" data-name="Trazado 983407" d="M227.311,136.509s-11.214,7.094-18.9,23.578-14.329,33.384-14.329,33.384-5.191-8.555-8.306-8.763c.623,9.6-6.645,15.858-13.5,15.649,1.869,9.181,14.951,26.916,22.427,30.046s17.028-7.094,19.1-13.563,13.5-80.331,13.5-80.331" transform="translate(-99.995 -54.34)" fill="#e0dbc3"/>
      <line id="Línea_591" data-name="Línea 591" x2="6.853" y2="8.346" transform="translate(94.09 139.131)" fill="none" stroke="#9b9478" stroke-miterlimit="10" stroke-width="0.787"/>
      <line id="Línea_592" data-name="Línea 592" x1="6.248" y1="1.654" transform="translate(97.186 142.902)" fill="none" stroke="#9b9478" stroke-miterlimit="10" stroke-width="0.787"/>
      <path id="Trazado_983408" data-name="Trazado 983408" d="M245.728,216.584c1.617.108,3.793,2.466,5.513,4.708v0s2.337,15.223-14.981,20.487a35.154,35.154,0,0,1-4.03-9.55c6.853.209,14.121-6.051,13.5-15.649" transform="translate(-159.944 -86.216)" fill="#d3cdb6"/>
      <path id="Trazado_983409" data-name="Trazado 983409" d="M215.339,270.313a12.188,12.188,0,0,1,11.705,8.866c-3.84,3.719-8.769,6.27-13.027,4.487-2.582-1.081-5.832-3.9-9.058-7.516a12.154,12.154,0,0,1,10.38-5.838" transform="translate(-119.304 -107.604)" fill="#d3cdb6"/>
      <path id="Trazado_983410" data-name="Trazado 983410" d="M125.948,138.387s-6.421-1.878-20.542-1.878C89.624,161.756,79.657,240.835,79.034,264.831c39.87,15.023,81.61,2.3,81.61,2.3s-5.4-106.831.623-128.53c-14.952-1.669-35.319-.209-35.319-.209" transform="translate(21.909 -54.34)" fill="#f0ebd6"/>
      <path id="Trazado_983411" data-name="Trazado 983411" d="M146.78,272.561q-2.742-.228-5.546-.582c.3-95.407,16.451-131.263,16.451-131.263s1.368-1.829,2.178-2l.343.063c.3.241.369,1.094-.083,3.063C145.77,182.915,146.505,258.39,146.78,272.561" transform="translate(-14.534 -55.219)" fill="#c1411a"/>
      <path id="Trazado_983412" data-name="Trazado 983412" d="M80.357,339.65c10.572,3.289,42.617,11.254,81.012,1.607.191,4.262.316,6.734.316,6.734s-41.74,12.728-81.611-2.3c.046-1.738.141-3.772.283-6.046" transform="translate(20.869 -135.206)" fill="#c1411a"/>
      <path id="Trazado_983413" data-name="Trazado 983413" d="M134.5,161.1a2.049,2.049,0,1,0,2.049-2.059A2.054,2.054,0,0,0,134.5,161.1" transform="translate(11.355 -63.31)" fill="#72130a"/>
      <path id="Trazado_983414" data-name="Trazado 983414" d="M142.426,199.322a2.049,2.049,0,1,0,2.049-2.059,2.054,2.054,0,0,0-2.049,2.059" transform="translate(-1.323 -78.525)" fill="#72130a"/>
      <path id="Trazado_983415" data-name="Trazado 983415" d="M145.633,237.543a2.049,2.049,0,1,0,2.049-2.059,2.054,2.054,0,0,0-2.049,2.059" transform="translate(-6.451 -93.74)" fill="#72130a"/>
      <path id="Trazado_983416" data-name="Trazado 983416" d="M149.267,275.765a2.049,2.049,0,1,0,2.049-2.059,2.053,2.053,0,0,0-2.049,2.059" transform="translate(-12.263 -108.955)" fill="#72130a"/>
      <path id="Trazado_983417" data-name="Trazado 983417" d="M151.509,313.986a2.049,2.049,0,1,0,2.049-2.059,2.054,2.054,0,0,0-2.049,2.059" transform="translate(-15.847 -124.17)" fill="#72130a"/>
      <path id="Trazado_983418" data-name="Trazado 983418" d="M7.017,139.976s13.705,3.547,25.75,27.959,21.6,52.372,21.6,56.128-11.836,24.2-25.749,27.751c-1.038-11.267-10.383-17.11-10.383-17.11s-1.661-5.834,1.453-10.115A161.991,161.991,0,0,0,4.176,190.8S-6.9,156.251,7.017,139.976" transform="translate(176.159 -55.721)" fill="#e0dbc3"/>
      <line id="Línea_593" data-name="Línea 593" y1="10.541" x2="8.099" transform="translate(195.844 158.327)" fill="none" stroke="#9b9478" stroke-miterlimit="10" stroke-width="0.787"/>
      <line id="Línea_594" data-name="Línea 594" x1="4.982" y2="13.678" transform="translate(197.922 152.485)" fill="none" stroke="#9b9478" stroke-miterlimit="10" stroke-width="0.787"/>
      <path id="Trazado_983419" data-name="Trazado 983419" d="M50,307.56a22.489,22.489,0,0,1-5.686,2.4c-1.038-11.267-10.383-17.109-10.383-17.109a14.66,14.66,0,0,1-.065-6.812c4.8,1.553,13.811,6.45,16.134,21.525" transform="translate(160.455 -113.863)" fill="#d3cdb6"/>
      <path id="Trazado_983420" data-name="Trazado 983420" d="M68.341,206.58s-.793-21.886,6.995-26.5-6.995,26.5-6.995,26.5" transform="translate(111.994 -71.501)" fill="#d3cdb6"/>
      <path id="Trazado_983421" data-name="Trazado 983421" d="M89.8,206.6a615.6,615.6,0,0,0-.655,82.886" transform="translate(87.954 -82.244)" fill="none" stroke="#9b9478" stroke-miterlimit="10" stroke-width="0.787"/>
      <path id="Trazado_983422" data-name="Trazado 983422" d="M82.593,143.426s12.882-.391,21.035.841" transform="translate(77.416 -57.071)" fill="none" stroke="#9b9478" stroke-miterlimit="10" stroke-width="0.787"/>
      <path id="Trazado_983423" data-name="Trazado 983423" d="M162.293,141.207a143.987,143.987,0,0,0-18.5-.62" transform="translate(-17.909 -55.946)" fill="none" stroke="#9b9478" stroke-miterlimit="10" stroke-width="0.787"/>
      <path id="Trazado_983424" data-name="Trazado 983424" d="M86.142,139.976S72.256,155.241,83.3,190.8" transform="translate(97.034 -55.721)" fill="none" stroke="#9b9478" stroke-miterlimit="10" stroke-width="0.787"/>
      <path id="Trazado_983425" data-name="Trazado 983425" d="M93.156,46.459s7.372,5.79,13.29,2.417c9.241,4.138,13.187-6.816,5.3-15.163s-12.979-6.259-12.979-6.259S100.736,12.432,81.631,14.1C79.243,4.816,67.1,6.693,64.707,9.719s-3.43,6.572,3.165,8.763c-2.75,7.511-.155,9.181,7.01,10.954s17.443,11.51,18.274,17.022" transform="translate(76.887 -2.883)" fill="#e0dbc3"/>
      <path id="Trazado_983426" data-name="Trazado 983426" d="M62.873,18.549C81.977,16.88,80,31.9,80,31.9s5.088-2.086,12.979,6.259,3.945,19.3-5.3,15.162c-5.2,2.966-11.53-1.151-12.981-2.189l-.571-1.7s7.684.2,9.033-1.829S90.457,37.442,77.52,34.73c.769-8.242-2.965-14-14.648-16.18" transform="translate(95.646 -7.332)" fill="#c1bca8"/>
      <path id="Trazado_983427" data-name="Trazado 983427" d="M89.171,47.156s2.8-7.365,6.024-11.016c12.045,1.982,22.946,12.723,24.4,18.724-3.427,9.235-5.617,10.359-5.617,10.359Z" transform="translate(57.509 -14.386)" fill="#f0ebd6"/>
      <path id="Trazado_983428" data-name="Trazado 983428" d="M126.266,100.1s-3.634,15.128-3.011,23.682c-11.006,6.364-17.445,1.46-17.445,1.46l3.72-15.232Z" transform="translate(40.87 -39.845)" fill="#fb8f62"/>
      <path id="Trazado_983429" data-name="Trazado 983429" d="M129.795,120.721a53.707,53.707,0,0,1-20.456.835l-3.528,12a21.328,21.328,0,0,0,21.8-1.044c.935-8.45,2.181-11.789,2.181-11.789" transform="translate(37.341 -48.056)" fill="#e0dbc3"/>
      <path id="Trazado_983430" data-name="Trazado 983430" d="M130.523,136.809a21.69,21.69,0,0,1-2.559-.447l3.319-13.381c.812.048,1.606.075,2.382.085Z" transform="translate(20.199 -48.955)" fill="#c1411a"/>
      <g id="Grupo_1148562" data-name="Grupo 1148562" transform="translate(144.384 65.419)" opacity="0.41" style="mix-blend-mode: multiply;isolation: isolate">
        <g id="Grupo_1148561" data-name="Grupo 1148561" transform="translate(0 0)">
          <g id="Grupo_1148560" data-name="Grupo 1148560" clip-path="url(#clip-path-2)">
            <path id="Trazado_983431" data-name="Trazado 983431" d="M109.929,124.569c.518-1.76,1.251-4.254,2.3-7.805.951.155,1.89.274,2.815.367l.905-3.7,4.543-2.691,9.726-2.052s-5.475,16.054-20.284,15.886" transform="translate(-109.929 -108.683)" fill="#591b1b"/>
          </g>
        </g>
      </g>
      <path id="Trazado_983432" data-name="Trazado 983432" d="M86.732,84.649a5.4,5.4,0,1,0,5.4-5.162,5.284,5.284,0,0,0-5.4,5.162" transform="translate(81.035 -31.642)" fill="#fb8f62"/>
      <path id="Trazado_983433" data-name="Trazado 983433" d="M92.13,84.456a5.587,5.587,0,0,1,2.22.46,4.945,4.945,0,0,1,.31,1.711,5.285,5.285,0,0,1-5.4,5.162,5.576,5.576,0,0,1-2.22-.46,4.94,4.94,0,0,1-.31-1.711,5.284,5.284,0,0,1,5.4-5.162" transform="translate(83.905 -33.619)" fill="#d86e4a"/>
      <path id="Trazado_983434" data-name="Trazado 983434" d="M109.692,54.442a87.877,87.877,0,0,0-4.828,16.9c-1.558,9.076-6.074,14.084-7.321,17.683s2.8,10.172,9.812,10.485,22.583-6.73,27.878-29.89c-6.541-9.389-17.911-14.24-25.542-15.179" transform="translate(36.988 -21.672)" fill="#fb8f62"/>
      <path id="Trazado_983435" data-name="Trazado 983435" d="M100.344,92.485v0c-.262,7.111,5.62.4,5.62.4l2.74.73s-3.546,5.176,6.663,4.446c13.04-4.231,17.306-16.342,18.536-21.338q.692.855,1.329,1.765c-5.3,23.16-20.87,30.2-27.878,29.889S96.3,101.5,97.543,97.9a41.524,41.524,0,0,1,2.8-5.411" transform="translate(36.989 -30.544)" fill="#591b1b"/>
      <path id="Trazado_983436" data-name="Trazado 983436" d="M135.884,96.713s2.8,4.178,8.722,2.614l-4.568-3.547Z" transform="translate(4.514 -38.127)" fill="#f0ebd6"/>
      <path id="Trazado_983437" data-name="Trazado 983437" d="M132.681,94.9s4.153,5.529,11.837,3.025c-2.285-3.234-6.451-5.391-11.11-5.738-4.052-2.192-9.137,0-9.137,0s1.869,4.8,8.41,2.713" transform="translate(11.559 -36.309)" fill="#591b1b"/>
      <path id="Trazado_983438" data-name="Trazado 983438" d="M138.149,79.487s-2.7,5.529-4.153,6.99,3.842,3.756,6.437-.625-2.284-6.364-2.284-6.364" transform="translate(9.206 -31.642)" fill="#fb8f62"/>
      <path id="Trazado_983439" data-name="Trazado 983439" d="M140.284,79.487s-2.7,5.529-4.153,6.99c-1.362,1.369,3.2,3.471,5.919.123" transform="translate(7.07 -31.642)" fill="none" stroke="#931c0f" stroke-miterlimit="10" stroke-width="0.787"/>
      <path id="Trazado_983440" data-name="Trazado 983440" d="M115.778,81.842a12.01,12.01,0,0,1,7.9.417c-1.848-2.391-5.737-2.357-7.9-.417" transform="translate(37.487 -32.015)" fill="#591b1b"/>
      <path id="Trazado_983441" data-name="Trazado 983441" d="M144.655,78.554c.5-1.634-1.606-2.965-3.006-2.27a9.89,9.89,0,0,1,3.006,2.27" transform="translate(0.934 -30.291)" fill="#591b1b"/>
      <path id="Trazado_983442" data-name="Trazado 983442" d="M109.928,70.546s5.711-1.236,8,2.408c1.142,1.974,3.011-2.512-1.869-5.016s-6.126,2.608-6.126,2.608" transform="translate(45.422 -26.769)" fill="#591b1b"/>
      <path id="Trazado_983443" data-name="Trazado 983443" d="M138.923,63.182a3.736,3.736,0,0,1,2.99,4.493,4.935,4.935,0,0,0-3.923-1.449c.316-1.1.632-2.118.933-3.044" transform="translate(5.857 -25.151)" fill="#591b1b"/>
      <g id="Grupo_1148565" data-name="Grupo 1148565" transform="translate(153.619 52.228)" opacity="0.56">
        <g id="Grupo_1148564" data-name="Grupo 1148564" transform="translate(0 0)">
          <g id="Grupo_1148563" data-name="Grupo 1148563" clip-path="url(#clip-path-3)">
            <path id="Trazado_983444" data-name="Trazado 983444" d="M115.5,88.094c-.152,1.005,1.448,2.084,3.574,2.409s3.972-.227,4.125-1.232-1.448-2.084-3.573-2.409-3.973.227-4.125,1.232" transform="translate(-115.489 -86.768)" fill="#a5380e"/>
          </g>
        </g>
      </g>
      <g id="Grupo_1148568" data-name="Grupo 1148568" transform="translate(141.36 48.776)" opacity="0.56">
        <g id="Grupo_1148567" data-name="Grupo 1148567" transform="translate(0 0)">
          <g id="Grupo_1148566" data-name="Grupo 1148566" clip-path="url(#clip-path-4)">
            <path id="Trazado_983445" data-name="Trazado 983445" d="M145.22,81.928q.077-.45.16-.9c1.169.492,1.905,1.223,1.8,1.919-.11.727-1.106,1.213-2.451,1.307.182-.749.352-1.518.492-2.331" transform="translate(-144.728 -81.033)" fill="#a5380e"/>
          </g>
        </g>
      </g>
      <line id="Línea_595" data-name="Línea 595" x1="4.311" y2="9.483" transform="translate(170.894 36.702)" fill="none" stroke="#c1bca8" stroke-miterlimit="10" stroke-width="0.787"/>
      <line id="Línea_596" data-name="Línea 596" x1="4.577" y2="10.068" transform="translate(166.87 31.96)" fill="none" stroke="#c1bca8" stroke-miterlimit="10" stroke-width="0.787"/>
      <line id="Línea_597" data-name="Línea 597" x1="4.908" y2="10.796" transform="translate(159.139 26.014)" fill="none" stroke="#c1bca8" stroke-miterlimit="10" stroke-width="0.787"/>
      <path id="Trazado_983446" data-name="Trazado 983446" d="M113.571,54.864s-4.2-14.248-24.4-18.724" transform="translate(63.533 -14.386)" fill="none" stroke="#c1bca8" stroke-miterlimit="10" stroke-width="0.787"/>
      <path id="Trazado_983447" data-name="Trazado 983447" d="M137.991,100.1s1.966,2.879,7.719,3.035" transform="translate(2.148 -39.845)" fill="none" stroke="#931c0f" stroke-miterlimit="10" stroke-width="0.787"/>
      <path id="Trazado_983448" data-name="Trazado 983448" d="M315.48,174.6c.372.544,1.115,1.5,2.094,2.714-3.969,1.131-8.89,3.19-12.139,6.854-.122-.217-.235-.417-.338-.6-3.115-5.425-9.967-7.094-20.765-8.346s-15.367-8.555-15.367-8.555,31.149,1.669,37.794,2.086,6.438,2.5,8.722,5.842" transform="translate(-248.178 -66.346)" fill="#d86e4a"/>
      <path id="Trazado_983449" data-name="Trazado 983449" d="M123.551,54.442s2.494,7.676,7.184,7.708,1.713-5.306,1.713-5.306a21.568,21.568,0,0,0-8.9-2.4" transform="translate(23.129 -21.672)" fill="#591b1b"/>
      <path id="Trazado_983450" data-name="Trazado 983450" d="M98.862,71.538s.956,6.713-.449,11.644c3.37-5.19,4.013-7.656,4.013-7.656a12.538,12.538,0,0,0-3.564-3.987" transform="translate(69.141 -28.477)" fill="#591b1b"/>
      <path id="Trazado_983451" data-name="Trazado 983451" d="M133.925,220.05s-6.871,43.519-32,44.19c-9.552,2.34,22.048-6.633,32-44.19" transform="translate(36.602 -87.596)" fill="#e0dbc3"/>
      <path id="Trazado_983452" data-name="Trazado 983452" d="M178.524,175.333s-2.7,33.825,2.907,51.966c-3.945-8.358-8.1-28.6-2.907-51.966" transform="translate(-56.4 -69.795)" fill="#e0dbc3"/>
      <path id="Trazado_983453" data-name="Trazado 983453" d="M143.12,7.343c-1.814,2.714-3.322,6.76,1.47,9.1-2.512,5.262-2.647,9.891.392,12.422-5.424-1.619-7.191-3.686-4.753-10.345-6.6-2.191-5.553-5.738-3.165-8.763.927-1.175,3.328-2.174,6.056-2.416" transform="translate(4.53 -2.923)" fill="#f0ebd6"/>
      <path id="Trazado_983454" data-name="Trazado 983454" d="M313.317,171.954s1.449,2.5,9.051,2.5" transform="translate(-279.542 -68.45)" fill="none" stroke="#931c0f" stroke-miterlimit="10" stroke-width="0.787"/>
      <path id="Trazado_983455" data-name="Trazado 983455" d="M310.725,142.48s-6.655-5.654-7.23-12.383c16.713.625,18.71,12.106,18.71,12.106s-7.1,1.08-11.48.277" transform="translate(-273.495 -51.789)" fill="#7d8e04"/>
      <path id="Trazado_983456" data-name="Trazado 983456" d="M319.526,144.869s-6.128-8.455-13.635-11.414c9.158,5.49,9.817,11.6,9.817,11.6Z" transform="translate(-272.25 -53.125)" fill="#5c6303"/>
      <path id="Trazado_983457" data-name="Trazado 983457" d="M288.534,142.48s6.654-5.654,7.23-12.383c-16.713.625-18.71,12.106-18.71,12.106s7.1,1.08,11.48.277" transform="translate(-231.214 -51.789)" fill="#7d8e04"/>
      <path id="Trazado_983458" data-name="Trazado 983458" d="M283.13,144.869s6.128-8.455,13.635-11.414c-9.158,5.49-9.817,11.6-9.817,11.6Z" transform="translate(-235.854 -53.125)" fill="#5c6303"/>
      <path id="Trazado_983459" data-name="Trazado 983459" d="M233.636,160.966c0,3.169,20.036,5.738,44.75,5.738s44.751-2.569,44.751-5.738-20.036-5.738-44.751-5.738-44.75,2.569-44.75,5.738" transform="translate(-232.577 -61.792)" fill="#c1bca8"/>
      <rect id="Rectángulo_406304" data-name="Rectángulo 406304" width="89.501" height="2.287" transform="translate(1.059 96.887)" fill="#c1bca8"/>
      <path id="Trazado_983460" data-name="Trazado 983460" d="M233.636,157.167c0,3.169,20.036,5.738,44.75,5.738s44.751-2.569,44.751-5.738-20.036-5.738-44.751-5.738-44.75,2.569-44.75,5.738" transform="translate(-232.577 -60.28)" fill="#f0ebd6"/>
      <path id="Trazado_983461" data-name="Trazado 983461" d="M245.264,157.143c0,1.513,16.918,2.739,37.785,2.739s37.786-1.226,37.786-2.739-16.917-2.739-37.786-2.739S245.264,155.63,245.264,157.143Z" transform="translate(-237.24 -61.464)" fill="none" stroke="#c1bca8" stroke-miterlimit="10" stroke-width="0.89"/>
      <path id="Trazado_983462" data-name="Trazado 983462" d="M348.842,146.593s-.74-10.049-5.138-11.574-.914,8.128-.914,8.128-1.287-6.246-6.964-5.45,6.748,9.918,6.748,9.918Z" transform="translate(-318.61 -53.682)" fill="#7d8e04"/>
      <path id="Trazado_983463" data-name="Trazado 983463" d="M341.617,148.65s.1-7.8-2.986-10.591c1.791,2.81,2.294,8.913,1.994,10.22.693.79.991.371.991.371" transform="translate(-313.956 -54.957)" fill="#5c6303"/>
      <path id="Trazado_983464" data-name="Trazado 983464" d="M344.15,142.551s3.707,1.281,5.819,6.944l-.775.262a12.185,12.185,0,0,0-5.044-7.206" transform="translate(-325.613 -56.746)" fill="#5c6303"/>
      <path id="Trazado_983465" data-name="Trazado 983465" d="M341.633,138.561A2.553,2.553,0,0,0,340.485,137a2.33,2.33,0,0,0-2.93.982,3.159,3.159,0,0,0-2.04,2.67c-.1.956.935,2.549,3.174,2.034a5.5,5.5,0,0,0,1.177,2.2,4.482,4.482,0,0,0-1.42,1.409,3.381,3.381,0,0,0-2.377.2c-.738-1.089-4.285-1.4-4.584-1.441-2.6-4.1-3.8-6.113-4.8-4.58-1.169-.049-1.437,1.006-1.085,2.02-.788,1.537-.743,2.4,4.194,3.864,2.907,3.264,4.036,3.614,4.618,3.175,1.567.935,4.879.321,5.351-.323,2.241-.051,5.462-3.081,4.966-4.812.987-1.123-.322-5.609-3.095-5.829" transform="translate(-309.359 -54.462)" fill="#ea927a"/>
      <path id="Trazado_983466" data-name="Trazado 983466" d="M328.957,151.458a4.55,4.55,0,0,1,1.2-1.158,10.469,10.469,0,0,0,3.134-.092,3.787,3.787,0,0,1-2.144,2.116c-1.462.559-2.575,1.173-2.187-.867" transform="translate(-299.784 -59.794)" fill="#efb3a5"/>
      <path id="Trazado_983467" data-name="Trazado 983467" d="M329.388,147.792c.111-.078.182-.123.182-.123a5.4,5.4,0,0,1-1.144-2.106c.592-.756,1.888-2.207,2.666-1.588,1.034.822,2.314,3.105,1.476,3.693a8.773,8.773,0,0,1-3.18.124" transform="translate(-299.064 -57.253)" fill="#efb3a5"/>
      <path id="Trazado_983468" data-name="Trazado 983468" d="M336.342,140.354a3.152,3.152,0,0,1-1.659,1.575,1.825,1.825,0,0,1-.431-1.282,3.159,3.159,0,0,1,2.04-2.67,2.292,2.292,0,0,1,2.038-1.164c.17.742.074,2.086-1.988,3.541" transform="translate(-308.096 -54.462)" fill="#efb3a5"/>
      <path id="Trazado_983469" data-name="Trazado 983469" d="M337.357,152.63c.006.008.014.017.02.026a3.381,3.381,0,0,1,2.377-.2c.008-.017.018-.034.026-.051a3.026,3.026,0,0,1-.074,1.215c-.852.574-2.842,1.427-3.45.8-.375-.386.43-1.213,1.1-1.79" transform="translate(-310.667 -60.63)" fill="#efb3a5"/>
      <path id="Trazado_983470" data-name="Trazado 983470" d="M325.768,149.888a6.354,6.354,0,0,0,4.862-.488" transform="translate(-295.262 -59.472)" fill="none" stroke="#9b301b" stroke-miterlimit="10" stroke-width="0.283"/>
      <path id="Trazado_983471" data-name="Trazado 983471" d="M340.269,150.942a3.283,3.283,0,0,1,.875-.6l.057.09c.3.039,3.782.347,4.562,1.413a9.023,9.023,0,0,0-1.192,1.259c-1.726.74-4.519-1.848-4.3-2.161" transform="translate(-319.075 -59.847)" fill="#efb3a5"/>
      <path id="Trazado_983472" data-name="Trazado 983472" d="M330.933,143.837s2.667-2.25,2.944-4.121" transform="translate(-301.604 -55.617)" fill="none" stroke="#9b301b" stroke-miterlimit="10" stroke-width="0.283"/>
      <path id="Trazado_983473" data-name="Trazado 983473" d="M338.207,138.747a4.867,4.867,0,0,0-.454,1.858" transform="translate(-310.011 -55.231)" fill="none" stroke="#9b301b" stroke-miterlimit="10" stroke-width="0.283"/>
      <path id="Trazado_983474" data-name="Trazado 983474" d="M334.06,152.551s-.126,2.471,1.316,2.916" transform="translate(-304.974 -60.727)" fill="none" stroke="#9b301b" stroke-miterlimit="10" stroke-width="0.283"/>
      <path id="Trazado_983475" data-name="Trazado 983475" d="M341.922,152.885s-2.018,1.387-1.658,3.037" transform="translate(-315.212 -60.859)" fill="none" stroke="#9b301b" stroke-miterlimit="10" stroke-width="0.283"/>
      <path id="Trazado_983476" data-name="Trazado 983476" d="M349.566,150.491a3.612,3.612,0,0,0-1.693,1.3" transform="translate(-327.44 -59.906)" fill="none" stroke="#9b301b" stroke-miterlimit="10" stroke-width="0.283"/>
      <path id="Trazado_983477" data-name="Trazado 983477" d="M352.075,146.216s.644-.417,3.37,1.674" transform="translate(-335.836 -58.191)" fill="none" stroke="#9b301b" stroke-miterlimit="10" stroke-width="0.283"/>
      <path id="Trazado_983478" data-name="Trazado 983478" d="M349.908,142.543c.917-1.407,2.008.177,4.19,3.616-1.055.185-4.93-2.952-5.205-3.177a1.087,1.087,0,0,1,1.015-.439" transform="translate(-332.584 -56.539)" fill="#efb3a5"/>
      <path id="Trazado_983479" data-name="Trazado 983479" d="M258.129,146.593s.74-10.049,5.138-11.574.914,8.128.914,8.128,1.287-6.246,6.964-5.45-6.748,9.918-6.748,9.918Z" transform="translate(-196.742 -53.682)" fill="#7d8e04"/>
      <path id="Trazado_983480" data-name="Trazado 983480" d="M273.06,148.65s-.1-7.8,2.986-10.591c-1.791,2.81-2.294,8.913-1.994,10.22-.692.79-.991.371-.991.371" transform="translate(-209.103 -54.957)" fill="#5c6303"/>
      <path id="Trazado_983481" data-name="Trazado 983481" d="M268.632,142.551s-3.707,1.281-5.819,6.944l.775.262a12.184,12.184,0,0,1,5.044-7.206" transform="translate(-195.55 -56.746)" fill="#5c6303"/>
      <path id="Trazado_983482" data-name="Trazado 983482" d="M261.769,138.561A2.553,2.553,0,0,1,262.917,137a2.33,2.33,0,0,1,2.93.982,3.159,3.159,0,0,1,2.04,2.67c.1.956-.935,2.549-3.174,2.034a5.505,5.505,0,0,1-1.177,2.2,4.482,4.482,0,0,1,1.42,1.409,3.381,3.381,0,0,1,2.377.2c.738-1.089,4.285-1.4,4.584-1.441,2.6-4.1,3.8-6.113,4.8-4.58,1.169-.049,1.437,1.006,1.086,2.02.788,1.537.743,2.4-4.194,3.864-2.907,3.264-4.036,3.614-4.618,3.175-1.567.935-4.879.321-5.351-.323-2.241-.051-5.462-3.081-4.966-4.812-.987-1.123.322-5.609,3.095-5.829" transform="translate(-202.425 -54.462)" fill="#ea927a"/>
      <path id="Trazado_983483" data-name="Trazado 983483" d="M284.769,151.458a4.539,4.539,0,0,0-1.2-1.158,10.468,10.468,0,0,1-3.134-.092,3.784,3.784,0,0,0,2.145,2.116c1.462.559,2.574,1.173,2.185-.867" transform="translate(-222.324 -59.794)" fill="#efb3a5"/>
      <path id="Trazado_983484" data-name="Trazado 983484" d="M284.334,147.792c-.111-.078-.181-.123-.181-.123a5.4,5.4,0,0,0,1.144-2.106c-.592-.756-1.888-2.207-2.666-1.588-1.035.822-2.315,3.105-1.477,3.693a8.773,8.773,0,0,0,3.18.124" transform="translate(-223.04 -57.253)" fill="#efb3a5"/>
      <path id="Trazado_983485" data-name="Trazado 983485" d="M277.562,140.354a3.152,3.152,0,0,0,1.659,1.575,1.825,1.825,0,0,0,.431-1.282,3.159,3.159,0,0,0-2.04-2.67,2.293,2.293,0,0,0-2.038-1.164c-.17.742-.074,2.086,1.988,3.541" transform="translate(-214.189 -54.462)" fill="#efb3a5"/>
      <path id="Trazado_983486" data-name="Trazado 983486" d="M276.877,152.63c-.007.008-.014.017-.02.026a3.38,3.38,0,0,0-2.376-.2c-.008-.017-.019-.034-.028-.051a3.038,3.038,0,0,0,.075,1.215c.852.574,2.842,1.427,3.45.8.375-.386-.429-1.213-1.1-1.79" transform="translate(-211.948 -60.63)" fill="#efb3a5"/>
      <path id="Trazado_983487" data-name="Trazado 983487" d="M287.654,149.888a6.354,6.354,0,0,1-4.862-.488" transform="translate(-226.541 -59.472)" fill="none" stroke="#9b301b" stroke-miterlimit="10" stroke-width="0.283"/>
      <path id="Trazado_983488" data-name="Trazado 983488" d="M272.721,150.942a3.283,3.283,0,0,0-.875-.6l-.057.09c-.3.039-3.782.347-4.562,1.413a9.1,9.1,0,0,1,1.192,1.259c1.726.74,4.519-1.848,4.3-2.161" transform="translate(-202.296 -59.847)" fill="#efb3a5"/>
      <path id="Trazado_983489" data-name="Trazado 983489" d="M283.772,143.837s-2.667-2.25-2.944-4.121" transform="translate(-221.482 -55.617)" fill="none" stroke="#9b301b" stroke-miterlimit="10" stroke-width="0.283"/>
      <path id="Trazado_983490" data-name="Trazado 983490" d="M278.158,138.747a4.866,4.866,0,0,1,.454,1.858" transform="translate(-214.734 -55.231)" fill="none" stroke="#9b301b" stroke-miterlimit="10" stroke-width="0.283"/>
      <path id="Trazado_983491" data-name="Trazado 983491" d="M281.733,152.551s.126,2.471-1.316,2.916" transform="translate(-219.201 -60.727)" fill="none" stroke="#9b301b" stroke-miterlimit="10" stroke-width="0.283"/>
      <path id="Trazado_983492" data-name="Trazado 983492" d="M273.615,152.885s2.018,1.387,1.658,3.037" transform="translate(-208.705 -60.859)" fill="none" stroke="#9b301b" stroke-miterlimit="10" stroke-width="0.283"/>
      <path id="Trazado_983493" data-name="Trazado 983493" d="M265.977,150.491a3.612,3.612,0,0,1,1.693,1.3" transform="translate(-196.484 -59.906)" fill="none" stroke="#9b301b" stroke-miterlimit="10" stroke-width="0.283"/>
      <path id="Trazado_983494" data-name="Trazado 983494" d="M262.346,146.216s-.644-.417-3.37,1.674" transform="translate(-186.965 -58.191)" fill="none" stroke="#9b301b" stroke-miterlimit="10" stroke-width="0.283"/>
      <path id="Trazado_983495" data-name="Trazado 983495" d="M263.283,142.543c-.917-1.407-2.007.177-4.19,3.616,1.055.185,4.93-2.952,5.206-3.177a1.089,1.089,0,0,0-1.015-.439" transform="translate(-188.989 -56.539)" fill="#efb3a5"/>
      <path id="Trazado_983496" data-name="Trazado 983496" d="M330.684,157.126s8.745,3.569,11.934,2.717,7.981-1.3,6.859-3.564-3.357.542-8.755-.017-6.548-1.542-9.385-2.634-3.234,2.045-.652,3.5" transform="translate(-316.187 -61.065)" fill="#e2a02d"/>
      <path id="Trazado_983497" data-name="Trazado 983497" d="M345.472,157.581c-3.037.656-6.554.034-10.237-1.279-2.68-.956-4-.752-4.516-.571-.773-1.422-.009-2.914,2.081-2.108,2.835,1.094,3.985,2.075,9.384,2.637,4.446.462,6.745-1.357,8.045-.75a17.353,17.353,0,0,1-4.756,2.07" transform="translate(-317.648 -61.063)" fill="#a36813"/>
      <path id="Trazado_983498" data-name="Trazado 983498" d="M334.318,160.608s5.758,1.917,9.807.223c2.43-.937.132,1.051-3.445,1.477-3.017.249-5.929-1.136-6.362-1.7" transform="translate(-314.884 -63.924)" fill="#f2be6b"/>
      <path id="Trazado_983499" data-name="Trazado 983499" d="M274.63,155.721s-8.707,4.373-12.092,3.621-8.39-.972-7.449-3.5,3.529.405,9.064-.5,6.63-2.042,9.461-3.389,3.547,2.05,1.016,3.775" transform="translate(-198.405 -60.362)" fill="#e2a02d"/>
      <path id="Trazado_983500" data-name="Trazado 983500" d="M260.1,156.955c3.209.547,6.79-.326,10.476-1.96,2.682-1.189,4.065-1.041,4.621-.871.663-1.593-.274-3.176-2.359-2.182-2.83,1.348-3.925,2.482-9.459,3.393-4.558.75-7.117-1.105-8.4-.371a18.27,18.27,0,0,0,5.126,1.992" transform="translate(-197.631 -60.36)" fill="#a36813"/>
      <path id="Trazado_983501" data-name="Trazado 983501" d="M277.191,160s-5.775,2.407-10.132.787c-2.608-.887-.035,1.152,3.71,1.418,3.148.1,6.028-1.567,6.422-2.2" transform="translate(-206.018 -63.693)" fill="#f2be6b"/>
      <path id="Trazado_983502" data-name="Trazado 983502" d="M286.9,149.182s-3.384.733-5.573,0-5.971-1.022-6.436,1.555,1.327,2.193-1.393,3.652-.929,4.392,6.7,3.525,5.971.2,11.876,1.4,8.293-2.333,11.809-3.733,8.824-1.667,3.45-3.733-8.028-2.333-11.942-1.6-8.492-1.067-8.492-1.067" transform="translate(-242.226 -59.182)" fill="#fffee6"/>
      <path id="Trazado_983503" data-name="Trazado 983503" d="M291.739,151.64c0-2.577,3.327-4.666,7.431-4.666s7.431,2.089,7.431,4.666a18.979,18.979,0,0,1-14.861,0" transform="translate(-250.847 -58.507)" fill="#feb800"/>
      <g id="Grupo_1148571" data-name="Grupo 1148571" transform="translate(41.778 89.622)" opacity="0.42" style="mix-blend-mode: overlay;isolation: isolate">
        <g id="Grupo_1148570" data-name="Grupo 1148570" transform="translate(0 0)">
          <g id="Grupo_1148569" data-name="Grupo 1148569" clip-path="url(#clip-path-5)">
            <path id="Trazado_983504" data-name="Trazado 983504" d="M307.213,151.229c.23.58,1.459.632,2.744.117s2.14-1.4,1.91-1.983-1.459-.632-2.744-.117-2.14,1.4-1.91,1.982" transform="translate(-307.176 -148.892)" fill="#fffee6"/>
          </g>
        </g>
      </g>
      <path id="Trazado_983505" data-name="Trazado 983505" d="M293.3,154.615s-5.042.614-7.563,2.807l.465.393s4.54-2.573,7.445-2.553Z" transform="translate(-234.294 -61.548)" fill="#7d8e04"/>
      <path id="Trazado_983506" data-name="Trazado 983506" d="M285.607,158.241h.581s4.23-2.258,6.941-2.333l-.077-.22s-3.224-.188-7.445,2.553" transform="translate(-233.702 -61.973)" fill="#646b03"/>
      <path id="Trazado_983507" data-name="Trazado 983507" d="M289.7,162.182s4.9-1.348,7.074-3.887l-.516-.321s-4.118,3.212-6.995,3.619Z" transform="translate(-239.542 -62.886)" fill="#7d8e04"/>
      <path id="Trazado_983508" data-name="Trazado 983508" d="M297.23,157.975l-.575.085s-3.856,2.854-6.527,3.327l.108.206s3.216-.287,6.994-3.619" transform="translate(-240.511 -62.886)" fill="#646b03"/>
      <path id="Trazado_983509" data-name="Trazado 983509" d="M296.981,160.184s-4.649-2.056-7.93-1.461l.2.576s5.212.113,7.7,1.619Z" transform="translate(-239.618 -63.141)" fill="#7d8e04"/>
      <path id="Trazado_983510" data-name="Trazado 983510" d="M289.1,159.741l.5.3s4.785.225,7.156,1.551l.046-.229s-2.678-1.814-7.7-1.619" transform="translate(-239.468 -63.583)" fill="#646b03"/>
      <path id="Trazado_983511" data-name="Trazado 983511" d="M280.978,157.5s4.918,1.277,8.062.159l-.29-.536s-5.162.731-7.859-.352Z" transform="translate(-226.786 -62.408)" fill="#7d8e04"/>
      <path id="Trazado_983512" data-name="Trazado 983512" d="M289.233,156.972l-.54-.213s-4.758.552-7.31-.372l-.008.233s2.933,1.357,7.859.352" transform="translate(-227.271 -62.253)" fill="#646b03"/>
      <path id="Trazado_983513" data-name="Trazado 983513" d="M291.739,153.453c8.916.237,7.693-4.964,7.687-4.989,1.849.849,3.051,2.221,3.051,3.769a18.8,18.8,0,0,1-10.738,1.221" transform="translate(-246.724 -59.1)" fill="#d89603"/>
      <path id="Trazado_983514" data-name="Trazado 983514" d="M305.8,158.609c0,.1.267.173.6.173s.6-.078.6-.173-.267-.173-.6-.173-.6.078-.6.173" transform="translate(-259.672 -63.069)" fill="#ddb864"/>
      <path id="Trazado_983515" data-name="Trazado 983515" d="M284.737,153.02c0,.1.267.173.6.173s.6-.078.6-.173-.268-.173-.6-.173-.6.078-.6.173" transform="translate(-225.984 -60.844)" fill="#ddb864"/>
      <path id="Trazado_983516" data-name="Trazado 983516" d="M309.48,161.6c0,.1.268.173.6.173s.6-.078.6-.173-.267-.173-.6-.173-.6.078-.6.173" transform="translate(-265.549 -64.259)" fill="#ddb864"/>
      <path id="Trazado_983517" data-name="Trazado 983517" d="M321.026,157.158c0,.1.267.173.6.173s.6-.078.6-.173-.267-.173-.6-.173-.6.078-.6.173" transform="translate(-284.011 -62.492)" fill="#ddb864"/>
      <path id="Trazado_983518" data-name="Trazado 983518" d="M329.581,160.578c0,.1.267.173.6.173s.6-.078.6-.173-.268-.173-.6-.173-.6.078-.6.173" transform="translate(-297.692 -63.853)" fill="#ddb864"/>
      <path id="Trazado_983519" data-name="Trazado 983519" d="M327.075,152.759c.035.089.312.061.618-.061s.526-.294.491-.383-.312-.061-.619.061-.526.294-.491.383" transform="translate(-293.601 -60.611)" fill="#ddb864"/>
      <path id="Trazado_983520" data-name="Trazado 983520" d="M319.267,161.054c.035.089.312.061.619-.061s.525-.294.491-.383-.312-.061-.619.061-.526.294-.491.383" transform="translate(-281.115 -63.914)" fill="#ddb864"/>
      <path id="Trazado_983521" data-name="Trazado 983521" d="M309.86,157.856c.035.089.312.061.619-.061s.525-.294.491-.383-.313-.061-.619.061-.526.294-.491.383" transform="translate(-266.073 -62.641)" fill="#ddb864"/>
      <path id="Trazado_983522" data-name="Trazado 983522" d="M302.073,162.21c.035.089.312.061.618-.061s.526-.294.491-.383-.313-.061-.619.061-.526.294-.491.383" transform="translate(-253.621 -64.374)" fill="#ddb864"/>
      <path id="Trazado_983523" data-name="Trazado 983523" d="M289.2,152.432c.035.089.312.061.618-.061s.526-.294.491-.383-.312-.061-.619.061-.526.294-.491.383" transform="translate(-233.036 -60.482)" fill="#ddb864"/>
      <path id="Trazado_983524" data-name="Trazado 983524" d="M313.321,158.153c-.038.087.173.268.473.4s.577.176.616.089-.173-.268-.474-.4-.576-.176-.615-.088" transform="translate(-271.587 -62.938)" fill="#ddb864"/>
      <path id="Trazado_983525" data-name="Trazado 983525" d="M325.532,159.711c-.039.087.173.268.473.4s.576.176.615.089-.173-.268-.473-.4-.576-.176-.615-.088" transform="translate(-291.113 -63.559)" fill="#ddb864"/>
      <path id="Trazado_983526" data-name="Trazado 983526" d="M321.524,152.407c-.039.087.173.268.473.4s.576.176.615.089-.173-.268-.473-.4-.576-.176-.615-.089" transform="translate(-284.703 -60.651)" fill="#ddb864"/>
      <g id="Grupo_1148574" data-name="Grupo 1148574" transform="translate(134.31 32.77)" opacity="0.23" style="mix-blend-mode: overlay;isolation: isolate">
        <g id="Grupo_1148573" data-name="Grupo 1148573" transform="translate(0 0)">
          <g id="Grupo_1148572" data-name="Grupo 1148572" clip-path="url(#clip-path-6)">
            <path id="Trazado_983527" data-name="Trazado 983527" d="M108.431,89.026c.749-2.163,2.678-4.844,4.438-8.6a5.493,5.493,0,0,1-3.14-2.872,14.061,14.061,0,0,1,4.688-.97,34.248,34.248,0,0,0,1.334-5.238,87.9,87.9,0,0,1,4.828-16.9,39.984,39.984,0,0,1,19.012,8.278c.113,7.448-1.107,29.134-20.492,32.315-4.673.752-8.366-2.143-10.6-2.759a5.361,5.361,0,0,1-.064-3.249" transform="translate(-108.208 -54.442)" fill="#f0ebd6"/>
          </g>
        </g>
      </g>
      <rect id="Rectángulo_406307" data-name="Rectángulo 406307" width="208.565" height="236.783" transform="translate(0 0)" fill="none"/>
      <path id="Trazado_983528" data-name="Trazado 983528" d="M254.76,323.149c0,3.99.664,7.224,1.483,7.224s1.482-3.234,1.482-7.224-.664-7.224-1.482-7.224-1.483,3.235-1.483,7.224" transform="translate(-179.818 -125.761)" fill="#d85f3f"/>
      <path id="Trazado_983991" data-name="Trazado 983991" d="M257.725,323.149c0,3.99-.664,7.224-1.483,7.224s-1.482-3.234-1.482-7.224.664-7.224,1.482-7.224,1.483,3.235,1.483,7.224" transform="translate(-19.566 -114.761)" fill="#d85f3f"/>
      <path id="Trazado_983529" data-name="Trazado 983529" d="M252.422,325.452c-3.971,0-7.19.667-7.19,1.49s3.219,1.489,7.19,1.489,7.19-.666,7.19-1.489-3.219-1.49-7.19-1.49" transform="translate(-175.998 -129.554)" fill="#d85f3f"/>
      <path id="Trazado_983990" data-name="Trazado 983990" d="M252.422,325.452c3.971,0,7.19.667,7.19,1.49s-3.219,1.489-7.19,1.489-7.19-.666-7.19-1.489,3.219-1.49,7.19-1.49" transform="translate(-15.745 -118.554)" fill="#d85f3f"/>
      <path id="Trazado_983530" data-name="Trazado 983530" d="M289.108,23.463c0,3.99.664,7.224,1.483,7.224s1.482-3.235,1.482-7.224-.664-7.224-1.482-7.224-1.483,3.235-1.483,7.224" transform="translate(-234.743 -6.465)" fill="#d2cbac"/>
      <path id="Trazado_983987" data-name="Trazado 983987" d="M292.073,23.463c0,3.99-.664,7.224-1.483,7.224s-1.482-3.235-1.482-7.224.664-7.224,1.482-7.224,1.483,3.235,1.483,7.224" transform="translate(-33.337 4.535)" fill="#d2cbac"/>
      <path id="Trazado_983531" data-name="Trazado 983531" d="M286.771,25.767c-3.971,0-7.19.667-7.19,1.49s3.219,1.489,7.19,1.489,7.19-.666,7.19-1.489-3.219-1.49-7.19-1.49" transform="translate(-230.924 -10.257)" fill="#d2cbac"/>
      <path id="Trazado_983988" data-name="Trazado 983988" d="M286.771,25.767c3.971,0,7.19.667,7.19,1.49s-3.219,1.489-7.19,1.489-7.19-.666-7.19-1.489,3.219-1.49,7.19-1.49" transform="translate(-29.517 0.743)" fill="#d2cbac"/>
      <path id="Trazado_983532" data-name="Trazado 983532" d="M180.66,17.636l3.326-2.3,3.326-2.3-3.645-1.744-3.645-1.745.319,4.044Z" transform="translate(-64.634 -3.801)" fill="#d85f3f"/>
      <path id="Trazado_983992" data-name="Trazado 983992" d="M186.674,17.636l-3.326-2.3-3.326-2.3,3.645-1.744,3.645-1.745-.319,4.044Z" transform="translate(10.4 7.199)" fill="#d85f3f"/>
      <path id="Trazado_983533" data-name="Trazado 983533" d="M282.381,247.271a4.03,4.03,0,1,0,4.03-4.05,4.04,4.04,0,0,0-4.03,4.05" transform="translate(-229.082 -96.82)" fill="#591b1b"/>
      <path id="Trazado_983989" data-name="Trazado 983989" d="M290.441,247.271a4.03,4.03,0,1,1-4.03-4.05,4.04,4.04,0,0,1,4.03,4.05" transform="translate(-30.641 -85.82)" fill="#591b1b"/>
    </g>
  </g>
</svg>
