<svg xmlns="http://www.w3.org/2000/svg" xmlns:xlink="http://www.w3.org/1999/xlink" width="90" height="90" viewBox="0 0 90 90">
  <defs>
    <linearGradient id="linear-gradient" x1="-0.011" y1="0.027" x2="0.823" y2="0.799" gradientUnits="objectBoundingBox">
      <stop offset="0"/>
      <stop offset="1" stop-opacity="0"/>
    </linearGradient>
  </defs>
  <g id="number-3_3840739_1_" data-name="number-3_3840739 (1)" transform="translate(-6 -6)">
    <path id="Trazado_982807" data-name="Trazado 982807" d="M45,0A45,45,0,1,1,0,45,45,45,0,0,1,45,0Z" transform="translate(6 6)" fill="#f1c112"/>
    <path id="Trazado_982805" data-name="Trazado 982805" d="M224.306,157.777l-29.354-29.354h-30.8v10.232l9.368,9.368-1.612,2.649v2.5l10.242,10.242a5.288,5.288,0,0,1-2.342.608l-5.262-5.262H163.024a15.848,15.848,0,0,0,4.505,11.034L192.336,194.6A45.047,45.047,0,0,0,224.306,157.777Z" transform="translate(-128.76 -100.387)" opacity="0.49" fill="url(#linear-gradient)"/>
    <path id="Trazado_982806" data-name="Trazado 982806" d="M185.942,144.908c6.436,1.615,10.553,6.824,10.553,13.776,0,9.129-7.074,15.666-16.924,15.666-9.646,0-16.278-6.3-16.548-15.588h11.522c.135,3.164,2.1,5.267,5.055,5.267,3.068,0,5.22-2.259,5.22-5.539s-2.23-5.316-5.723-5.316h-7.19v-2.5l7.309-12.017H164.15V128.423h30.8v2.062Z" transform="translate(-128.76 -100.387)" fill="#fff"/>
  </g>
</svg>
