<svg xmlns="http://www.w3.org/2000/svg" xmlns:xlink="http://www.w3.org/1999/xlink" width="348" height="236.726" viewBox="0 0 348 236.726">
  <defs>
    <clipPath id="clip-path">
      <rect id="Rectángulo_406278" data-name="Rectángulo 406278" width="253.195" height="236.726" fill="none"/>
    </clipPath>
    <clipPath id="clip-path-3">
      <rect id="Rectángulo_406256" data-name="Rectángulo 406256" width="236.41" height="212.833" fill="none"/>
    </clipPath>
    <clipPath id="clip-path-7">
      <rect id="Rectángulo_406260" data-name="Rectángulo 406260" width="60.597" height="31.327" fill="none"/>
    </clipPath>
    <clipPath id="clip-path-8">
      <rect id="Rectángulo_406261" data-name="Rectángulo 406261" width="60.549" height="27.971" fill="none"/>
    </clipPath>
    <clipPath id="clip-path-10">
      <rect id="Rectángulo_406263" data-name="Rectángulo 406263" width="10.315" height="15.996" fill="none"/>
    </clipPath>
    <clipPath id="clip-path-11">
      <rect id="Rectángulo_406264" data-name="Rectángulo 406264" width="30.668" height="42.689" fill="none"/>
    </clipPath>
    <clipPath id="clip-path-12">
      <rect id="Rectángulo_406265" data-name="Rectángulo 406265" width="13.322" height="44.858" fill="none"/>
    </clipPath>
    <clipPath id="clip-path-13">
      <rect id="Rectángulo_406266" data-name="Rectángulo 406266" width="16.735" height="26.88" fill="none"/>
    </clipPath>
    <clipPath id="clip-path-14">
      <rect id="Rectángulo_406267" data-name="Rectángulo 406267" width="49.041" height="43.415" fill="none"/>
    </clipPath>
    <clipPath id="clip-path-15">
      <rect id="Rectángulo_406268" data-name="Rectángulo 406268" width="66.354" height="80.901" fill="none"/>
    </clipPath>
    <clipPath id="clip-path-16">
      <rect id="Rectángulo_406269" data-name="Rectángulo 406269" width="64.139" height="12.119" fill="none"/>
    </clipPath>
  </defs>
  <g id="Grupo_1148517" data-name="Grupo 1148517" transform="translate(-1029.051 -4266.98)">
    <rect id="Rectángulo_406279" data-name="Rectángulo 406279" width="348" height="86" rx="43" transform="translate(1029.051 4347)" fill="#fff" opacity="0.63"/>
    <g id="Grupo_1148516" data-name="Grupo 1148516" transform="translate(1076.051 4266.98)">
      <g id="Grupo_1148515" data-name="Grupo 1148515" transform="translate(0)" clip-path="url(#clip-path)">
        <g id="Grupo_1148477" data-name="Grupo 1148477">
          <g id="Grupo_1148476" data-name="Grupo 1148476" clip-path="url(#clip-path)">
            <path id="Trazado_983062" data-name="Trazado 983062" d="M42.779,46.022c.873-.234,1.75-.456,2.627-.659,11.727-2.744,23.818-3.1,35.808-2.881,10.972.2,22.623,2.616,33.422-.089,7.409-1.854,13.971-6.2,19.769-11.175,6.8-5.84,12.857-12.719,20.69-17.075,19.547-10.874,39.135-4.118,53.716,9.4a.535.535,0,0,1,.065.063c.93.856,1.831,1.746,2.714,2.655a.539.539,0,0,1,.065.064,79.053,79.053,0,0,1,18.335,30.53,140.544,140.544,0,0,1,4.02,16.124.154.154,0,0,1,.016.072c.21,1.106.408,2.215.587,3.325,0,.025.008.049.01.074,8.038,49.576-10.994,100.825-57.672,125.106-22.366,11.638-48.782,21.68-74.573,19.782-16.48-1.2-31.634-8.932-44.64-18.745C29.647,181.4,7.678,149.689,1.245,114.77c-5.914-32.12,9.446-60.09,41.534-68.748" transform="translate(16.785 -3.429)" fill="#c6ff00"/>
            <g id="Grupo_1148475" data-name="Grupo 1148475" transform="translate(16.785 5.31)" opacity="0.5">
              <g id="Grupo_1148474" data-name="Grupo 1148474">
                <g id="Grupo_1148473" data-name="Grupo 1148473" clip-path="url(#clip-path-3)">
                  <path id="Trazado_983063" data-name="Trazado 983063" d="M42.779,46.022c.873-.234,1.75-.456,2.627-.659,11.727-2.744,23.818-3.1,35.808-2.881,10.972.2,22.623,2.616,33.422-.089,7.409-1.854,13.971-6.2,19.769-11.175,6.8-5.84,12.857-12.719,20.69-17.075,19.547-10.874,39.135-4.118,53.716,9.4a.535.535,0,0,1,.065.063c.93.856,1.831,1.746,2.714,2.655a.539.539,0,0,1,.065.064,79.053,79.053,0,0,1,18.335,30.53,140.544,140.544,0,0,1,4.02,16.124.154.154,0,0,1,.016.072c.21,1.106.408,2.215.587,3.325,0,.025.008.049.01.074,8.038,49.576-10.994,100.825-57.672,125.106-22.366,11.638-48.782,21.68-74.573,19.782-16.48-1.2-31.634-8.932-44.64-18.745C29.647,181.4,7.678,149.689,1.245,114.77c-5.914-32.12,9.446-60.09,41.534-68.748" transform="translate(0 -8.739)" fill="#fff"/>
                </g>
              </g>
            </g>
          </g>
        </g>
        <g id="Grupo_1148479" data-name="Grupo 1148479">
          <g id="Grupo_1148478" data-name="Grupo 1148478" clip-path="url(#clip-path)">
            <line id="Línea_563" data-name="Línea 563" x1="12.292" transform="translate(0.289 217.799)" fill="none" stroke="#263238" stroke-linecap="round" stroke-linejoin="round" stroke-width="0.953"/>
          </g>
        </g>
        <line id="Línea_564" data-name="Línea 564" x1="13.645" transform="translate(95.888 217.799)" fill="none" stroke="#263238" stroke-linecap="round" stroke-linejoin="round" stroke-width="0.953"/>
        <line id="Línea_565" data-name="Línea 565" x1="45.798" transform="translate(170.875 217.799)" fill="none" stroke="#263238" stroke-linecap="round" stroke-linejoin="round" stroke-width="0.953"/>
        <line id="Línea_566" data-name="Línea 566" x1="10.366" transform="translate(224.083 217.799)" fill="none" stroke="#263238" stroke-linecap="round" stroke-linejoin="round" stroke-width="0.953"/>
        <g id="Grupo_1148481" data-name="Grupo 1148481">
          <g id="Grupo_1148480" data-name="Grupo 1148480" clip-path="url(#clip-path)">
            <path id="Trazado_983064" data-name="Trazado 983064" d="M107.539,127.925s-.76,4.945,3.434,7.042c0,0-5.06,1.085-5.526,5.974,0,0-.1-6.678-3-7.492,0,0,3.934-.062,5.1-5.524" transform="translate(79.977 -50.196)" fill="#fff"/>
            <path id="Trazado_983065" data-name="Trazado 983065" d="M204.485,128.946s.241,3.033,3.015,3.688c0,0-2.843,1.348-2.436,4.307,0,0-.991-3.939-2.824-4.014,0,0,2.319-.586,2.245-3.98" transform="translate(-77.188 -50.596)" fill="#fff"/>
            <path id="Trazado_983066" data-name="Trazado 983066" d="M209.978,111.945s.242,3.033,3.016,3.688c0,0-2.843,1.348-2.436,4.307,0,0-.991-3.939-2.824-4.015,0,0,2.319-.586,2.244-3.98" transform="translate(-86.021 -43.925)" fill="#fff"/>
            <path id="Trazado_983067" data-name="Trazado 983067" d="M95.045,112.312s.212,4.517,2.994,5.908a6.429,6.429,0,0,0-4.533,5.435s.576-5.061-2.525-6.13a8.1,8.1,0,0,0,4.064-5.213" transform="translate(99.875 -44.069)" fill="#fff"/>
          </g>
        </g>
        <g id="Grupo_1148489" data-name="Grupo 1148489">
          <g id="Grupo_1148488" data-name="Grupo 1148488" clip-path="url(#clip-path)">
            <path id="Trazado_983068" data-name="Trazado 983068" d="M259.838,360.341c0,4.942,17.892,8.949,39.963,8.949s39.963-4.007,39.963-8.949-17.892-8.949-39.963-8.949-39.963,4.007-39.963,8.949" transform="translate(-244.45 -137.88)" fill="#fff"/>
            <ellipse id="Elipse_11498" data-name="Elipse 11498" cx="39.963" cy="8.949" rx="39.963" ry="8.949" transform="translate(15.388 213.512)" fill="none" stroke="#263238" stroke-linecap="round" stroke-linejoin="round" stroke-width="0.953"/>
            <ellipse id="Elipse_11499" data-name="Elipse 11499" cx="35.024" cy="7.184" rx="35.024" ry="7.184" transform="translate(20.103 213.622)" fill="none" stroke="#263238" stroke-linecap="round" stroke-linejoin="round" stroke-width="0.953"/>
            <path id="Trazado_983069" data-name="Trazado 983069" d="M324.943,337.217a7.224,7.224,0,0,1,5.063-.459,4.874,4.874,0,0,1,3.381,3.608,5.329,5.329,0,0,1-1.57,4.471,12.036,12.036,0,0,1-4.141,2.589,33.831,33.831,0,0,1-13.234,2.633c-3.81-.019-7.623-.684-11.415-.309-3.626.359-7.1,1.655-10.692,2.24a27.673,27.673,0,0,1-11.049-.444c-3.73-.92-7.7-3.178-8.351-6.965a6.958,6.958,0,0,1,3.138-6.755,9.086,9.086,0,0,1,7.579-.879c-.66-.2.307-6.073.483-6.864,1.208-5.445,7.672-9.336,13.046-9.048,3.607.193,7.211,2.643,7.971,6.175a4.548,4.548,0,0,1,4.189.257,4.243,4.243,0,0,1,2.136,3.438,9.477,9.477,0,0,1,9.1-1.684,5.862,5.862,0,0,1,3.213,2.264,8.508,8.508,0,0,1,.959,2.672c.235.99-.045,2.069.19,3.059" transform="translate(-246.045 -125.963)" fill="#c6ff00"/>
            <path id="Trazado_983070" data-name="Trazado 983070" d="M324.537,337.392a7.224,7.224,0,0,1,5.063-.459,4.872,4.872,0,0,1,3.38,3.608,5.324,5.324,0,0,1-1.57,4.471,12.028,12.028,0,0,1-4.14,2.589,33.833,33.833,0,0,1-13.234,2.633c-3.81-.019-7.623-.684-11.415-.309-3.626.358-7.1,1.654-10.692,2.24a27.684,27.684,0,0,1-11.049-.445c-3.73-.92-7.7-3.178-8.351-6.965A6.959,6.959,0,0,1,275.667,338a9.086,9.086,0,0,1,7.579-.879c-.66-.2.307-6.073.483-6.864,1.208-5.445,7.672-9.336,13.046-9.048,3.607.193,7.21,2.643,7.971,6.175a4.549,4.549,0,0,1,4.189.257,4.243,4.243,0,0,1,2.136,3.438,9.477,9.477,0,0,1,9.1-1.684,5.862,5.862,0,0,1,3.213,2.264,8.508,8.508,0,0,1,.959,2.672C324.582,335.323,324.3,336.4,324.537,337.392Z" transform="translate(-245.391 -126.032)" fill="none" stroke="#263238" stroke-linecap="round" stroke-linejoin="round" stroke-width="0.953"/>
            <g id="Grupo_1148484" data-name="Grupo 1148484" transform="translate(26.79 195.199)" opacity="0.19">
              <g id="Grupo_1148483" data-name="Grupo 1148483">
                <g id="Grupo_1148482" data-name="Grupo 1148482" clip-path="url(#clip-path-7)">
                  <path id="Trazado_983071" data-name="Trazado 983071" d="M324.973,337.45a7.224,7.224,0,0,1,5.063-.459,4.872,4.872,0,0,1,3.381,3.608,5.329,5.329,0,0,1-1.569,4.471,12.037,12.037,0,0,1-4.141,2.589,33.836,33.836,0,0,1-13.234,2.633c-3.81-.019-7.623-.684-11.415-.309-3.626.358-7.1,1.655-10.692,2.241a27.684,27.684,0,0,1-11.049-.445c-3.73-.92-7.7-3.178-8.351-6.965a6.959,6.959,0,0,1,3.138-6.755,9.086,9.086,0,0,1,7.579-.879c-.659-.2.308-6.073.483-6.864,1.208-5.444,7.672-9.336,13.046-9.048,3.607.193,7.211,2.643,7.971,6.175a4.55,4.55,0,0,1,4.19.257,4.243,4.243,0,0,1,2.136,3.438,9.477,9.477,0,0,1,9.1-1.684,5.862,5.862,0,0,1,3.213,2.264,8.509,8.509,0,0,1,.961,2.672c.234.99-.046,2.069.189,3.059" transform="translate(-272.883 -321.253)" fill="#fff"/>
                </g>
              </g>
            </g>
            <g id="Grupo_1148487" data-name="Grupo 1148487" transform="translate(27.159 198.632)" opacity="0.2">
              <g id="Grupo_1148486" data-name="Grupo 1148486">
                <g id="Grupo_1148485" data-name="Grupo 1148485" clip-path="url(#clip-path-8)">
                  <path id="Trazado_983072" data-name="Trazado 983072" d="M285.361,328.681c2.839-2.569,7.535-2.191,10.607.094s4.731,6.049,5.439,9.812a3.969,3.969,0,0,1,4.184-.041,7.056,7.056,0,0,1,2.782,3.34,6.47,6.47,0,0,1,7.482-.052c.788.574,1.43,1.322,2.161,1.967a10.575,10.575,0,0,0,14.635-.6s2.169,3.078-6.167,6.57a31.966,31.966,0,0,1-18.248,2.478,34.435,34.435,0,0,0-14.08,1.8c-3.942,1.351-15.432,1.464-19.487-2.929s-3.6-12.954,8.11-12.166c0,0-.131-7.819,2.582-10.274" transform="translate(-272.357 -326.904)"/>
                </g>
              </g>
            </g>
            <path id="Trazado_983073" data-name="Trazado 983073" d="M312.346,295.4a4.41,4.41,0,0,0,2.176-4.587,10.712,10.712,0,0,0-2.313-4.851,22.071,22.071,0,0,1-2.954-4.544c-2.7-6.563,3.1-14.322.522-20.929" transform="translate(-248.829 -102.21)" fill="none" stroke="#263238" stroke-linecap="round" stroke-linejoin="round" stroke-width="0.953"/>
            <path id="Trazado_983074" data-name="Trazado 983074" d="M346.892,297.215c1.547-.473,2.447-2.118,2.739-3.708.916-4.993-2.524-9.7-3.268-14.72-.616-4.166.654-8.356,1.908-12.377" transform="translate(-306.949 -104.535)" fill="none" stroke="#263238" stroke-linecap="round" stroke-linejoin="round" stroke-width="0.953"/>
            <path id="Trazado_983075" data-name="Trazado 983075" d="M332.759,301.819c1.645-1.549,1.461-4.255.574-6.333s-2.338-3.914-2.943-6.09a8.529,8.529,0,0,1,1.56-7.523" transform="translate(-281.376 -110.602)" fill="none" stroke="#263238" stroke-linecap="round" stroke-linejoin="round" stroke-width="0.953"/>
            <path id="Trazado_983076" data-name="Trazado 983076" d="M308.549,268.505a27.54,27.54,0,0,1-.428,6.839" transform="translate(-242.626 -105.357)" fill="none" stroke="#263238" stroke-linecap="round" stroke-linejoin="round" stroke-width="0.953"/>
            <path id="Trazado_983077" data-name="Trazado 983077" d="M299.448,291.5c-.207,2.268,1.289,4.285,2.486,6.223a19.4,19.4,0,0,1,2.816,7.184,11.963,11.963,0,0,1-1.177,7.539" transform="translate(-233.649 -114.379)" fill="none" stroke="#263238" stroke-linecap="round" stroke-linejoin="round" stroke-width="0.953"/>
          </g>
        </g>
        <g id="Grupo_1148512" data-name="Grupo 1148512">
          <g id="Grupo_1148511" data-name="Grupo 1148511" clip-path="url(#clip-path)">
            <path id="Trazado_983078" data-name="Trazado 983078" d="M118.528,115.442l-.583,7.431-.013.175a13.214,13.214,0,0,1,1.542-.094c4.031-.02,10.309,1.328,14.8,2.435,3.132.778,5.393,1.442,5.393,1.442l.677-2.676,2.542-10.041c2.073-1.777,5.232-8.773,5.232-8.773a8.276,8.276,0,0,0,6.459-5.989c.691-3.26-3.32-2.945-3.32-2.945l-2.6-1.6-3.26-8.887s2.864-6.619-2.77-9.283-24.783,6.613-24.783,6.613l-2.073,8.693c-2.663,1.086.154,7.6.154,7.6s-.255.1-.55,3.951,3.159,11.945,3.159,11.945" transform="translate(28.898 -29.884)" fill="#fff"/>
            <path id="Trazado_983079" data-name="Trazado 983079" d="M167.282,106.813c-.848,3.236-3.847,5.535-3.737,6.371a3.3,3.3,0,0,0,2.654,2.531" transform="translate(-13.457 -41.912)" fill="none" stroke="#263238" stroke-linecap="round" stroke-linejoin="round" stroke-width="0.953"/>
            <path id="Trazado_983080" data-name="Trazado 983080" d="M165.567,97.743a3.157,3.157,0,0,1,4.666.608" transform="translate(-17.639 -38.041)" fill="none" stroke="#263238" stroke-linecap="round" stroke-linejoin="round" stroke-width="1.907"/>
            <path id="Trazado_983081" data-name="Trazado 983081" d="M155.087,125.132s-1.343,3.493-6.672,3.373" transform="translate(7.929 -49.1)" fill="none" stroke="#263238" stroke-linecap="round" stroke-linejoin="round" stroke-width="0.953"/>
            <path id="Trazado_983082" data-name="Trazado 983082" d="M144.19,102.295a4.052,4.052,0,0,1,5.99,1.541" transform="translate(15.403 -39.854)" fill="none" stroke="#263238" stroke-linecap="round" stroke-linejoin="round" stroke-width="1.907"/>
            <path id="Trazado_983083" data-name="Trazado 983083" d="M150.508,110.152c-.18.945.086,1.79.595,1.887s1.068-.591,1.248-1.536-.086-1.79-.595-1.887-1.068.591-1.248,1.536" transform="translate(9.372 -42.616)" fill="#263238"/>
            <path id="Trazado_983084" data-name="Trazado 983084" d="M168.538,106.65c-.18.945.086,1.79.6,1.887s1.068-.591,1.247-1.536-.086-1.79-.595-1.887-1.068.59-1.248,1.535" transform="translate(-19.613 -41.241)" fill="#263238"/>
            <path id="Trazado_983085" data-name="Trazado 983085" d="M116.5,111.988s4.451-3.864,5.86-1.193-3.167,8.793-7.463,6.916" transform="translate(60.759 -43.105)" fill="none" stroke="#263238" stroke-linecap="round" stroke-linejoin="round" stroke-width="0.953"/>
            <path id="Trazado_983086" data-name="Trazado 983086" d="M128.23,89.566s-.34,11.139-1.571,13.62-2.291,3.708-.993,10.175,6.261,14.017,11.571,14.52,17.387-7.548,20.842-17.6" transform="translate(19.119 -35.144)" fill="none" stroke="#263238" stroke-linecap="round" stroke-linejoin="round" stroke-width="0.953"/>
            <path id="Trazado_983087" data-name="Trazado 983087" d="M147.884,85.478s-3.23-1.673-2.643-4.567.178-3.248-2.138-4.735-.883-4.565,1.334-7.593-2-6.646-5.431-5.124-23,9.213-28.255,6.927S107,60.8,114.08,56.716c0,0,3.821-4.56,2.794-8.762s23.489-16.878,34.977,8.945c0,0,5.452,2.132,6.59,9.474,1.12,7.222-6.782,16.57-6.782,16.57a17.852,17.852,0,0,0-3.775,2.534" transform="translate(29.258 -16.137)" fill="#263238"/>
            <path id="Trazado_983088" data-name="Trazado 983088" d="M162.984,73.793c-1.8-2.42-5.137-3.3-8.122-2.869a21.489,21.489,0,0,0-8.239,3.559,39.746,39.746,0,0,1-7.9,4.366,8.464,8.464,0,0,1-5.04.409,4.863,4.863,0,0,1-3.075-2.473" transform="translate(10.848 -27.789)" fill="none" stroke="#fff" stroke-linecap="round" stroke-linejoin="round" stroke-width="0.953"/>
            <path id="Trazado_983089" data-name="Trazado 983089" d="M113.056,72.489A6.079,6.079,0,0,1,118,76.3a9.8,9.8,0,0,1,.154,6.444,21.067,21.067,0,0,1-1.819,4.231" transform="translate(65.877 -28.444)" fill="none" stroke="#fff" stroke-linecap="round" stroke-linejoin="round" stroke-width="0.953"/>
            <path id="Trazado_983090" data-name="Trazado 983090" d="M174.43,139.17a11.173,11.173,0,0,1,.3,3.821,32.454,32.454,0,0,1-.5,4.49" transform="translate(-27.431 -54.608)" fill="none" stroke="#263238" stroke-linecap="round" stroke-linejoin="round" stroke-width="0.953"/>
            <path id="Trazado_983091" data-name="Trazado 983091" d="M137.242,137.945c-1.049,3.721-2.216,8.2-3.289,13.179" transform="translate(34.561 -54.127)" fill="none" stroke="#263238" stroke-linecap="round" stroke-linejoin="round" stroke-width="0.953"/>
            <path id="Trazado_983092" data-name="Trazado 983092" d="M178.821,104.252s-.992-2.706-2.877-1.507,1.114,7.282,1.114,7.282" transform="translate(-32.154 -40.195)" fill="none" stroke="#263238" stroke-linecap="round" stroke-linejoin="round" stroke-width="0.953"/>
            <path id="Trazado_983093" data-name="Trazado 983093" d="M173.436,86.486s-.941,7.662,1.344,10.082l1.748.538.922-10.173Z" transform="translate(-29.52 -33.936)" fill="#263238"/>
            <path id="Trazado_983094" data-name="Trazado 983094" d="M135.059,43.345s6.158-.431,12.114-7.514,1.142-12.063-1.84-14.721-10.283-9.961-13.341-13.341-9.179-7.721-16.1-6.594S102.249,6.451,95.65,8.382s-13.142,9.133-14.108,13.8,1.113,12.03,3.527,13.8l4.15-.129-1.836,6.291S112.059,32.391,134.1,50.7l-1.862-6.55Z" transform="translate(53.786 -0.39)" fill="#fff"/>
            <path id="Trazado_983095" data-name="Trazado 983095" d="M108.289,56.9q.044,4.2-.215,8.391l10.235,7.6-2.5-12.334Z" transform="translate(69.219 -22.327)" fill="#c6ff00"/>
            <g id="Grupo_1148492" data-name="Grupo 1148492" transform="translate(177.212 34.573)" opacity="0.6">
              <g id="Grupo_1148491" data-name="Grupo 1148491">
                <g id="Grupo_1148490" data-name="Grupo 1148490" clip-path="url(#clip-path-10)">
                  <path id="Trazado_983096" data-name="Trazado 983096" d="M108.37,56.9c.029,2.8-.123,5.91-.3,8.7L118.39,72.9l-2.5-12.334Z" transform="translate(-108.074 -56.9)" fill="#fff"/>
                </g>
              </g>
            </g>
            <path id="Trazado_983097" data-name="Trazado 983097" d="M85.841,1.456a2.587,2.587,0,0,0-2.777.847,4.383,4.383,0,0,0-.908,2.89c.031,3.375,2.539,6.23,5.29,8.186s5.9,3.382,8.322,5.736a14.425,14.425,0,0,1,.021,20.659c-.27.264-.554.515-.821.783l.849,3.456s10.967-1.432,14.69-8.052,2.567-9.7-.7-13.614-7.527-6-11.7-11.936S85.841,1.456,85.841,1.456" transform="translate(90.453 -0.519)" fill="#c6ff00"/>
            <g id="Grupo_1148495" data-name="Grupo 1148495" transform="translate(172.608 0.804)" opacity="0.6">
              <g id="Grupo_1148494" data-name="Grupo 1148494">
                <g id="Grupo_1148493" data-name="Grupo 1148493" clip-path="url(#clip-path-11)">
                  <path id="Trazado_983098" data-name="Trazado 983098" d="M85.841,1.456a2.587,2.587,0,0,0-2.777.847,4.383,4.383,0,0,0-.908,2.89c.031,3.375,2.539,6.23,5.29,8.186s5.9,3.382,8.322,5.736a14.425,14.425,0,0,1,.021,20.659c-.27.264-.554.515-.821.783l.849,3.456s10.967-1.432,14.69-8.052,2.567-9.7-.7-13.614-7.527-6-11.7-11.936S85.841,1.456,85.841,1.456" transform="translate(-82.155 -1.324)" fill="#fff"/>
                </g>
              </g>
            </g>
            <path id="Trazado_983099" data-name="Trazado 983099" d="M154.37,70.452s-16.951-17.569-46.3-8.478l3.609-9.962s20.388-5.6,40.183,6.106Z" transform="translate(33.158 -19.883)" fill="none" stroke="#263238" stroke-linecap="round" stroke-linejoin="round" stroke-width="0.953"/>
            <path id="Trazado_983100" data-name="Trazado 983100" d="M89.852,37.654C87.764,37.318,83.7,35,82.779,33.1a13.572,13.572,0,0,1-1.1-6.19,19.013,19.013,0,0,1,2.046-8.719c3.146-5.814,9.772-8.666,15.916-11.1l11.495-4.561A24.125,24.125,0,0,1,118.332.5c4.956-.326,9.633,2.434,13.253,5.836s6.532,7.5,10.209,10.845c1.792,1.628,3.761,3.069,5.422,4.831a11.178,11.178,0,0,1,3.275,6.339c.35,3.471-1.692,6.769-4.2,9.2-2.476,2.4-4.963,5.222-13.018,6.177" transform="translate(53.039 -0.187)" fill="none" stroke="#263238" stroke-linecap="round" stroke-linejoin="round" stroke-width="0.953"/>
            <path id="Trazado_983101" data-name="Trazado 983101" d="M165.935,48.187a15.11,15.11,0,0,1-4.3-3.845" transform="translate(-10.95 -17.399)" fill="none" stroke="#263238" stroke-linecap="round" stroke-linejoin="round" stroke-width="0.953"/>
            <path id="Trazado_983102" data-name="Trazado 983102" d="M110.855,53.98A10.721,10.721,0,0,0,117.3,47.8" transform="translate(68.534 -18.756)" fill="none" stroke="#263238" stroke-linecap="round" stroke-linejoin="round" stroke-width="0.953"/>
            <path id="Trazado_983103" data-name="Trazado 983103" d="M104.269,9.391c2.724-.2,5.1,1.8,6.845,3.9s3.3,4.521,5.738,5.753" transform="translate(72.988 -3.68)" fill="none" stroke="#263238" stroke-linecap="round" stroke-linejoin="round" stroke-width="0.953"/>
            <path id="Trazado_983104" data-name="Trazado 983104" d="M51.975,185.372,77.06,204.949s9.631-31.376,10.2-35.287c1.54-3.761,7.141-9.013,7.141-9.013s20.564-1.019,22.047-1.864,1.65-5.768,1.65-5.768c.537-.007,1.093,0,1.656.013q.755.031,1.529.081a86.316,86.316,0,0,1,14.582,2.669c3.9,1.02,6.639,1.932,6.639,1.932l-1.515,6.6,1.1,1.65c3.6,2.7,23.34,9.236,28.451,11.543a83.85,83.85,0,0,1,6.427,5.639s17.705,34.738,20.455,38.977a17.1,17.1,0,0,1,2.616,8.866c-2.032,4.346-5.024,4.628-8.1,5.695a15.07,15.07,0,0,0-1.523.61c-3.6,1.69-35.373-.825-35.373-.825s2.287,11.314-8.129,7.009c-16.668-6.889-56.514-2.119-56.514-2.119l.952-25.5-9.027,10.329a9.245,9.245,0,0,1-9.3-.684c-7.727-4.99-30.115-32.543-30.115-32.543,2.166-5.137,9.074-7.585,9.074-7.585M152.6,225.157l1.817-1.817c3.146-1.9,14.887-4.12,14.887-4.12l-8.266-11.94s-8.72,13.491-9.1,14.631.664,3.246.664,3.246" transform="translate(27.093 -60.04)" fill="#fff"/>
            <path id="Trazado_983105" data-name="Trazado 983105" d="M132.6,313.631l-1.871,40.324s6.125-1.531,7.827-4.083,5.5-40.775,5.5-40.775-3.624,3.344-11.451,4.535" transform="translate(29.705 -121.284)" fill="#c6ff00"/>
            <g id="Grupo_1148498" data-name="Grupo 1148498" transform="translate(160.438 187.812)" opacity="0.56">
              <g id="Grupo_1148497" data-name="Grupo 1148497">
                <g id="Grupo_1148496" data-name="Grupo 1148496" clip-path="url(#clip-path-12)">
                  <path id="Trazado_983106" data-name="Trazado 983106" d="M132.6,313.631l-1.871,40.324s6.125-1.531,7.827-4.083,5.5-40.775,5.5-40.775-3.624,3.344-11.451,4.535" transform="translate(-130.733 -309.096)" fill="#fff"/>
                </g>
              </g>
            </g>
            <path id="Trazado_983107" data-name="Trazado 983107" d="M113.93,251.017l9.561-14.91-8.018-10.6s-.591,6-4.161,8.782c-5.691,4.439-4.439,18.1-4.439,18.1Z" transform="translate(64.838 -88.484)" fill="#c6ff00"/>
            <g id="Grupo_1148501" data-name="Grupo 1148501" transform="translate(171.594 137.019)" opacity="0.6">
              <g id="Grupo_1148500" data-name="Grupo 1148500">
                <g id="Grupo_1148499" data-name="Grupo 1148499" clip-path="url(#clip-path-13)">
                  <path id="Trazado_983108" data-name="Trazado 983108" d="M113.93,251.017l9.561-14.91-8.018-10.6s-.591,6-4.161,8.782c-5.691,4.439-4.439,18.1-4.439,18.1Z" transform="translate(-106.756 -225.503)" fill="#fff"/>
                </g>
              </g>
            </g>
            <path id="Trazado_983109" data-name="Trazado 983109" d="M267.369,203.565s-6.954,30.925-10.979,35.866-4.116-14.288-5.535-14.555-3.8,11.261-2.883,14.738c0,0-.549,1.83-2.562,0s-27.082-25.07-27.082-25.07,25.757,32.588,33.12,32.389c6.229.859,12.952-10.268,12.952-10.268Z" transform="translate(-146.833 -79.876)" fill="#c6ff00"/>
            <g id="Grupo_1148504" data-name="Grupo 1148504" transform="translate(71.495 123.689)" opacity="0.6">
              <g id="Grupo_1148503" data-name="Grupo 1148503">
                <g id="Grupo_1148502" data-name="Grupo 1148502" clip-path="url(#clip-path-14)">
                  <path id="Trazado_983110" data-name="Trazado 983110" d="M267.369,203.565s-6.954,30.925-10.979,35.866-4.116-14.288-5.535-14.555-3.8,11.261-2.883,14.738c0,0-.549,1.83-2.562,0s-27.082-25.07-27.082-25.07,25.757,32.588,33.12,32.389c6.229.859,12.952-10.268,12.952-10.268Z" transform="translate(-218.328 -203.565)" fill="#fff"/>
                </g>
              </g>
            </g>
            <path id="Trazado_983111" data-name="Trazado 983111" d="M77.281,219.091l1.543,2.066s12.354-1.549,22.327,17.311c3.079-1.066,6.07-1.348,8.1-5.695a17.109,17.109,0,0,0-2.616-8.867c-2.75-4.239-20.661-39.377-20.661-39.377a31.028,31.028,0,0,0-6.221-5.238c-12.773-6.744-24.85-8.847-28.451-11.543l-1.1-1.65,1.515-6.6s-2.736-.913-6.64-1.932l-2.019,8.612a6.036,6.036,0,0,0,3.7,7.01L75.9,184.433a8.049,8.049,0,0,1,4.315,3.938l15.967,32.255c-.282-.289-6.633-6.748-18.9-1.536" transform="translate(117.873 -61.827)" fill="#c6ff00"/>
            <g id="Grupo_1148507" data-name="Grupo 1148507" transform="translate(160.774 95.74)" opacity="0.6">
              <g id="Grupo_1148506" data-name="Grupo 1148506">
                <g id="Grupo_1148505" data-name="Grupo 1148505" clip-path="url(#clip-path-15)">
                  <path id="Trazado_983112" data-name="Trazado 983112" d="M77.281,219.091l1.543,2.066s12.354-1.549,22.327,17.311c3.079-1.066,6.07-1.348,8.1-5.695a17.109,17.109,0,0,0-2.616-8.867c-2.75-4.239-20.661-39.377-20.661-39.377s-3.827-3.468-6.221-5.238c-12.1-6.238-24.85-8.847-28.451-11.543l-1.1-1.65,1.515-6.6s-2.736-.913-6.64-1.932l-2.019,8.612a6.036,6.036,0,0,0,3.7,7.01L75.9,184.433a8.049,8.049,0,0,1,4.315,3.938l15.967,32.255c-.282-.289-6.633-6.748-18.9-1.536" transform="translate(-42.901 -157.566)" fill="#fff"/>
                </g>
              </g>
            </g>
            <path id="Trazado_983113" data-name="Trazado 983113" d="M328.834,192.253l-7.687-10.875s-5.437-3.656-7.406-4.593-2.25-2.813-3.188-2.156-.094,4.5,1.875,5.718,4.219,2.438,3.937,3.281-11.718-.187-11.718-.187-14.59-.2-14.794.932,9.076,2.818,9.076,2.818-9.984-.114-10.007.459,5.7,2.541,5.7,2.541-4.044.21-3.85,1.089,4.318,2,4.318,2,8.437,5.156,10.312,6,14.718-.75,14.718-.75l2.2,2.836s3.71-5.273,7.647-7.523Z" transform="translate(-252.318 -68.468)" fill="#fff"/>
            <path id="Trazado_983114" data-name="Trazado 983114" d="M244.907,250.918a89.19,89.19,0,0,1-.783-12.121" transform="translate(-140.046 -93.7)" fill="none" stroke="#263238" stroke-linecap="round" stroke-linejoin="round" stroke-width="0.953"/>
            <path id="Trazado_983115" data-name="Trazado 983115" d="M251.9,153.091q-.94-.035-1.9-.046l-.617,3.921a2.683,2.683,0,0,1-2.633,2.265l-19.775,1.345c-1.453.01-6.966,7.538-7.891,10.38l-9.967,34.1-24.954-19.812s-4.888.662-9.074,7.713c0,0,16.066,21.386,30.649,32.8,2.13,1.667,6.907,2.04,8.811.12a95.66,95.66,0,0,0,8.35-9.092" transform="translate(-105.096 -60.052)" fill="none" stroke="#263238" stroke-linecap="round" stroke-linejoin="round" stroke-width="0.953"/>
            <path id="Trazado_983116" data-name="Trazado 983116" d="M118.574,239.523l-5-3.226" transform="translate(65.612 -92.719)" fill="none" stroke="#263238" stroke-linecap="round" stroke-linejoin="round" stroke-width="0.953"/>
            <path id="Trazado_983117" data-name="Trazado 983117" d="M120.72,243.034a11.635,11.635,0,0,0-4.105-.546" transform="translate(61.618 -95.144)" fill="none" stroke="#263238" stroke-linecap="round" stroke-linejoin="round" stroke-width="0.953"/>
            <path id="Trazado_983118" data-name="Trazado 983118" d="M110.822,242.807a148.392,148.392,0,0,0-8.432,13.158,4.682,4.682,0,0,0-.486,3.343l12.139,53.7" transform="translate(77.305 -95.274)" fill="none" stroke="#263238" stroke-linecap="round" stroke-linejoin="round" stroke-width="0.953"/>
            <path id="Trazado_983119" data-name="Trazado 983119" d="M221.658,189.754,217.468,230.2c-.277,9.079-.953,14.824-1.351,26.2" transform="translate(-99.779 -74.456)" fill="none" stroke="#263238" stroke-linecap="round" stroke-linejoin="round" stroke-width="0.953"/>
            <path id="Trazado_983120" data-name="Trazado 983120" d="M154.027,169.418,148.4,205.475l-7.533-2.517a44.939,44.939,0,0,0-16.107-2.278l-7.692.32,9.272-38.366h-3.517L103.012,220.6l-1.224,25.707s36.854-8.086,57.5,2.821l-1.62,15.81s-.981,4.327-2.02,16.922l16.407-.3,4.738-.016L164.824,229.01s-10.354.764-10.034-7.549,3.154-50.084,3.154-50.084Z" transform="translate(14.555 -63.815)" fill="#263238"/>
            <path id="Trazado_983121" data-name="Trazado 983121" d="M158.3,172.13a1.714,1.714,0,1,0,1.714-1.714,1.714,1.714,0,0,0-1.714,1.714" transform="translate(-4.716 -66.868)" fill="#263238"/>
            <path id="Trazado_983122" data-name="Trazado 983122" d="M161.522,185.83a1.714,1.714,0,1,0,1.714-1.713,1.714,1.714,0,0,0-1.714,1.713" transform="translate(-9.898 -72.245)" fill="#263238"/>
            <path id="Trazado_983123" data-name="Trazado 983123" d="M200.646,260.684q-9.292-1.565-18.679-2.463" transform="translate(-58.017 -101.322)" fill="none" stroke="#fff" stroke-linecap="round" stroke-linejoin="round" stroke-width="0.953"/>
            <path id="Trazado_983124" data-name="Trazado 983124" d="M172.01,264.648q-3.818-.807-7.659-1.5" transform="translate(-18.677 -103.255)" fill="none" stroke="#fff" stroke-linecap="round" stroke-linejoin="round" stroke-width="0.953"/>
            <path id="Trazado_983125" data-name="Trazado 983125" d="M187.658,261.874q7.555,3.048,15.235,5.77" transform="translate(-63.722 -102.755)" fill="none" stroke="#fff" stroke-linecap="round" stroke-linejoin="round" stroke-width="0.953"/>
            <path id="Trazado_983126" data-name="Trazado 983126" d="M213.053,191.081a70.678,70.678,0,0,1-2.267,9.726" transform="translate(-87.935 -74.977)" fill="none" stroke="#263238" stroke-linecap="round" stroke-linejoin="round" stroke-width="0.953"/>
            <path id="Trazado_983127" data-name="Trazado 983127" d="M303.562,188.177s-14.611-2.407-14.687-3.714,10.5-.632,13-.823,12.955,1.122,13.3.468-.5-.808-2.8-2.731-4-5.308-3.38-6.384,2.674,1.311,4.236,2.186c1.273.713,6.063,3.432,6.947,4.625s6.647,9.163,8.836,12.2" transform="translate(-251.339 -68.557)" fill="none" stroke="#263238" stroke-linecap="round" stroke-linejoin="round" stroke-width="0.953"/>
            <path id="Trazado_983128" data-name="Trazado 983128" d="M346.579,196.162s-15.357-1.413-15.3-.294c.1,1.863,10.4,3.334,14.611,3.628" transform="translate(-294.675 -76.686)" fill="none" stroke="#263238" stroke-linecap="round" stroke-linejoin="round" stroke-width="0.953"/>
            <path id="Trazado_983129" data-name="Trazado 983129" d="M341.541,201.736s-13.056-1.826-12.864-.1,15.037,4.536,15.037,4.536" transform="translate(-290.226 -78.828)" fill="none" stroke="#263238" stroke-linecap="round" stroke-linejoin="round" stroke-width="0.953"/>
            <path id="Trazado_983130" data-name="Trazado 983130" d="M327.728,214.506c-1.467-2.1-2.441-3.548-2.441-3.548s-12.573,1.377-14.38,1.03-10.29-5.785-10.29-5.785" transform="translate(-257.192 -80.91)" fill="none" stroke="#263238" stroke-linecap="round" stroke-linejoin="round" stroke-width="0.953"/>
            <path id="Trazado_983131" data-name="Trazado 983131" d="M316.13,196.747a7.993,7.993,0,0,0-6.375,4.787" transform="translate(-251.147 -77.2)" fill="none" stroke="#263238" stroke-linecap="round" stroke-linejoin="round" stroke-width="0.953"/>
            <path id="Trazado_983132" data-name="Trazado 983132" d="M250.378,240.82c-1.416,2.169-1.572,4.9-1.685,7.485" transform="translate(-148.292 -94.494)" fill="none" stroke="#263238" stroke-linecap="round" stroke-linejoin="round" stroke-width="0.953"/>
            <path id="Trazado_983133" data-name="Trazado 983133" d="M194.362,301.94l-4.5,38.433a7.1,7.1,0,0,1-3.184,6.092c-3.395,2.045-18.283,5.334-26.593,4.815s-18.87-1.039-22.679-3.982-2.943-10.907-2.943-10.907l-2.77-24.064s-2.522-9.19.52-11.945c5.54-5.021,52.344-8.826,62.151,1.558" transform="translate(-20.589 -115.892)" fill="#fff"/>
            <path id="Trazado_983134" data-name="Trazado 983134" d="M193.847,303.728a17.468,17.468,0,0,1-6.2,3.465c-3.647,1.094-48.512-.2-54.071-1.283s-3.553-5.647-.453-6.923,31.883-5.466,44.594-2.577c11.3,2.568,18.318,2.759,16.13,7.318" transform="translate(-20.087 -115.916)" fill="#c6ff00"/>
            <g id="Grupo_1148510" data-name="Grupo 1148510" transform="translate(109.99 179.574)" opacity="0.6">
              <g id="Grupo_1148509" data-name="Grupo 1148509">
                <g id="Grupo_1148508" data-name="Grupo 1148508" clip-path="url(#clip-path-16)">
                  <path id="Trazado_983135" data-name="Trazado 983135" d="M193.9,303.777a17.467,17.467,0,0,1-6.2,3.465c-3.647,1.094-48.512-.2-54.071-1.283s-3.553-5.647-.453-6.923,28.489-4.961,43.8-2.866c11.306,2.553,19.112,3.048,16.924,7.607" transform="translate(-130.127 -295.539)" fill="#fff"/>
                </g>
              </g>
            </g>
            <path id="Trazado_983136" data-name="Trazado 983136" d="M130.007,302.649c0,1.187,1.294,2.307,3.589,3.287,5.352,2.307,16.137,3.877,28.565,3.877,11.864,0,22.227-1.428,27.794-3.561,2.763-1.06,4.353-2.287,4.353-3.6,0-3.964-14.393-7.17-32.147-7.17S130.007,298.685,130.007,302.649Z" transform="translate(-20.106 -115.941)" fill="none" stroke="#263238" stroke-linecap="round" stroke-linejoin="round" stroke-width="0.953"/>
            <path id="Trazado_983137" data-name="Trazado 983137" d="M137.17,310c5.352,2.307,16.137,3.877,28.565,3.877,11.865,0,22.227-1.428,27.794-3.561-4.159-2.6-15.326-4.474-28.445-4.474-12.6,0-23.387,1.724-27.914,4.159" transform="translate(-23.681 -120.008)" fill="#263238"/>
            <path id="Trazado_983138" data-name="Trazado 983138" d="M194.307,307.279l-5.024,39.659a5.352,5.352,0,0,1-3.092,4.205c-6.325,2.857-23.314,8.585-47.553,1.871a5.333,5.333,0,0,1-3.85-4.541l-1.536-13.213-.154-1.348-1.241-10.671-.275-2.361-1.576-13.6" transform="translate(-20.106 -120.571)" fill="none" stroke="#263238" stroke-linecap="round" stroke-linejoin="round" stroke-width="0.953"/>
            <path id="Trazado_983139" data-name="Trazado 983139" d="M154.814,379.874a8.435,8.435,0,0,0,1.48-7.506s3.7,1.851,3.811,5.117c0,0,5.444-1.524,4.79-9.472a11.025,11.025,0,0,1,.326,10.235c-2.721,5.334-10.407,1.627-10.407,1.627" transform="translate(-7.224 -144.402)" fill="#263238"/>
            <path id="Trazado_983140" data-name="Trazado 983140" d="M206.731,381.118a18.192,18.192,0,0,1-5-9.995,14.251,14.251,0,0,0,.128,8.2,8.054,8.054,0,0,1-4.613-5.766s-.769,4.869,1.538,7.56,7.944,0,7.944,0" transform="translate(-73.312 -145.623)" fill="#263238"/>
            <path id="Trazado_983141" data-name="Trazado 983141" d="M230.861,330.862c1.442,5.05,6.62,10.557,12.522,10.718l-.154-1.348c-5.057-.261-9.779-5.184-11.074-9.738-.315-1.106-.845-3.816,1.06-5.044a4.019,4.019,0,0,1,3.233-.61c2.884.7,5.024,4.352,5.044,4.393a.67.67,0,0,0,.5.329l-.275-2.361a9.738,9.738,0,0,0-4.943-3.662,5.355,5.355,0,0,0-4.279.785c-1.878,1.2-2.468,3.588-1.63,6.539" transform="translate(-130.236 -126.891)" fill="#263238"/>
            <path id="Trazado_983142" data-name="Trazado 983142" d="M189.614,310.6c-3.292,1.865-7.35,1.968-11.034,1.1a10.481,10.481,0,0,1-3.631-1.472" transform="translate(-42.721 -121.728)" fill="none" stroke="#fff" stroke-linecap="round" stroke-linejoin="round" stroke-width="0.953"/>
            <path id="Trazado_983143" data-name="Trazado 983143" d="M201,311.241a9.354,9.354,0,0,0,3.659,2.271" transform="translate(-73.591 -122.126)" fill="none" stroke="#fff" stroke-linecap="round" stroke-linejoin="round" stroke-width="0.953"/>
            <path id="Trazado_983144" data-name="Trazado 983144" d="M118.227,345.474c12.041,1.424,13.235-12.471,10-14.672s-9.609,5.323-9.609,5.323" transform="translate(51.59 -129.643)" fill="none" stroke="#fff" stroke-linecap="round" stroke-linejoin="round" stroke-width="1.907"/>
            <path id="Trazado_983145" data-name="Trazado 983145" d="M146.2,281.915l23.9-43.433s2.616-1.57,2.442,1.57-22.183,42.138-22.183,42.138Z" transform="translate(-8.184 -93.422)" fill="#fff"/>
            <path id="Trazado_983146" data-name="Trazado 983146" d="M146.2,281.915l23.9-43.433s2.616-1.57,2.442,1.57-22.183,42.138-22.183,42.138Z" transform="translate(-8.184 -93.422)" fill="none" stroke="#263238" stroke-linecap="round" stroke-linejoin="round" stroke-width="0.953"/>
            <path id="Trazado_983147" data-name="Trazado 983147" d="M198.874,324.3c-7.228.443-16.376.271-24.25-2.152" transform="translate(-51.783 -126.407)" fill="none" stroke="#263238" stroke-linecap="round" stroke-linejoin="round" stroke-width="0.953"/>
            <path id="Trazado_983148" data-name="Trazado 983148" d="M159.934,323.158s-2.43.493-6.261.953" transform="translate(-0.113 -126.802)" fill="none" stroke="#263238" stroke-linecap="round" stroke-linejoin="round" stroke-width="0.953"/>
            <path id="Trazado_983149" data-name="Trazado 983149" d="M94.417,231.436a137.712,137.712,0,0,1,13.3,17.68" transform="translate(88.107 -90.812)" fill="none" stroke="#263238" stroke-linecap="round" stroke-linejoin="round" stroke-width="0.953"/>
            <path id="Trazado_983150" data-name="Trazado 983150" d="M75.159,259.871a16.553,16.553,0,0,1,8.944.417" transform="translate(123.425 -101.802)" fill="none" stroke="#263238" stroke-linecap="round" stroke-linejoin="round" stroke-width="0.953"/>
            <path id="Trazado_983151" data-name="Trazado 983151" d="M103.271,200.351s-10.963,6.265-14.99,15.885" transform="translate(96.283 -78.614)" fill="none" stroke="#263238" stroke-linecap="round" stroke-linejoin="round" stroke-width="0.953"/>
            <path id="Trazado_983152" data-name="Trazado 983152" d="M147.614,260.812c-.206,7.848-5.1,15.875-5.1,15.875l-17.979-2.745,1.193-3.484a18.025,18.025,0,0,1-2.7.4c-5.294,1.234-13.994.99-13.994.99a13.568,13.568,0,0,1-3.193-3.88c-1.462-2.59-.083-3.3-.083-3.3-2.121-2.97-.493-5.116-.493-5.116-3.136-1.789-1.8-2.77-1.8-2.77,2.019-3.151,13.92-1.791,13.92-1.791l10.448,8.8,7.079-1.237Z" transform="translate(42.887 -99.94)" fill="#fff"/>
            <path id="Trazado_983153" data-name="Trazado 983153" d="M159.521,264.036l-1.569-.513-9.846-8.4s-12.856-.681-13.776,1.628,1.759,3.377,4.067,4.3" transform="translate(12.167 -100.068)" fill="none" stroke="#263238" stroke-linecap="round" stroke-linejoin="round" stroke-width="0.953"/>
            <path id="Trazado_983154" data-name="Trazado 983154" d="M171.36,263.584s-3.177,1.39,1.184,5.259" transform="translate(-22.791 -103.426)" fill="none" stroke="#263238" stroke-linecap="round" stroke-linejoin="round" stroke-width="0.953"/>
            <path id="Trazado_983155" data-name="Trazado 983155" d="M168.357,271.194c-1.4-.789-2.316,2.773,2.587,4.482" transform="translate(-19.368 -106.368)" fill="none" stroke="#263238" stroke-linecap="round" stroke-linejoin="round" stroke-width="0.953"/>
            <path id="Trazado_983156" data-name="Trazado 983156" d="M139.581,276.911l3.593,3.86a44.675,44.675,0,0,0,15.362-1.639l.8.232" transform="translate(9.05 -108.655)" fill="none" stroke="#263238" stroke-linecap="round" stroke-linejoin="round" stroke-width="0.953"/>
            <path id="Trazado_983157" data-name="Trazado 983157" d="M106.034,225.244A18.516,18.516,0,0,0,92.7,219.413a10.236,10.236,0,0,0-3.057.509c-3.516,1.095-17.973,2.74-22.386,4.287l-3.83,9.665c15.136,3.83,35.314,4.14,47.443,3.577a22.548,22.548,0,0,0,8.7-2.506,6.693,6.693,0,0,0,2.855-9.07l-21.77-41.907c-.6-1.137-4.84-5.148-6.034-5.622l-11.1-5.355a38.906,38.906,0,0,0-3.639-1.516l-12.269-4.117c-.933-.371-3.62-2.524-3.38-3.5l1.514-6.175a71.507,71.507,0,0,0-22.919-4.563" transform="translate(103.977 -60.082)" fill="none" stroke="#263238" stroke-linecap="round" stroke-linejoin="round" stroke-width="0.953"/>
          </g>
        </g>
        <rect id="Rectángulo_406271" data-name="Rectángulo 406271" width="13.133" height="7.921" transform="translate(230.097 89.038)" fill="none" stroke="#263238" stroke-linecap="round" stroke-linejoin="round" stroke-width="0.953"/>
        <rect id="Rectángulo_406272" data-name="Rectángulo 406272" width="13.133" height="7.921" transform="translate(224.26 99.252)" fill="none" stroke="#263238" stroke-linecap="round" stroke-linejoin="round" stroke-width="0.953"/>
        <rect id="Rectángulo_406273" data-name="Rectángulo 406273" width="13.133" height="7.921" transform="translate(15.737 86.466)" fill="none" stroke="#263238" stroke-linecap="round" stroke-linejoin="round" stroke-width="0.953"/>
        <rect id="Rectángulo_406274" data-name="Rectángulo 406274" width="13.133" height="7.921" transform="translate(23.922 96.68)" fill="none" stroke="#263238" stroke-linecap="round" stroke-linejoin="round" stroke-width="0.953"/>
        <rect id="Rectángulo_406275" data-name="Rectángulo 406275" width="10.972" height="2.955" transform="translate(208.843 197.044)" fill="none" stroke="#263238" stroke-linecap="round" stroke-linejoin="round" stroke-width="0.953"/>
        <rect id="Rectángulo_406276" data-name="Rectángulo 406276" width="12.306" height="7.921" transform="translate(202.616 187.485)" fill="none" stroke="#263238" stroke-linecap="round" stroke-linejoin="round" stroke-width="0.953"/>
        <path id="Trazado_983158" data-name="Trazado 983158" d="M325.491,43.043V9.751H241.979V68.632h12.443" transform="translate(-219.326 -3.826)" fill="none" stroke="#263238" stroke-linecap="round" stroke-linejoin="round" stroke-width="0.953"/>
        <line id="Línea_567" data-name="Línea 567" y1="5.002" transform="translate(106.165 46.366)" fill="none" stroke="#263238" stroke-linecap="round" stroke-linejoin="round" stroke-width="0.953"/>
        <path id="Trazado_983159" data-name="Trazado 983159" d="M241.979,100.1h11.2V89.941" transform="translate(-147.012 -35.291)" fill="none" stroke="#263238" stroke-linecap="round" stroke-linejoin="round" stroke-width="0.953"/>
        <g id="Grupo_1148514" data-name="Grupo 1148514">
          <g id="Grupo_1148513" data-name="Grupo 1148513" clip-path="url(#clip-path)">
            <path id="Trazado_983160" data-name="Trazado 983160" d="M275.287,18.791a1.167,1.167,0,1,0,1.167-1.167A1.167,1.167,0,0,0,275.287,18.791Z" transform="translate(-191.694 -6.915)" fill="none" stroke="#263238" stroke-linecap="round" stroke-linejoin="round" stroke-width="0.953"/>
            <path id="Trazado_983161" data-name="Trazado 983161" d="M308.809,18.94a1.167,1.167,0,1,0,1.167-1.167A1.167,1.167,0,0,0,308.809,18.94Z" transform="translate(-245.584 -6.974)" fill="none" stroke="#263238" stroke-linecap="round" stroke-linejoin="round" stroke-width="0.953"/>
            <path id="Trazado_983162" data-name="Trazado 983162" d="M342.672,18.791a1.167,1.167,0,1,0,1.167-1.167A1.167,1.167,0,0,0,342.672,18.791Z" transform="translate(-300.023 -6.915)" fill="none" stroke="#263238" stroke-linecap="round" stroke-linejoin="round" stroke-width="0.953"/>
            <path id="Trazado_983163" data-name="Trazado 983163" d="M270.783,67.916a1.773,1.773,0,0,0,1.8-1.8l-.562-34.836c-.058-1.262.371-2.368,1.634-2.368h.866c1.243,0,2.253.57,2.224,1.813l-.8,35.412a1.773,1.773,0,0,0,1.772,1.813h.122a1.772,1.772,0,0,1,1.772,1.748l.226,16.134a3.1,3.1,0,0,1-3.14,3.145l-5.74-.07a3.1,3.1,0,0,1-3.062-3.194l.476-16.085a1.772,1.772,0,0,1,1.8-1.72Z" transform="translate(-189.413 -11.344)" fill="none" stroke="#263238" stroke-linecap="round" stroke-linejoin="round" stroke-width="0.953"/>
            <path id="Trazado_983164" data-name="Trazado 983164" d="M277.426,32.42a1.031,1.031,0,1,0-1.031,1.031A1.031,1.031,0,0,0,277.426,32.42Z" transform="translate(-191.546 -12.317)" fill="none" stroke="#263238" stroke-linecap="round" stroke-linejoin="round" stroke-width="0.953"/>
            <line id="Línea_568" data-name="Línea 568" y1="8.986" transform="translate(88.55 64.118)" fill="none" stroke="#263238" stroke-linecap="round" stroke-linejoin="round" stroke-width="0.953"/>
            <line id="Línea_569" data-name="Línea 569" y1="8.986" transform="translate(86.834 64.118)" fill="none" stroke="#263238" stroke-linecap="round" stroke-linejoin="round" stroke-width="0.953"/>
            <line id="Línea_570" data-name="Línea 570" y1="8.832" x2="0.024" transform="translate(84.865 64.126)" fill="none" stroke="#263238" stroke-linecap="round" stroke-linejoin="round" stroke-width="0.953"/>
            <line id="Línea_571" data-name="Línea 571" y1="8.986" transform="translate(82.766 64.088)" fill="none" stroke="#263238" stroke-linecap="round" stroke-linejoin="round" stroke-width="0.953"/>
            <line id="Línea_572" data-name="Línea 572" y1="8.986" transform="translate(80.548 64.067)" fill="none" stroke="#263238" stroke-linecap="round" stroke-linejoin="round" stroke-width="0.953"/>
            <path id="Trazado_983165" data-name="Trazado 983165" d="M345.038,33.327a1.031,1.031,0,1,0-1.031,1.031A1.031,1.031,0,0,0,345.038,33.327Z" transform="translate(-300.241 -12.672)" fill="none" stroke="#263238" stroke-linecap="round" stroke-linejoin="round" stroke-width="0.953"/>
            <path id="Trazado_983166" data-name="Trazado 983166" d="M340.105,70.34l-2.167-38.6a2.216,2.216,0,0,1,2.212-2.34h.4a2.216,2.216,0,0,1,2.215,2.263l-.485,22.956q-.167,7.918-.339,15.838a1.341,1.341,0,0,0,.623,1.153,7.845,7.845,0,0,1,3.039,4.241,15.723,15.723,0,0,1,.431,7.167c-.442,2.564-2.223,5.365-5.008,5.745-2.736.372-4.7-2.04-5.413-4.419a15.411,15.411,0,0,1-.409-7.776,8.767,8.767,0,0,1,1.617-3.231,6.678,6.678,0,0,1,2.466-1.693A1.323,1.323,0,0,0,340.105,70.34Z" transform="translate(-296.545 -11.535)" fill="none" stroke="#263238" stroke-linecap="round" stroke-linejoin="round" stroke-width="0.953"/>
            <line id="Línea_573" data-name="Línea 573" y1="5.156" transform="translate(47.891 65.738)" fill="none" stroke="#263238" stroke-linecap="round" stroke-linejoin="round" stroke-width="0.953"/>
            <line id="Línea_574" data-name="Línea 574" y1="5.156" transform="translate(40.526 65.738)" fill="none" stroke="#263238" stroke-linecap="round" stroke-linejoin="round" stroke-width="0.953"/>
            <line id="Línea_575" data-name="Línea 575" y1="7.66" transform="translate(45.698 64.427)" fill="none" stroke="#263238" stroke-linecap="round" stroke-linejoin="round" stroke-width="0.953"/>
            <line id="Línea_576" data-name="Línea 576" y1="7.66" transform="translate(42.209 64.427)" fill="none" stroke="#263238" stroke-linecap="round" stroke-linejoin="round" stroke-width="0.953"/>
            <line id="Línea_577" data-name="Línea 577" y1="11.343" transform="translate(43.992 63.243)" fill="none" stroke="#263238" stroke-linecap="round" stroke-linejoin="round" stroke-width="0.953"/>
            <path id="Trazado_983167" data-name="Trazado 983167" d="M311.028,33.069A1.031,1.031,0,1,0,310,34.1,1.031,1.031,0,0,0,311.028,33.069Z" transform="translate(-245.566 -12.571)" fill="none" stroke="#263238" stroke-linecap="round" stroke-linejoin="round" stroke-width="0.953"/>
            <path id="Trazado_983168" data-name="Trazado 983168" d="M305.109,65.756l-1.617-34.768a2.215,2.215,0,0,1,2.213-2.319h1.528A2.216,2.216,0,0,1,309.445,31l-1.892,35.008a1.322,1.322,0,0,0,.616,1.195c1.837,1.151,6.879,4.9,7,11.4.147,7.955-8.839,11.49-14,8.544-5.043-2.882-8.677-14.785,3.163-20.129A1.323,1.323,0,0,0,305.109,65.756Z" transform="translate(-242.087 -11.249)" fill="none" stroke="#263238" stroke-linecap="round" stroke-linejoin="round" stroke-width="0.953"/>
            <path id="Trazado_983169" data-name="Trazado 983169" d="M312.416,119.939a.561.561,0,1,0-.561.561A.562.562,0,0,0,312.416,119.939Z" transform="translate(-248.367 -46.842)" fill="none" stroke="#263238" stroke-linecap="round" stroke-linejoin="round" stroke-width="0.953"/>
            <path id="Trazado_983170" data-name="Trazado 983170" d="M306.526,117.63a.561.561,0,1,0-.561.561A.562.562,0,0,0,306.526,117.63Z" transform="translate(-238.898 -45.936)" fill="none" stroke="#263238" stroke-linecap="round" stroke-linejoin="round" stroke-width="0.953"/>
            <path id="Trazado_983171" data-name="Trazado 983171" d="M318.421,117.63a.561.561,0,1,0-.561.561A.562.562,0,0,0,318.421,117.63Z" transform="translate(-258.021 -45.936)" fill="none" stroke="#263238" stroke-linecap="round" stroke-linejoin="round" stroke-width="0.953"/>
            <path id="Trazado_983172" data-name="Trazado 983172" d="M312.416,113.934a.561.561,0,1,0-.561.561A.562.562,0,0,0,312.416,113.934Z" transform="translate(-248.367 -44.486)" fill="none" stroke="#263238" stroke-linecap="round" stroke-linejoin="round" stroke-width="0.953"/>
            <path id="Trazado_983173" data-name="Trazado 983173" d="M306.526,111.625a.561.561,0,1,0-.561.561A.562.562,0,0,0,306.526,111.625Z" transform="translate(-238.898 -43.58)" fill="none" stroke="#263238" stroke-linecap="round" stroke-linejoin="round" stroke-width="0.953"/>
            <path id="Trazado_983174" data-name="Trazado 983174" d="M318.421,111.625a.561.561,0,1,0-.561.561A.562.562,0,0,0,318.421,111.625Z" transform="translate(-258.021 -43.58)" fill="none" stroke="#263238" stroke-linecap="round" stroke-linejoin="round" stroke-width="0.953"/>
            <path id="Trazado_983175" data-name="Trazado 983175" d="M312.416,107.929a.561.561,0,1,0-.561.561A.562.562,0,0,0,312.416,107.929Z" transform="translate(-248.367 -42.129)" fill="none" stroke="#263238" stroke-linecap="round" stroke-linejoin="round" stroke-width="0.953"/>
            <path id="Trazado_983176" data-name="Trazado 983176" d="M306.526,105.62a.561.561,0,1,0-.561.561A.562.562,0,0,0,306.526,105.62Z" transform="translate(-238.898 -41.223)" fill="none" stroke="#263238" stroke-linecap="round" stroke-linejoin="round" stroke-width="0.953"/>
            <path id="Trazado_983177" data-name="Trazado 983177" d="M318.421,105.62a.561.561,0,1,0-.561.561A.562.562,0,0,0,318.421,105.62Z" transform="translate(-258.021 -41.223)" fill="none" stroke="#263238" stroke-linecap="round" stroke-linejoin="round" stroke-width="0.953"/>
            <path id="Trazado_983178" data-name="Trazado 983178" d="M312.416,97.767a.561.561,0,1,1-.561-.561A.562.562,0,0,1,312.416,97.767Z" transform="translate(-248.367 -38.142)" fill="none" stroke="#263238" stroke-linecap="round" stroke-linejoin="round" stroke-width="0.953"/>
            <path id="Trazado_983179" data-name="Trazado 983179" d="M306.526,100.077a.561.561,0,1,1-.561-.561A.562.562,0,0,1,306.526,100.077Z" transform="translate(-238.898 -39.048)" fill="none" stroke="#263238" stroke-linecap="round" stroke-linejoin="round" stroke-width="0.953"/>
            <path id="Trazado_983180" data-name="Trazado 983180" d="M318.421,100.077a.561.561,0,1,1-.561-.561A.562.562,0,0,1,318.421,100.077Z" transform="translate(-258.021 -39.048)" fill="none" stroke="#263238" stroke-linecap="round" stroke-linejoin="round" stroke-width="0.953"/>
          </g>
        </g>
      </g>
    </g>
  </g>
</svg>
